<svg width="28" height="28" viewBox="0 0 28 28" fill="none" xmlns="http://www.w3.org/2000/svg">
<path d="M15.1669 3.49992C15.1669 2.85559 14.6446 2.33325 14.0002 2.33325C13.3559 2.33325 12.8336 2.85559 12.8336 3.49992V5.24992C12.8336 5.28227 12.8349 5.31432 12.8375 5.34601C9.52488 5.89962 7.00023 8.77878 7.00023 12.2486V16.9166C7.00023 17.5001 6.52177 18.5121 5.99817 19.4448C5.26139 20.7573 5.39633 22.3397 6.80295 22.8753C8.21768 23.414 10.4807 23.9166 14.0002 23.9166C17.5198 23.9166 19.7828 23.414 21.1975 22.8753C22.6041 22.3397 22.7391 20.7573 22.0023 19.4448C21.4787 18.5121 21.0002 17.5001 21.0002 16.9166V12.2492C21.0002 8.77934 18.4756 5.89972 15.163 5.34603C15.1656 5.31433 15.1669 5.28228 15.1669 5.24992V3.49992Z" fill="#1D1C1D"/>
<path d="M10.407 24.8786C10.4506 24.9166 10.5032 24.9609 10.5644 25.0099C10.7397 25.1502 10.9903 25.332 11.3068 25.5129C11.9352 25.872 12.8642 26.25 14.0003 26.25C15.1363 26.25 16.0653 25.872 16.6937 25.5129C17.0103 25.332 17.2608 25.1502 17.4361 25.0099C17.4973 24.9609 17.5499 24.9166 17.5935 24.8786C16.5734 25.0056 15.3839 25.0833 14.0003 25.0833C12.6166 25.0833 11.4271 25.0056 10.407 24.8786Z" fill="#1D1C1D"/>
</svg>
