<svg xmlns="http://www.w3.org/2000/svg" width="20" height="21" viewBox="0 0 20 21" fill="none">
  <path d="M7.50033 2.18726C5.31699 2.18726 3.54199 3.96226 3.54199 6.14559C3.54199 8.28726 5.21699 10.0206 7.40033 10.0956C7.46699 10.0873 7.53366 10.0873 7.58366 10.0956C7.60033 10.0956 7.60866 10.0956 7.62533 10.0956C7.63366 10.0956 7.63366 10.0956 7.64199 10.0956C9.77533 10.0206 11.4503 8.28726 11.4587 6.14559C11.4587 3.96226 9.68366 2.18726 7.50033 2.18726Z" fill="white"/>
  <path d="M11.7328 12.3122C9.40781 10.7622 5.61615 10.7622 3.27448 12.3122C2.21615 13.0205 1.63281 13.9788 1.63281 15.0038C1.63281 16.0288 2.21615 16.9788 3.26615 17.6788C4.43281 18.4622 5.96615 18.8538 7.49948 18.8538C9.03281 18.8538 10.5661 18.4622 11.7328 17.6788C12.7828 16.9705 13.3661 16.0205 13.3661 14.9872C13.3578 13.9622 12.7828 13.0122 11.7328 12.3122Z" fill="white"/>
  <path d="M16.6588 6.63734C16.7921 8.25401 15.6421 9.67067 14.0505 9.86234C14.0421 9.86234 14.0421 9.86234 14.0338 9.86234H14.0088C13.9588 9.86234 13.9088 9.86234 13.8671 9.879C13.0588 9.92067 12.3171 9.66234 11.7588 9.18734C12.6171 8.42067 13.1088 7.27067 13.0088 6.02067C12.9505 5.34567 12.7171 4.72901 12.3671 4.20401C12.6838 4.04567 13.0505 3.94567 13.4255 3.91234C15.0588 3.77067 16.5171 4.98734 16.6588 6.63734Z" fill="white"/>
  <path d="M18.3249 14.3454C18.2582 15.1538 17.7415 15.8538 16.8749 16.3288C16.0415 16.7871 14.9915 17.0038 13.9499 16.9788C14.5499 16.4371 14.8999 15.7621 14.9665 15.0454C15.0499 14.0121 14.5582 13.0204 13.5749 12.2288C13.0165 11.7871 12.3665 11.4371 11.6582 11.1788C13.4999 10.6454 15.8165 11.0038 17.2415 12.1538C18.0082 12.7704 18.3999 13.5454 18.3249 14.3454Z" fill="white"/>
</svg>