<svg xmlns="http://www.w3.org/2000/svg" width="29" height="29" viewBox="0 0 29 29" fill="none">
  <g clip-path="url(#clip0_274_35687)">
    <path d="M28.0748 17.2604C27.5279 16.2586 26.2668 15.8872 25.2639 16.4319L23.9197 17.1636C23.8978 17.1155 23.8748 17.0674 23.8491 17.0209C23.3039 16.0168 22.0428 15.6439 21.0376 16.1902L18.7304 17.4475C18.0746 17.2364 17.4184 17.0253 16.7627 16.8142C15.8254 16.5123 14.8875 16.2104 13.9507 15.9091C12.3292 15.3863 10.7482 15.5345 9.25137 16.3488L5.24113 18.5319L4.79434 17.7548C4.55481 17.3425 4.02543 17.2008 3.61527 17.4387L1.49012 18.661C1.07777 18.9 0.936134 19.4288 1.17402 19.84L5.94934 28.1334C6.10903 28.409 6.40051 28.5638 6.69965 28.5638C6.84567 28.5638 6.99332 28.5271 7.1284 28.4495L9.25356 27.2256C9.6659 26.9861 9.80754 26.4567 9.56965 26.0465L9.14035 25.3017L9.3684 25.1775C10.2636 24.6903 11.2097 24.6022 12.1804 24.915L14.2361 25.5773C14.7064 25.7282 15.1724 25.8037 15.6318 25.8037C16.3509 25.8037 17.0542 25.6183 17.7334 25.2492L27.2436 20.073C27.7286 19.8094 28.0825 19.3714 28.2394 18.8393C28.3975 18.3066 28.3389 17.7466 28.0748 17.2604ZM21.4554 16.958C22.0362 16.6425 22.7657 16.8579 23.0813 17.4393C23.107 17.4863 23.1278 17.535 23.1469 17.5842L20.8287 18.8464C20.6313 18.4083 20.2857 18.0468 19.8514 17.8319L21.4554 16.958ZM6.70129 27.6866L1.93746 19.4124L4.04293 18.2011L4.6877 19.32C4.68934 19.3227 4.69043 19.3254 4.69153 19.3282C4.6959 19.3358 4.70027 19.3429 4.70465 19.35L8.80731 26.4736L6.70129 27.6866ZM27.4016 18.591C27.3103 18.8989 27.1063 19.1526 26.8263 19.3046L17.3161 24.4808C16.4214 24.9675 15.4754 25.0567 14.5041 24.745L12.4489 24.0832C11.2414 23.6939 10.0651 23.8038 8.95113 24.4097L8.70449 24.5437L5.67863 19.2893L9.67028 17.1166C10.9483 16.421 12.2986 16.2946 13.6832 16.7409C14.62 17.0422 15.5579 17.3441 16.4953 17.646C17.2155 17.8779 17.9357 18.1097 18.6554 18.3416C18.6576 18.3421 18.6593 18.3432 18.6614 18.3438C18.8764 18.4127 19.0913 18.4821 19.3062 18.5516C19.7459 18.6943 20.0686 19.0848 20.1282 19.5469C20.1304 19.5617 20.1331 19.5764 20.1364 19.5907C20.1353 19.6071 20.1347 19.624 20.1358 19.641C20.1429 19.7821 20.1238 19.9237 20.0806 20.0604C19.8777 20.6888 19.2012 21.035 18.5718 20.8326C17.3757 20.4482 16.1797 20.0626 14.9832 19.6765L13.7986 19.2948C13.5689 19.221 13.3223 19.3473 13.2485 19.577C13.1747 19.8067 13.3004 20.0533 13.5307 20.1271L14.7152 20.5089C15.9118 20.8944 17.1083 21.2805 18.3043 21.665C18.5149 21.7328 18.7282 21.765 18.9387 21.765C19.8148 21.765 20.6307 21.205 20.914 20.3268C20.9747 20.1359 21.007 19.9401 21.0114 19.7443L23.8617 18.1923C23.8655 18.1901 23.8699 18.1879 23.8737 18.1857L25.6822 17.2008C26.2619 16.8858 26.9914 17.1007 27.3075 17.6793C27.459 17.9588 27.4924 18.2825 27.4016 18.591ZM14.8 13.7391C16.7419 13.7391 18.5362 12.9106 19.7897 11.4515C20.68 12.1121 21.7814 12.5037 22.9725 12.5037C25.9239 12.5037 28.3253 10.1029 28.3253 7.15254C28.3253 4.20105 25.9239 1.79973 22.9725 1.79973C21.7808 1.79973 20.6794 2.19129 19.7891 2.85246C18.5368 1.39395 16.743 0.56543 14.8 0.56543C11.1682 0.56543 8.2134 3.5202 8.2134 7.15199C8.2134 10.7838 11.1676 13.7391 14.8 13.7391ZM27.4508 7.15199C27.4508 9.62059 25.4416 11.6287 22.9725 11.6287C20.5039 11.6287 18.4957 9.62059 18.4957 7.15199C18.4957 4.6823 20.5039 2.67363 22.9725 2.67363C25.4416 2.67363 27.4508 4.6823 27.4508 7.15199ZM18.16 9.49043C17.3932 10.594 16.1546 11.2459 14.8 11.2459C12.5425 11.2459 10.7061 9.40949 10.7061 7.15199C10.7061 4.89449 12.5425 3.05809 14.8 3.05809C16.1551 3.05809 17.3938 3.70941 18.16 4.81246C17.8149 5.51957 17.6213 6.31363 17.6213 7.15199C17.6213 7.9898 17.8149 8.78332 18.16 9.49043ZM14.8 1.43934C16.4876 1.43934 18.0457 2.16012 19.1318 3.42887C18.9568 3.60934 18.7949 3.80184 18.6461 4.00527C17.7088 2.8541 16.3143 2.18363 14.8 2.18363C12.0607 2.18363 9.8316 4.4127 9.8316 7.15199C9.8316 9.89129 12.0607 12.1204 14.8 12.1204C16.3137 12.1204 17.7082 11.4493 18.6461 10.2976C18.7949 10.5011 18.9573 10.6941 19.1323 10.8746C18.0451 12.1439 16.4865 12.8646 14.8 12.8646C11.65 12.8646 9.08731 10.302 9.08731 7.15199C9.08731 4.00199 11.65 1.43934 14.8 1.43934ZM16.1174 8.14402C16.1174 8.78715 15.6903 9.33293 15.1051 9.5123V10.0258C15.1051 10.2675 14.9093 10.4628 14.6682 10.4628C14.4264 10.4628 14.2312 10.267 14.2312 10.0258V9.55605C13.9671 9.51394 13.7177 9.3991 13.5137 9.22027C13.3322 9.06113 13.3141 8.78496 13.4727 8.6034C13.6318 8.42183 13.908 8.40379 14.0896 8.56238C14.1913 8.65152 14.3214 8.70074 14.4554 8.70074H14.6862C14.993 8.70074 15.2429 8.45137 15.2429 8.14402C15.2429 7.83777 14.9936 7.58894 14.6862 7.58894H14.5714C14.4762 7.58894 14.3882 7.55832 14.3165 7.50637C13.762 7.30895 13.3639 6.77902 13.3639 6.15777C13.3639 5.51465 13.791 4.96887 14.3761 4.78949V4.27598C14.3761 4.03426 14.5719 3.83902 14.8131 3.83902C15.0548 3.83902 15.25 4.0348 15.25 4.27598V4.74629C15.5136 4.78895 15.763 4.90434 15.9675 5.08371C16.1491 5.24285 16.1672 5.51902 16.0086 5.70059C15.8494 5.88215 15.5732 5.9002 15.3917 5.74105C15.2889 5.65082 15.1587 5.6016 15.0258 5.6016H14.795C14.4932 5.6016 14.2383 5.85645 14.2383 6.15832C14.2383 6.4602 14.4932 6.71504 14.795 6.71504H14.9099C15.005 6.71504 15.0925 6.74566 15.1647 6.79707C15.7193 6.99395 16.1174 7.52332 16.1174 8.14402ZM20.4711 9.03488L24.8548 4.65113C25.0254 4.48051 25.3022 4.48051 25.4728 4.65113C25.6434 4.82176 25.6434 5.09848 25.4728 5.2691L21.089 9.65285C21.0037 9.73816 20.8916 9.78082 20.78 9.78082C20.6685 9.78082 20.5564 9.73816 20.4711 9.65285C20.3004 9.48223 20.3004 9.20551 20.4711 9.03488ZM21.4762 6.78777C22.1013 6.78777 22.6093 6.27918 22.6093 5.65465C22.6093 5.03066 22.1007 4.52316 21.4762 4.52316C20.8517 4.52316 20.3431 5.03066 20.3431 5.65465C20.3431 6.27918 20.8517 6.78777 21.4762 6.78777ZM21.4762 5.39707C21.6189 5.39707 21.7349 5.51246 21.7349 5.65465C21.7349 5.79738 21.6189 5.91332 21.4762 5.91332C21.3335 5.91332 21.2175 5.79738 21.2175 5.65465C21.2175 5.51246 21.3335 5.39707 21.4762 5.39707ZM24.4682 7.51457C23.8442 7.51457 23.3367 8.02316 23.3367 8.64769C23.3367 9.27223 23.8442 9.78082 24.4682 9.78082C25.0932 9.78082 25.6013 9.27223 25.6013 8.64769C25.6013 8.02316 25.0932 7.51457 24.4682 7.51457ZM24.4682 8.90691C24.3265 8.90691 24.2106 8.79098 24.2106 8.64824C24.2106 8.50551 24.326 8.38957 24.4682 8.38957C24.6109 8.38957 24.7268 8.50551 24.7268 8.64824C24.7268 8.79098 24.6109 8.90691 24.4682 8.90691Z" fill="#1D1C1D"/>
  </g>
  <defs>
    <clipPath id="clip0_274_35687">
      <rect width="28" height="28" fill="white" transform="translate(0.693359 0.564209)"/>
    </clipPath>
  </defs>
</svg>