<svg xmlns="http://www.w3.org/2000/svg" width="20" height="21" viewBox="0 0 20 21" fill="none">
  <path d="M16.6999 6.20375L11.8999 2.84542C10.5915 1.92875 8.5832 1.97875 7.32487 2.95375L3.14987 6.21208C2.31654 6.86208 1.6582 8.19542 1.6582 9.24542V14.9954C1.6582 17.1204 3.3832 18.8537 5.5082 18.8537H14.4915C16.6165 18.8537 18.3415 17.1287 18.3415 15.0037V9.35375C18.3415 8.22875 17.6165 6.84542 16.6999 6.20375ZM10.6249 15.5204C10.6249 15.8621 10.3415 16.1454 9.99987 16.1454C9.6582 16.1454 9.37487 15.8621 9.37487 15.5204V13.0204C9.37487 12.6787 9.6582 12.3954 9.99987 12.3954C10.3415 12.3954 10.6249 12.6787 10.6249 13.0204V15.5204Z" fill="white"/>
</svg>