<svg xmlns="http://www.w3.org/2000/svg" width="20" height="21" viewBox="0 0 20 21" fill="none">
  <path d="M16.5254 7.77067L12.7504 3.99567C11.9587 3.204 10.8671 2.779 9.75039 2.83734L5.58372 3.03734C3.91705 3.11234 2.59205 4.43734 2.50872 6.09567L2.30872 10.2623C2.25872 11.379 2.67539 12.4707 3.46705 13.2623L7.24205 17.0373C8.79205 18.5873 11.3087 18.5873 12.8671 17.0373L16.5254 13.379C18.0837 11.8373 18.0837 9.32067 16.5254 7.77067ZM7.91705 10.8373C6.59205 10.8373 5.51705 9.76234 5.51705 8.43734C5.51705 7.11234 6.59205 6.03734 7.91705 6.03734C9.24205 6.03734 10.3171 7.11234 10.3171 8.43734C10.3171 9.76234 9.24205 10.8373 7.91705 10.8373Z" fill="white"/>
</svg>