<svg xmlns="http://www.w3.org/2000/svg" width="20" height="21" viewBox="0 0 20 21" fill="none">
  <path d="M15.9748 6.05386C15.6165 4.24552 14.2748 3.45386 12.4081 3.45386H5.09147C2.89147 3.45386 1.4248 4.55386 1.4248 7.12052V11.4122C1.4248 13.2622 2.18314 14.3455 3.43314 14.8122C3.61647 14.8789 3.81647 14.9372 4.0248 14.9705C4.35814 15.0455 4.71647 15.0789 5.09147 15.0789H12.4165C14.6165 15.0789 16.0831 13.9789 16.0831 11.4122V7.12052C16.0831 6.72886 16.0498 6.37886 15.9748 6.05386ZM4.60814 10.5205C4.60814 10.8622 4.3248 11.1455 3.98314 11.1455C3.64147 11.1455 3.35814 10.8622 3.35814 10.5205V8.02052C3.35814 7.67886 3.64147 7.39552 3.98314 7.39552C4.3248 7.39552 4.60814 7.67886 4.60814 8.02052V10.5205ZM8.7498 11.4705C7.53314 11.4705 6.5498 10.4872 6.5498 9.27052C6.5498 8.05386 7.53314 7.07052 8.7498 7.07052C9.96647 7.07052 10.9498 8.05386 10.9498 9.27052C10.9498 10.4872 9.96647 11.4705 8.7498 11.4705ZM14.1331 10.5205C14.1331 10.8622 13.8498 11.1455 13.5081 11.1455C13.1665 11.1455 12.8831 10.8622 12.8831 10.5205V8.02052C12.8831 7.67886 13.1665 7.39552 13.5081 7.39552C13.8498 7.39552 14.1331 7.67886 14.1331 8.02052V10.5205Z" fill="white"/>
  <path d="M18.5831 9.62058V13.9122C18.5831 16.4789 17.1165 17.5872 14.9081 17.5872H7.59147C6.96647 17.5872 6.40814 17.4956 5.92481 17.3122C5.53314 17.1706 5.19147 16.9622 4.91647 16.6956C4.76647 16.5539 4.88314 16.3289 5.09147 16.3289H12.4081C15.4915 16.3289 17.3248 14.4956 17.3248 11.4206V7.12058C17.3248 6.92058 17.5498 6.79558 17.6915 6.94558C18.2581 7.54558 18.5831 8.42058 18.5831 9.62058Z" fill="white"/>
</svg>