<svg xmlns="http://www.w3.org/2000/svg" width="20" height="21" viewBox="0 0 20 21" fill="none">
  <path d="M18.633 7.41226L18.3914 5.10392C18.0414 2.58726 16.8997 1.56226 14.458 1.56226H12.4914H11.258H8.72471H7.49137H5.49137C3.04138 1.56226 1.90804 2.58726 1.54971 5.12892L1.32471 7.42059C1.24137 8.31226 1.48304 9.17892 2.00804 9.85392C2.64137 10.6789 3.61637 11.1456 4.69971 11.1456C5.74971 11.1456 6.75804 10.6206 7.39137 9.77892C7.95804 10.6206 8.92471 11.1456 9.99971 11.1456C11.0747 11.1456 12.0164 10.6456 12.5914 9.81225C13.233 10.6373 14.2247 11.1456 15.258 11.1456C16.3664 11.1456 17.3664 10.6539 17.9914 9.78726C18.4914 9.12059 18.7164 8.27892 18.633 7.41226Z" fill="white"/>
  <path d="M9.45794 14.4039C8.39961 14.5122 7.59961 15.4122 7.59961 16.4789V18.7622C7.59961 18.9872 7.78294 19.1705 8.00794 19.1705H11.9829C12.2079 19.1705 12.3913 18.9872 12.3913 18.7622V16.7705C12.3996 15.0289 11.3746 14.2039 9.45794 14.4039Z" fill="white"/>
  <path d="M17.8081 12.5206V15.0039C17.8081 17.3039 15.9414 19.1706 13.6414 19.1706C13.4164 19.1706 13.2331 18.9872 13.2331 18.7622V16.7706C13.2331 15.7039 12.9081 14.8706 12.2747 14.3039C11.7164 13.7956 10.9581 13.5456 10.0164 13.5456C9.80807 13.5456 9.59974 13.5539 9.37474 13.5789C7.89141 13.7289 6.76641 14.9789 6.76641 16.4789V18.7622C6.76641 18.9872 6.58307 19.1706 6.35807 19.1706C4.05807 19.1706 2.19141 17.3039 2.19141 15.0039V12.5372C2.19141 11.9539 2.76641 11.5622 3.30807 11.7539C3.53307 11.8289 3.75807 11.8872 3.99141 11.9206C4.09141 11.9372 4.19974 11.9539 4.29974 11.9539C4.43307 11.9706 4.56641 11.9789 4.69974 11.9789C5.66641 11.9789 6.61641 11.6206 7.36641 11.0039C8.08307 11.6206 9.01641 11.9789 9.99974 11.9789C10.9914 11.9789 11.9081 11.6372 12.6247 11.0206C13.3747 11.6289 14.3081 11.9789 15.2581 11.9789C15.4081 11.9789 15.5581 11.9706 15.6997 11.9539C15.7997 11.9456 15.8914 11.9372 15.9831 11.9206C16.2414 11.8872 16.4747 11.8122 16.7081 11.7372C17.2497 11.5539 17.8081 11.9539 17.8081 12.5206Z" fill="white"/>
</svg>