<svg xmlns="http://www.w3.org/2000/svg" width="20" height="21" viewBox="0 0 20 21" fill="none">
  <path d="M13.5413 19.2704C14.3468 19.2704 14.9997 18.6175 14.9997 17.8121C14.9997 17.0067 14.3468 16.3538 13.5413 16.3538C12.7359 16.3538 12.083 17.0067 12.083 17.8121C12.083 18.6175 12.7359 19.2704 13.5413 19.2704Z" fill="white"/>
  <path d="M6.87533 19.2704C7.68074 19.2704 8.33366 18.6175 8.33366 17.8121C8.33366 17.0067 7.68074 16.3538 6.87533 16.3538C6.06991 16.3538 5.41699 17.0067 5.41699 17.8121C5.41699 18.6175 6.06991 19.2704 6.87533 19.2704Z" fill="white"/>
  <path d="M4.03366 3.80392L3.86699 5.84559C3.83366 6.23726 4.14199 6.56226 4.53366 6.56226H17.292C17.642 6.56226 17.9337 6.29559 17.9587 5.94559C18.067 4.47059 16.942 3.27059 15.467 3.27059H5.22533C5.14199 2.90392 4.97533 2.55392 4.71699 2.26226C4.30033 1.82059 3.71699 1.56226 3.11699 1.56226H1.66699C1.32533 1.56226 1.04199 1.84559 1.04199 2.18726C1.04199 2.52892 1.32533 2.81226 1.66699 2.81226H3.11699C3.37533 2.81226 3.61699 2.92059 3.79199 3.10392C3.96699 3.29559 4.05033 3.54559 4.03366 3.80392Z" fill="white"/>
  <path d="M17.0914 7.81226H4.30805C3.95805 7.81226 3.67472 8.07892 3.64139 8.42059L3.34139 12.0456C3.22472 13.4706 4.34139 14.6873 5.76639 14.6873H15.0331C16.2831 14.6873 17.3831 13.6623 17.4747 12.4123L17.7497 8.52059C17.7831 8.13726 17.4831 7.81226 17.0914 7.81226Z" fill="white"/>
</svg>