<svg width="68" height="76" viewBox="0 0 68 76" fill="none" xmlns="http://www.w3.org/2000/svg">
<g clip-path="url(#clip0_157_7222)">
<path d="M9.98254 22.7291C10.372 22.495 10.7906 22.3133 11.2275 22.1886L11.4838 20.9558L13.5763 20.9192L13.8762 22.1398C14.3179 22.2491 14.743 22.4168 15.1403 22.6385L16.1865 21.941L17.6861 23.3882L17.034 24.4641C17.2688 24.8532 17.4506 25.2719 17.5745 25.7091L18.8108 25.9811L18.8474 28.0648L17.6268 28.3647C17.5175 28.8064 17.3498 29.2315 17.1281 29.6289L17.8256 30.6751L16.3784 32.1746L15.3025 31.5225C14.9134 31.7573 14.4947 31.9391 14.0575 32.063L13.8012 33.2958L11.7088 33.3324L11.4089 32.1119C10.9672 32.0026 10.542 31.8349 10.1447 31.6132L9.09849 32.3106L7.59893 30.8634L8.25107 29.7875C8.01626 29.3985 7.83447 28.9798 7.71052 28.5426L6.47774 28.2862L6.43066 26.1921L7.65124 25.8922C7.76053 25.4505 7.92824 25.0253 8.14993 24.628L7.45246 23.5818L8.89971 22.0822L9.97556 22.7344L9.98254 22.7291ZM11.0933 25.5051C10.7866 25.823 10.5811 26.2247 10.5027 26.6594C10.4243 27.0941 10.4766 27.5422 10.6529 27.9472C10.8292 28.3522 11.1216 28.6959 11.4931 28.9347C11.8647 29.1736 12.2987 29.2969 12.7404 29.2891C13.182 29.2813 13.6114 29.1427 13.9743 28.8909C14.3372 28.6391 14.6173 28.2853 14.7792 27.8744C14.941 27.4634 14.9774 27.0136 14.8837 26.582C14.7901 26.1503 14.5705 25.7562 14.2528 25.4493C14.0419 25.2452 13.7927 25.0847 13.5196 24.977C13.2466 24.8693 12.9549 24.8166 12.6615 24.8217C12.368 24.8269 12.0784 24.8899 11.8093 25.0072C11.5402 25.1245 11.2969 25.2936 11.0933 25.5051Z" fill="#F5F5F5"/>
<path d="M11.7853 7.2938C11.9271 8.2526 11.7811 9.23191 11.366 10.1077C10.951 10.9836 10.2853 11.7166 9.45346 12.2139C8.62158 12.7113 7.66085 12.9507 6.69286 12.9018C5.72486 12.8529 4.79314 12.5179 4.01563 11.9392C3.23811 11.3605 2.64976 10.5642 2.32505 9.65099C2.00034 8.73778 1.95386 7.74875 2.1915 6.80911C2.42914 5.86947 2.94022 5.02146 3.66004 4.37242C4.37986 3.72338 5.27606 3.30249 6.2352 3.16302C7.51895 2.97496 8.82482 3.30448 9.86564 4.07913C10.9065 4.85377 11.597 6.0101 11.7853 7.2938Z" fill="#F5F5F5"/>
<path d="M10.6319 7.46154C10.7398 8.19199 10.6285 8.93803 10.3123 9.60523C9.99597 10.2724 9.48885 10.8308 8.85509 11.2097C8.22132 11.5885 7.4894 11.7708 6.75198 11.7335C6.01455 11.6962 5.30476 11.441 4.71245 11.0001C4.12015 10.5593 3.67195 9.95258 3.4246 9.25687C3.17724 8.56117 3.14185 7.80771 3.3229 7.09188C3.50394 6.37605 3.89329 5.73002 4.44166 5.23557C4.99003 4.74111 5.67277 4.42046 6.40345 4.3142C6.88777 4.24308 7.38136 4.26807 7.85601 4.38777C8.33066 4.50746 8.77708 4.71951 9.16976 5.01179C9.56243 5.30407 9.89367 5.67086 10.1445 6.0912C10.3954 6.51154 10.561 6.97719 10.6319 7.46154Z" fill="#EBEBEB"/>
<path d="M10.6151 7.34662C10.5462 7.20907 10.4919 7.06473 10.4529 6.91593C10.3132 6.53118 10.1144 6.17056 9.86355 5.84705C9.49305 5.36937 9.0111 4.9898 8.45989 4.74156C8.30274 4.6718 8.14073 4.61352 7.97515 4.56719C7.62169 4.46507 7.25496 4.41629 6.88709 4.42247C6.69536 4.42737 6.50423 4.44601 6.31517 4.47826C6.12586 4.5127 5.93937 4.56108 5.75719 4.62299C5.58072 4.68382 5.40931 4.75845 5.24455 4.84618C4.93132 5.01143 4.64404 5.22175 4.39189 5.47042C4.16316 5.69538 3.96395 5.9485 3.79904 6.22369C3.65586 6.4657 3.53895 6.72231 3.4503 6.98916C3.32845 7.37972 3.26729 7.78667 3.26896 8.19579C3.28559 8.3482 3.28559 8.50197 3.26896 8.65438C3.20187 8.51247 3.16562 8.35796 3.16259 8.20102C3.11761 7.77459 3.1525 7.34352 3.26547 6.92988C3.43243 6.30841 3.75741 5.74074 4.2088 5.2821C4.33828 5.14917 4.47759 5.02618 4.62554 4.91418C4.77984 4.79559 4.94373 4.69003 5.11552 4.59858C5.29244 4.50229 5.47668 4.42008 5.66652 4.35272C5.85873 4.28295 6.05569 4.227 6.25588 4.18533C6.46057 4.15107 6.66742 4.13126 6.87489 4.12604C7.07616 4.12348 7.27731 4.13689 7.47646 4.16615C7.85304 4.22187 8.21918 4.33353 8.56277 4.49745C9.14455 4.77225 9.64548 5.19269 10.017 5.71802C10.2652 6.06747 10.4462 6.4601 10.5506 6.87582C10.6079 7.02573 10.63 7.18681 10.6151 7.34662Z" fill="#E0E0E0"/>
<path d="M7.67596 10.1413L7.77884 10.783L7.20691 10.8736L7.10578 10.2494C6.59423 10.3151 6.07451 10.2353 5.60622 10.0192L5.80848 9.26944C6.17421 9.44681 6.57994 9.52555 6.98546 9.49786L6.83202 8.54407C6.17117 8.49002 5.42662 8.39237 5.29584 7.57284C5.19819 6.9643 5.55739 6.37319 6.44492 6.12559L6.34379 5.48914L6.91746 5.39673L7.01685 6.02097C7.43094 5.97861 7.84918 6.03477 8.23743 6.18487L8.06306 6.9364C7.76801 6.82261 7.45327 6.76867 7.13717 6.77772L7.2941 7.75244C7.95495 7.79952 8.68904 7.89891 8.81633 8.70798C8.91223 9.30257 8.55826 9.88845 7.67596 10.1413ZM6.69776 7.70013L6.56698 6.88757C6.27579 7.0044 6.18163 7.18923 6.21825 7.37929C6.25486 7.56935 6.43097 7.66002 6.69776 7.69839V7.70013ZM7.90438 8.9207C7.873 8.72018 7.68991 8.63823 7.42836 8.59115L7.55565 9.38278C7.82592 9.27467 7.93403 9.10553 7.90438 8.92245V8.9207Z" fill="#E0E0E0"/>
<path d="M11.2454 32.0334C11.4088 33.14 11.2401 34.2702 10.7608 35.281C10.2815 36.2917 9.51307 37.1375 8.55283 37.7114C7.59259 38.2852 6.48369 38.5612 5.3665 38.5045C4.2493 38.4478 3.17404 38.0609 2.27683 37.3929C1.37961 36.7248 0.700778 35.8055 0.326253 34.7514C-0.048272 33.6974 -0.101649 32.5559 0.172878 31.4715C0.447405 30.387 1.03749 29.4084 1.86845 28.6595C2.69941 27.9106 3.73387 27.4251 4.8409 27.2644C5.57457 27.157 6.32221 27.1951 7.04113 27.3766C7.76006 27.5582 8.43619 27.8795 9.03091 28.3224C9.62564 28.7652 10.1273 29.3209 10.5073 29.9576C10.8872 30.5943 11.1381 31.2997 11.2454 32.0334Z" fill="#F5F5F5"/>
<path d="M9.91471 32.227C10.0394 33.0704 9.91099 33.9319 9.54583 34.7023C9.18067 35.4727 8.59513 36.1175 7.86335 36.555C7.13157 36.9925 6.28643 37.2031 5.43492 37.1601C4.58341 37.117 3.76381 36.8223 3.07986 36.3133C2.39591 35.8042 1.87837 35.1037 1.59273 34.3004C1.3071 33.4971 1.26622 32.627 1.47528 31.8005C1.68433 30.9739 2.13391 30.2279 2.76712 29.657C3.40032 29.0861 4.18868 28.7158 5.03241 28.5931C5.59162 28.5109 6.16155 28.5397 6.70964 28.6778C7.25772 28.816 7.77321 29.0608 8.22663 29.3983C8.68005 29.7357 9.06251 30.1593 9.35216 30.6446C9.64182 31.13 9.83297 31.6677 9.91471 32.227Z" fill="#EBEBEB"/>
<path d="M9.89478 32.0927C9.86863 32.0927 9.82329 31.9183 9.70821 31.5975C9.54557 31.153 9.31563 30.736 9.02643 30.3612C8.8268 30.105 8.59996 29.8711 8.34988 29.6638C8.06173 29.4309 7.74538 29.2352 7.40829 29.0814C7.03615 28.9128 6.64141 28.7994 6.23654 28.7449C6.02331 28.7162 5.80825 28.7034 5.59313 28.7065C5.37108 28.7134 5.14973 28.7349 4.93053 28.771C4.7123 28.8143 4.49731 28.8725 4.28711 28.9454C4.08359 29.0157 3.88594 29.102 3.696 29.2034C3.51341 29.3003 3.33852 29.4111 3.1729 29.5347C3.01168 29.6521 2.85955 29.7815 2.7178 29.9218C2.45311 30.1816 2.22334 30.4746 2.03428 30.7937C1.86915 31.072 1.73579 31.3679 1.63672 31.676C1.49315 32.127 1.42079 32.5976 1.42224 33.0709C1.42224 33.4074 1.44317 33.594 1.42224 33.594C1.40132 33.594 1.34029 33.4197 1.29844 33.0709C1.24777 32.5789 1.28856 32.0817 1.41876 31.6045C1.50736 31.2724 1.63557 30.9522 1.80062 30.6507C1.98992 30.3049 2.22447 29.9859 2.4981 29.7021C2.647 29.5478 2.80792 29.4055 2.97935 29.2767C3.15756 29.1402 3.34649 29.0183 3.5443 28.9122C3.74858 28.8013 3.9614 28.7068 4.18075 28.6298C4.40835 28.5515 4.64149 28.4903 4.87822 28.4467C5.1145 28.4066 5.35349 28.3844 5.59313 28.3804C5.82646 28.3767 6.0597 28.3919 6.2906 28.4258C6.51277 28.4574 6.73202 28.507 6.94622 28.574C7.15195 28.6361 7.35251 28.7142 7.54605 28.8076C8.2176 29.1251 8.7955 29.6111 9.22347 30.2183C9.50787 30.6239 9.71369 31.0794 9.83027 31.5609C9.91222 31.8974 9.91396 32.084 9.89478 32.0927Z" fill="#E0E0E0"/>
<path d="M6.5043 35.3182L6.62287 36.0593L5.96027 36.1656L5.83996 35.4438C5.1791 35.5083 4.51825 35.4054 4.10848 35.1787L4.34214 34.3069C4.76515 34.5106 5.23372 34.6013 5.70221 34.5702L5.52784 33.4664C4.76585 33.4054 3.90622 33.292 3.75452 32.3452C3.64118 31.6478 4.05443 30.9608 5.08146 30.6748L4.96812 29.9459L5.63072 29.8413L5.7458 30.5614C6.22313 30.5129 6.70518 30.5774 7.15295 30.7498L6.95242 31.6216C6.61168 31.4937 6.24902 31.4345 5.88529 31.4472L6.05966 32.5719C6.82165 32.626 7.66908 32.7463 7.81729 33.6739C7.93237 34.3505 7.52261 35.027 6.5043 35.3182ZM5.37439 32.5004L5.22269 31.5606C4.88616 31.6966 4.77806 31.9093 4.81293 32.129C4.8478 32.3487 5.06751 32.4551 5.37439 32.5004ZM6.76934 33.9128C6.73098 33.6809 6.51999 33.5867 6.22008 33.5327L6.3648 34.4446C6.68215 34.3191 6.80072 34.1238 6.76759 33.9128H6.76934Z" fill="#E0E0E0"/>
<path d="M22.4032 3.45111C22.5163 4.21677 22.3997 4.99876 22.0681 5.69811C21.7366 6.39745 21.205 6.9827 20.5406 7.37977C19.8763 7.77683 19.109 7.96786 18.3361 7.92867C17.5631 7.88947 16.8191 7.62182 16.1984 7.1596C15.5776 6.69737 15.1079 6.06136 14.8488 5.33206C14.5896 4.60276 14.5527 3.81298 14.7427 3.06269C14.9326 2.3124 15.3409 1.63534 15.9159 1.11722C16.4908 0.599093 17.2066 0.263204 17.9725 0.152069C18.4801 0.077734 18.9973 0.104102 19.4946 0.229669C19.992 0.355235 20.4597 0.577541 20.8712 0.88389C21.2826 1.19024 21.6297 1.57463 21.8925 2.01512C22.1554 2.4556 22.3289 2.94356 22.4032 3.45111Z" fill="#F5F5F5"/>
<path d="M21.4827 3.58502C21.5687 4.16831 21.4797 4.764 21.227 5.29669C20.9743 5.82939 20.5692 6.27515 20.0631 6.57757C19.557 6.87999 18.9725 7.02547 18.3837 6.9956C17.7948 6.96574 17.2281 6.76186 16.7552 6.40979C16.2822 6.05771 15.9244 5.57326 15.7269 5.01773C15.5294 4.4622 15.5011 3.86056 15.6456 3.28896C15.7902 2.71735 16.101 2.20147 16.5388 1.80659C16.9767 1.41171 17.5218 1.15559 18.1052 1.07063C18.4921 1.01383 18.8864 1.03382 19.2656 1.12946C19.6447 1.2251 20.0013 1.39451 20.315 1.62801C20.6286 1.86151 20.8932 2.15453 21.0936 2.49032C21.2939 2.82611 21.4262 3.1981 21.4827 3.58502Z" fill="#EBEBEB"/>
<path d="M21.4689 3.48775C21.4142 3.37617 21.371 3.25932 21.3399 3.13901C21.2277 2.83139 21.0683 2.54313 20.8674 2.28461C20.5723 1.90309 20.1878 1.60007 19.7479 1.40231C19.6228 1.34478 19.4933 1.29698 19.3608 1.25933C19.2227 1.21825 19.0816 1.18794 18.9389 1.16866C18.7909 1.1485 18.6417 1.13976 18.4925 1.1425C18.1849 1.14898 17.8802 1.20309 17.5892 1.30292C17.4485 1.35069 17.3115 1.40897 17.1795 1.47729C17.0522 1.54434 16.9303 1.6213 16.8151 1.70745C16.703 1.78855 16.5974 1.87834 16.4994 1.97598C16.3168 2.15538 16.1579 2.35757 16.0269 2.57755C15.9133 2.77106 15.821 2.97626 15.7514 3.18958C15.6529 3.50152 15.603 3.82673 15.6032 4.15384C15.6168 4.27551 15.6168 4.39833 15.6032 4.52001C15.5495 4.40647 15.5204 4.28288 15.5178 4.15732C15.4825 3.81746 15.5103 3.47402 15.5997 3.14425C15.7334 2.64795 15.9929 2.19452 16.353 1.82777C16.4564 1.72059 16.5683 1.62203 16.6878 1.53309C16.8107 1.43804 16.9413 1.35347 17.0783 1.28025C17.3657 1.12386 17.6767 1.01549 17.999 0.959415C18.1621 0.93165 18.3271 0.915915 18.4925 0.912336C18.6535 0.910398 18.8144 0.920891 18.9737 0.943722C19.1272 0.966891 19.2787 1.00128 19.4271 1.0466C19.5688 1.08989 19.707 1.14411 19.8403 1.20876C20.3056 1.42799 20.7058 1.7645 21.0016 2.18522C21.2001 2.46412 21.345 2.7775 21.4288 3.10937C21.4704 3.23089 21.4841 3.36021 21.4689 3.48775Z" fill="#E0E0E0"/>
<path d="M19.123 5.72484L19.2049 6.23748L18.7463 6.30897L18.6679 5.81028C18.2595 5.86591 17.8438 5.80548 17.4682 5.63591L17.6304 5.03783C17.9242 5.17544 18.2483 5.23547 18.5719 5.2122L18.4534 4.44672C17.9303 4.40488 17.3322 4.32641 17.2328 3.67253C17.1561 3.18604 17.442 2.71351 18.1517 2.51647L18.0698 2.00732L18.5284 1.93408L18.6086 2.43277C18.9387 2.39859 19.2722 2.44342 19.5815 2.56355L19.4438 3.16338C19.2081 3.07289 18.9568 3.03021 18.7045 3.03783L18.83 3.81551C19.3531 3.85387 19.9425 3.93234 20.0506 4.5775C20.1099 5.05701 19.8274 5.52257 19.123 5.72484ZM18.3418 3.77366L18.2372 3.12501C18.0035 3.21743 17.9285 3.36564 17.9529 3.51734C17.9774 3.66904 18.1291 3.74228 18.3418 3.77366ZM19.3043 4.75187C19.2799 4.59145 19.1299 4.52519 18.9242 4.48857L19.0253 5.11978C19.2468 5.0326 19.3252 4.89834 19.3043 4.75187Z" fill="#E0E0E0"/>
<path d="M34.3714 3.96716C34.6916 3.77298 35.0364 3.62284 35.3967 3.52078L35.6077 2.50596L37.3217 2.47632L37.5693 3.48765C37.9348 3.57677 38.2867 3.71459 38.6155 3.89742L39.4874 3.32898L40.7202 4.51991L40.1709 5.4057C40.3651 5.72585 40.5152 6.07072 40.6173 6.43098L41.6321 6.64197L41.6617 8.356L40.6556 8.60361C40.5668 8.96921 40.429 9.32114 40.2459 9.64981L40.8143 10.5217L39.6234 11.7562L38.7376 11.2191C38.417 11.412 38.0722 11.5616 37.7123 11.6638L37.5013 12.6786L35.7873 12.7082L35.5414 11.6829C35.1758 11.5941 34.8239 11.4563 34.4952 11.2732L33.6234 11.8416L32.4028 10.6524L32.9364 9.7649C32.7434 9.44431 32.5939 9.09954 32.4917 8.73961L31.4769 8.52863L31.4473 6.81459L32.4534 6.56699C32.5425 6.20148 32.6803 5.84959 32.8631 5.52078L32.2947 4.64894L33.4856 3.41616L34.3714 3.95321V3.96716ZM35.2851 6.24964C35.0324 6.51138 34.863 6.84216 34.7983 7.20017C34.7336 7.55818 34.7765 7.92734 34.9216 8.26097C35.0667 8.5946 35.3074 8.87771 35.6134 9.07452C35.9194 9.27133 36.2768 9.37299 36.6406 9.36666C37.0044 9.36032 37.3581 9.24626 37.657 9.03891C37.9559 8.83156 38.1867 8.54023 38.3201 8.20174C38.4534 7.86326 38.4834 7.49283 38.4063 7.1373C38.3292 6.78176 38.1483 6.45708 37.8867 6.2043C37.7129 6.03643 37.5077 5.90443 37.2829 5.81585C37.0581 5.72727 36.8181 5.68384 36.5765 5.68805C36.3349 5.69226 36.0965 5.74402 35.8749 5.84038C35.6534 5.93674 35.4529 6.07581 35.2851 6.24964Z" fill="#F5F5F5"/>
<path d="M49.9267 17.2177C50.3164 16.9828 50.7356 16.8011 51.1734 16.6771L51.4297 15.4443L53.5117 15.4077L53.8116 16.6283C54.2531 16.7374 54.6781 16.9045 55.0758 17.1252L56.122 16.4278L57.6198 17.875L56.9676 18.9509C57.2032 19.3396 57.385 19.7584 57.5082 20.1959L58.741 20.4522L58.7776 22.5446L57.557 22.8445C57.4478 23.2854 57.2807 23.7099 57.0601 24.1069L57.7575 25.1531L56.3103 26.6527L55.2344 25.9988C54.8448 26.2342 54.4255 26.4166 53.9877 26.5411L53.7314 27.7739L51.6494 27.8105L51.3495 26.5899C50.9074 26.4826 50.4821 26.3154 50.0853 26.093L49.0391 26.7905L47.5413 25.3432L48.1934 24.2673C47.9546 23.8772 47.7693 23.4567 47.6425 23.0171L46.4097 22.7608L46.373 20.6684L47.5936 20.3685C47.7031 19.9271 47.8702 19.5021 48.0906 19.1043L47.3931 18.0581L48.8404 16.5585L49.9162 17.2107L49.9267 17.2177ZM51.0374 19.9936C50.7307 20.3115 50.5252 20.7132 50.4468 21.1479C50.3685 21.5826 50.4207 22.0308 50.597 22.4358C50.7733 22.8408 51.0657 23.1844 51.4373 23.4232C51.8088 23.6621 52.2429 23.7854 52.6845 23.7776C53.1261 23.7698 53.5555 23.6312 53.9184 23.3794C54.2813 23.1276 54.5614 22.7739 54.7233 22.3629C54.8852 21.9519 54.9216 21.5022 54.8279 21.0705C54.7342 20.6389 54.5146 20.2447 54.1969 19.9378C53.9859 19.7339 53.7367 19.5736 53.4636 19.466C53.1906 19.3585 52.899 19.3058 52.6056 19.311C52.3122 19.3162 52.0227 19.3791 51.7536 19.4962C51.4845 19.6134 51.2411 19.7824 51.0374 19.9936Z" fill="#F5F5F5"/>
<path d="M45.6922 2.28129C45.8953 2.15784 46.114 2.06224 46.3426 1.99707L46.4768 1.35365L47.5649 1.33447L47.7218 1.97266C47.9525 2.02996 48.1747 2.11731 48.3827 2.23247L48.9337 1.87327L49.7166 2.62828L49.3679 3.19149C49.4957 3.39219 49.596 3.60919 49.666 3.83665L50.3095 3.97092L50.3286 5.05897L49.6887 5.2159C49.633 5.44711 49.5455 5.6695 49.4289 5.87676L49.7898 6.42776L49.0348 7.21067L48.4716 6.86194C48.2685 6.98539 48.0498 7.08099 47.8212 7.14616L47.687 7.78957L46.5972 7.80875L46.442 7.16882C46.2108 7.11309 45.9884 7.02566 45.7811 6.90902L45.2301 7.26996L44.435 6.52715L44.7837 5.96394C44.6603 5.76086 44.5647 5.5421 44.4995 5.31355L43.8561 5.17929L43.8369 4.08949L44.4751 3.9343C44.5324 3.70359 44.6197 3.4814 44.7349 3.27344L44.3757 2.72244L45.1325 1.93953L45.6957 2.28826L45.6922 2.28129ZM46.2728 3.73029C46.1121 3.89637 46.0043 4.10639 45.963 4.33377C45.9217 4.56114 45.9487 4.79567 46.0407 5.00767C46.1327 5.21968 46.2855 5.39964 46.4798 5.52478C46.6741 5.64993 46.9011 5.71465 47.1322 5.71074C47.3632 5.70684 47.5879 5.63449 47.7779 5.50285C47.9678 5.37121 48.1145 5.18619 48.1993 4.9712C48.284 4.75621 48.3031 4.52091 48.2542 4.29505C48.2052 4.0692 48.0903 3.86295 47.9241 3.70239C47.7014 3.48724 47.4023 3.36932 47.0927 3.37455C46.7831 3.37978 46.4882 3.50773 46.2728 3.73029Z" fill="#F5F5F5"/>
<path d="M61.3384 42.2456C61.5516 43.6894 61.3317 45.1641 60.7065 46.4829C60.0812 47.8017 59.0788 48.9054 57.826 49.6542C56.5733 50.403 55.1265 50.7633 53.6688 50.6895C52.2112 50.6158 50.8082 50.1112 49.6375 49.2396C48.4667 48.3681 47.5809 47.1689 47.092 45.7936C46.6032 44.4184 46.5333 42.9291 46.8913 41.5142C47.2493 40.0993 48.019 38.8223 49.103 37.8451C50.187 36.8678 51.5366 36.2341 52.9809 36.0241C53.9382 35.8839 54.9137 35.9335 55.8518 36.1702C56.7899 36.407 57.6722 36.8262 58.4482 37.4039C59.2243 37.9816 59.879 38.7065 60.3749 39.5373C60.8708 40.368 61.1982 41.2883 61.3384 42.2456Z" fill="#F5F5F5"/>
<path d="M59.6027 42.4984C59.7654 43.599 59.598 44.7231 59.1215 45.7284C58.645 46.7337 57.881 47.5751 56.9261 48.1459C55.9712 48.7168 54.8684 48.9915 53.7573 48.9352C52.6462 48.879 51.5768 48.4943 50.6844 47.8299C49.792 47.1655 49.1169 46.2513 48.7444 45.203C48.3719 44.1547 48.3188 43.0194 48.5919 41.9409C48.865 40.8624 49.4519 39.8892 50.2784 39.1445C51.1049 38.3998 52.1338 37.917 53.2348 37.7574C53.9642 37.6504 54.7076 37.6882 55.4224 37.8686C56.1372 38.049 56.8095 38.3685 57.4008 38.8088C57.9922 39.249 58.491 39.8015 58.8688 40.4346C59.2466 41.0676 59.496 41.7689 59.6027 42.4984Z" fill="#EBEBEB"/>
<path d="M59.5759 42.3242C59.5427 42.3242 59.4834 42.0905 59.3317 41.6772C59.1202 41.097 58.8203 40.5529 58.4425 40.0643C58.182 39.7315 57.8856 39.4286 57.5584 39.1611C57.1857 38.8571 56.7755 38.6022 56.3378 38.4026C55.8507 38.1812 55.3337 38.0326 54.8034 37.9615C54.5243 37.9241 54.2428 37.9077 53.9612 37.9126C53.3814 37.9224 52.8069 38.0249 52.2594 38.216C51.9934 38.307 51.7351 38.4189 51.4869 38.5508C51.2438 38.6772 51.0107 38.8217 50.7895 38.9833C50.5795 39.1374 50.3814 39.3071 50.1966 39.4907C49.8508 39.8285 49.5507 40.2102 49.3039 40.6258C49.0881 40.9898 48.9127 41.3763 48.7807 41.7784C48.5943 42.3665 48.5002 42.98 48.5018 43.597C48.5018 44.0364 48.5279 44.2841 48.5018 44.2945C48.4756 44.305 48.3936 44.0626 48.3413 43.611C48.2719 42.9677 48.324 42.317 48.4948 41.6929C48.749 40.7565 49.2403 39.9013 49.9211 39.2099C50.1162 39.009 50.3266 38.8236 50.5506 38.6555C50.7828 38.4774 51.0288 38.3182 51.2864 38.1794C51.8314 37.8854 52.4201 37.6811 53.0301 37.5744C53.3377 37.5208 53.649 37.4911 53.9612 37.4854C54.2651 37.4822 54.5688 37.502 54.8697 37.5447C55.1592 37.5862 55.4449 37.6509 55.7241 37.7383C55.9921 37.8192 56.2533 37.9212 56.5052 38.0434C57.3818 38.4573 58.1359 39.0918 58.6936 39.8847C59.0681 40.4108 59.3413 41.0022 59.4991 41.6284C59.5985 42.0678 59.6003 42.3207 59.5759 42.3242Z" fill="#E0E0E0"/>
<path d="M55.1531 46.5335L55.3066 47.4995L54.4347 47.6373L54.2848 46.6974C53.4129 46.7828 52.5585 46.6468 52.018 46.3487L52.3231 45.2205C52.8741 45.4884 53.4851 45.6086 54.0965 45.5692L53.8663 44.129C52.8706 44.0488 51.7495 43.9005 51.5507 42.666C51.4042 41.7506 51.943 40.8596 53.2822 40.4864L53.1287 39.5274L53.9918 39.3896L54.1435 40.3312C54.7664 40.2661 55.3958 40.3503 55.9796 40.5771L55.7181 41.707C55.2735 41.5358 54.7993 41.4552 54.3231 41.4699L54.5585 42.938C55.5524 43.0078 56.6509 43.1595 56.8515 44.3766C57.0136 45.2711 56.4818 46.1516 55.1531 46.5335ZM53.678 42.8613L53.4827 41.6407C53.0415 41.8151 52.9003 42.0976 52.9456 42.3818C52.991 42.666 53.2787 42.7968 53.678 42.8613ZM55.5019 44.6992C55.453 44.3958 55.1758 44.272 54.7852 44.2022L54.9753 45.3931C55.3868 45.2292 55.5402 44.9747 55.5019 44.6992Z" fill="#E0E0E0"/>
<path d="M65.4796 9.87202C65.6432 10.9787 65.4749 12.109 64.9958 13.1199C64.5168 14.1309 63.7485 14.9769 62.7884 15.551C61.8282 16.1251 60.7193 16.4014 59.602 16.3449C58.4848 16.2885 57.4094 15.9018 56.512 15.2338C55.6146 14.5658 54.9356 13.6466 54.5609 12.5926C54.1862 11.5385 54.1327 10.3969 54.4071 9.31241C54.6815 8.2279 55.2716 7.24919 56.1025 6.50018C56.9334 5.75118 57.9679 5.26556 59.075 5.1048C60.5565 4.88781 62.0634 5.26814 63.2645 6.16214C64.4655 7.05615 65.2623 8.39061 65.4796 9.87202Z" fill="#F5F5F5"/>
<path d="M64.1501 10.0656C64.2747 10.909 64.1463 11.7705 63.7812 12.5409C63.416 13.3114 62.8305 13.9561 62.0987 14.3937C61.3669 14.8312 60.5218 15.0417 59.6703 14.9987C58.8188 14.9557 57.9992 14.661 57.3152 14.1519C56.6313 13.6429 56.1137 12.9423 55.8281 12.139C55.5424 11.3357 55.5016 10.4657 55.7106 9.6391C55.9197 8.81253 56.3693 8.06656 57.0025 7.49562C57.6357 6.92468 58.424 6.55444 59.2678 6.43176C59.827 6.34952 60.3969 6.3783 60.945 6.51645C61.4931 6.65459 62.0085 6.8994 62.462 7.23688C62.9154 7.57435 63.2979 7.99788 63.5875 8.48324C63.8772 8.96861 64.0683 9.5063 64.1501 10.0656Z" fill="#EBEBEB"/>
<path d="M64.1275 9.93155C64.1014 9.93155 64.056 9.75718 63.9409 9.43634C63.7783 8.99178 63.5484 8.57484 63.2592 8.20007C63.0595 7.9438 62.8327 7.70994 62.5826 7.5026C62.2948 7.26965 61.9784 7.07451 61.641 6.92196C61.4599 6.83751 61.2721 6.76811 61.0796 6.71446C60.88 6.65436 60.6759 6.61062 60.4693 6.58368C60.2536 6.55611 60.0362 6.54562 59.8189 6.5523C59.5968 6.55772 59.3754 6.5787 59.1563 6.61507C58.9381 6.65831 58.7231 6.71657 58.5129 6.78944C58.3096 6.86051 58.112 6.94678 57.9218 7.0475C57.7389 7.14397 57.564 7.25475 57.3987 7.3788C57.2368 7.49672 57.0841 7.6267 56.9418 7.76764C56.6777 8.02743 56.4485 8.32051 56.26 8.63948C56.0949 8.91777 55.9615 9.21373 55.8625 9.52178C55.7189 9.97279 55.6465 10.4434 55.648 10.9167C55.648 11.2533 55.6689 11.4398 55.648 11.4398C55.6271 11.4398 55.566 11.2655 55.5242 10.9167C55.4735 10.4248 55.5137 9.9277 55.6428 9.45029C55.7328 9.11841 55.8615 8.79828 56.0264 8.4965C56.2157 8.15071 56.4502 7.83171 56.7238 7.54794C56.8721 7.39307 57.0325 7.25022 57.2034 7.12074C57.3816 6.98426 57.5705 6.86239 57.7683 6.75631C57.9726 6.64533 58.1854 6.55087 58.4048 6.47383C58.6325 6.39611 58.8656 6.33492 59.1022 6.29074C59.339 6.24936 59.5786 6.22605 59.8189 6.221C60.0522 6.21732 60.2855 6.23249 60.5164 6.26633C60.7385 6.29802 60.9578 6.34758 61.172 6.41454C61.3777 6.47666 61.5783 6.55478 61.7718 6.6482C62.4424 6.96722 63.0199 7.45291 63.4492 8.05883C63.7359 8.46176 63.9447 8.91477 64.0647 9.39449C64.1449 9.73625 64.1467 9.9298 64.1275 9.93155Z" fill="#E0E0E0"/>
<path d="M60.7364 13.157L60.8655 13.8928L60.2029 13.9992L60.0878 13.2773C59.4269 13.3436 58.7661 13.239 58.3563 13.0123L58.59 12.1404C59.0124 12.3442 59.4804 12.4349 59.9483 12.4037L59.7739 11.3C59.0102 11.239 58.1523 11.1256 58.0006 10.1788C57.8873 9.48133 58.3005 8.79432 59.3275 8.50835L59.1985 7.78996L59.8611 7.68359L59.9762 8.40373C60.455 8.35326 60.9389 8.41659 61.3886 8.58856L61.1881 9.4604C60.8473 9.33263 60.4846 9.27337 60.1209 9.28604L60.2953 10.4107C61.0573 10.4648 61.903 10.5851 62.0529 11.5145C62.1628 12.1893 61.7565 12.8658 60.7364 13.157ZM59.6083 10.3392L59.4566 9.39937C59.12 9.53538 59.0119 9.74811 59.0468 9.96781C59.0817 10.1875 59.2962 10.2939 59.6083 10.3392ZM61.0032 11.7516C60.9649 11.5197 60.7539 11.4255 60.454 11.3715L60.5987 12.2834C60.916 12.1579 61.0398 11.9626 61.0015 11.7516H61.0032Z" fill="#E0E0E0"/>
<path d="M49.1421 60.3103H62.9834V57.7977H49.1421V60.3103Z" fill="#FEBE04"/>
<path d="M61.6269 60.3313C61.6583 60.3313 61.6844 59.7734 61.6844 59.0846C61.6844 58.3959 61.6583 57.8379 61.6269 57.8379C61.5955 57.8379 61.5693 58.3959 61.5693 59.0846C61.5693 59.7734 61.5955 60.3313 61.6269 60.3313Z" fill="#263238"/>
<path d="M62.3827 60.3313C62.4159 60.3313 62.4403 59.7734 62.4403 59.0846C62.4403 58.3959 62.4159 57.8379 62.3827 57.8379C62.3496 57.8379 62.3252 58.3959 62.3252 59.0846C62.3252 59.7734 62.3514 60.3313 62.3827 60.3313Z" fill="#263238"/>
<path d="M59.9628 60.3313C59.9959 60.3313 60.0204 59.7734 60.0204 59.0846C60.0204 58.3959 59.9959 57.8379 59.9628 57.8379C59.9297 57.8379 59.9053 58.3959 59.9053 59.0846C59.9053 59.7734 59.9314 60.3313 59.9628 60.3313Z" fill="#263238"/>
<path d="M60.7216 60.3313C60.753 60.3313 60.7791 59.7734 60.7791 59.0846C60.7791 58.3959 60.753 57.8379 60.7216 57.8379C60.6902 57.8379 60.6641 58.3959 60.6641 59.0846C60.6641 59.7734 60.6885 60.3313 60.7216 60.3313Z" fill="#263238"/>
<path d="M58.3017 60.3313C58.3331 60.3313 58.3592 59.7734 58.3592 59.0846C58.3592 58.3959 58.3331 57.8379 58.3017 57.8379C58.2703 57.8379 58.2441 58.3959 58.2441 59.0846C58.2441 59.7734 58.2686 60.3313 58.3017 60.3313Z" fill="#263238"/>
<path d="M59.0585 60.3313C59.0899 60.3313 59.1161 59.7734 59.1161 59.0846C59.1161 58.3959 59.0899 57.8379 59.0585 57.8379C59.0271 57.8379 59.001 58.3959 59.001 59.0846C59.001 59.7734 59.0271 60.3313 59.0585 60.3313Z" fill="#263238"/>
<path d="M56.6396 60.3313C56.671 60.3313 56.6971 59.7734 56.6971 59.0846C56.6971 58.3959 56.671 57.8379 56.6396 57.8379C56.6082 57.8379 56.582 58.3959 56.582 59.0846C56.582 59.7734 56.6064 60.3313 56.6396 60.3313Z" fill="#263238"/>
<path d="M57.3954 60.3313C57.4268 60.3313 57.453 59.7734 57.453 59.0846C57.453 58.3959 57.4268 57.8379 57.3954 57.8379C57.364 57.8379 57.3379 58.3959 57.3379 59.0846C57.3379 59.7734 57.364 60.3313 57.3954 60.3313Z" fill="#263238"/>
<path d="M54.9745 60.3313C55.0059 60.3313 55.0321 59.7734 55.0321 59.0846C55.0321 58.3959 55.0059 57.8379 54.9745 57.8379C54.9432 57.8379 54.917 58.3959 54.917 59.0846C54.917 59.7734 54.9432 60.3313 54.9745 60.3313Z" fill="#263238"/>
<path d="M55.7314 60.3313C55.7645 60.3313 55.7889 59.7734 55.7889 59.0846C55.7889 58.3959 55.7645 57.8379 55.7314 57.8379C55.6982 57.8379 55.6738 58.3959 55.6738 59.0846C55.6738 59.7734 55.7 60.3313 55.7314 60.3313Z" fill="#263238"/>
<path d="M53.3105 60.3313C53.3436 60.3313 53.3698 59.7734 53.3698 59.0846C53.3698 58.3959 53.3436 57.8379 53.3105 57.8379C53.2773 57.8379 53.2529 58.3959 53.2529 59.0846C53.2529 59.7734 53.2791 60.3313 53.3105 60.3313Z" fill="#263238"/>
<path d="M54.0693 60.3313C54.1006 60.3313 54.1268 59.7734 54.1268 59.0846C54.1268 58.3959 54.1006 57.8379 54.0693 57.8379C54.0379 57.8379 54.0117 58.3959 54.0117 59.0846C54.0117 59.7734 54.0361 60.3313 54.0693 60.3313Z" fill="#263238"/>
<path d="M51.6493 60.3313C51.6807 60.3313 51.7069 59.7734 51.7069 59.0846C51.7069 58.3959 51.6807 57.8379 51.6493 57.8379C51.618 57.8379 51.5918 58.3959 51.5918 59.0846C51.5918 59.7734 51.6162 60.3313 51.6493 60.3313Z" fill="#263238"/>
<path d="M52.4052 60.3313C52.4366 60.3313 52.4627 59.7734 52.4627 59.0846C52.4627 58.3959 52.4366 57.8379 52.4052 57.8379C52.3738 57.8379 52.3477 58.3959 52.3477 59.0846C52.3477 59.7734 52.3738 60.3313 52.4052 60.3313Z" fill="#263238"/>
<path d="M49.9863 60.3313C50.0176 60.3313 50.0438 59.7734 50.0438 59.0846C50.0438 58.3959 50.0176 57.8379 49.9863 57.8379C49.9549 57.8379 49.9287 58.3959 49.9287 59.0846C49.9287 59.7734 49.9549 60.3313 49.9863 60.3313Z" fill="#263238"/>
<path d="M50.7421 60.3313C50.7735 60.3313 50.7997 59.7734 50.7997 59.0846C50.7997 58.3959 50.7735 57.8379 50.7421 57.8379C50.7107 57.8379 50.6846 58.3959 50.6846 59.0846C50.6846 59.7734 50.7107 60.3313 50.7421 60.3313Z" fill="#263238"/>
<path d="M49.1416 57.7983C49.1416 57.8296 52.2558 57.8558 56.0936 57.8558C59.9315 57.8558 63.0474 57.8296 63.0474 57.7983C63.0474 57.7669 59.935 57.7407 56.0936 57.7407C52.2523 57.7407 49.1416 57.7651 49.1416 57.7983Z" fill="#263238"/>
<path d="M50.0493 62.8633H63.8906V60.3506H50.0493V62.8633Z" fill="#FEBE04"/>
<path d="M62.5331 62.8812C62.5645 62.8812 62.5907 62.3232 62.5907 61.6344C62.5907 60.9457 62.5645 60.3877 62.5331 60.3877C62.5017 60.3877 62.4756 60.9457 62.4756 61.6344C62.4756 62.3232 62.5017 62.8812 62.5331 62.8812Z" fill="#263238"/>
<path d="M63.29 62.8812C63.3214 62.8812 63.3475 62.3232 63.3475 61.6344C63.3475 60.9457 63.3214 60.3877 63.29 60.3877C63.2586 60.3877 63.2324 60.9457 63.2324 61.6344C63.2324 62.3232 63.2656 62.8812 63.29 62.8812Z" fill="#263238"/>
<path d="M60.87 62.8812C60.9014 62.8812 60.9276 62.3232 60.9276 61.6344C60.9276 60.9457 60.9014 60.3877 60.87 60.3877C60.8387 60.3877 60.8125 60.9457 60.8125 61.6344C60.8125 62.3232 60.8387 62.8812 60.87 62.8812Z" fill="#263238"/>
<path d="M61.6269 62.8812C61.6583 62.8812 61.6844 62.3232 61.6844 61.6344C61.6844 60.9457 61.6583 60.3877 61.6269 60.3877C61.5955 60.3877 61.5693 60.9457 61.5693 61.6344C61.5693 62.3232 61.5955 62.8812 61.6269 62.8812Z" fill="#263238"/>
<path d="M59.2069 62.8812C59.2401 62.8812 59.2645 62.3232 59.2645 61.6344C59.2645 60.9457 59.2401 60.3877 59.2069 60.3877C59.1738 60.3877 59.1494 60.9457 59.1494 61.6344C59.1494 62.3232 59.1756 62.8812 59.2069 62.8812Z" fill="#263238"/>
<path d="M59.9628 62.8812C59.9959 62.8812 60.0204 62.3232 60.0204 61.6344C60.0204 60.9457 59.9959 60.3877 59.9628 60.3877C59.9297 60.3877 59.9053 60.9457 59.9053 61.6344C59.9053 62.3232 59.9314 62.8812 59.9628 62.8812Z" fill="#263238"/>
<path d="M57.5448 62.8812C57.5762 62.8812 57.6024 62.3232 57.6024 61.6344C57.6024 60.9457 57.5762 60.3877 57.5448 60.3877C57.5135 60.3877 57.4873 60.9457 57.4873 61.6344C57.4873 62.3232 57.5117 62.8812 57.5448 62.8812Z" fill="#263238"/>
<path d="M58.3017 62.8812C58.3331 62.8812 58.3592 62.3232 58.3592 61.6344C58.3592 60.9457 58.3331 60.3877 58.3017 60.3877C58.2703 60.3877 58.2441 60.9457 58.2441 61.6344C58.2441 62.3232 58.2686 62.8812 58.3017 62.8812Z" fill="#263238"/>
<path d="M55.8818 62.8812C55.9131 62.8812 55.9393 62.3232 55.9393 61.6344C55.9393 60.9457 55.9131 60.3877 55.8818 60.3877C55.8504 60.3877 55.8242 60.9457 55.8242 61.6344C55.8242 62.3232 55.8504 62.8812 55.8818 62.8812Z" fill="#263238"/>
<path d="M56.6396 62.8812C56.671 62.8812 56.6971 62.3232 56.6971 61.6344C56.6971 60.9457 56.671 60.3877 56.6396 60.3877C56.6082 60.3877 56.582 60.9457 56.582 61.6344C56.582 62.3232 56.6064 62.8812 56.6396 62.8812Z" fill="#263238"/>
<path d="M54.2177 62.8812C54.2491 62.8812 54.2752 62.3232 54.2752 61.6344C54.2752 60.9457 54.2491 60.3877 54.2177 60.3877C54.1863 60.3877 54.1602 60.9457 54.1602 61.6344C54.1602 62.3232 54.1863 62.8812 54.2177 62.8812Z" fill="#263238"/>
<path d="M54.9745 62.8812C55.0059 62.8812 55.0321 62.3232 55.0321 61.6344C55.0321 60.9457 55.0059 60.3877 54.9745 60.3877C54.9432 60.3877 54.917 60.9457 54.917 61.6344C54.917 62.3232 54.9432 62.8812 54.9745 62.8812Z" fill="#263238"/>
<path d="M52.5536 62.8812C52.5868 62.8812 52.6112 62.3232 52.6112 61.6344C52.6112 60.9457 52.5868 60.3877 52.5536 60.3877C52.5205 60.3877 52.4961 60.9457 52.4961 61.6344C52.4961 62.3232 52.5223 62.8812 52.5536 62.8812Z" fill="#263238"/>
<path d="M53.3105 62.8812C53.3436 62.8812 53.3698 62.3232 53.3698 61.6344C53.3698 60.9457 53.3436 60.3877 53.3105 60.3877C53.2773 60.3877 53.2529 60.9457 53.2529 61.6344C53.2529 62.3232 53.2791 62.8812 53.3105 62.8812Z" fill="#263238"/>
<path d="M50.8847 62.8812C50.9161 62.8812 50.9422 62.3232 50.9422 61.6344C50.9422 60.9457 50.9161 60.3877 50.8847 60.3877C50.8533 60.3877 50.8271 60.9457 50.8271 61.6344C50.8271 62.3232 50.8585 62.8812 50.8847 62.8812Z" fill="#263238"/>
<path d="M51.6493 62.8812C51.6807 62.8812 51.7069 62.3232 51.7069 61.6344C51.7069 60.9457 51.6807 60.3877 51.6493 60.3877C51.618 60.3877 51.5918 60.9457 51.5918 61.6344C51.5918 62.3232 51.6162 62.8812 51.6493 62.8812Z" fill="#263238"/>
<path d="M50.0488 60.3508C50.0488 60.3821 53.1613 60.4083 57.0009 60.4083C60.8405 60.4083 63.9529 60.3821 63.9529 60.3508C63.9529 60.3194 60.8422 60.2932 57.0009 60.2932C53.1596 60.2932 50.0488 60.3194 50.0488 60.3508Z" fill="#263238"/>
<path d="M48.9175 65.395H62.7588V62.8824H48.9175V65.395Z" fill="#FEBE04"/>
<path d="M61.4017 65.4129C61.4331 65.4129 61.4593 64.8532 61.4593 64.1662C61.4593 63.4792 61.4331 62.9194 61.4017 62.9194C61.3703 62.9194 61.3477 63.4704 61.3477 64.1679C61.3477 64.8654 61.3703 65.4129 61.4017 65.4129Z" fill="#263238"/>
<path d="M62.1591 65.4129C62.1922 65.4129 62.2166 64.8532 62.2166 64.1662C62.2166 63.4792 62.1922 62.9194 62.1591 62.9194C62.126 62.9194 62.1016 63.4774 62.1016 64.1662C62.1016 64.8549 62.1277 65.4129 62.1591 65.4129Z" fill="#263238"/>
<path d="M59.7382 65.4129C59.7713 65.4129 59.7957 64.8532 59.7957 64.1662C59.7957 63.4792 59.7713 62.9194 59.7382 62.9194C59.7051 62.9194 59.6807 63.4774 59.6807 64.1662C59.6807 64.8549 59.7068 65.4129 59.7382 65.4129Z" fill="#263238"/>
<path d="M60.4968 65.4129C60.5282 65.4129 60.5543 64.8532 60.5543 64.1662C60.5543 63.4792 60.5282 62.9194 60.4968 62.9194C60.4654 62.9194 60.4375 63.4774 60.4375 64.1662C60.4375 64.8549 60.4636 65.4129 60.4968 65.4129Z" fill="#263238"/>
<path d="M58.0761 65.4129C58.1075 65.4129 58.1336 64.8532 58.1336 64.1662C58.1336 63.4792 58.1075 62.9194 58.0761 62.9194C58.0447 62.9194 58.0186 63.4774 58.0186 64.1662C58.0186 64.8549 58.043 65.4129 58.0761 65.4129Z" fill="#263238"/>
<path d="M58.8329 65.4129C58.8643 65.4129 58.8905 64.8532 58.8905 64.1662C58.8905 63.4792 58.8643 62.9194 58.8329 62.9194C58.8015 62.9194 58.7754 63.4774 58.7754 64.1662C58.7754 64.8549 58.8015 65.4129 58.8329 65.4129Z" fill="#263238"/>
<path d="M56.413 65.4129C56.4444 65.4129 56.4706 64.8532 56.4706 64.1662C56.4706 63.4792 56.4444 62.9194 56.413 62.9194C56.3816 62.9194 56.3555 63.4774 56.3555 64.1662C56.3555 64.8549 56.3816 65.4129 56.413 65.4129Z" fill="#263238"/>
<path d="M57.162 65.4129C57.1934 65.4129 57.2196 64.8532 57.2196 64.1662C57.2196 63.4792 57.1934 62.9194 57.162 62.9194C57.1307 62.9194 57.1045 63.4774 57.1045 64.1662C57.1045 64.8549 57.1376 65.4129 57.162 65.4129Z" fill="#263238"/>
<path d="M54.7499 65.4129C54.7813 65.4129 54.8075 64.8532 54.8075 64.1662C54.8075 63.4792 54.7813 62.9194 54.7499 62.9194C54.7185 62.9194 54.6924 63.4774 54.6924 64.1662C54.6924 64.8549 54.722 65.4129 54.7499 65.4129Z" fill="#263238"/>
<path d="M55.5058 65.4129C55.5389 65.4129 55.5633 64.8532 55.5633 64.1662C55.5633 63.4792 55.5389 62.9194 55.5058 62.9194C55.4727 62.9194 55.4482 63.4774 55.4482 64.1662C55.4482 64.8549 55.4744 65.4129 55.5058 65.4129Z" fill="#263238"/>
<path d="M53.0868 65.4129C53.12 65.4129 53.1444 64.8532 53.1444 64.1662C53.1444 63.4792 53.12 62.9194 53.0868 62.9194C53.0537 62.9194 53.0293 63.4774 53.0293 64.1662C53.0293 64.8549 53.0555 65.4129 53.0868 65.4129Z" fill="#263238"/>
<path d="M53.8505 65.4129C53.8819 65.4129 53.9081 64.8532 53.9081 64.1662C53.9081 63.4792 53.8819 62.9194 53.8505 62.9194C53.8191 62.9194 53.793 63.4774 53.793 64.1662C53.793 64.8549 53.8122 65.4129 53.8505 65.4129Z" fill="#263238"/>
<path d="M51.4247 65.4129C51.4561 65.4129 51.4823 64.8532 51.4823 64.1662C51.4823 63.4792 51.4561 62.9194 51.4247 62.9194C51.3933 62.9194 51.3672 63.4774 51.3672 64.1662C51.3672 64.8549 51.3916 65.4129 51.4247 65.4129Z" fill="#263238"/>
<path d="M52.1816 65.4129C52.213 65.4129 52.2391 64.8532 52.2391 64.1662C52.2391 63.4792 52.213 62.9194 52.1816 62.9194C52.1502 62.9194 52.124 63.4774 52.124 64.1662C52.124 64.8549 52.1502 65.4129 52.1816 65.4129Z" fill="#263238"/>
<path d="M49.7607 65.4129C49.7921 65.4129 49.8182 64.8532 49.8182 64.1662C49.8182 63.4792 49.7921 62.9194 49.7607 62.9194C49.7293 62.9194 49.7031 63.4774 49.7031 64.1662C49.7031 64.8549 49.7293 65.4129 49.7607 65.4129Z" fill="#263238"/>
<path d="M50.5175 65.4129C50.5489 65.4129 50.575 64.8532 50.575 64.1662C50.575 63.4792 50.5489 62.9194 50.5175 62.9194C50.4861 62.9194 50.46 63.4774 50.46 64.1662C50.46 64.8549 50.4861 65.4129 50.5175 65.4129Z" fill="#263238"/>
<path d="M48.917 62.8805C48.917 62.9119 52.0382 62.9381 55.8917 62.9381C59.7452 62.9381 62.8664 62.9119 62.8664 62.8805C62.8664 62.8492 59.747 62.823 55.8917 62.823C52.0364 62.823 48.917 62.8492 48.917 62.8805Z" fill="#263238"/>
<path d="M50.0024 67.8887H63.8438V65.376H50.0024V67.8887Z" fill="#FEBE04"/>
<path d="M62.4863 67.9046C62.5194 67.9046 62.5438 67.3466 62.5438 66.6596C62.5438 65.9726 62.5194 65.4128 62.4863 65.4128C62.4531 65.4128 62.4287 65.9708 62.4287 66.6596C62.4287 67.3483 62.4549 67.9046 62.4863 67.9046Z" fill="#263238"/>
<path d="M63.2448 67.9046C63.2762 67.9046 63.3024 67.3466 63.3024 66.6596C63.3024 65.9726 63.2762 65.4128 63.2448 65.4128C63.2135 65.4128 63.1855 65.9708 63.1855 66.6596C63.1855 67.3483 63.2117 67.9046 63.2448 67.9046Z" fill="#263238"/>
<path d="M60.8241 67.9046C60.8555 67.9046 60.8817 67.3466 60.8817 66.6596C60.8817 65.9726 60.8555 65.4128 60.8241 65.4128C60.7928 65.4128 60.7666 65.9708 60.7666 66.6596C60.7666 67.3483 60.791 67.9046 60.8241 67.9046Z" fill="#263238"/>
<path d="M61.581 67.9046C61.6124 67.9046 61.6385 67.3466 61.6385 66.6596C61.6385 65.9726 61.6124 65.4128 61.581 65.4128C61.5496 65.4128 61.5234 65.9708 61.5234 66.6596C61.5234 67.3483 61.5496 67.9046 61.581 67.9046Z" fill="#263238"/>
<path d="M59.1611 67.9046C59.1924 67.9046 59.2186 67.3466 59.2186 66.6596C59.2186 65.9726 59.1924 65.4128 59.1611 65.4128C59.1297 65.4128 59.1035 65.9708 59.1035 66.6596C59.1035 67.3483 59.1297 67.9046 59.1611 67.9046Z" fill="#263238"/>
<path d="M59.9179 67.9046C59.9493 67.9046 59.9754 67.3466 59.9754 66.6596C59.9754 65.9726 59.9493 65.4128 59.9179 65.4128C59.8865 65.4128 59.8604 65.9708 59.8604 66.6596C59.8604 67.3483 59.8865 67.9046 59.9179 67.9046Z" fill="#263238"/>
<path d="M57.498 67.9046C57.5293 67.9046 57.5555 67.3466 57.5555 66.6596C57.5555 65.9726 57.5293 65.4128 57.498 65.4128C57.4666 65.4128 57.4404 65.9708 57.4404 66.6596C57.4404 67.3483 57.4666 67.9046 57.498 67.9046Z" fill="#263238"/>
<path d="M58.2548 67.9046C58.2879 67.9046 58.3124 67.3466 58.3124 66.6596C58.3124 65.9726 58.2879 65.4128 58.2548 65.4128C58.2217 65.4128 58.1973 65.9708 58.1973 66.6596C58.1973 67.3483 58.2234 67.9046 58.2548 67.9046Z" fill="#263238"/>
<path d="M55.8349 67.9046C55.868 67.9046 55.8924 67.3466 55.8924 66.6596C55.8924 65.9726 55.868 65.4128 55.8349 65.4128C55.8018 65.4128 55.7773 65.9708 55.7773 66.6596C55.7773 67.3483 55.8035 67.9046 55.8349 67.9046Z" fill="#263238"/>
<path d="M56.5935 67.9046C56.6248 67.9046 56.651 67.3466 56.651 66.6596C56.651 65.9726 56.6248 65.4128 56.5935 65.4128C56.5621 65.4128 56.5342 65.9708 56.5342 66.6596C56.5342 67.3483 56.5603 67.9046 56.5935 67.9046Z" fill="#263238"/>
<path d="M54.1718 67.9046C54.2032 67.9046 54.2293 67.3466 54.2293 66.6596C54.2293 65.9726 54.2032 65.4128 54.1718 65.4128C54.1404 65.4128 54.1143 65.9708 54.1143 66.6596C54.1143 67.3483 54.1387 67.9046 54.1718 67.9046Z" fill="#263238"/>
<path d="M54.9286 67.9046C54.96 67.9046 54.9862 67.3466 54.9862 66.6596C54.9862 65.9726 54.96 65.4128 54.9286 65.4128C54.8973 65.4128 54.8711 65.9708 54.8711 66.6596C54.8711 67.3483 54.8955 67.9046 54.9286 67.9046Z" fill="#263238"/>
<path d="M52.5087 67.9046C52.5401 67.9046 52.5663 67.3466 52.5663 66.6596C52.5663 65.9726 52.5401 65.4128 52.5087 65.4128C52.4773 65.4128 52.4512 65.9708 52.4512 66.6596C52.4512 67.3483 52.4773 67.9046 52.5087 67.9046Z" fill="#263238"/>
<path d="M53.2656 67.9046C53.2969 67.9046 53.3231 67.3466 53.3231 66.6596C53.3231 65.9726 53.2969 65.4128 53.2656 65.4128C53.2342 65.4128 53.208 65.9708 53.208 66.6596C53.208 67.3483 53.2342 67.9046 53.2656 67.9046Z" fill="#263238"/>
<path d="M50.8447 67.9046C50.876 67.9046 50.9022 67.3466 50.9022 66.6596C50.9022 65.9726 50.876 65.4128 50.8447 65.4128C50.8133 65.4128 50.7871 65.9708 50.7871 66.6596C50.7871 67.3483 50.8133 67.9046 50.8447 67.9046Z" fill="#263238"/>
<path d="M51.6015 67.9046C51.6346 67.9046 51.659 67.3466 51.659 66.6596C51.659 65.9726 51.6346 65.4128 51.6015 65.4128C51.5683 65.4128 51.5439 65.9708 51.5439 66.6596C51.5439 67.3483 51.5701 67.9046 51.6015 67.9046Z" fill="#263238"/>
<path d="M50.0029 65.3744C50.0029 65.4058 53.1154 65.432 56.955 65.432C60.7946 65.432 63.907 65.4058 63.907 65.3744C63.907 65.3431 60.7946 65.3169 56.955 65.3169C53.1154 65.3169 50.0029 65.3431 50.0029 65.3744Z" fill="#263238"/>
<path d="M48.6157 70.4377H62.457V67.9251H48.6157V70.4377Z" fill="#FEBE04"/>
<path d="M61.0995 70.4551C61.1309 70.4551 61.1571 69.8954 61.1571 69.2084C61.1571 68.5214 61.1309 67.9617 61.0995 67.9617C61.0682 67.9617 61.042 68.5196 61.042 69.2084C61.042 69.8972 61.0682 70.4551 61.0995 70.4551Z" fill="#263238"/>
<path d="M61.8564 70.4551C61.8877 70.4551 61.9139 69.8954 61.9139 69.2084C61.9139 68.5214 61.8877 67.9617 61.8564 67.9617C61.825 67.9617 61.7988 68.5196 61.7988 69.2084C61.7988 69.8972 61.825 70.4551 61.8564 70.4551Z" fill="#263238"/>
<path d="M59.4296 70.4551C59.461 70.4551 59.4872 69.8954 59.4872 69.2084C59.4872 68.5214 59.461 67.9617 59.4296 67.9617C59.3982 67.9617 59.3721 68.5196 59.3721 69.2084C59.3721 69.8972 59.4052 70.4551 59.4296 70.4551Z" fill="#263238"/>
<path d="M60.1933 70.4551C60.2264 70.4551 60.2508 69.8954 60.2508 69.2084C60.2508 68.5214 60.2264 67.9617 60.1933 67.9617C60.1602 67.9617 60.1357 68.5196 60.1357 69.2084C60.1357 69.8972 60.1619 70.4551 60.1933 70.4551Z" fill="#263238"/>
<path d="M57.7734 70.4551C57.8065 70.4551 57.8309 69.8954 57.8309 69.2084C57.8309 68.5214 57.8065 67.9617 57.7734 67.9617C57.7402 67.9617 57.7158 68.5196 57.7158 69.2084C57.7158 69.8972 57.742 70.4551 57.7734 70.4551Z" fill="#263238"/>
<path d="M58.5312 70.4551C58.5626 70.4551 58.5887 69.8954 58.5887 69.2084C58.5887 68.5214 58.5626 67.9617 58.5312 67.9617C58.4998 67.9617 58.4736 68.5196 58.4736 69.2084C58.4736 69.8972 58.498 70.4551 58.5312 70.4551Z" fill="#263238"/>
<path d="M56.1171 70.4551C56.1485 70.4551 56.1747 69.8954 56.1747 69.2084C56.1747 68.5214 56.1485 67.9617 56.1171 67.9617C56.0857 67.9617 56.0596 68.5196 56.0596 69.2084C56.0596 69.8972 56.0788 70.4551 56.1171 70.4551Z" fill="#263238"/>
<path d="M56.8681 70.4551C56.8995 70.4551 56.9256 69.8954 56.9256 69.2084C56.9256 68.5214 56.8995 67.9617 56.8681 67.9617C56.8367 67.9617 56.8105 68.5196 56.8105 69.2084C56.8105 69.8972 56.8367 70.4551 56.8681 70.4551Z" fill="#263238"/>
<path d="M54.4482 70.4551C54.4796 70.4551 54.5057 69.8954 54.5057 69.2084C54.5057 68.5214 54.4796 67.9617 54.4482 67.9617C54.4168 67.9617 54.3906 68.5196 54.3906 69.2084C54.3906 69.8972 54.4168 70.4551 54.4482 70.4551Z" fill="#263238"/>
<path d="M55.205 70.4551C55.2364 70.4551 55.2625 69.8954 55.2625 69.2084C55.2625 68.5214 55.2364 67.9617 55.205 67.9617C55.1736 67.9617 55.1475 68.5196 55.1475 69.2084C55.1475 69.8972 55.1736 70.4551 55.205 70.4551Z" fill="#263238"/>
<path d="M52.7841 70.4551C52.8155 70.4551 52.8416 69.8954 52.8416 69.2084C52.8416 68.5214 52.8155 67.9617 52.7841 67.9617C52.7527 67.9617 52.7266 68.5196 52.7266 69.2084C52.7266 69.8972 52.7527 70.4551 52.7841 70.4551Z" fill="#263238"/>
<path d="M53.5409 70.4551C53.5741 70.4551 53.5985 69.8954 53.5985 69.2084C53.5985 68.5214 53.5741 67.9617 53.5409 67.9617C53.5078 67.9617 53.4834 68.5196 53.4834 69.2084C53.4834 69.8972 53.5095 70.4551 53.5409 70.4551Z" fill="#263238"/>
<path d="M51.121 70.4551C51.1541 70.4551 51.1786 69.8954 51.1786 69.2084C51.1786 68.5214 51.1541 67.9617 51.121 67.9617C51.0879 67.9617 51.0635 68.5196 51.0635 69.2084C51.0635 69.8972 51.0896 70.4551 51.121 70.4551Z" fill="#263238"/>
<path d="M51.8798 70.4551C51.9112 70.4551 51.9374 69.8954 51.9374 69.2084C51.9374 68.5214 51.9112 67.9617 51.8798 67.9617C51.8484 67.9617 51.8223 68.5196 51.8223 69.2084C51.8223 69.8972 51.8467 70.4551 51.8798 70.4551Z" fill="#263238"/>
<path d="M49.4589 70.4551C49.4903 70.4551 49.5165 69.8954 49.5165 69.2084C49.5165 68.5214 49.4903 67.9617 49.4589 67.9617C49.4275 67.9617 49.4014 68.5196 49.4014 69.2084C49.4014 69.8972 49.4258 70.4551 49.4589 70.4551Z" fill="#263238"/>
<path d="M50.2157 70.4551C50.2471 70.4551 50.2733 69.8954 50.2733 69.2084C50.2733 68.5214 50.2471 67.9617 50.2157 67.9617C50.1844 67.9617 50.1582 68.5196 50.1582 69.2084C50.1582 69.8972 50.1878 70.4551 50.2157 70.4551Z" fill="#263238"/>
<path d="M48.6191 67.9238C48.6191 67.9551 51.7316 67.9813 55.5712 67.9813C59.4108 67.9813 62.525 67.9551 62.525 67.9238C62.525 67.8924 59.4125 67.8662 55.5712 67.8662C51.7299 67.8662 48.6191 67.8924 48.6191 67.9238Z" fill="#263238"/>
<path d="M49.4819 72.9802H63.3232V70.4676H49.4819V72.9802Z" fill="#FEBE04"/>
<path d="M61.9687 72.9981C62.0001 72.9981 62.0262 72.4384 62.0262 71.7514C62.0262 71.0644 62.0001 70.5046 61.9687 70.5046C61.9373 70.5046 61.9111 71.0626 61.9111 71.7514C61.9111 72.4401 61.9355 72.9981 61.9687 72.9981Z" fill="#263238"/>
<path d="M62.7255 72.9981C62.7569 72.9981 62.783 72.4384 62.783 71.7514C62.783 71.0644 62.7569 70.5046 62.7255 70.5046C62.6941 70.5046 62.668 71.0626 62.668 71.7514C62.668 72.4401 62.6924 72.9981 62.7255 72.9981Z" fill="#263238"/>
<path d="M60.3017 72.9981C60.3331 72.9981 60.3592 72.4384 60.3592 71.7514C60.3592 71.0644 60.3331 70.5046 60.3017 70.5046C60.2703 70.5046 60.2441 71.0626 60.2441 71.7514C60.2441 72.4401 60.2738 72.9981 60.3017 72.9981Z" fill="#263238"/>
<path d="M61.0614 72.9981C61.0928 72.9981 61.119 72.4384 61.119 71.7514C61.119 71.0644 61.0928 70.5046 61.0614 70.5046C61.0301 70.5046 61.0039 71.0626 61.0039 71.7514C61.0039 72.4401 61.0301 72.9981 61.0614 72.9981Z" fill="#263238"/>
<path d="M58.6415 72.9981C58.6729 72.9981 58.6991 72.4384 58.6991 71.7514C58.6991 71.0644 58.6729 70.5046 58.6415 70.5046C58.6101 70.5046 58.584 71.0626 58.584 71.7514C58.584 72.4401 58.6101 72.9981 58.6415 72.9981Z" fill="#263238"/>
<path d="M59.3984 72.9981C59.4298 72.9981 59.4559 72.4384 59.4559 71.7514C59.4559 71.0644 59.4298 70.5046 59.3984 70.5046C59.367 70.5046 59.3408 71.0626 59.3408 71.7514C59.3408 72.4401 59.367 72.9981 59.3984 72.9981Z" fill="#263238"/>
<path d="M56.9784 72.9981C57.0116 72.9981 57.036 72.4384 57.036 71.7514C57.036 71.0644 57.0116 70.5046 56.9784 70.5046C56.9453 70.5046 56.9209 71.0626 56.9209 71.7514C56.9209 72.4401 56.9471 72.9981 56.9784 72.9981Z" fill="#263238"/>
<path d="M57.7353 72.9981C57.7684 72.9981 57.7946 72.4384 57.7946 71.7514C57.7946 71.0644 57.7684 70.5046 57.7353 70.5046C57.7021 70.5046 57.6777 71.0626 57.6777 71.7514C57.6777 72.4401 57.7039 72.9981 57.7353 72.9981Z" fill="#263238"/>
<path d="M55.3163 72.9981C55.3477 72.9981 55.3739 72.4384 55.3739 71.7514C55.3739 71.0644 55.3477 70.5046 55.3163 70.5046C55.2849 70.5046 55.2588 71.0626 55.2588 71.7514C55.2588 72.4401 55.2832 72.9981 55.3163 72.9981Z" fill="#263238"/>
<path d="M56.0732 72.9981C56.1046 72.9981 56.1307 72.4384 56.1307 71.7514C56.1307 71.0644 56.1046 70.5046 56.0732 70.5046C56.0418 70.5046 56.0156 71.0626 56.0156 71.7514C56.0156 72.4401 56.04 72.9981 56.0732 72.9981Z" fill="#263238"/>
<path d="M53.6532 72.9981C53.6846 72.9981 53.7108 72.4384 53.7108 71.7514C53.7108 71.0644 53.6846 70.5046 53.6532 70.5046C53.6219 70.5046 53.5957 71.0626 53.5957 71.7514C53.5957 72.4401 53.6219 72.9981 53.6532 72.9981Z" fill="#263238"/>
<path d="M54.4101 72.9981C54.4415 72.9981 54.4676 72.4384 54.4676 71.7514C54.4676 71.0644 54.4415 70.5046 54.4101 70.5046C54.3787 70.5046 54.3525 71.0626 54.3525 71.7514C54.3525 72.4401 54.3735 72.9981 54.4101 72.9981Z" fill="#263238"/>
<path d="M51.9892 72.9981C52.0206 72.9981 52.0467 72.4384 52.0467 71.7514C52.0467 71.0644 52.0206 70.5046 51.9892 70.5046C51.9578 70.5046 51.9316 71.0626 51.9316 71.7514C51.9316 72.4401 51.9578 72.9981 51.9892 72.9981Z" fill="#263238"/>
<path d="M52.746 72.9981C52.7774 72.9981 52.8036 72.4384 52.8036 71.7514C52.8036 71.0644 52.7774 70.5046 52.746 70.5046C52.7146 70.5046 52.6885 71.0626 52.6885 71.7514C52.6885 72.4401 52.7146 72.9981 52.746 72.9981Z" fill="#263238"/>
<path d="M50.3261 72.9981C50.3592 72.9981 50.3836 72.4384 50.3836 71.7514C50.3836 71.0644 50.3592 70.5046 50.3261 70.5046C50.293 70.5046 50.2686 71.0626 50.2686 71.7514C50.2686 72.4401 50.2947 72.9981 50.3261 72.9981Z" fill="#263238"/>
<path d="M51.0829 72.9981C51.1161 72.9981 51.1422 72.4384 51.1422 71.7514C51.1422 71.0644 51.1161 70.5046 51.0829 70.5046C51.0498 70.5046 51.0254 71.0626 51.0254 71.7514C51.0254 72.4401 51.0603 72.9981 51.0829 72.9981Z" fill="#263238"/>
<path d="M49.4902 70.4657C49.4902 70.4971 52.6097 70.5233 56.465 70.5233C60.3202 70.5233 63.4397 70.4971 63.4397 70.4657C63.4397 70.4344 60.3202 70.4082 56.465 70.4082C52.6097 70.4082 49.4902 70.4344 49.4902 70.4657Z" fill="#263238"/>
<path d="M50.5688 75.4739H64.4102V72.9612H50.5688V75.4739Z" fill="#FEBE04"/>
<path d="M63.0536 75.4893C63.085 75.4893 63.1112 74.9313 63.1112 74.2443C63.1112 73.5573 63.085 72.9976 63.0536 72.9976C63.0223 72.9976 62.9961 73.5555 62.9961 74.2443C62.9961 74.933 63.0223 75.4893 63.0536 75.4893Z" fill="#263238"/>
<path d="M63.8095 75.4893C63.8409 75.4893 63.867 74.9313 63.867 74.2443C63.867 73.5573 63.8409 72.9976 63.8095 72.9976C63.7781 72.9976 63.752 73.5555 63.752 74.2443C63.752 74.933 63.7781 75.4893 63.8095 75.4893Z" fill="#263238"/>
<path d="M61.3896 75.4893C61.421 75.4893 61.4471 74.9313 61.4471 74.2443C61.4471 73.5573 61.421 72.9976 61.3896 72.9976C61.3582 72.9976 61.332 73.5555 61.332 74.2443C61.332 74.933 61.3582 75.4893 61.3896 75.4893Z" fill="#263238"/>
<path d="M62.1464 75.4893C62.1778 75.4893 62.2039 74.9313 62.2039 74.2443C62.2039 73.5573 62.1778 72.9976 62.1464 72.9976C62.115 72.9976 62.0889 73.5555 62.0889 74.2443C62.0889 74.933 62.115 75.4893 62.1464 75.4893Z" fill="#263238"/>
<path d="M59.7255 75.4893C59.7586 75.4893 59.7831 74.9313 59.7831 74.2443C59.7831 73.5573 59.7586 72.9976 59.7255 72.9976C59.6924 72.9976 59.668 73.5555 59.668 74.2443C59.668 74.933 59.6941 75.4893 59.7255 75.4893Z" fill="#263238"/>
<path d="M60.4755 75.4893C60.5086 75.4893 60.5331 74.9313 60.5331 74.2443C60.5331 73.5573 60.5086 72.9976 60.4755 72.9976C60.4424 72.9976 60.418 73.5555 60.418 74.2443C60.418 74.933 60.4511 75.4893 60.4755 75.4893Z" fill="#263238"/>
<path d="M58.0644 75.4893C58.0958 75.4893 58.1219 74.9313 58.1219 74.2443C58.1219 73.5573 58.0958 72.9976 58.0644 72.9976C58.033 72.9976 58.0068 73.5555 58.0068 74.2443C58.0068 74.933 58.0347 75.4893 58.0644 75.4893Z" fill="#263238"/>
<path d="M58.8212 75.4893C58.8526 75.4893 58.8788 74.9313 58.8788 74.2443C58.8788 73.5573 58.8526 72.9976 58.8212 72.9976C58.7898 72.9976 58.7637 73.5555 58.7637 74.2443C58.7637 74.933 58.7881 75.4893 58.8212 75.4893Z" fill="#263238"/>
<path d="M56.4013 75.4893C56.4327 75.4893 56.4588 74.9313 56.4588 74.2443C56.4588 73.5573 56.4327 72.9976 56.4013 72.9976C56.3699 72.9976 56.3438 73.5555 56.3438 74.2443C56.3438 74.933 56.3699 75.4893 56.4013 75.4893Z" fill="#263238"/>
<path d="M57.162 75.4893C57.1934 75.4893 57.2196 74.9313 57.2196 74.2443C57.2196 73.5573 57.1934 72.9976 57.162 72.9976C57.1307 72.9976 57.1045 73.5555 57.1045 74.2443C57.1045 74.933 57.1254 75.4893 57.162 75.4893Z" fill="#263238"/>
<path d="M54.7372 75.4893C54.7686 75.4893 54.7948 74.9313 54.7948 74.2443C54.7948 73.5573 54.7686 72.9976 54.7372 72.9976C54.7058 72.9976 54.6797 73.5555 54.6797 74.2443C54.6797 74.933 54.7058 75.4893 54.7372 75.4893Z" fill="#263238"/>
<path d="M55.4941 75.4893C55.5255 75.4893 55.5516 74.9313 55.5516 74.2443C55.5516 73.5573 55.5255 72.9976 55.4941 72.9976C55.4627 72.9976 55.4365 73.5555 55.4365 74.2443C55.4365 74.933 55.4627 75.4893 55.4941 75.4893Z" fill="#263238"/>
<path d="M53.0741 75.4893C53.1073 75.4893 53.1317 74.9313 53.1317 74.2443C53.1317 73.5573 53.1073 72.9976 53.0741 72.9976C53.041 72.9976 53.0166 73.5555 53.0166 74.2443C53.0166 74.933 53.0428 75.4893 53.0741 75.4893Z" fill="#263238"/>
<path d="M53.831 75.4893C53.8641 75.4893 53.8903 74.9313 53.8903 74.2443C53.8903 73.5573 53.8641 72.9976 53.831 72.9976C53.7979 72.9976 53.7734 73.5555 53.7734 74.2443C53.7734 74.933 53.7996 75.4893 53.831 75.4893Z" fill="#263238"/>
<path d="M51.4091 75.4893C51.4405 75.4893 51.4667 74.9313 51.4667 74.2443C51.4667 73.5573 51.4405 72.9976 51.4091 72.9976C51.3777 72.9976 51.3516 73.5555 51.3516 74.2443C51.3516 74.933 51.3795 75.4893 51.4091 75.4893Z" fill="#263238"/>
<path d="M52.1689 75.4893C52.2002 75.4893 52.2264 74.9313 52.2264 74.2443C52.2264 73.5573 52.2002 72.9976 52.1689 72.9976C52.1375 72.9976 52.1113 73.5555 52.1113 74.2443C52.1113 74.933 52.1357 75.4893 52.1689 75.4893Z" fill="#263238"/>
<path d="M50.5684 72.9592C50.5684 72.9905 53.6808 73.0167 57.5204 73.0167C61.36 73.0167 64.4725 72.9905 64.4725 72.9592C64.4725 72.9278 61.3617 72.9016 57.5204 72.9016C53.6791 72.9016 50.5684 72.9278 50.5684 72.9592Z" fill="#263238"/>
<g opacity="0.3">
<path d="M62.7584 62.8806C60.6904 63.3898 58.4882 63.4874 56.3644 63.3462C54.2406 63.2049 52.0958 62.8928 49.9668 62.919L62.7584 62.8806Z" fill="black"/>
</g>
<g opacity="0.3">
<path d="M62.6327 60.3787C60.5664 60.8878 58.3641 60.9855 56.2403 60.8442C54.1165 60.703 51.9718 60.3909 49.8428 60.417L62.6327 60.3787Z" fill="black"/>
</g>
<g opacity="0.3">
<path d="M61.9637 65.4006C59.8975 65.908 57.6934 66.0057 55.5696 65.8645C53.4458 65.7232 51.3011 65.4111 49.1738 65.4373L61.9637 65.4006Z" fill="black"/>
</g>
<g opacity="0.3">
<path d="M62.5057 67.9094C60.4395 68.4168 58.2372 68.5145 56.1134 68.3732C53.9896 68.232 51.8449 67.9199 49.7158 67.946L62.5057 67.9094Z" fill="black"/>
</g>
<g opacity="0.3">
<path d="M62.3414 70.4084C60.2734 70.9159 58.0712 71.0135 55.9474 70.8723C53.8236 70.731 51.6788 70.4189 49.5498 70.4451L62.3414 70.4084Z" fill="black"/>
</g>
<g opacity="0.3">
<path d="M63.0182 72.9543C60.9502 73.4635 58.7479 73.5611 56.6241 73.4199C54.5003 73.2787 52.3556 72.9665 50.2266 72.9927L63.0182 72.9543Z" fill="black"/>
</g>
<path d="M62.7284 59.5174C62.7616 59.5174 62.786 59.2088 62.786 58.8286C62.786 58.4485 62.7616 58.1399 62.7284 58.1399C62.6953 58.1399 62.6709 58.4485 62.6709 58.8286C62.6709 59.2088 62.697 59.5174 62.7284 59.5174Z" fill="white"/>
<path d="M63.6015 62.2025C63.6329 62.2025 63.659 61.8712 63.659 61.4632C63.659 61.0551 63.6329 60.7256 63.6015 60.7256C63.5701 60.7256 63.5439 61.0551 63.5439 61.4632C63.5439 61.8712 63.5701 62.2025 63.6015 62.2025Z" fill="white"/>
<path d="M62.3613 64.7867C62.3926 64.7867 62.4188 64.4938 62.4188 64.1328C62.4188 63.7719 62.3944 63.4702 62.3613 63.4702C62.3281 63.4702 62.3037 63.7632 62.3037 64.1258C62.3037 64.4885 62.3281 64.7867 62.3613 64.7867Z" fill="white"/>
<path d="M63.6347 67.1704C63.6661 67.1704 63.6922 66.9071 63.6922 66.5827C63.6922 66.2584 63.6661 65.9951 63.6347 65.9951C63.6033 65.9951 63.5771 66.2584 63.5771 66.5827C63.5771 66.9071 63.6033 67.1704 63.6347 67.1704Z" fill="white"/>
<path d="M58.5664 60.5563C58.5664 60.5895 59.5882 60.6139 60.8489 60.6139C62.1096 60.6139 63.1314 60.5895 63.1314 60.5563C63.1314 60.5232 62.1096 60.4988 60.8489 60.4988C59.5882 60.4988 58.5664 60.5249 58.5664 60.5563Z" fill="white"/>
<path d="M57.0898 58.1398C57.0898 58.1712 58.1204 58.1974 59.3898 58.1974C60.6592 58.1974 61.6897 58.1712 61.6897 58.1398C61.6897 58.1084 60.6592 58.0823 59.3898 58.0823C58.1204 58.0823 57.0898 58.1084 57.0898 58.1398Z" fill="white"/>
<path d="M54.875 58.1728C54.875 58.2059 55.2115 58.2321 55.63 58.2321C56.0485 58.2321 56.385 58.2059 56.385 58.1728C56.385 58.1396 56.0468 58.1152 55.63 58.1152C55.2133 58.1152 54.875 58.1414 54.875 58.1728Z" fill="white"/>
<path d="M62.2594 70.3475C62.3149 69.7093 62.3149 69.0676 62.2594 68.4294C62.2039 69.0676 62.2039 69.7093 62.2594 70.3475Z" fill="white"/>
<path d="M51.7412 67.6273C51.7412 67.65 54.2591 67.6691 57.3628 67.6691C60.4666 67.6691 62.9845 67.65 62.9845 67.6273C62.9845 67.6046 60.4683 67.5854 57.3628 67.5854C54.2573 67.5854 51.7412 67.6029 51.7412 67.6273Z" fill="white"/>
<path d="M53.9912 72.7116C53.9912 72.7342 55.9808 72.7534 58.4324 72.7534C60.884 72.7534 62.8753 72.7342 62.8753 72.7116C62.8753 72.6889 60.8875 72.668 58.4324 72.668C55.9773 72.668 53.9912 72.6802 53.9912 72.7116Z" fill="white"/>
<path d="M64.2176 74.9892C64.2734 74.6286 64.2734 74.2617 64.2176 73.9011C64.1618 74.2617 64.1618 74.6286 64.2176 74.9892Z" fill="white"/>
<path d="M54.4258 75.2069C54.4258 75.2296 56.4886 75.2487 59.0326 75.2487C61.5766 75.2487 63.6376 75.2296 63.6376 75.2069C63.6376 75.1842 61.5766 75.165 59.0326 75.165C56.4886 75.165 54.4258 75.1825 54.4258 75.2069Z" fill="white"/>
<path d="M64.4093 75.474C64.4119 75.459 64.4119 75.4437 64.4093 75.4287C64.4093 75.392 64.4093 75.3484 64.4093 75.2944C64.4093 75.1706 64.4093 75.0015 64.4093 74.787C64.4093 74.3389 64.4181 73.7059 64.425 72.9369V72.9038H64.3902H63.4032L63.4416 72.9404C63.4416 72.1854 63.4416 71.3345 63.4416 70.4313V70.3894H62.4826L62.5262 70.433C62.5262 69.5211 62.5262 68.6597 62.5262 67.8838L62.4878 67.9221H63.8252H63.8583V67.8907C63.8583 67.1253 63.8479 66.4958 63.8444 66.0564C63.8444 65.8436 63.8444 65.6763 63.8444 65.5525C63.8444 65.5001 63.8444 65.4566 63.8444 65.4217C63.8498 65.4204 63.8545 65.4172 63.8577 65.4126C63.8609 65.4081 63.8623 65.4025 63.8617 65.397C63.861 65.3915 63.8584 65.3864 63.8542 65.3827C63.8501 65.379 63.8447 65.377 63.8391 65.377C63.8336 65.377 63.8282 65.379 63.8241 65.3827C63.8199 65.3864 63.8173 65.3915 63.8166 65.397C63.816 65.4025 63.8174 65.4081 63.8206 65.4126C63.8238 65.4172 63.8285 65.4204 63.8339 65.4217C63.8339 65.4566 63.8339 65.5001 63.8339 65.5525C63.8339 65.6763 63.8339 65.8436 63.8339 66.0564C63.8339 66.4993 63.8252 67.1253 63.8182 67.8907L63.8514 67.8576H62.514H62.4756V67.8977C62.4756 68.6736 62.4756 69.535 62.4756 70.447V70.4888H63.4329L63.391 70.447C63.391 71.3502 63.391 72.2011 63.391 72.9561V72.9945H63.4294L64.4163 72.9788L64.3832 72.9457C64.3832 73.7146 64.3936 74.3406 64.3971 74.7957C64.3971 75.0102 64.3971 75.1793 64.3971 75.3031C64.3971 75.3572 64.3971 75.4008 64.3971 75.4374C64.3997 75.45 64.4038 75.4623 64.4093 75.474Z" fill="#263238"/>
<path d="M50.6497 10.772H8.76125C7.74431 10.772 6.91992 11.5964 6.91992 12.6133V73.6142C6.91992 74.6311 7.74431 75.4555 8.76125 75.4555H50.6497C51.6666 75.4555 52.491 74.6311 52.491 73.6142V12.6133C52.491 11.5964 51.6666 10.772 50.6497 10.772Z" fill="#E0E0E0"/>
<path d="M50.6509 75.4543L50.7921 75.4456C50.9311 75.4331 51.0684 75.4062 51.2019 75.3654C51.4208 75.2948 51.6248 75.1842 51.8034 75.0393C52.0511 74.838 52.2416 74.5753 52.3562 74.2774C52.4271 74.1 52.4678 73.912 52.4765 73.7211C52.487 73.5206 52.4765 73.3061 52.4765 73.0829C52.4765 72.6366 52.4765 72.1489 52.4765 71.62C52.4765 70.5598 52.4765 69.3393 52.4765 67.9583C52.4765 62.457 52.4678 54.5005 52.4625 44.6679C52.4625 39.7508 52.4625 34.3663 52.4625 28.5842C52.4625 25.6955 52.4625 22.7092 52.4625 19.6252C52.4625 18.085 52.4625 16.5232 52.4625 14.94C52.4625 14.1483 52.4625 13.3515 52.4625 12.5494C52.4506 12.1519 52.3072 11.7695 52.0548 11.4622C51.8024 11.1549 51.4552 10.9399 51.0676 10.851C50.8706 10.813 50.67 10.7978 50.4695 10.8057H8.76595C8.30418 10.8051 7.8599 10.9823 7.5252 11.3004C7.1905 11.6186 6.99106 12.0533 6.96822 12.5145C6.9595 13.4421 6.96822 14.375 6.96822 15.3044C6.96822 17.1585 6.96822 18.9987 6.96822 20.8249V31.6165C6.96822 38.6923 6.96822 45.5171 6.96822 52.0175C6.96822 58.518 6.96822 64.6976 6.96822 70.4779V72.6278C6.96822 72.9766 6.96822 73.3375 6.96822 73.6862C6.9821 74.0304 7.09446 74.3634 7.29197 74.6456C7.48947 74.9277 7.76382 75.1473 8.08243 75.2782C8.23887 75.3416 8.40306 75.3838 8.57066 75.4038C8.74503 75.4177 8.9194 75.4142 9.08156 75.416H11.1147H18.8322L42.1208 75.4299L18.8322 75.4439H11.1147H9.07284C8.89847 75.4439 8.72411 75.4439 8.54974 75.4334C8.37514 75.4117 8.20403 75.3678 8.04058 75.3026C7.71233 75.1652 7.42907 74.9387 7.2228 74.6488C7.01521 74.3556 6.8971 74.0085 6.88278 73.6496C6.87406 73.3009 6.88278 72.9434 6.88278 72.5877C6.88278 71.8786 6.88278 71.162 6.88278 70.4378C6.88278 64.6575 6.88278 58.4796 6.88278 51.9774C6.88278 45.4753 6.88278 38.6522 6.88278 31.5764C6.88278 28.039 6.88278 24.4418 6.88278 20.7848V15.3096C6.88278 14.3837 6.88278 13.4561 6.88278 12.5197C6.90654 12.0362 7.11562 11.5803 7.46662 11.2469C7.81761 10.9134 8.28355 10.7279 8.7677 10.729H50.4521C50.6584 10.7195 50.8651 10.7353 51.0676 10.776C51.4774 10.8681 51.8452 11.0931 52.1138 11.416C52.3762 11.7373 52.5252 12.1364 52.5375 12.5511C52.5375 13.3532 52.5375 14.1506 52.5375 14.9434C52.5375 16.5267 52.5375 18.0885 52.5375 19.6287C52.5375 22.708 52.5375 25.6944 52.5375 28.5877C52.5375 34.3698 52.5375 39.7473 52.5375 44.6714C52.5375 54.504 52.5253 62.457 52.5236 67.9617C52.5236 69.3358 52.5236 70.5563 52.5236 71.6235C52.5236 72.1466 52.5236 72.64 52.5236 73.0864C52.5236 73.3114 52.5236 73.5223 52.5236 73.7263C52.5142 73.919 52.473 74.1087 52.4015 74.2878C52.3007 74.5453 52.1434 74.7769 51.9412 74.9655C51.739 75.1541 51.4971 75.2949 51.2333 75.3776C51.0986 75.4178 50.9601 75.4435 50.82 75.4543H50.6509Z" fill="#263238"/>
<g opacity="0.3">
<path d="M11.2442 73.8483L49.457 73.6391L49.8946 66.2563L48.7246 61.803L10.8955 67.714L11.2442 73.8483Z" fill="black"/>
</g>
<path d="M50.6509 75.4543L50.7921 75.4456C50.9311 75.4331 51.0684 75.4062 51.2019 75.3654C51.4208 75.2948 51.6248 75.1842 51.8034 75.0393C52.0511 74.838 52.2416 74.5753 52.3562 74.2774C52.4271 74.1 52.4678 73.912 52.4765 73.7211C52.487 73.5206 52.4765 73.3061 52.4765 73.0829C52.4765 72.6366 52.4765 72.1489 52.4765 71.62C52.4765 70.5598 52.4765 69.3393 52.4765 67.9583C52.4765 62.457 52.4678 54.5005 52.4625 44.6679C52.4625 39.7508 52.4625 34.3663 52.4625 28.5842C52.4625 25.6955 52.4625 22.7092 52.4625 19.6252C52.4625 18.085 52.4625 16.5232 52.4625 14.94C52.4625 14.1483 52.4625 13.3515 52.4625 12.5494C52.4506 12.1519 52.3072 11.7695 52.0548 11.4622C51.8024 11.1549 51.4552 10.9399 51.0676 10.851C50.8706 10.813 50.67 10.7978 50.4695 10.8057H8.76595C8.30418 10.8051 7.8599 10.9823 7.5252 11.3004C7.1905 11.6186 6.99106 12.0533 6.96822 12.5145C6.9595 13.4421 6.96822 14.375 6.96822 15.3044C6.96822 17.1585 6.96822 18.9987 6.96822 20.8249V31.6165C6.96822 38.6923 6.96822 45.5171 6.96822 52.0175C6.96822 58.518 6.96822 64.6976 6.96822 70.4779V72.6278C6.96822 72.9766 6.96822 73.3375 6.96822 73.6862C6.9821 74.0304 7.09446 74.3634 7.29197 74.6456C7.48947 74.9277 7.76382 75.1473 8.08243 75.2782C8.23887 75.3416 8.40306 75.3838 8.57066 75.4038C8.74503 75.4177 8.9194 75.4142 9.08156 75.416H11.1147H18.8322L42.1208 75.4299L18.8322 75.4439H11.1147H9.07284C8.89847 75.4439 8.72411 75.4439 8.54974 75.4334C8.37514 75.4117 8.20403 75.3678 8.04058 75.3026C7.71233 75.1652 7.42907 74.9387 7.2228 74.6488C7.01521 74.3556 6.8971 74.0085 6.88278 73.6496C6.87406 73.3009 6.88278 72.9434 6.88278 72.5877C6.88278 71.8786 6.88278 71.162 6.88278 70.4378C6.88278 64.6575 6.88278 58.4796 6.88278 51.9774C6.88278 45.4753 6.88278 38.6522 6.88278 31.5764C6.88278 28.039 6.88278 24.4418 6.88278 20.7848V15.3096C6.88278 14.3837 6.88278 13.4561 6.88278 12.5197C6.90654 12.0362 7.11562 11.5803 7.46662 11.2469C7.81761 10.9134 8.28355 10.7279 8.7677 10.729H50.4521C50.6584 10.7195 50.8651 10.7353 51.0676 10.776C51.4774 10.8681 51.8452 11.0931 52.1138 11.416C52.3762 11.7373 52.5252 12.1364 52.5375 12.5511C52.5375 13.3532 52.5375 14.1506 52.5375 14.9434C52.5375 16.5267 52.5375 18.0885 52.5375 19.6287C52.5375 22.708 52.5375 25.6944 52.5375 28.5877C52.5375 34.3698 52.5375 39.7473 52.5375 44.6714C52.5375 54.504 52.5253 62.457 52.5236 67.9617C52.5236 69.3358 52.5236 70.5563 52.5236 71.6235C52.5236 72.1466 52.5236 72.64 52.5236 73.0864C52.5236 73.3114 52.5236 73.5223 52.5236 73.7263C52.5142 73.919 52.473 74.1087 52.4015 74.2878C52.3007 74.5453 52.1434 74.7769 51.9412 74.9655C51.739 75.1541 51.4971 75.2949 51.2333 75.3776C51.0986 75.4178 50.9601 75.4435 50.82 75.4543H50.6509Z" fill="#263238"/>
<g opacity="0.3">
<path d="M11.2442 73.8483L49.457 73.6391L49.8946 66.2563L48.7246 61.803L10.8955 67.714L11.2442 73.8483Z" fill="black"/>
</g>
<path d="M50.1856 13.3774H9.22656V72.3992H50.1856V13.3774Z" fill="white"/>
<path d="M50.1889 72.4007C50.1889 72.0519 50.1732 48.2106 50.1505 13.3771L50.1889 13.4155H9.23507L9.27692 13.3736C9.27692 35.5393 9.27692 56.0171 9.27692 72.3972L9.24205 72.3623L50.2011 72.3972L9.24205 72.4303H9.20892V72.3972C9.20892 56.0171 9.20891 35.5393 9.2002 13.3736V13.3318H9.24728H50.2011H50.2394V13.3701C50.2011 48.2106 50.1889 72.0606 50.1889 72.4007Z" fill="#263238"/>
<path d="M38.1538 16.6829H22.1416V21.2583H38.1538V16.6829Z" fill="#38655D"/>
<path d="M20.4903 23.6455H11.5312V25.5426H20.4903V23.6455Z" fill="#E0E0E0"/>
<path d="M39.6136 27.1311H21.6572V29.0282H39.6136V27.1311Z" fill="#F5F5F5"/>
<path d="M20.0735 27.0913H11.5312V28.9884H20.0735V27.0913Z" fill="#F5F5F5"/>
<path d="M47.1376 27.1248H40.6406V29.0219H47.1376V27.1248Z" fill="#F5F5F5"/>
<path d="M46.9646 55.792H11.5312V57.9524H46.9646V55.792Z" fill="#E0E0E0"/>
<path d="M46.9646 30.4377H11.5312V32.5982H46.9646V30.4377Z" fill="#E0E0E0"/>
<path d="M25.662 45.6094H11.5312V47.7698H25.662V45.6094Z" fill="#E0E0E0"/>
<path d="M47.3486 45.6094H29.6816V47.7698H47.3486V45.6094Z" fill="#E0E0E0"/>
<path d="M25.6516 49.0881C25.6516 49.1125 22.4903 49.1334 18.5914 49.1334C14.6925 49.1334 11.5312 49.1125 11.5312 49.0881C11.5312 49.0637 14.6925 49.041 18.5914 49.041C22.4903 49.041 25.6516 49.0619 25.6516 49.0881Z" fill="#263238"/>
<path d="M25.4162 50.7406C25.4162 50.7668 22.3072 50.786 18.4746 50.786C14.642 50.786 11.5312 50.7668 11.5312 50.7406C11.5312 50.7145 14.6385 50.6953 18.4746 50.6953C22.3107 50.6953 25.4162 50.7215 25.4162 50.7406Z" fill="#263238"/>
<path d="M25.5365 52.434C25.5365 52.4585 22.3979 52.4794 18.5339 52.4794C14.6699 52.4794 11.5312 52.4585 11.5312 52.434C11.5312 52.4096 14.6699 52.387 18.5339 52.387C22.3979 52.387 25.5365 52.4079 25.5365 52.434Z" fill="#263238"/>
<path d="M25.5365 54.0715C25.5365 54.0959 22.3979 54.1168 18.5339 54.1168C14.6699 54.1168 11.5312 54.0959 11.5312 54.0715C11.5312 54.0471 14.6699 54.0244 18.5339 54.0244C22.3979 54.0244 25.5365 54.0541 25.5365 54.0715Z" fill="#263238"/>
<path d="M47.0783 49.4767C47.0783 49.5011 43.8037 49.5221 39.7671 49.5221C35.7305 49.5221 32.4541 49.5011 32.4541 49.4767C32.4541 49.4523 35.727 49.4314 39.7671 49.4314C43.8072 49.4314 47.0783 49.4506 47.0783 49.4767Z" fill="#263238"/>
<path d="M31.3308 50.0048C31.3173 49.9043 31.3109 49.8029 31.3117 49.7014C31.3117 49.5149 31.296 49.255 31.2925 48.9464L31.3308 48.9865H30.323L30.3666 48.9394V49.2202C30.3666 49.3143 30.3666 49.405 30.3666 49.4939C30.3666 49.6683 30.3666 49.8427 30.3666 49.9926L30.3282 49.9543C30.6229 49.9543 30.8688 49.9665 31.0466 49.9734C31.1434 49.9739 31.2401 49.9803 31.3361 49.9926C31.2486 50.0077 31.1598 50.0141 31.071 50.0118C30.8967 50.0205 30.6386 50.0292 30.3282 50.0327H30.2916V49.9926C30.2916 49.8374 30.2916 49.67 30.2916 49.4939C30.2916 49.405 30.2916 49.3196 30.2916 49.2202V48.9394C30.2532 48.9813 30.3457 48.8836 30.3352 48.8941H31.343H31.3814V48.9325C31.3814 49.2585 31.3692 49.5288 31.3622 49.7119C31.3594 49.8102 31.349 49.9081 31.3308 50.0048Z" fill="#263238"/>
<path d="M47.0783 51.5082C47.0783 51.5344 43.8037 51.5553 39.7671 51.5553C35.7305 51.5553 32.4541 51.5344 32.4541 51.5082C32.4541 51.4821 35.727 51.4629 39.7671 51.4629C43.8072 51.4629 47.0783 51.4838 47.0783 51.5082Z" fill="#263238"/>
<path d="M31.3312 52.0381C31.3177 51.9375 31.3113 51.8361 31.312 51.7347C31.312 51.5481 31.2963 51.2883 31.2929 50.9797L31.3312 51.0198H30.3234L30.367 50.9744V51.2639C30.367 51.3563 30.367 51.4487 30.367 51.5376C30.367 51.712 30.367 51.8864 30.367 52.0363L30.3286 51.9962C30.6233 51.9962 30.8691 52.0102 31.047 52.0172C31.1438 52.0176 31.2405 52.024 31.3365 52.0363C31.2488 52.0502 31.1601 52.0566 31.0714 52.0555C30.897 52.0555 30.639 52.0712 30.3286 52.0764H30.292V52.0363C30.292 51.8794 30.292 51.7138 30.292 51.5376C30.292 51.4487 30.292 51.3633 30.292 51.2639V50.9797L30.3356 50.9343H31.3434H31.3818V50.9727C31.3818 51.2988 31.3696 51.569 31.3626 51.7521C31.3593 51.8481 31.3488 51.9437 31.3312 52.0381Z" fill="#263238"/>
<path d="M47.0783 53.5412C47.0783 53.5673 43.8037 53.5865 39.7671 53.5865C35.7305 53.5865 32.4541 53.5673 32.4541 53.5412C32.4541 53.515 35.727 53.4958 39.7671 53.4958C43.8072 53.4958 47.0783 53.5168 47.0783 53.5412Z" fill="#263238"/>
<path d="M31.3312 54.0715C31.3179 53.9703 31.3115 53.8683 31.312 53.7663C31.312 53.5797 31.2963 53.3217 31.2929 53.013L31.3312 53.0514H30.3234C30.3147 53.0619 30.4053 52.9642 30.367 53.0061V53.2868C30.367 53.381 30.367 53.4716 30.367 53.5606C30.367 53.7349 30.367 53.9093 30.367 54.061L30.3286 54.0209C30.6233 54.0209 30.8691 54.0331 31.047 54.0401C31.1438 54.0405 31.2406 54.0475 31.3365 54.061C31.2487 54.0737 31.1601 54.0801 31.0714 54.0802C30.897 54.0802 30.639 54.0959 30.3286 54.0994H30.292V54.0592C30.292 53.9023 30.292 53.7349 30.292 53.5588C30.292 53.4699 30.292 53.3844 30.292 53.2851V53.0043L30.3356 52.959H31.3434H31.3818V53.0078C31.3818 53.3339 31.3696 53.6024 31.3626 53.7872C31.3592 53.8826 31.3487 53.9776 31.3312 54.0715Z" fill="#263238"/>
<path d="M46.4643 44.0103C46.4643 44.0103 46.4643 43.9511 46.4643 43.836C46.4643 43.7209 46.4643 43.5518 46.4643 43.3303C46.4643 42.8839 46.4643 42.2248 46.4643 41.3687C46.4643 39.6581 46.4555 37.1594 46.4486 33.9999L46.4765 34.0278L11.5889 34.047L11.6325 33.9999C11.6325 37.4437 11.6325 40.8002 11.6325 44.0086L11.5907 43.965L36.5079 43.9842L43.8313 43.9981H45.7999H46.3091H45.8051H43.8453L36.5375 44.0103L11.5907 44.0313H11.5488V43.9859C11.5488 40.7776 11.5488 37.421 11.5488 33.9772V33.9319H11.5942L46.4817 33.9493H46.5079V34.0016C46.5079 37.1682 46.4974 39.6738 46.4939 41.3879C46.4939 42.2405 46.4939 42.8979 46.4939 43.3425C46.4939 43.5622 46.4939 43.7296 46.4939 43.843C46.4939 43.9563 46.4643 44.0103 46.4643 44.0103Z" fill="#263238"/>
<path d="M46.4645 36.5209C46.4645 36.5453 38.6755 36.5663 29.0695 36.5663C19.4636 36.5663 11.6729 36.5453 11.6729 36.5209C11.6729 36.4965 19.4601 36.4756 29.0695 36.4756C38.679 36.4756 46.4645 36.4965 46.4645 36.5209Z" fill="#263238"/>
<path d="M46.4645 39.006C46.4645 39.0322 38.6755 39.0531 29.0695 39.0531C19.4636 39.0531 11.6729 39.0322 11.6729 39.006C11.6729 38.9799 19.4601 38.9607 29.0695 38.9607C38.679 38.9607 46.4645 38.9816 46.4645 39.006Z" fill="#263238"/>
<path d="M46.4645 41.5187C46.4645 41.5449 38.6755 41.5641 29.0695 41.5641C19.4636 41.5641 11.6729 41.5449 11.6729 41.5187C11.6729 41.4926 19.4601 41.4734 29.0695 41.4734C38.679 41.4734 46.4645 41.4995 46.4645 41.5187Z" fill="#263238"/>
<path d="M15.6315 44.0992C15.6071 44.0992 15.5879 41.8324 15.5879 39.0425C15.5879 36.2526 15.6071 33.9858 15.6315 33.9858C15.6559 33.9858 15.6751 36.2526 15.6751 39.0425C15.6751 41.8324 15.6542 44.0992 15.6315 44.0992Z" fill="#263238"/>
<path d="M27.4284 43.7939C27.4039 43.7939 27.3848 41.6318 27.3848 38.9657C27.3848 36.2996 27.4039 34.1375 27.4284 34.1375C27.4528 34.1375 27.4719 36.2996 27.4719 38.9657C27.4719 41.6318 27.4528 43.7939 27.4284 43.7939Z" fill="#263238"/>
<path d="M39.86 44.2507C39.8373 44.2507 39.8164 42.0205 39.8164 39.2707C39.8164 36.5209 39.8373 34.2908 39.86 34.2908C39.8827 34.2908 39.9036 36.5192 39.9036 39.2707C39.9036 42.0222 39.8844 44.2507 39.86 44.2507Z" fill="#263238"/>
<path d="M46.0909 24.4217C46.0909 24.4461 40.764 24.4636 34.1938 24.4636C27.6236 24.4636 22.2949 24.4461 22.2949 24.4217C22.2949 24.3973 27.6219 24.3799 34.1938 24.3799C40.7657 24.3799 46.0909 24.3991 46.0909 24.4217Z" fill="#263238"/>
<path d="M29.2874 25.2672C29.2874 25.2899 27.7181 25.309 25.7913 25.309C23.8646 25.309 22.29 25.2829 22.29 25.2672C22.29 25.2515 23.8593 25.2253 25.7861 25.2253C27.7129 25.2253 29.2874 25.2428 29.2874 25.2672Z" fill="#263238"/>
<path d="M39.8155 59.7884C39.8155 59.8128 33.4842 59.8303 25.6742 59.8303C17.8643 59.8303 11.5312 59.8128 11.5312 59.7884C11.5312 59.764 17.8626 59.7466 25.6742 59.7466C33.4859 59.7466 39.8155 59.7658 39.8155 59.7884Z" fill="#263238"/>
<path d="M34.5147 61.2026C34.495 61.2049 34.4751 61.2049 34.4554 61.2026H34.281L33.6115 61.2113L31.1494 61.2235L23.0238 61.2357L14.8966 61.2235L12.4345 61.2113L11.7649 61.2026H11.5905C11.5708 61.2048 11.551 61.2048 11.5312 61.2026H11.5905H11.7649L12.4345 61.1939L14.8966 61.1799L23.0238 61.1677L31.1494 61.1799L33.6115 61.1939L34.281 61.2026H34.4554H34.5147Z" fill="#263238"/>
<path d="M24.9419 62.6276C24.897 62.6354 24.8514 62.6383 24.8059 62.6364H24.4153L22.9785 62.6486L18.2374 62.6608L13.4946 62.6486L12.0578 62.6364H11.6673C11.6217 62.6383 11.5761 62.6354 11.5312 62.6276C11.5765 62.6247 11.622 62.6247 11.6673 62.6276L12.0578 62.6189L13.4946 62.605L18.2374 62.5928L22.9872 62.598L24.424 62.612L24.8146 62.6207C24.8571 62.6204 24.8996 62.6227 24.9419 62.6276Z" fill="#263238"/>
<path d="M22.9592 65.9716C22.9592 65.996 20.8441 66.0152 18.2373 66.0152C15.6305 66.0152 13.5137 65.996 13.5137 65.9716C13.5137 65.9472 15.627 65.9263 18.2373 65.9263C20.8476 65.9263 22.9592 65.9472 22.9592 65.9716Z" fill="#263238"/>
<path d="M42.533 69.6163C42.533 69.6163 42.5626 69.5622 42.6097 69.4593C42.6723 69.3051 42.7002 69.1391 42.6917 68.9729C42.6716 68.7092 42.6284 68.4478 42.5626 68.1917C42.4659 67.8487 42.4445 67.4888 42.4999 67.1368C42.5525 66.9247 42.6489 66.726 42.7828 66.5533C42.9168 66.3807 43.0853 66.2379 43.2775 66.1341C43.5022 66.0197 43.7523 65.9642 44.0042 65.9731C44.2562 65.9819 44.5018 66.0548 44.7178 66.1847C44.956 66.3207 45.1507 66.5214 45.2793 66.7636C45.3465 66.894 45.3709 67.0423 45.349 67.1873C45.334 67.2649 45.2946 67.3356 45.2365 67.3892C45.1785 67.4428 45.1049 67.4766 45.0265 67.4855C44.8826 67.4976 44.7382 67.5011 44.594 67.496H44.1616C43.8704 67.496 43.5757 67.4768 43.2775 67.4489C42.6948 67.4049 42.1209 67.2805 41.5722 67.0792C41.3124 66.992 41.0334 66.9258 40.798 67.0356C40.5626 67.1455 40.4074 67.3687 40.2122 67.543C40.1159 67.6387 39.9953 67.7062 39.8634 67.7383C39.7313 67.7626 39.5949 67.7378 39.4798 67.6686C39.289 67.5257 39.1137 67.3632 38.9567 67.1838C38.8809 67.107 38.7892 67.0475 38.6882 67.0095C38.5931 66.9745 38.4886 66.9745 38.3935 67.0095C38.2199 67.1088 38.0657 67.2388 37.9384 67.3931C37.81 67.5206 37.6529 67.6156 37.4803 67.6699C37.3077 67.7242 37.1245 67.7363 36.9462 67.7052C36.6766 67.656 36.4362 67.5049 36.2749 67.2832C36.1739 67.1466 36.1059 66.9884 36.0761 66.8212C36.0658 66.7636 36.0623 66.7051 36.0657 66.6468C36.0657 66.6468 36.0657 66.7078 36.0936 66.8212C36.13 66.9829 36.2014 67.1347 36.3028 67.2658C36.4619 67.4753 36.6954 67.6157 36.955 67.6581C37.1247 67.686 37.2987 67.6726 37.4623 67.6192C37.6258 67.5658 37.7742 67.4739 37.8948 67.3512C38.0261 67.1894 38.1864 67.0535 38.3673 66.9502C38.4783 66.9039 38.6022 66.8996 38.7161 66.938C38.827 66.9792 38.928 67.0434 39.0125 67.1263C39.17 67.3015 39.3453 67.4599 39.5356 67.5988C39.6342 67.6592 39.752 67.6797 39.8652 67.6564C39.9825 67.6275 40.0898 67.5672 40.1755 67.482C40.3621 67.3076 40.5243 67.0827 40.7806 66.9589C40.9133 66.9012 41.0591 66.8807 41.2026 66.8996C41.3441 66.9176 41.4832 66.951 41.6176 66.999C42.1605 67.1962 42.7277 67.3182 43.3037 67.3617C43.5984 67.3878 43.8913 67.4018 44.1755 67.4088H44.6062C44.7452 67.4156 44.8844 67.4127 45.023 67.4001C45.0841 67.3944 45.1418 67.3691 45.1874 67.3279C45.233 67.2868 45.264 67.2319 45.2758 67.1716C45.2947 67.0451 45.2734 66.9157 45.2148 66.802C45.0951 66.575 44.9137 66.3865 44.6917 66.2579C44.4874 66.1337 44.255 66.0635 44.0162 66.0537C43.7774 66.0439 43.54 66.095 43.3264 66.2021C43.1425 66.3001 42.9809 66.4351 42.8518 66.5987C42.7228 66.7623 42.6291 66.9508 42.5766 67.1525C42.52 67.4962 42.5372 67.8481 42.6271 68.1847C42.6897 68.4439 42.7283 68.7083 42.7422 68.9746C42.7473 69.1447 42.7127 69.3137 42.6411 69.4681C42.6106 69.5213 42.5744 69.571 42.533 69.6163Z" fill="#263238"/>
<path d="M47.4282 67.911C47.3899 67.9147 47.3514 67.9147 47.3131 67.911H46.9801L45.7595 67.9215C44.729 67.9302 43.3062 67.9494 41.7334 67.9947C40.1606 68.0401 38.7395 68.1046 37.7107 68.1552L36.4901 68.2162L36.1571 68.2301C36.1188 68.2344 36.0802 68.2344 36.042 68.2301C36.0798 68.2215 36.1183 68.2163 36.1571 68.2144L36.4866 68.1831C36.7743 68.1586 37.1841 68.129 37.7072 68.0941C38.736 68.0279 40.1588 67.9529 41.7316 67.9076C43.3044 67.8622 44.729 67.8518 45.7595 67.8605C46.2826 67.8605 46.6924 67.8692 46.9801 67.8779L47.3131 67.8884C47.3522 67.8914 47.3909 67.899 47.4282 67.911Z" fill="#263238"/>
<path d="M25.9795 18.0535H26.5148V19.5286H27.4163V19.9541H25.9795V18.0535Z" fill="white"/>
<path d="M27.5 19.0059C27.5 18.4392 27.9464 18.0242 28.5462 18.0242C29.146 18.0242 29.5924 18.4392 29.5924 19.0059C29.5924 19.5726 29.1478 19.9893 28.5462 19.9893C27.9446 19.9893 27.5 19.5673 27.5 19.0059ZM29.0606 19.0059C29.0548 18.9062 29.0199 18.8104 28.9603 18.7304C28.9007 18.6503 28.8189 18.5895 28.7251 18.5554C28.6313 18.5213 28.5296 18.5154 28.4324 18.5384C28.3353 18.5615 28.2471 18.6125 28.1787 18.6852C28.1102 18.7579 28.0646 18.849 28.0473 18.9473C28.0301 19.0456 28.042 19.1468 28.0817 19.2385C28.1213 19.3301 28.187 19.408 28.2705 19.4628C28.3539 19.5175 28.4516 19.5466 28.5514 19.5464C28.6213 19.5473 28.6905 19.5337 28.7548 19.5064C28.819 19.4792 28.877 19.4389 28.9248 19.388C28.9727 19.3372 29.0095 19.277 29.0329 19.2112C29.0562 19.1454 29.0657 19.0755 29.0606 19.0059Z" fill="white"/>
<path d="M31.1215 19.5774H30.3229L30.1747 19.9454H29.6289L30.4624 18.0535H30.9855L31.8225 19.9454H31.2697L31.1215 19.5774ZM30.9646 19.1834L30.7222 18.5783L30.4851 19.1799L30.9646 19.1834Z" fill="white"/>
<path d="M33.7782 18.0535V19.9454H33.3371L32.5036 18.9375V19.9454H31.9805V18.0535H32.4216L33.2551 19.0613V18.0535H33.7782Z" fill="white"/>
<path d="M37.4598 20.7582C37.4598 20.7582 37.4598 20.7356 37.4598 20.6955C37.4598 20.6554 37.4598 20.5926 37.4598 20.5211C37.4598 20.3584 37.4598 20.1259 37.4598 19.8236C37.4598 19.2168 37.4598 18.3363 37.4441 17.2221L37.4703 17.2482L22.7902 17.2674L22.8356 17.2221V20.7617L22.7902 20.7164L33.2523 20.7373L36.3421 20.7495H37.1756H37.3936H37.4685H37.3988H37.1878H36.363L33.2837 20.7635L22.7868 20.7826H22.7432V20.7391C22.7432 19.5969 22.7432 18.4112 22.7432 17.1994L22.7885 17.1541L37.4685 17.1732H37.4964V17.1994C37.4964 18.3206 37.4842 19.2064 37.4807 19.8149C37.4807 20.1131 37.4807 20.338 37.4807 20.5124C37.4807 20.5874 37.4807 20.6449 37.4807 20.6867C37.4763 20.7112 37.4692 20.7352 37.4598 20.7582Z" fill="white"/>
<path d="M21.3062 9.16115H40.1014C40.3941 9.16115 40.6748 9.27743 40.8818 9.48443C41.0888 9.69142 41.2051 9.97216 41.2051 10.2649V15.2536H20.1973V10.2649C20.1973 10.1195 20.226 9.97555 20.2818 9.8413C20.3376 9.70704 20.4193 9.58513 20.5224 9.48257C20.6254 9.38001 20.7477 9.29882 20.8823 9.24366C21.0168 9.1885 21.1609 9.16046 21.3062 9.16115Z" fill="#263238"/>
<path d="M33.3766 6.86963H28.0322L28.6565 11.452H32.6826L33.3766 6.86963Z" fill="#263238"/>
<path d="M39.8561 9.16102C39.8561 9.18544 35.7585 9.20462 30.7053 9.20462C25.6521 9.20462 21.5527 9.18544 21.5527 9.16102C21.5527 9.13661 25.6504 9.11743 30.7053 9.11743C35.7602 9.11743 39.8561 9.13661 39.8561 9.16102Z" fill="#455A64"/>
<path d="M20.6745 14.2702C20.65 14.2702 20.6309 13.4088 20.6309 12.3521C20.6309 11.2955 20.65 10.4341 20.6745 10.4341C20.6989 10.4341 20.718 11.2955 20.718 12.3521C20.718 13.4088 20.6989 14.2702 20.6745 14.2702Z" fill="#455A64"/>
<path d="M40.5257 13.813C40.482 13.2329 40.4674 12.651 40.4821 12.0694C40.4675 11.4878 40.482 10.9058 40.5257 10.3257C40.5693 10.9058 40.5838 11.4878 40.5692 12.0694C40.5839 12.651 40.5693 13.2329 40.5257 13.813Z" fill="#455A64"/>
<path d="M39.5123 14.6237C39.5123 14.6481 35.3066 14.6673 30.1191 14.6673C24.9317 14.6673 20.7207 14.6463 20.7207 14.6237C20.7207 14.601 24.9265 14.5801 30.1156 14.5801C35.3048 14.5801 39.5123 14.5993 39.5123 14.6237Z" fill="#455A64"/>
<g opacity="0.3">
<path d="M41.2053 10.9045L42.0737 13.4817V14.7441H41.0938L41.2053 10.9045Z" fill="black"/>
</g>
<path d="M27.6961 66.6091L26.6935 66.8636L26.6237 67.3728L25.9385 67.5472L26.3849 64.909L27.0457 64.7346L28.6987 66.841L28.0012 67.0153L27.6961 66.6091ZM27.3735 66.1644L26.8766 65.4827L26.765 66.3196L27.3735 66.1644Z" fill="#38655D"/>
<path d="M30.649 64.7657C30.785 65.3045 30.4642 65.7439 29.8156 65.9078L29.4023 66.0124L29.5592 66.6332L28.8879 66.8075L28.2881 64.4361L29.3727 64.1606C30.0196 63.9932 30.5113 64.2234 30.649 64.7657ZM29.9707 64.94C29.9149 64.7186 29.7423 64.6262 29.4651 64.6959L29.0919 64.7901L29.2663 65.4876L29.6394 65.3934C29.9184 65.3184 30.0248 65.1545 29.9707 64.9383V64.94Z" fill="#38655D"/>
<path d="M33.1129 64.1416C33.2489 64.6804 32.9281 65.1198 32.2812 65.2837L31.8662 65.3883L32.0248 66.0091L31.3535 66.1835L30.752 63.8103L31.8365 63.5366C32.4834 63.3674 32.9751 63.5993 33.1129 64.1416ZM32.4346 64.316C32.3788 64.0945 32.2079 64.0004 31.9289 64.0719L31.5575 64.166L31.7319 64.8635L32.1033 64.7676C32.384 64.6909 32.4904 64.5305 32.4346 64.3142V64.316Z" fill="#38655D"/>
<path d="M34.6943 64.6596L34.3281 64.7538L34.4955 65.3885L33.8242 65.5629L33.2227 63.1897L34.3072 62.9142C34.9541 62.7503 35.4458 62.9822 35.5836 63.5263C35.6306 63.6823 35.6297 63.8488 35.5809 64.0043C35.5321 64.1598 35.4376 64.297 35.3098 64.3981L36.0073 65.0136L35.2889 65.188L34.6943 64.6596ZM34.3944 63.4391L34.0213 63.535L34.1956 64.2324L34.5688 64.1383C34.846 64.0685 34.9524 63.9046 34.8983 63.6867C34.8443 63.4687 34.6699 63.3746 34.3944 63.4443V63.4391Z" fill="#38655D"/>
<path d="M35.9033 63.7615C35.729 63.05 36.151 62.3857 36.9095 62.1922C37.668 61.9986 38.3602 62.3805 38.5398 63.0919C38.7194 63.8033 38.2939 64.4677 37.5354 64.6612C36.7769 64.8547 36.0847 64.4746 35.9033 63.7615ZM37.8632 63.2663C37.8248 63.1425 37.7509 63.0327 37.6507 62.9506C37.5505 62.8684 37.4284 62.8174 37.2995 62.8039C37.1706 62.7904 37.0406 62.815 36.9255 62.8747C36.8105 62.9343 36.7154 63.0264 36.6522 63.1395C36.5889 63.2526 36.5602 63.3818 36.5696 63.511C36.5791 63.6403 36.6262 63.7639 36.7051 63.8667C36.7841 63.9694 36.8915 64.0468 37.0139 64.0891C37.1364 64.1315 37.2686 64.137 37.3942 64.105C37.4818 64.0837 37.5641 64.0445 37.636 63.99C37.7078 63.9354 37.7676 63.8666 37.8116 63.7879C37.8556 63.7092 37.8829 63.6222 37.8918 63.5325C37.9007 63.4427 37.891 63.3521 37.8632 63.2663Z" fill="#38655D"/>
<path d="M40.9178 61.2278L40.5028 63.859L39.842 64.0334L38.2256 61.9183L38.951 61.7334L39.9867 63.1162L40.2535 61.4039L40.9178 61.2278Z" fill="#38655D"/>
<path d="M43.4325 62.5635L43.5633 63.0866L41.6592 63.5696L41.0576 61.1964L42.9181 60.7239L43.0489 61.247L41.8527 61.5521L41.9539 61.9514L43.0088 61.6846L43.1361 62.1868L42.0899 62.4536L42.1997 62.8878L43.4325 62.5635Z" fill="#38655D"/>
<path d="M43.334 60.6158L44.4552 60.3316C45.2416 60.1311 45.8972 60.4519 46.082 61.1808C46.2669 61.9097 45.8431 62.5043 45.0567 62.703L43.9356 62.9873L43.334 60.6158ZM44.8946 62.1747C44.9826 62.1555 45.0658 62.1188 45.1393 62.0668C45.2128 62.0148 45.2751 61.9485 45.3225 61.872C45.3698 61.7954 45.4013 61.71 45.415 61.6211C45.4288 61.5321 45.4244 61.4412 45.4023 61.3539C45.3802 61.2666 45.3407 61.1847 45.2863 61.1129C45.2319 61.0412 45.1636 60.9812 45.0854 60.9364C45.0073 60.8916 44.921 60.863 44.8316 60.8523C44.7422 60.8415 44.6515 60.8489 44.565 60.8739L44.1413 60.9803L44.4709 62.2828L44.8946 62.1747Z" fill="#38655D"/>
<path d="M25.6447 69.4508C25.3447 69.4505 25.0533 69.3507 24.816 69.1671C24.5788 68.9834 24.4091 68.7264 24.3335 68.436L23.5366 65.3881C23.4464 65.0396 23.4979 64.6696 23.68 64.3591C23.862 64.0486 24.1597 63.823 24.5078 63.7316L45.2576 58.3262C45.6061 58.2359 45.976 58.2875 46.2865 58.4695C46.597 58.6516 46.8227 58.9493 46.9141 59.2974L47.711 62.3541C47.7559 62.5265 47.7664 62.7061 47.7419 62.8826C47.7174 63.059 47.6583 63.229 47.5681 63.3826C47.4779 63.5363 47.3584 63.6707 47.2162 63.7781C47.0741 63.8856 46.9122 63.964 46.7397 64.0088L25.99 69.4142C25.8769 69.4412 25.7609 69.4535 25.6447 69.4508ZM45.5976 58.7621C45.5224 58.7617 45.4473 58.7711 45.3745 58.79L24.6247 64.1954C24.5133 64.224 24.4087 64.2744 24.3168 64.3436C24.225 64.4128 24.1478 64.4995 24.0896 64.5987C24.0314 64.6979 23.9934 64.8076 23.9778 64.9215C23.9622 65.0355 23.9693 65.1513 23.9987 65.2625L24.7955 68.3174C24.8237 68.4288 24.8738 68.5333 24.943 68.625C25.0121 68.7166 25.099 68.7935 25.1983 68.851C25.2975 68.9095 25.4072 68.9478 25.5213 68.9637C25.6353 68.9795 25.7513 68.9726 25.8627 68.9434L46.6125 63.538C46.7238 63.5094 46.8285 63.459 46.9203 63.3898C47.0121 63.3206 47.0894 63.2339 47.1475 63.1347C47.2057 63.0355 47.2437 62.9258 47.2593 62.8119C47.2749 62.698 47.2678 62.5821 47.2384 62.4709L46.4416 59.416C46.3933 59.2289 46.2842 59.0631 46.1314 58.9447C45.9786 58.8264 45.7909 58.7621 45.5976 58.7621Z" fill="#38655D"/>
</g>
<defs>
<clipPath id="clip0_157_7222">
<rect width="68" height="76" fill="white"/>
</clipPath>
</defs>
</svg>
