<svg xmlns="http://www.w3.org/2000/svg" width="28" height="28" viewBox="0 0 28 28" fill="none">
  <g clip-path="url(#clip0_274_35693)">
    <path d="M27.9999 3.99565L27.9891 1.23494C27.9891 1.21879 27.9891 1.20265 27.9838 1.1865V1.17574C27.9784 1.16498 27.9784 1.15421 27.973 1.14345C27.9676 1.13269 27.9676 1.12731 27.9676 1.12193C27.9676 1.11654 27.9622 1.10578 27.9569 1.09502L27.9461 1.07887C27.9461 1.07349 27.9461 1.07349 27.9407 1.07349L27.9246 1.04658H27.9192L27.8869 1.00891H27.8761L27.8492 0.987388L27.8331 0.976625L27.8062 0.96048H27.79L27.747 0.944336H13.0555C12.9317 0.944336 12.824 1.0143 12.7649 1.12193L1.34529 23.5198L1.33452 23.5359C1.33452 23.5413 1.33452 23.5413 1.32914 23.5467C1.32376 23.5574 1.32376 23.5682 1.31838 23.579V23.5897C1.313 23.6059 1.30762 23.6166 1.30762 23.6328V23.6866C1.313 23.6974 1.313 23.7081 1.313 23.7189V23.735C1.313 23.7458 1.31838 23.7512 1.31838 23.7619C1.32376 23.7673 1.32376 23.7727 1.32376 23.7781L1.33991 23.805C1.33991 23.8104 1.34529 23.8104 1.34529 23.8158C1.34529 23.8211 1.35067 23.8211 1.35067 23.8265L1.36143 23.8427C1.36681 23.848 1.36681 23.8534 1.3722 23.8534L1.40448 23.8911L2.74448 25.1827C2.80906 25.2365 2.88978 25.2688 2.9705 25.2688H16.9409C17.0647 25.2688 17.1723 25.2042 17.2315 25.0966L22.3493 15.0977V15.3614C22.3439 15.9695 22.6561 16.54 23.1727 16.8628V25.7423H3.98223C3.28263 25.7423 2.71219 26.3128 2.71219 27.0124V27.4859C2.71219 27.6635 2.85749 27.8088 3.03508 27.8088H24.9163C25.0939 27.8088 25.2392 27.6635 25.2392 27.4859V26.0814C25.2392 26.076 25.2392 26.076 25.2446 26.076V16.7767C25.6751 16.4377 25.9226 15.9211 25.9226 15.3722V8.12865L27.9676 4.14633C27.9891 4.0979 27.9999 4.04947 27.9999 3.99565ZM9.60591 23.3422L12.4796 17.7024H15.5579L12.6841 23.3422H9.60591ZM5.84961 23.3422L8.72334 17.7024H11.7531L8.8794 23.3422H5.84961ZM7.66318 12.5361H10.6284L8.32511 17.0566H5.35989L7.66318 12.5361ZM10.623 6.72408H13.5882L10.9567 11.8903H7.99145L10.623 6.72408ZM19.9761 1.55783L17.6728 6.0783H14.643L16.9463 1.55783H19.9761ZM23.7808 1.55783L21.4775 6.0783H18.3993L20.7026 1.55783H23.7808ZM18.9159 12.5361H21.5475L19.2442 17.0566H16.6126L18.9159 12.5361ZM15.8861 17.0566H12.8079L15.1112 12.5361H18.1894L15.8861 17.0566ZM21.8758 11.8903H19.2442L21.8758 6.72408H24.5073L21.8758 11.8903ZM18.5177 11.8903H15.4395L18.071 6.72408H21.1492L18.5177 11.8903ZM17.3445 6.72408L14.713 11.8903H11.6832L14.3147 6.72408H17.3445ZM11.3549 12.5361H14.3847L12.0814 17.0566H9.05161L11.3549 12.5361ZM16.2844 17.7024H18.9159L16.0476 23.3422H13.4106L16.2844 17.7024ZM24.841 6.0783H22.204L24.5073 1.55783H27.1389L24.841 6.0783ZM13.2546 1.55783H16.2198L13.9165 6.0783H10.9513L13.2546 1.55783ZM5.03162 17.7024H7.99684L5.12311 23.3422H2.1579L5.03162 17.7024ZM23.8185 17.1319H24.292L24.3512 17.1212H24.3997L24.5073 17.105L24.5396 17.0942L24.5988 17.0835V25.7531H23.8185V17.1319ZM3.35797 27.1738V27.0231C3.35797 26.6787 3.63781 26.3989 3.98223 26.3989H24.5934V27.1738H3.35797ZM25.2769 15.3722C25.2769 15.765 25.0778 16.1256 24.7441 16.3355C24.5611 16.4538 24.3512 16.513 24.136 16.513H24.0714C23.9207 16.5077 23.7754 16.47 23.6409 16.4C23.2427 16.2171 22.9897 15.8134 22.9951 15.3775V13.8438L23.5333 12.7944L25.2769 9.38793V15.3722ZM25.3145 7.90263L23.5117 11.4275L16.7418 24.6337H3.10504L2.43235 23.988H16.2413C16.3651 23.988 16.4727 23.9234 16.5319 23.8158L27.3487 2.56955V3.92031L25.3145 7.90263Z" fill="#1D1C1D"/>
    <path d="M4.8805 8.15578C6.4519 8.15578 7.72194 6.88574 7.72194 5.31434C7.72194 3.74294 6.4519 2.4729 4.8805 2.4729C3.3091 2.4729 2.03906 3.74294 2.03906 5.31434C2.04444 6.88036 3.31448 8.15039 4.8805 8.15578ZM4.8805 3.11868C6.09134 3.11868 7.07616 4.1035 7.07616 5.31434C7.07616 6.52518 6.09134 7.50999 4.8805 7.50999C3.66966 7.50999 2.68484 6.52518 2.68484 5.31434C2.68484 4.1035 3.66966 3.11868 4.8805 3.11868Z" fill="#1D1C1D"/>
    <path d="M8.55664 4.73828H9.75672V5.38406H8.55664V4.73828Z" fill="#1D1C1D"/>
    <path d="M0 4.73828H1.20008V5.38406H0V4.73828Z" fill="#1D1C1D"/>
    <path d="M4.52148 0.187744L5.16727 0.183224L5.17567 1.3833L4.52988 1.38782L4.52148 0.187744Z" fill="#1D1C1D"/>
    <path d="M4.58105 8.74463L5.22684 8.74011L5.23524 9.94018L4.58946 9.94471L4.58105 8.74463Z" fill="#1D1C1D"/>
    <path d="M7.25 2.23755L8.09845 1.38909L8.55502 1.84566L7.70657 2.69412L7.25 2.23755Z" fill="#1D1C1D"/>
    <path d="M1.19922 8.28076L2.04767 7.43231L2.50424 7.88887L1.65579 8.73733L1.19922 8.28076Z" fill="#1D1C1D"/>
    <path d="M1.18066 1.87378L1.634 1.41398L2.48846 2.25644L2.03512 2.71623L1.18066 1.87378Z" fill="#1D1C1D"/>
    <path d="M7.27148 7.88086L7.72482 7.42106L8.57928 8.26352L8.12594 8.72331L7.27148 7.88086Z" fill="#1D1C1D"/>
  </g>
  <defs>
    <clipPath id="clip0_274_35693">
      <rect width="28" height="28" fill="white"/>
    </clipPath>
  </defs>
</svg>