<svg width="264" height="167" viewBox="0 0 264 167" fill="none" xmlns="http://www.w3.org/2000/svg">
<path d="M212.797 71.7112V91.2834H171.985L147.191 63.8021L142.376 66.5883L128.198 50.6535L91.7415 91.2834H51.1355V71.7112H95.4334L57.0704 49.5674L66.8578 32.6132L105.221 54.7575L83.0723 16.402L100.03 6.60852L122.178 44.972V0.682617H141.754V44.972L163.903 6.60852L180.861 16.402L158.712 54.7575L197.075 32.6132L206.863 49.5674L168.499 71.7112H212.797Z" fill="#38655D"/>
<path d="M140.796 82.7856L128.541 57.7735L141.414 72.8497L145.644 70.0239L163.103 88.869L145.821 77.8077L140.796 82.7856ZM145.821 66.3272L141.414 68.8616L128.452 54.366L95.1247 91.3334H168.481L145.821 66.3272ZM17.2971 152.944C13.873 152.944 10.8542 152.325 8.24367 151.086C5.62926 149.848 3.60243 148.104 2.16124 145.85C0.719065 143.599 0 140.964 0 137.945H7.09433C7.09433 139.658 7.4997 141.223 8.31041 142.642C9.12116 144.061 10.2805 145.187 11.7904 146.019C13.2993 146.853 15.1349 147.269 17.2981 147.269C19.1905 147.269 20.8209 146.954 22.1963 146.323C23.5708 145.693 24.6175 144.826 25.3377 143.722C26.0587 142.62 26.4193 141.347 26.4193 139.905C26.4193 138.239 26.0478 136.877 25.3048 135.818C24.5608 134.76 23.5578 133.882 22.2969 133.183C21.036 132.486 19.549 131.855 17.8379 131.292C16.0614 130.708 14.2819 130.134 12.4995 129.569C8.75962 128.309 5.97885 126.709 4.1542 124.772C2.32956 122.837 1.41825 120.314 1.41825 117.206C1.41825 114.549 2.03676 112.241 3.27574 110.281C4.51476 108.322 6.28359 106.791 8.58034 105.687C10.878 104.584 13.5572 104.032 16.6218 104.032C19.7293 104.032 22.4204 104.596 24.6963 105.721C26.9701 106.848 28.7607 108.401 30.0687 110.382C31.3744 112.365 32.0504 114.684 32.0952 117.341H24.9323C24.9323 116.125 24.6176 114.932 23.9871 113.76C23.3557 112.59 22.4095 111.632 21.1486 110.889C19.8867 110.146 18.3329 109.774 16.4874 109.774C14.9546 109.73 13.5811 109.977 12.3641 110.518C11.149 111.058 10.1908 111.846 9.49263 112.882C8.79348 113.918 8.44487 115.157 8.44487 116.598C8.44487 118.04 8.75962 119.199 9.39105 120.078C10.0215 120.956 10.9119 121.71 12.0603 122.34C13.2086 122.971 14.5711 123.546 16.1488 124.063C17.7244 124.581 19.4594 125.156 21.3517 125.786C23.6485 126.552 25.7201 127.486 27.5677 128.589C29.4143 129.694 30.8673 131.113 31.9259 132.845C32.9849 134.58 33.5148 136.798 33.5148 139.5C33.5148 141.842 32.9071 144.026 31.6902 146.053C30.4749 148.08 28.6723 149.735 26.2838 151.018C23.8965 152.303 20.9006 152.944 17.2971 152.944ZM43.8529 166.996L52.1642 148.35H50.2042L36.7573 118.085H44.1228L54.732 142.81L65.4755 118.085H72.5707L50.9481 166.996H43.8529ZM77.1654 152.133V118.084H83.2467L83.6521 123.894C84.7339 121.823 86.2536 120.202 88.2137 119.03C90.1726 117.86 92.4587 117.273 95.0721 117.273C97.8189 117.273 100.162 117.814 102.1 118.894C104.036 119.976 105.534 121.609 106.593 123.793C107.651 125.978 108.181 128.714 108.181 132.001V152.133H101.423V132.676C101.423 129.524 100.726 127.127 99.3289 125.482C97.9325 123.839 95.9048 123.016 93.2475 123.016C91.4905 123.016 89.913 123.444 88.5174 124.299C87.1202 125.156 86.0058 126.394 85.173 128.016C84.3383 129.637 83.9231 131.619 83.9231 133.96V152.133H77.1654ZM128.115 147.472C129.556 147.472 130.861 147.179 132.034 146.594C133.201 146.012 134.228 145.182 135.041 144.162C135.871 143.13 136.523 141.965 136.967 140.717C137.416 139.456 137.664 138.127 137.71 136.731V136.595H129.668C127.686 136.595 126.098 136.821 124.905 137.271C123.711 137.721 122.844 138.364 122.303 139.196C121.763 140.03 121.492 140.987 121.492 142.067C121.492 143.149 121.751 144.094 122.269 144.905C122.787 145.716 123.553 146.347 124.567 146.796C125.581 147.247 126.763 147.472 128.115 147.472ZM126.831 152.944C124.037 152.944 121.717 152.471 119.871 151.526C118.024 150.58 116.65 149.307 115.748 147.708C114.847 146.11 114.398 144.365 114.398 142.474C114.398 140.267 114.982 138.364 116.154 136.765C117.325 135.166 118.993 133.938 121.155 133.082C123.317 132.228 125.929 131.798 128.993 131.798H137.778C137.778 129.816 137.484 128.173 136.899 126.867C136.312 125.561 135.446 124.57 134.298 123.894C133.148 123.219 131.696 122.881 129.939 122.881C127.912 122.881 126.177 123.365 124.736 124.334C123.294 125.302 122.393 126.777 122.033 128.758H115.276C115.547 126.327 116.368 124.256 117.742 122.543C119.116 120.832 120.885 119.526 123.047 118.625C125.209 117.724 127.506 117.274 129.939 117.274C133.137 117.274 135.817 117.838 137.98 118.963C140.142 120.088 141.774 121.677 142.879 123.726C143.982 125.775 144.534 128.217 144.534 131.055V152.133H138.656L138.115 146.391C137.65 147.315 137.071 148.177 136.392 148.959C135.689 149.773 134.869 150.479 133.959 151.053C133.036 151.638 131.988 152.098 130.818 152.437C129.645 152.776 128.318 152.944 126.831 152.944ZM168.657 118.085V123.76H160.414V152.133H153.655V123.76H148.655V118.085H153.655V113.491C153.655 111.149 154.061 109.233 154.872 107.748C155.684 106.261 156.854 105.181 158.386 104.504C159.916 103.829 161.764 103.492 163.927 103.492H167.914V109.233H164.941C163.362 109.233 162.214 109.562 161.495 110.213C160.774 110.868 160.414 111.983 160.414 113.557V118.085H168.657ZM185.281 147.472C186.722 147.472 188.028 147.179 189.2 146.594C190.368 146.012 191.394 145.182 192.207 144.162C193.037 143.13 193.689 141.965 194.133 140.717C194.581 139.456 194.83 138.127 194.876 136.731V136.595H186.834C184.852 136.595 183.264 136.821 182.071 137.271C180.876 137.721 180.009 138.364 179.469 139.196C178.929 140.03 178.659 140.987 178.659 142.067C178.659 143.149 178.917 144.094 179.435 144.905C179.953 145.716 180.719 146.347 181.733 146.796C182.747 147.247 183.929 147.472 185.281 147.472ZM183.996 152.944C181.203 152.944 178.884 152.471 177.037 151.526C175.189 150.58 173.816 149.307 172.914 147.708C172.013 146.11 171.564 144.365 171.564 142.474C171.564 140.267 172.149 138.364 173.32 136.765C174.491 135.166 176.158 133.938 178.32 133.082C180.483 132.228 183.096 131.798 186.158 131.798H194.943C194.943 129.816 194.65 128.173 194.065 126.867C193.478 125.561 192.611 124.57 191.464 123.894C190.315 123.219 188.862 122.881 187.105 122.881C185.078 122.881 183.343 123.365 181.902 124.334C180.46 125.302 179.559 126.777 179.199 128.758H172.442C172.711 126.327 173.534 124.256 174.908 122.543C176.282 120.832 178.051 119.526 180.213 118.625C182.374 117.724 184.672 117.274 187.105 117.274C190.302 117.274 192.984 117.838 195.146 118.963C197.307 120.088 198.941 121.677 200.045 123.726C201.148 125.775 201.7 128.217 201.7 131.055V152.133H195.822L195.281 146.391C194.816 147.315 194.237 148.177 193.558 148.959C192.855 149.773 192.035 150.479 191.125 151.053C190.202 151.638 189.153 152.098 187.984 152.437C186.812 152.776 185.483 152.944 183.996 152.944ZM208.997 152.133V118.084H215.078L215.619 124.502C216.431 122.971 217.432 121.677 218.627 120.618C219.819 119.56 221.262 118.738 222.951 118.152C224.641 117.567 226.52 117.273 228.594 117.273V124.367H226.162C224.763 124.367 223.434 124.546 222.174 124.908C220.912 125.268 219.808 125.853 218.862 126.664C217.917 127.475 217.162 128.566 216.599 129.94C216.035 131.314 215.755 133.06 215.755 135.176V152.133H208.997ZM247.783 152.944C244.539 152.944 241.668 152.201 239.168 150.714C236.668 149.228 234.708 147.157 233.289 144.499C231.871 141.842 231.161 138.734 231.161 135.176C231.161 131.619 231.848 128.5 233.222 125.819C234.596 123.14 236.555 121.046 239.1 119.537C241.645 118.028 244.584 117.273 247.919 117.273C251.251 117.273 254.112 118.016 256.5 119.503C258.887 120.988 260.723 122.948 262.008 125.38C263.291 127.813 263.933 130.515 263.933 133.487V134.973C263.933 135.514 263.887 136.078 263.798 136.662H236.093V131.933H257.243C257.109 129.141 256.162 126.934 254.405 125.313C252.649 123.691 250.462 122.881 247.852 122.881C246.003 122.881 244.314 123.298 242.784 124.13C241.251 124.964 240.035 126.181 239.134 127.779C238.232 129.378 237.783 131.393 237.783 133.825V135.717C237.783 138.239 238.232 140.356 239.134 142.067C240.035 143.779 241.24 145.085 242.749 145.985C244.257 146.887 245.937 147.337 247.783 147.337C249.946 147.337 251.737 146.864 253.156 145.918C254.574 144.972 255.599 143.689 256.23 142.067H262.987C262.412 144.119 261.397 146.02 260.014 147.641C258.617 149.286 256.906 150.579 254.879 151.525C252.851 152.471 250.486 152.944 247.783 152.944Z" fill="#38655D"/>
</svg>
