<svg width="264" height="167" viewBox="0 0 264 167" fill="none" xmlns="http://www.w3.org/2000/svg">
<path d="M212.865 71.7112V91.2834H172.052L147.259 63.8021L142.443 66.5883L128.265 50.6535L91.8086 91.2834H51.2026V71.7112H95.5006L57.1375 49.5674L66.925 32.6132L105.288 54.7575L83.1395 16.402L100.097 6.60852L122.245 44.972V0.682617H141.821V44.972L163.97 6.60852L180.928 16.402L158.779 54.7575L197.142 32.6132L206.93 49.5674L168.567 71.7112H212.865Z" fill="#FEBE04"/>
<path d="M140.863 82.7856L128.608 57.7735L141.481 72.8497L145.711 70.0239L163.17 88.869L145.888 77.8077L140.863 82.7856ZM145.888 66.3272L141.481 68.8616L128.519 54.366L95.1918 91.3334H168.548L145.888 66.3272ZM17.3642 152.944C13.9401 152.944 10.9213 152.325 8.31081 151.086C5.69639 149.848 3.66957 148.104 2.22838 145.85C0.786203 143.599 0.0671387 140.964 0.0671387 137.945H7.16147C7.16147 139.658 7.56684 141.223 8.37755 142.642C9.18829 144.061 10.3476 145.187 11.8575 146.019C13.3664 146.853 15.202 147.269 17.3653 147.269C19.2576 147.269 20.888 146.954 22.2635 146.323C23.6379 145.693 24.6847 144.826 25.4048 143.722C26.1259 142.62 26.4864 141.347 26.4864 139.905C26.4864 138.239 26.1149 136.877 25.3719 135.818C24.6279 134.76 23.625 133.882 22.3641 133.183C21.1032 132.486 19.6162 131.855 17.9051 131.292C16.1286 130.708 14.3491 130.134 12.5666 129.569C8.82676 128.309 6.04599 126.709 4.22134 124.772C2.3967 122.837 1.48539 120.314 1.48539 117.206C1.48539 114.549 2.1039 112.241 3.34288 110.281C4.5819 108.322 6.35073 106.791 8.64748 105.687C10.9452 104.584 13.6244 104.032 16.689 104.032C19.7964 104.032 22.4876 104.596 24.7634 105.721C27.0372 106.848 28.8278 108.401 30.1358 110.382C31.4415 112.365 32.1175 114.684 32.1623 117.341H24.9994C24.9994 116.125 24.6847 114.932 24.0543 113.76C23.4228 112.59 22.4766 111.632 21.2157 110.889C19.9538 110.146 18.4001 109.774 16.5545 109.774C15.0217 109.73 13.6483 109.977 12.4312 110.518C11.2161 111.058 10.258 111.846 9.55977 112.882C8.86062 113.918 8.51201 115.157 8.51201 116.598C8.51201 118.04 8.82676 119.199 9.45819 120.078C10.0886 120.956 10.979 121.71 12.1274 122.34C13.2758 122.971 14.6383 123.546 16.2159 124.063C17.7915 124.581 19.5265 125.156 21.4189 125.786C23.7156 126.552 25.7872 127.486 27.6349 128.589C29.4814 129.694 30.9344 131.113 31.993 132.845C33.052 134.58 33.5819 136.798 33.5819 139.5C33.5819 141.842 32.9742 144.026 31.7573 146.053C30.542 148.08 28.7394 149.735 26.351 151.018C23.9636 152.303 20.9677 152.944 17.3642 152.944ZM43.9201 166.996L52.2314 148.35H50.2713L36.8245 118.085H44.1899L54.7991 142.81L65.5427 118.085H72.6379L51.0153 166.996H43.9201ZM77.2325 152.133V118.084H83.3139L83.7192 123.894C84.801 121.823 86.3208 120.202 88.2809 119.03C90.2398 117.86 92.5259 117.273 95.1392 117.273C97.8861 117.273 100.229 117.814 102.167 118.894C104.103 119.976 105.601 121.609 106.66 123.793C107.718 125.978 108.248 128.714 108.248 132.001V152.133H101.49V132.676C101.49 129.524 100.793 127.127 99.396 125.482C97.9996 123.839 95.9719 123.016 93.3146 123.016C91.5576 123.016 89.9801 123.444 88.5845 124.299C87.1873 125.156 86.0729 126.394 85.2402 128.016C84.4055 129.637 83.9903 131.619 83.9903 133.96V152.133H77.2325ZM128.182 147.472C129.623 147.472 130.929 147.179 132.101 146.594C133.269 146.012 134.295 145.182 135.108 144.162C135.938 143.13 136.59 141.965 137.034 140.717C137.483 139.456 137.731 138.127 137.777 136.731V136.595H129.735C127.754 136.595 126.165 136.821 124.972 137.271C123.778 137.721 122.911 138.364 122.37 139.196C121.831 140.03 121.56 140.987 121.56 142.067C121.56 143.149 121.818 144.094 122.336 144.905C122.854 145.716 123.62 146.347 124.634 146.796C125.648 147.247 126.83 147.472 128.182 147.472ZM126.898 152.944C124.104 152.944 121.785 152.471 119.938 151.526C118.091 150.58 116.717 149.307 115.816 147.708C114.914 146.11 114.465 144.365 114.465 142.474C114.465 140.267 115.05 138.364 116.221 136.765C117.392 135.166 119.06 133.938 121.222 133.082C123.384 132.228 125.997 131.798 129.06 131.798H137.845C137.845 129.816 137.551 128.173 136.966 126.867C136.38 125.561 135.513 124.57 134.365 123.894C133.216 123.219 131.763 122.881 130.006 122.881C127.979 122.881 126.244 123.365 124.803 124.334C123.361 125.302 122.46 126.777 122.1 128.758H115.343C115.614 126.327 116.435 124.256 117.809 122.543C119.183 120.832 120.952 119.526 123.114 118.625C125.277 117.724 127.573 117.274 130.006 117.274C133.205 117.274 135.885 117.838 138.047 118.963C140.209 120.088 141.841 121.677 142.946 123.726C144.049 125.775 144.601 128.217 144.601 131.055V152.133H138.723L138.183 146.391C137.717 147.315 137.138 148.177 136.459 148.959C135.756 149.773 134.936 150.479 134.026 151.053C133.103 151.638 132.055 152.098 130.885 152.437C129.713 152.776 128.385 152.944 126.898 152.944ZM168.724 118.085V123.76H160.481V152.133H153.723V123.76H148.722V118.085H153.723V113.491C153.723 111.149 154.128 109.233 154.939 107.748C155.751 106.261 156.921 105.181 158.454 104.504C159.983 103.829 161.832 103.492 163.994 103.492H167.981V109.233H165.008C163.43 109.233 162.281 109.562 161.562 110.213C160.841 110.868 160.481 111.983 160.481 113.557V118.085H168.724ZM185.348 147.472C186.789 147.472 188.095 147.179 189.267 146.594C190.435 146.012 191.461 145.182 192.274 144.162C193.105 143.13 193.756 141.965 194.2 140.717C194.648 139.456 194.897 138.127 194.943 136.731V136.595H186.901C184.919 136.595 183.331 136.821 182.138 137.271C180.943 137.721 180.076 138.364 179.536 139.196C178.996 140.03 178.726 140.987 178.726 142.067C178.726 143.149 178.985 144.094 179.503 144.905C180.02 145.716 180.786 146.347 181.8 146.796C182.814 147.247 183.996 147.472 185.348 147.472ZM184.063 152.944C181.27 152.944 178.951 152.471 177.104 151.526C175.256 150.58 173.883 149.307 172.981 147.708C172.08 146.11 171.631 144.365 171.631 142.474C171.631 140.267 172.216 138.364 173.387 136.765C174.558 135.166 176.225 133.938 178.387 133.082C180.55 132.228 183.163 131.798 186.225 131.798H195.01C195.01 129.816 194.717 128.173 194.132 126.867C193.545 125.561 192.678 124.57 191.531 123.894C190.382 123.219 188.93 122.881 187.173 122.881C185.145 122.881 183.411 123.365 181.969 124.334C180.527 125.302 179.626 126.777 179.267 128.758H172.51C172.779 126.327 173.601 124.256 174.976 122.543C176.349 120.832 178.118 119.526 180.28 118.625C182.442 117.724 184.739 117.274 187.173 117.274C190.37 117.274 193.051 117.838 195.213 118.963C197.374 120.088 199.008 121.677 200.112 123.726C201.216 125.775 201.767 128.217 201.767 131.055V152.133H195.889L195.348 146.391C194.883 147.315 194.304 148.177 193.625 148.959C192.922 149.773 192.102 150.479 191.192 151.053C190.269 151.638 189.22 152.098 188.051 152.437C186.879 152.776 185.55 152.944 184.063 152.944ZM209.064 152.133V118.084H215.146L215.686 124.502C216.498 122.971 217.499 121.677 218.694 120.618C219.886 119.56 221.329 118.738 223.018 118.152C224.708 117.567 226.587 117.273 228.661 117.273V124.367H226.229C224.83 124.367 223.501 124.546 222.241 124.908C220.979 125.268 219.875 125.853 218.929 126.664C217.984 127.475 217.229 128.566 216.666 129.94C216.102 131.314 215.822 133.06 215.822 135.176V152.133H209.064ZM247.85 152.944C244.607 152.944 241.735 152.201 239.235 150.714C236.735 149.228 234.775 147.157 233.356 144.499C231.938 141.842 231.228 138.734 231.228 135.176C231.228 131.619 231.915 128.5 233.289 125.819C234.664 123.14 236.622 121.046 239.167 119.537C241.712 118.028 244.651 117.273 247.986 117.273C251.318 117.273 254.179 118.016 256.567 119.503C258.954 120.988 260.79 122.948 262.075 125.38C263.358 127.813 264 130.515 264 133.487V134.973C264 135.514 263.954 136.078 263.865 136.662H236.161V131.933H257.31C257.176 129.141 256.23 126.934 254.473 125.313C252.716 123.691 250.53 122.881 247.919 122.881C246.071 122.881 244.381 123.298 242.851 124.13C241.318 124.964 240.102 126.181 239.201 127.779C238.299 129.378 237.85 131.393 237.85 133.825V135.717C237.85 138.239 238.299 140.356 239.201 142.067C240.102 143.779 241.307 145.085 242.817 145.985C244.325 146.887 246.004 147.337 247.85 147.337C250.013 147.337 251.804 146.864 253.223 145.918C254.641 144.972 255.666 143.689 256.297 142.067H263.054C262.479 144.119 261.464 146.02 260.081 147.641C258.684 149.286 256.974 150.579 254.946 151.525C252.918 152.471 250.554 152.944 247.85 152.944Z" fill="#FEBE04"/>
</svg>
