<svg width="15" height="14" viewBox="0 0 15 14" fill="none" xmlns="http://www.w3.org/2000/svg">
<path d="M7.50065 0.333374C11.1873 0.333374 14.1673 3.32004 14.1673 7.00004C14.1673 10.6867 11.1873 13.6667 7.50065 13.6667C3.82065 13.6667 0.833984 10.6867 0.833984 7.00004C0.833984 3.32004 3.82065 0.333374 7.50065 0.333374ZM7.26732 3.62004C6.99398 3.62004 6.76732 3.84004 6.76732 4.12004V7.48671C6.76732 7.66004 6.86065 7.82004 7.01398 7.91337L9.62732 9.47337C9.70732 9.52004 9.79398 9.54671 9.88732 9.54671C10.054 9.54671 10.2207 9.46004 10.314 9.30004C10.454 9.06671 10.3807 8.76004 10.1407 8.61337L7.76732 7.20004V4.12004C7.76732 3.84004 7.54065 3.62004 7.26732 3.62004Z" fill="#FEBE04"/>
</svg>
