<svg xmlns="http://www.w3.org/2000/svg" width="20" height="21" viewBox="0 0 20 21" fill="none">
  <path d="M18.3329 9.66201V11.3787C18.3329 11.837 17.9662 12.212 17.4995 12.2287H15.8662C14.9662 12.2287 14.1412 11.5703 14.0662 10.6703C14.0162 10.1453 14.2162 9.65368 14.5662 9.31201C14.8745 8.99535 15.2995 8.81201 15.7662 8.81201H17.4995C17.9662 8.82868 18.3329 9.20368 18.3329 9.66201Z" fill="white"/>
  <path d="M17.0577 13.4789H15.866C14.2827 13.4789 12.9493 12.2873 12.816 10.7706C12.741 9.90392 13.0577 9.03726 13.691 8.42059C14.2243 7.87059 14.966 7.56226 15.766 7.56226H17.0577C17.2993 7.56226 17.4993 7.36226 17.4743 7.12059C17.291 5.09559 15.9493 3.71226 13.9577 3.47892C13.7577 3.44559 13.5493 3.43726 13.3327 3.43726H5.83268C5.59935 3.43726 5.37435 3.45392 5.15768 3.48726C3.03268 3.75392 1.66602 5.33726 1.66602 7.60392V13.4373C1.66602 15.7373 3.53268 17.6039 5.83268 17.6039H13.3327C15.666 17.6039 17.2743 16.1456 17.4743 13.9206C17.4993 13.6789 17.2993 13.4789 17.0577 13.4789ZM10.8327 8.64559H5.83268C5.49102 8.64559 5.20768 8.36226 5.20768 8.02059C5.20768 7.67892 5.49102 7.39559 5.83268 7.39559H10.8327C11.1743 7.39559 11.4577 7.67892 11.4577 8.02059C11.4577 8.36226 11.1743 8.64559 10.8327 8.64559Z" fill="white"/>
</svg>