<svg
  width="162"
  height="181"
  viewBox="0 0 162 181"
  fill="none"
  xmlns="http://www.w3.org/2000/svg"
>
  <g clip-path="url(#clip0_864_212533)">
    <path
      d="M24.1356 54.3141C25.0577 53.7598 26.0488 53.3295 27.0833 53.0343L27.6902 50.1155L32.6442 50.0288L33.3543 52.9187C34.4001 53.1775 35.4066 53.5745 36.3474 54.0994L38.8244 52.448L42.3749 55.8746L40.8308 58.4218C41.3868 59.343 41.8172 60.3344 42.1106 61.3695L45.0377 62.0135L45.1244 66.947L42.2345 67.6571C41.9757 68.7028 41.5787 69.7094 41.0538 70.6501L42.7051 73.1272L39.2786 76.6776L36.7313 75.1336C35.8101 75.6895 34.8188 76.1199 33.7837 76.4134L33.1768 79.3321L28.2227 79.4188L27.5126 76.529C26.4669 76.2702 25.4603 75.8731 24.5196 75.3483L22.0425 76.9996L18.4921 73.573L20.0361 71.0258C19.4802 70.1046 19.0498 69.1133 18.7563 68.0781L15.8375 67.4713L15.7261 62.5131L18.616 61.803C18.8747 60.7572 19.2718 59.7507 19.7967 58.8099L18.1453 56.3329L21.5719 52.7824L24.1191 54.3265L24.1356 54.3141ZM26.7654 60.8865C26.0394 61.6392 25.5528 62.5902 25.3672 63.6194C25.1816 64.6486 25.3053 65.7097 25.7227 66.6686C26.1401 67.6275 26.8324 68.4411 27.7121 69.0066C28.5918 69.5721 29.6195 69.8641 30.6651 69.8456C31.7107 69.8272 32.7274 69.4991 33.5866 68.9029C34.4458 68.3067 35.109 67.4691 35.4923 66.4961C35.8755 65.5231 35.9617 64.4583 35.7399 63.4363C35.5181 62.4143 34.9982 61.481 34.2461 60.7544C33.7466 60.2711 33.1567 59.8912 32.5102 59.6362C31.8637 59.3813 31.1732 59.2563 30.4783 59.2686C29.7835 59.2809 29.0978 59.4301 28.4607 59.7077C27.8236 59.9853 27.2475 60.3859 26.7654 60.8865Z"
      fill="#F5F5F5"
    />
    <path
      d="M28.4051 17.7689C28.7407 20.039 28.3952 22.3576 27.4124 24.4313C26.4296 26.5049 24.8537 28.2404 22.8841 29.418C20.9145 30.5956 18.6398 31.1624 16.348 31.0466C14.0561 30.9308 11.8501 30.1377 10.0093 28.7676C8.1684 27.3975 6.77541 25.512 6.0066 23.3499C5.2378 21.1877 5.12776 18.8461 5.69041 16.6213C6.25306 14.3966 7.4631 12.3888 9.16737 10.8521C10.8716 9.31544 12.9935 8.31892 15.2644 7.98872C18.3038 7.54345 21.3957 8.32365 23.86 10.1577C26.3242 11.9918 27.9591 14.7296 28.4051 17.7689Z"
      fill="#F5F5F5"
    />
    <path
      d="M25.6719 18.166C25.9273 19.8955 25.664 21.6618 24.9151 23.2415C24.1663 24.8212 22.9656 26.1432 21.4651 27.0402C19.9646 27.9372 18.2316 28.3689 16.4857 28.2806C14.7397 28.1923 13.0592 27.588 11.6568 26.5441C10.2545 25.5003 9.1933 24.0639 8.60766 22.4167C8.02201 20.7695 7.93821 18.9856 8.36687 17.2908C8.79552 15.596 9.71736 14.0664 11.0157 12.8957C12.314 11.7251 13.9305 10.9659 15.6605 10.7143C16.8072 10.5459 17.9758 10.6051 19.0996 10.8885C20.2234 11.1719 21.2804 11.6739 22.2101 12.3659C23.1398 13.0579 23.9241 13.9264 24.518 14.9216C25.112 15.9168 25.5041 17.0193 25.6719 18.166Z"
      fill="#EBEBEB"
    />
    <path
      d="M25.6342 17.8936C25.4712 17.568 25.3425 17.2262 25.2502 16.8739C24.9194 15.963 24.4486 15.1092 23.8548 14.3432C22.9776 13.2122 21.8365 12.3136 20.5315 11.7258C20.1594 11.5606 19.7758 11.4227 19.3838 11.313C18.5469 11.0712 17.6786 10.9557 16.8077 10.9703C16.3537 10.9819 15.9012 11.0261 15.4536 11.1024C15.0054 11.184 14.5638 11.2985 14.1325 11.4451C13.7146 11.5891 13.3088 11.7658 12.9187 11.9735C12.1771 12.3648 11.4969 12.8627 10.8999 13.4515C10.3584 13.9841 9.88674 14.5834 9.49628 15.235C9.1573 15.8079 8.8805 16.4155 8.6706 17.0473C8.3821 17.972 8.23729 18.9355 8.24125 19.9042C8.28063 20.265 8.28063 20.6291 8.24125 20.9899C8.0824 20.654 7.99657 20.2881 7.98942 19.9165C7.88291 18.9069 7.96552 17.8863 8.233 16.9069C8.62829 15.4355 9.39773 14.0915 10.4665 13.0056C10.773 12.6909 11.1028 12.3997 11.4531 12.1345C11.8185 11.8537 12.2065 11.6038 12.6132 11.3873C13.0321 11.1593 13.4683 10.9647 13.9178 10.8052C14.3729 10.64 14.8392 10.5075 15.3132 10.4089C15.7978 10.3277 16.2876 10.2808 16.7788 10.2685C17.2553 10.2624 17.7316 10.2942 18.2031 10.3634C19.0947 10.4954 19.9616 10.7598 20.7751 11.1478C22.1525 11.7985 23.3385 12.7939 24.2181 14.0377C24.8058 14.8651 25.2342 15.7947 25.4814 16.779C25.6172 17.1339 25.6694 17.5153 25.6342 17.8936Z"
      fill="#E0E0E0"
    />
    <path
      d="M18.6746 24.5108L18.9181 26.0301L17.564 26.2448L17.3246 24.7668C16.1134 24.9223 14.8829 24.7335 13.7742 24.2218L14.253 22.4466C15.119 22.8666 16.0796 23.053 17.0397 22.9874L16.6764 20.7292C15.1118 20.6012 13.3489 20.37 13.0393 18.4297C12.8081 16.9889 13.6586 15.5894 15.7599 15.0031L15.5205 13.4963L16.8787 13.2775L17.114 14.7554C18.0944 14.6551 19.0847 14.7881 20.0039 15.1435L19.5911 16.9228C18.8925 16.6534 18.1473 16.5257 17.3989 16.5472L17.7704 18.8549C19.3351 18.9664 21.0731 19.2017 21.3745 21.1173C21.6016 22.5251 20.7635 23.9122 18.6746 24.5108ZM16.3585 18.7311L16.0489 16.8072C15.3595 17.0838 15.1365 17.5215 15.2232 17.9714C15.3099 18.4214 15.7269 18.6361 16.3585 18.7269V18.7311ZM19.2154 21.621C19.1411 21.1462 18.7076 20.9521 18.0883 20.8407L18.3897 22.715C19.0296 22.459 19.2856 22.0586 19.2154 21.6251V21.621Z"
      fill="#E0E0E0"
    />
    <path
      d="M27.1256 76.3427C27.5123 78.9628 27.1129 81.6388 25.9781 84.0319C24.8433 86.4249 23.024 88.4275 20.7505 89.7861C18.477 91.1447 15.8515 91.7983 13.2064 91.664C10.5613 91.5298 8.01546 90.6138 5.89118 89.032C3.7669 87.4502 2.15967 85.2738 1.27294 82.7781C0.386198 80.2825 0.25982 77.5798 0.9098 75.0123C1.55978 72.4448 2.9569 70.1278 4.9243 68.3547C6.8917 66.5816 9.34093 65.432 11.962 65.0516C13.699 64.7972 15.4692 64.8875 17.1713 65.3173C18.8735 65.7471 20.4743 66.508 21.8824 67.5565C23.2905 68.605 24.4782 69.9205 25.3779 71.4281C26.2775 72.9357 26.8714 74.6056 27.1256 76.3427Z"
      fill="#F5F5F5"
    />
    <path
      d="M23.976 76.8012C24.2711 78.7982 23.9672 80.8378 23.1026 82.6619C22.2381 84.486 20.8517 86.0127 19.1191 87.0485C17.3865 88.0844 15.3856 88.5829 13.3695 88.481C11.3534 88.3791 9.41292 87.6814 7.79358 86.4762C6.17424 85.2709 4.94888 83.6123 4.27261 81.7103C3.59633 79.8084 3.49955 77.7485 3.99451 75.7915C4.48947 73.8345 5.55392 72.0683 7.05312 70.7165C8.55232 69.3647 10.4189 68.4881 12.4165 68.1977C13.7405 68.003 15.0899 68.0711 16.3876 68.3982C17.6852 68.7253 18.9057 69.3049 19.9792 70.1039C21.0528 70.9029 21.9583 71.9057 22.6441 73.0548C23.3299 74.204 23.7825 75.4771 23.976 76.8012Z"
      fill="#EBEBEB"
    />
    <path
      d="M23.9264 76.4837C23.8645 76.4837 23.7571 76.0708 23.4846 75.3112C23.0996 74.2587 22.5551 73.2715 21.8704 72.3842C21.3978 71.7774 20.8607 71.2237 20.2686 70.7328C19.5864 70.1814 18.8374 69.7181 18.0393 69.3539C17.1582 68.9549 16.2236 68.6864 15.265 68.5572C14.7602 68.4893 14.251 68.459 13.7416 68.4663C13.2159 68.4826 12.6918 68.5337 12.1728 68.6191C11.6562 68.7215 11.1471 68.8594 10.6495 69.0319C10.1676 69.1985 9.69964 69.4028 9.24994 69.6429C8.81761 69.8723 8.40356 70.1345 8.01142 70.4273C7.62972 70.7053 7.26953 71.0117 6.93391 71.3438C6.30723 71.9588 5.76322 72.6527 5.31558 73.408C4.92462 74.0669 4.60888 74.7676 4.3743 75.497C4.03439 76.5648 3.86307 77.6791 3.86651 78.7997C3.86651 79.5965 3.91605 80.0382 3.86651 80.0382C3.81697 80.0382 3.67248 79.6254 3.57339 78.7997C3.45342 77.6347 3.55 76.4576 3.85825 75.3277C4.06803 74.5415 4.37158 73.7833 4.76237 73.0695C5.21055 72.2508 5.76589 71.4955 6.41373 70.8236C6.76628 70.4582 7.14729 70.1214 7.55317 69.8163C7.9751 69.4932 8.42242 69.2047 8.89077 68.9535C9.37442 68.6907 9.87831 68.4671 10.3976 68.2847C10.9365 68.0993 11.4885 67.9544 12.049 67.8512C12.6084 67.7562 13.1743 67.7038 13.7416 67.6943C14.2941 67.6856 14.8463 67.7215 15.393 67.8017C15.919 67.8767 16.4381 67.994 16.9453 68.1526C17.4324 68.2996 17.9072 68.4846 18.3654 68.7058C19.9554 69.4575 21.3237 70.6081 22.3369 72.0457C23.0103 73.0062 23.4976 74.0844 23.7736 75.2245C23.9677 76.0213 23.9718 76.463 23.9264 76.4837Z"
      fill="#E0E0E0"
    />
    <path
      d="M15.8992 84.1206L16.18 85.8752L14.6112 86.127L14.3263 84.4179C12.7617 84.5706 11.197 84.327 10.2268 83.7903L10.78 81.7261C11.7816 82.2085 12.891 82.4233 14.0002 82.3495L13.5873 79.7362C11.7832 79.5918 9.74794 79.3234 9.38877 77.0817C9.12042 75.4303 10.0989 73.8037 12.5305 73.1267L12.2621 71.401L13.8309 71.1533L14.1034 72.8583C15.2335 72.7434 16.3749 72.8962 17.435 73.3042L16.9602 75.3684C16.1535 75.0657 15.2948 74.9254 14.4337 74.9556L14.8465 77.6184C16.6506 77.7464 18.657 78.0312 19.0079 80.2275C19.2804 81.8293 18.3102 83.4312 15.8992 84.1206ZM13.224 77.4491L12.8649 75.2239C12.0681 75.5459 11.8121 76.0496 11.8947 76.5698C11.9773 77.0899 12.4974 77.3418 13.224 77.4491ZM16.5268 80.7931C16.4359 80.244 15.9364 80.0211 15.2263 79.8931L15.569 82.0523C16.3203 81.755 16.6011 81.2927 16.5226 80.7931H16.5268Z"
      fill="#E0E0E0"
    />
    <path
      d="M53.5441 8.67038C53.8119 10.4832 53.5358 12.3347 52.7508 13.9905C51.9657 15.6462 50.7071 17.0319 49.1342 17.972C47.5612 18.9121 45.7447 19.3644 43.9146 19.2716C42.0845 19.1788 40.3231 18.5451 38.8533 17.4507C37.3835 16.3563 36.2715 14.8505 35.658 13.1238C35.0444 11.3971 34.957 9.52716 35.4068 7.75075C35.8565 5.97434 36.8232 4.3713 38.1845 3.14457C39.5458 1.91785 41.2404 1.12258 43.0539 0.859457C44.2555 0.683458 45.4801 0.745889 46.6577 1.04318C47.8352 1.34048 48.9427 1.86682 49.9168 2.59214C50.8909 3.31746 51.7127 4.22757 52.335 5.27048C52.9574 6.31339 53.3683 7.46868 53.5441 8.67038Z"
      fill="#F5F5F5"
    />
    <path
      d="M51.3636 8.98803C51.5671 10.3691 51.3564 11.7794 50.7581 13.0407C50.1598 14.3019 49.2008 15.3573 48.0024 16.0733C46.8041 16.7893 45.4203 17.1338 44.0262 17.063C42.632 16.9923 41.2901 16.5096 40.1704 15.6761C39.0507 14.8425 38.2034 13.6955 37.7358 12.3802C37.2681 11.0649 37.2012 9.64042 37.5434 8.28707C37.8856 6.93372 38.6216 5.7123 39.6582 4.77737C40.6948 3.84244 41.9855 3.23604 43.3669 3.03488C44.2829 2.90041 45.2164 2.94773 46.1141 3.17417C47.0118 3.4006 47.8561 3.80171 48.5987 4.35456C49.3413 4.9074 49.9678 5.60117 50.4422 6.3962C50.9166 7.19123 51.2297 8.07195 51.3636 8.98803Z"
      fill="#EBEBEB"
    />
    <path
      d="M51.3299 8.7576C51.2004 8.49341 51.098 8.21677 51.0244 7.93192C50.7588 7.20358 50.3814 6.52108 49.9056 5.90901C49.207 5.00569 48.2967 4.28826 47.2552 3.82004C46.9588 3.68383 46.6524 3.57065 46.3387 3.48151C46.0117 3.38426 45.6777 3.31249 45.3396 3.26683C44.9894 3.21912 44.6361 3.19842 44.2827 3.20491C43.5545 3.22024 42.8331 3.34837 42.1442 3.58472C41.8109 3.69781 41.4866 3.83582 41.174 3.99756C40.8726 4.15632 40.5841 4.33853 40.3112 4.54251C40.0458 4.73451 39.796 4.94709 39.564 5.17828C39.1314 5.60304 38.7554 6.08174 38.4452 6.60258C38.1763 7.06075 37.9576 7.54658 37.7929 8.05164C37.5598 8.7902 37.4414 9.56017 37.442 10.3346C37.4743 10.6227 37.4743 10.9135 37.442 11.2016C37.3149 10.9328 37.246 10.6402 37.2397 10.3429C37.1562 9.53824 37.222 8.72508 37.4337 7.9443C37.7503 6.76925 38.3646 5.6957 39.2172 4.82737C39.462 4.5736 39.7271 4.34026 40.0098 4.12967C40.3008 3.90463 40.6101 3.70439 40.9346 3.53105C41.615 3.16078 42.3513 2.90419 43.1144 2.77143C43.5006 2.70569 43.8911 2.66843 44.2827 2.65996C44.6639 2.65537 45.0448 2.68022 45.4222 2.73427C45.7854 2.78913 46.1442 2.87054 46.4955 2.97785C46.8311 3.08034 47.1583 3.20871 47.474 3.36179C48.5755 3.88084 49.5231 4.67758 50.2235 5.67369C50.6934 6.33401 51.0364 7.07598 51.2349 7.86174C51.3334 8.14946 51.3658 8.45564 51.3299 8.7576Z"
      fill="#E0E0E0"
    />
    <path
      d="M45.7778 14.054L45.9718 15.2678L44.886 15.4371L44.7002 14.2563C43.7335 14.388 42.7492 14.245 41.8599 13.8435L42.2438 12.4275C42.9395 12.7533 43.707 12.8954 44.4732 12.8403L44.1925 11.0279C42.9539 10.9289 41.5379 10.7431 41.3026 9.19493C41.1209 8.04311 41.798 6.92431 43.4782 6.4578L43.2842 5.25231L44.37 5.07892L44.5599 6.25964C45.3415 6.1787 46.1311 6.28483 46.8635 6.56927L46.5374 7.98944C45.9794 7.77519 45.3844 7.67415 44.7869 7.69219L45.0842 9.53346C46.3227 9.62428 47.7181 9.81006 47.9741 11.3376C48.1144 12.4729 47.4456 13.5752 45.7778 14.054ZM43.9282 9.43437L43.6805 7.89861C43.1273 8.11742 42.9498 8.46833 43.0076 8.8275C43.0654 9.18667 43.4246 9.36006 43.9282 9.43437ZM46.2071 11.7504C46.1493 11.3706 45.7943 11.2137 45.3071 11.127L45.5466 12.6215C46.0709 12.4151 46.2567 12.0972 46.2071 11.7504Z"
      fill="#E0E0E0"
    />
    <path
      d="M81.8804 9.89281C82.6384 9.43307 83.4549 9.07758 84.3079 8.83594L84.8074 6.43322L88.8656 6.36304L89.4518 8.75751C90.3172 8.96851 91.1504 9.29482 91.9289 9.72768L93.9931 8.38182L96.9118 11.2015L95.6114 13.2987C96.0711 14.0568 96.4266 14.8733 96.6683 15.7262L99.071 16.2258L99.1412 20.284L96.7591 20.8702C96.5488 21.7358 96.2225 22.5691 95.7889 23.3472L97.1348 25.4114L94.3151 28.3344L92.2178 27.0628C91.4588 27.5196 90.6425 27.8736 89.7904 28.1155L89.2908 30.5183L85.2326 30.5885L84.6505 28.161C83.7849 27.9507 82.9517 27.6243 82.1735 27.1908L80.1093 28.5366L77.2194 25.7211L78.4827 23.6197C78.0259 22.8607 77.6719 22.0444 77.4299 21.1922L75.0272 20.6927L74.957 16.6345L77.3391 16.0483C77.5501 15.1829 77.8764 14.3497 78.3093 13.5712L76.9634 11.507L79.7831 8.58824L81.8804 9.85979V9.89281ZM84.0436 15.2969C83.4454 15.9166 83.0442 16.6998 82.891 17.5474C82.7378 18.395 82.8394 19.2691 83.1829 20.059C83.5264 20.8489 84.0965 21.5192 84.8209 21.9852C85.5454 22.4511 86.3917 22.6918 87.2529 22.6768C88.1142 22.6618 88.9516 22.3918 89.6594 21.9009C90.3672 21.4099 90.9135 20.7202 91.2293 19.9188C91.5451 19.1174 91.6161 18.2403 91.4335 17.3985C91.2508 16.5567 90.8227 15.788 90.2032 15.1895C89.7918 14.7921 89.306 14.4795 88.7738 14.2698C88.2415 14.0601 87.6732 13.9573 87.1012 13.9672C86.5292 13.9772 85.9648 14.0998 85.4401 14.3279C84.9155 14.5561 84.441 14.8853 84.0436 15.2969Z"
      fill="#F5F5F5"
    />
    <path
      d="M118.71 41.2645C119.632 40.7086 120.625 40.2782 121.661 39.9847L122.268 37.0659L127.198 36.9792L127.908 39.8691C128.953 40.1275 129.959 40.5232 130.901 41.0457L133.378 39.3944L136.924 42.8209L135.38 45.3681C135.938 46.2885 136.368 47.28 136.66 48.3158L139.579 48.9227L139.665 53.8768L136.775 54.5868C136.517 55.6308 136.121 56.6358 135.599 57.5758L137.25 60.0528L133.824 63.6033L131.276 62.0551C130.354 62.6124 129.361 63.0442 128.325 63.339L127.718 66.2578L122.788 66.3445L122.078 63.4546C121.032 63.2006 120.025 62.8047 119.085 62.278L116.608 63.9294L113.062 60.5028L114.606 57.9556C114.041 57.0318 113.602 56.0362 113.301 54.9956L110.383 54.3887L110.296 49.4346L113.186 48.7245C113.445 47.6795 113.84 46.6732 114.362 45.7314L112.711 43.2544L116.138 39.704L118.685 41.248L118.71 41.2645ZM121.339 47.8369C120.613 48.5896 120.127 49.5407 119.941 50.5699C119.756 51.5991 119.879 52.6602 120.297 53.6191C120.714 54.578 121.406 55.3916 122.286 55.9571C123.166 56.5226 124.193 56.8145 125.239 56.7961C126.285 56.7776 127.301 56.4495 128.161 55.8533C129.02 55.2571 129.683 54.4196 130.066 53.4466C130.449 52.4735 130.536 51.4087 130.314 50.3867C130.092 49.3647 129.572 48.4314 128.82 47.7048C128.32 47.2221 127.73 46.8425 127.084 46.5879C126.437 46.3332 125.747 46.2085 125.052 46.2208C124.358 46.233 123.672 46.3821 123.035 46.6594C122.398 46.9367 121.822 47.3368 121.339 47.8369Z"
      fill="#F5F5F5"
    />
    <path
      d="M108.683 5.90065C109.163 5.60836 109.681 5.38202 110.223 5.22773L110.54 3.70435L113.117 3.65894L113.488 5.16993C114.034 5.30559 114.56 5.5124 115.053 5.78506L116.357 4.93461L118.211 6.7222L117.385 8.05567C117.688 8.53086 117.926 9.04464 118.091 9.58318L119.615 9.90107L119.66 12.4772L118.145 12.8487C118.013 13.3961 117.806 13.9227 117.53 14.4134L118.384 15.718L116.597 17.5716L115.263 16.7459C114.782 17.0382 114.265 17.2646 113.723 17.4189L113.406 18.9422L110.825 18.9877L110.458 17.4725C109.91 17.3406 109.384 17.1336 108.893 16.8574L107.589 17.712L105.706 15.9533L106.532 14.6198C106.239 14.139 106.013 13.6211 105.859 13.0799L104.335 12.762L104.29 10.1818L105.801 9.81437C105.937 9.26814 106.143 8.74208 106.416 8.24971L105.566 6.94514L107.357 5.09149L108.691 5.91717L108.683 5.90065ZM110.057 9.33135C109.677 9.72458 109.422 10.2218 109.324 10.7602C109.226 11.2985 109.29 11.8538 109.508 12.3557C109.726 12.8577 110.087 13.2838 110.547 13.5801C111.007 13.8764 111.545 14.0296 112.092 14.0203C112.639 14.0111 113.171 13.8398 113.621 13.5281C114.071 13.2165 114.418 12.7784 114.618 12.2694C114.819 11.7604 114.864 11.2032 114.748 10.6685C114.632 10.1338 114.361 9.64545 113.967 9.26529C113.44 8.75589 112.732 8.4767 111.999 8.48909C111.265 8.50147 110.567 8.80442 110.057 9.33135Z"
      fill="#F5F5F5"
    />
    <path
      d="M145.729 100.522C146.233 103.941 145.713 107.432 144.232 110.555C142.752 113.677 140.379 116.29 137.413 118.063C134.446 119.836 131.021 120.689 127.57 120.514C124.119 120.34 120.797 119.145 118.025 117.081C115.253 115.018 113.156 112.179 111.998 108.923C110.841 105.667 110.676 102.14 111.523 98.7904C112.371 95.4404 114.193 92.4171 116.76 90.1032C119.326 87.7894 122.522 86.289 125.941 85.792C128.208 85.4599 130.517 85.5774 132.738 86.1379C134.959 86.6984 137.048 87.6909 138.886 89.0588C140.723 90.4266 142.273 92.143 143.447 94.1098C144.621 96.0767 145.397 98.2556 145.729 100.522Z"
      fill="#F5F5F5"
    />
    <path
      d="M141.617 101.12C142.002 103.726 141.606 106.388 140.478 108.768C139.349 111.148 137.54 113.14 135.28 114.492C133.019 115.843 130.408 116.494 127.777 116.36C125.146 116.227 122.614 115.316 120.502 113.743C118.389 112.17 116.79 110.006 115.908 107.524C115.026 105.042 114.901 102.354 115.547 99.8005C116.194 97.247 117.583 94.9428 119.54 93.1795C121.497 91.4163 123.933 90.2733 126.54 89.8953C128.267 89.6421 130.027 89.7316 131.719 90.1588C133.412 90.5859 135.004 91.3423 136.404 92.3847C137.804 93.4271 138.985 94.7351 139.879 96.2339C140.774 97.7328 141.364 99.3933 141.617 101.12Z"
      fill="#EBEBEB"
    />
    <path
      d="M141.554 100.708C141.476 100.708 141.335 100.155 140.976 99.1763C140.475 97.8025 139.765 96.5143 138.871 95.3575C138.254 94.5696 137.552 93.8524 136.778 93.219C135.895 92.4992 134.924 91.8957 133.888 91.4232C132.734 90.899 131.51 90.5471 130.255 90.3787C129.594 90.2901 128.927 90.2515 128.261 90.2631C126.888 90.2863 125.528 90.5288 124.231 90.9814C123.602 91.1967 122.99 91.4618 122.402 91.7741C121.827 92.0732 121.275 92.4154 120.751 92.7979C120.254 93.163 119.785 93.5645 119.347 93.9993C118.529 94.7993 117.818 95.7028 117.234 96.6869C116.723 97.5488 116.308 98.4638 115.995 99.4158C115.554 100.808 115.331 102.261 115.335 103.722C115.335 104.762 115.397 105.348 115.335 105.373C115.273 105.398 115.079 104.824 114.955 103.755C114.791 102.232 114.914 100.691 115.318 99.2135C115.92 96.9963 117.083 94.9716 118.695 93.3346C119.157 92.8589 119.655 92.4199 120.186 92.0218C120.735 91.6002 121.318 91.2234 121.928 90.8948C123.218 90.1986 124.612 89.7149 126.056 89.4622C126.784 89.3354 127.521 89.265 128.261 89.2517C128.98 89.244 129.699 89.2909 130.412 89.392C131.097 89.4901 131.774 89.6433 132.434 89.8503C133.069 90.0419 133.688 90.2835 134.284 90.5727C136.359 91.5527 138.145 93.055 139.465 94.9323C140.352 96.1779 140.999 97.578 141.372 99.0607C141.608 100.101 141.612 100.7 141.554 100.708Z"
      fill="#E0E0E0"
    />
    <path
      d="M131.082 110.674L131.445 112.961L129.381 113.287L129.026 111.062C126.961 111.264 124.939 110.942 123.659 110.236L124.381 107.565C125.686 108.2 127.132 108.484 128.58 108.391L128.035 104.981C125.678 104.791 123.023 104.44 122.552 101.517C122.206 99.3499 123.481 97.2402 126.652 96.3568L126.289 94.0862L128.332 93.76L128.691 95.9893C130.166 95.835 131.656 96.0346 133.038 96.5714L132.419 99.2466C131.367 98.8413 130.244 98.6504 129.116 98.6852L129.674 102.161C132.027 102.326 134.628 102.686 135.103 105.567C135.487 107.685 134.227 109.77 131.082 110.674ZM127.589 101.98L127.127 99.0898C126.082 99.5026 125.748 100.171 125.855 100.844C125.962 101.517 126.644 101.827 127.589 101.98ZM131.907 106.331C131.792 105.613 131.135 105.32 130.21 105.154L130.66 107.974C131.635 107.586 131.998 106.983 131.907 106.331Z"
      fill="#E0E0E0"
    />
    <path
      d="M155.531 23.873C155.918 26.4932 155.52 29.1694 154.385 31.5629C153.251 33.9564 151.432 35.9596 149.159 37.3188C146.886 38.6781 144.26 39.3322 141.615 39.1985C138.97 39.0648 136.424 38.1493 134.299 36.5678C132.174 34.9863 130.566 32.8099 129.679 30.3143C128.792 27.8186 128.665 25.1158 129.315 22.5481C129.965 19.9804 131.362 17.6631 133.329 15.8898C135.297 14.1164 137.746 12.9666 140.367 12.586C143.875 12.0723 147.443 12.9727 150.286 15.0894C153.13 17.2061 155.016 20.3656 155.531 23.873Z"
      fill="#F5F5F5"
    />
    <path
      d="M152.383 24.3315C152.678 26.3284 152.374 28.368 151.51 30.1921C150.645 32.0163 149.259 33.5429 147.526 34.5787C145.794 35.6146 143.793 36.1131 141.777 36.0112C139.761 35.9094 137.82 35.2116 136.201 34.0064C134.581 32.8011 133.356 31.1425 132.68 29.2406C132.004 27.3386 131.907 25.2787 132.402 23.3217C132.897 21.3647 133.961 19.5985 135.46 18.2467C136.96 16.8949 138.826 16.0183 140.824 15.7279C142.148 15.5332 143.497 15.6013 144.795 15.9284C146.092 16.2555 147.313 16.8351 148.386 17.6341C149.46 18.4331 150.366 19.4359 151.051 20.585C151.737 21.7342 152.19 23.0073 152.383 24.3315Z"
      fill="#EBEBEB"
    />
    <path
      d="M152.331 24.0139C152.269 24.0139 152.162 23.601 151.889 22.8414C151.504 21.7888 150.96 20.8017 150.275 19.9144C149.802 19.3076 149.265 18.7539 148.673 18.263C147.992 17.7115 147.243 17.2494 146.444 16.8882C146.015 16.6883 145.57 16.524 145.115 16.397C144.642 16.2547 144.159 16.1511 143.67 16.0873C143.159 16.0221 142.644 15.9972 142.13 16.013C141.604 16.0259 141.08 16.0755 140.561 16.1616C140.044 16.264 139.535 16.402 139.038 16.5745C138.556 16.7428 138.089 16.947 137.638 17.1855C137.205 17.4139 136.791 17.6762 136.4 17.9699C136.016 18.2491 135.655 18.5568 135.318 18.8905C134.693 19.5056 134.15 20.1995 133.704 20.9547C133.313 21.6136 132.997 22.3143 132.762 23.0437C132.422 24.1115 132.251 25.2258 132.255 26.3464C132.255 27.1432 132.304 27.5849 132.255 27.5849C132.205 27.5849 132.061 27.1721 131.961 26.3464C131.841 25.1816 131.937 24.0047 132.242 22.8744C132.455 22.0887 132.76 21.3307 133.15 20.6162C133.599 19.7975 134.154 19.0422 134.802 18.3703C135.153 18.0037 135.533 17.6655 135.937 17.3589C136.359 17.0358 136.806 16.7472 137.275 16.496C137.758 16.2333 138.262 16.0096 138.782 15.8272C139.321 15.6432 139.873 15.4984 140.433 15.3938C140.994 15.2958 141.561 15.2406 142.13 15.2286C142.682 15.2199 143.234 15.2558 143.781 15.336C144.307 15.411 144.826 15.5283 145.333 15.6869C145.82 15.8339 146.295 16.0189 146.754 16.2401C148.341 16.9954 149.709 18.1453 150.725 19.58C151.404 20.5339 151.898 21.6065 152.182 22.7423C152.372 23.5515 152.376 24.0097 152.331 24.0139Z"
      fill="#E0E0E0"
    />
    <path
      d="M144.303 31.6506L144.609 33.3927L143.04 33.6446L142.767 31.9354C141.203 32.0923 139.638 31.8446 138.668 31.3079L139.221 29.2437C140.221 29.7261 141.329 29.9409 142.437 29.8671L142.024 27.2538C140.216 27.1093 138.185 26.841 137.826 24.5993C137.557 22.9479 138.536 21.3213 140.967 20.6443L140.662 18.9434L142.231 18.6915L142.503 20.3966C143.637 20.277 144.783 20.427 145.847 20.8342L145.372 22.8984C144.566 22.5958 143.707 22.4555 142.846 22.4855L143.259 25.1483C145.063 25.2763 147.065 25.5612 147.42 27.7616C147.68 29.3593 146.718 30.9611 144.303 31.6506ZM141.632 24.9791L141.273 22.7539C140.476 23.0759 140.22 23.5795 140.303 24.0997C140.385 24.6199 140.893 24.8717 141.632 24.9791ZM144.935 28.3231C144.844 27.774 144.345 27.5511 143.634 27.4231L143.977 29.5822C144.728 29.285 145.022 28.8226 144.931 28.3231H144.935Z"
      fill="#E0E0E0"
    />
    <path
      d="M116.849 143.293H149.621V137.344H116.849V143.293Z"
      fill="#FEBE04"
    />
    <path
      d="M146.41 143.343C146.484 143.343 146.546 142.022 146.546 140.391C146.546 138.76 146.484 137.439 146.41 137.439C146.336 137.439 146.274 138.76 146.274 140.391C146.274 142.022 146.336 143.343 146.41 143.343Z"
      fill="#263238"
    />
    <path
      d="M148.201 143.343C148.279 143.343 148.337 142.022 148.337 140.391C148.337 138.76 148.279 137.439 148.201 137.439C148.122 137.439 148.064 138.76 148.064 140.391C148.064 142.022 148.126 143.343 148.201 143.343Z"
      fill="#263238"
    />
    <path
      d="M142.47 143.343C142.549 143.343 142.606 142.022 142.606 140.391C142.606 138.76 142.549 137.439 142.47 137.439C142.392 137.439 142.334 138.76 142.334 140.391C142.334 142.022 142.396 143.343 142.47 143.343Z"
      fill="#263238"
    />
    <path
      d="M144.267 143.343C144.341 143.343 144.403 142.022 144.403 140.391C144.403 138.76 144.341 137.439 144.267 137.439C144.192 137.439 144.13 138.76 144.13 140.391C144.13 142.022 144.188 143.343 144.267 143.343Z"
      fill="#263238"
    />
    <path
      d="M138.536 143.343C138.61 143.343 138.672 142.022 138.672 140.391C138.672 138.76 138.61 137.439 138.536 137.439C138.462 137.439 138.4 138.76 138.4 140.391C138.4 142.022 138.458 143.343 138.536 143.343Z"
      fill="#263238"
    />
    <path
      d="M140.328 143.343C140.402 143.343 140.464 142.022 140.464 140.391C140.464 138.76 140.402 137.439 140.328 137.439C140.254 137.439 140.192 138.76 140.192 140.391C140.192 142.022 140.254 143.343 140.328 143.343Z"
      fill="#263238"
    />
    <path
      d="M134.603 143.343C134.677 143.343 134.739 142.022 134.739 140.391C134.739 138.76 134.677 137.439 134.603 137.439C134.529 137.439 134.467 138.76 134.467 140.391C134.467 142.022 134.525 143.343 134.603 143.343Z"
      fill="#263238"
    />
    <path
      d="M136.391 143.343C136.465 143.343 136.527 142.022 136.527 140.391C136.527 138.76 136.465 137.439 136.391 137.439C136.316 137.439 136.254 138.76 136.254 140.391C136.254 142.022 136.316 143.343 136.391 143.343Z"
      fill="#263238"
    />
    <path
      d="M130.659 143.343C130.733 143.343 130.795 142.022 130.795 140.391C130.795 138.76 130.733 137.439 130.659 137.439C130.584 137.439 130.522 138.76 130.522 140.391C130.522 142.022 130.584 143.343 130.659 143.343Z"
      fill="#263238"
    />
    <path
      d="M132.451 143.343C132.529 143.343 132.587 142.022 132.587 140.391C132.587 138.76 132.529 137.439 132.451 137.439C132.372 137.439 132.314 138.76 132.314 140.391C132.314 142.022 132.376 143.343 132.451 143.343Z"
      fill="#263238"
    />
    <path
      d="M126.721 143.343C126.8 143.343 126.862 142.022 126.862 140.391C126.862 138.76 126.8 137.439 126.721 137.439C126.643 137.439 126.585 138.76 126.585 140.391C126.585 142.022 126.647 143.343 126.721 143.343Z"
      fill="#263238"
    />
    <path
      d="M128.517 143.343C128.591 143.343 128.653 142.022 128.653 140.391C128.653 138.76 128.591 137.439 128.517 137.439C128.442 137.439 128.38 138.76 128.38 140.391C128.38 142.022 128.438 143.343 128.517 143.343Z"
      fill="#263238"
    />
    <path
      d="M122.787 143.343C122.861 143.343 122.923 142.022 122.923 140.391C122.923 138.76 122.861 137.439 122.787 137.439C122.713 137.439 122.651 138.76 122.651 140.391C122.651 142.022 122.709 143.343 122.787 143.343Z"
      fill="#263238"
    />
    <path
      d="M124.577 143.343C124.651 143.343 124.713 142.022 124.713 140.391C124.713 138.76 124.651 137.439 124.577 137.439C124.502 137.439 124.44 138.76 124.44 140.391C124.44 142.022 124.502 143.343 124.577 143.343Z"
      fill="#263238"
    />
    <path
      d="M118.849 143.343C118.923 143.343 118.985 142.022 118.985 140.391C118.985 138.76 118.923 137.439 118.849 137.439C118.775 137.439 118.713 138.76 118.713 140.391C118.713 142.022 118.775 143.343 118.849 143.343Z"
      fill="#263238"
    />
    <path
      d="M120.639 143.343C120.713 143.343 120.775 142.022 120.775 140.391C120.775 138.76 120.713 137.439 120.639 137.439C120.565 137.439 120.503 138.76 120.503 140.391C120.503 142.022 120.565 143.343 120.639 143.343Z"
      fill="#263238"
    />
    <path
      d="M116.848 137.345C116.848 137.419 124.221 137.481 133.308 137.481C142.395 137.481 149.772 137.419 149.772 137.345C149.772 137.271 142.403 137.209 133.308 137.209C124.213 137.209 116.848 137.267 116.848 137.345Z"
      fill="#263238"
    />
    <path
      d="M118.997 149.337H151.769V143.388H118.997V149.337Z"
      fill="#FEBE04"
    />
    <path
      d="M148.556 149.379C148.63 149.379 148.692 148.058 148.692 146.427C148.692 144.797 148.63 143.476 148.556 143.476C148.481 143.476 148.419 144.797 148.419 146.427C148.419 148.058 148.481 149.379 148.556 149.379Z"
      fill="#263238"
    />
    <path
      d="M150.349 149.379C150.423 149.379 150.485 148.058 150.485 146.427C150.485 144.797 150.423 143.476 150.349 143.476C150.274 143.476 150.212 144.797 150.212 146.427C150.212 148.058 150.291 149.379 150.349 149.379Z"
      fill="#263238"
    />
    <path
      d="M144.618 149.379C144.692 149.379 144.754 148.058 144.754 146.427C144.754 144.797 144.692 143.476 144.618 143.476C144.544 143.476 144.482 144.797 144.482 146.427C144.482 148.058 144.544 149.379 144.618 149.379Z"
      fill="#263238"
    />
    <path
      d="M146.41 149.379C146.484 149.379 146.546 148.058 146.546 146.427C146.546 144.797 146.484 143.476 146.41 143.476C146.336 143.476 146.274 144.797 146.274 146.427C146.274 148.058 146.336 149.379 146.41 149.379Z"
      fill="#263238"
    />
    <path
      d="M140.681 149.379C140.759 149.379 140.817 148.058 140.817 146.427C140.817 144.797 140.759 143.476 140.681 143.476C140.602 143.476 140.544 144.797 140.544 146.427C140.544 148.058 140.606 149.379 140.681 149.379Z"
      fill="#263238"
    />
    <path
      d="M142.47 149.379C142.549 149.379 142.606 148.058 142.606 146.427C142.606 144.797 142.549 143.476 142.47 143.476C142.392 143.476 142.334 144.797 142.334 146.427C142.334 148.058 142.396 149.379 142.47 149.379Z"
      fill="#263238"
    />
    <path
      d="M136.744 149.379C136.818 149.379 136.88 148.058 136.88 146.427C136.88 144.797 136.818 143.476 136.744 143.476C136.67 143.476 136.608 144.797 136.608 146.427C136.608 148.058 136.666 149.379 136.744 149.379Z"
      fill="#263238"
    />
    <path
      d="M138.536 149.379C138.61 149.379 138.672 148.058 138.672 146.427C138.672 144.797 138.61 143.476 138.536 143.476C138.462 143.476 138.4 144.797 138.4 146.427C138.4 148.058 138.458 149.379 138.536 149.379Z"
      fill="#263238"
    />
    <path
      d="M132.807 149.379C132.881 149.379 132.943 148.058 132.943 146.427C132.943 144.797 132.881 143.476 132.807 143.476C132.732 143.476 132.67 144.797 132.67 146.427C132.67 148.058 132.732 149.379 132.807 149.379Z"
      fill="#263238"
    />
    <path
      d="M134.603 149.379C134.677 149.379 134.739 148.058 134.739 146.427C134.739 144.797 134.677 143.476 134.603 143.476C134.529 143.476 134.467 144.797 134.467 146.427C134.467 148.058 134.525 149.379 134.603 149.379Z"
      fill="#263238"
    />
    <path
      d="M128.867 149.379C128.941 149.379 129.003 148.058 129.003 146.427C129.003 144.797 128.941 143.476 128.867 143.476C128.792 143.476 128.73 144.797 128.73 146.427C128.73 148.058 128.792 149.379 128.867 149.379Z"
      fill="#263238"
    />
    <path
      d="M130.659 149.379C130.733 149.379 130.795 148.058 130.795 146.427C130.795 144.797 130.733 143.476 130.659 143.476C130.584 143.476 130.522 144.797 130.522 146.427C130.522 148.058 130.584 149.379 130.659 149.379Z"
      fill="#263238"
    />
    <path
      d="M124.929 149.379C125.008 149.379 125.065 148.058 125.065 146.427C125.065 144.797 125.008 143.476 124.929 143.476C124.851 143.476 124.793 144.797 124.793 146.427C124.793 148.058 124.855 149.379 124.929 149.379Z"
      fill="#263238"
    />
    <path
      d="M126.721 149.379C126.8 149.379 126.862 148.058 126.862 146.427C126.862 144.797 126.8 143.476 126.721 143.476C126.643 143.476 126.585 144.797 126.585 146.427C126.585 148.058 126.647 149.379 126.721 149.379Z"
      fill="#263238"
    />
    <path
      d="M120.977 149.379C121.051 149.379 121.113 148.058 121.113 146.427C121.113 144.797 121.051 143.476 120.977 143.476C120.902 143.476 120.84 144.797 120.84 146.427C120.84 148.058 120.915 149.379 120.977 149.379Z"
      fill="#263238"
    />
    <path
      d="M122.787 149.379C122.861 149.379 122.923 148.058 122.923 146.427C122.923 144.797 122.861 143.476 122.787 143.476C122.713 143.476 122.651 144.797 122.651 146.427C122.651 148.058 122.709 149.379 122.787 149.379Z"
      fill="#263238"
    />
    <path
      d="M118.997 143.389C118.997 143.463 126.366 143.525 135.456 143.525C144.547 143.525 151.916 143.463 151.916 143.389C151.916 143.314 144.551 143.253 135.456 143.253C126.362 143.253 118.997 143.314 118.997 143.389Z"
      fill="#263238"
    />
    <path d="M116.319 155.332H149.09V149.383H116.319V155.332Z" fill="#FEBE04" />
    <path
      d="M145.877 155.374C145.951 155.374 146.013 154.048 146.013 152.422C146.013 150.795 145.951 149.47 145.877 149.47C145.803 149.47 145.749 150.775 145.749 152.426C145.749 154.077 145.803 155.374 145.877 155.374Z"
      fill="#263238"
    />
    <path
      d="M147.669 155.374C147.747 155.374 147.805 154.048 147.805 152.422C147.805 150.795 147.747 149.47 147.669 149.47C147.591 149.47 147.533 150.791 147.533 152.422C147.533 154.053 147.595 155.374 147.669 155.374Z"
      fill="#263238"
    />
    <path
      d="M141.937 155.374C142.015 155.374 142.073 154.048 142.073 152.422C142.073 150.795 142.015 149.47 141.937 149.47C141.859 149.47 141.801 150.791 141.801 152.422C141.801 154.053 141.863 155.374 141.937 155.374Z"
      fill="#263238"
    />
    <path
      d="M143.733 155.374C143.807 155.374 143.869 154.048 143.869 152.422C143.869 150.795 143.807 149.47 143.733 149.47C143.659 149.47 143.593 150.791 143.593 152.422C143.593 154.053 143.655 155.374 143.733 155.374Z"
      fill="#263238"
    />
    <path
      d="M138.003 155.374C138.077 155.374 138.139 154.048 138.139 152.422C138.139 150.795 138.077 149.47 138.003 149.47C137.929 149.47 137.867 150.791 137.867 152.422C137.867 154.053 137.925 155.374 138.003 155.374Z"
      fill="#263238"
    />
    <path
      d="M139.795 155.374C139.869 155.374 139.931 154.048 139.931 152.422C139.931 150.795 139.869 149.47 139.795 149.47C139.721 149.47 139.659 150.791 139.659 152.422C139.659 154.053 139.721 155.374 139.795 155.374Z"
      fill="#263238"
    />
    <path
      d="M134.065 155.374C134.14 155.374 134.202 154.048 134.202 152.422C134.202 150.795 134.14 149.47 134.065 149.47C133.991 149.47 133.929 150.791 133.929 152.422C133.929 154.053 133.991 155.374 134.065 155.374Z"
      fill="#263238"
    />
    <path
      d="M135.84 155.374C135.915 155.374 135.977 154.048 135.977 152.422C135.977 150.795 135.915 149.47 135.84 149.47C135.766 149.47 135.704 150.791 135.704 152.422C135.704 154.053 135.783 155.374 135.84 155.374Z"
      fill="#263238"
    />
    <path
      d="M130.128 155.374C130.202 155.374 130.264 154.048 130.264 152.422C130.264 150.795 130.202 149.47 130.128 149.47C130.054 149.47 129.992 150.791 129.992 152.422C129.992 154.053 130.062 155.374 130.128 155.374Z"
      fill="#263238"
    />
    <path
      d="M131.917 155.374C131.996 155.374 132.054 154.048 132.054 152.422C132.054 150.795 131.996 149.47 131.917 149.47C131.839 149.47 131.781 150.791 131.781 152.422C131.781 154.053 131.843 155.374 131.917 155.374Z"
      fill="#263238"
    />
    <path
      d="M126.19 155.374C126.269 155.374 126.327 154.048 126.327 152.422C126.327 150.795 126.269 149.47 126.19 149.47C126.112 149.47 126.054 150.791 126.054 152.422C126.054 154.053 126.116 155.374 126.19 155.374Z"
      fill="#263238"
    />
    <path
      d="M127.999 155.374C128.073 155.374 128.135 154.048 128.135 152.422C128.135 150.795 128.073 149.47 127.999 149.47C127.924 149.47 127.862 150.791 127.862 152.422C127.862 154.053 127.908 155.374 127.999 155.374Z"
      fill="#263238"
    />
    <path
      d="M122.254 155.374C122.328 155.374 122.39 154.048 122.39 152.422C122.39 150.795 122.328 149.47 122.254 149.47C122.18 149.47 122.118 150.791 122.118 152.422C122.118 154.053 122.175 155.374 122.254 155.374Z"
      fill="#263238"
    />
    <path
      d="M124.046 155.374C124.12 155.374 124.182 154.048 124.182 152.422C124.182 150.795 124.12 149.47 124.046 149.47C123.972 149.47 123.91 150.791 123.91 152.422C123.91 154.053 123.972 155.374 124.046 155.374Z"
      fill="#263238"
    />
    <path
      d="M118.316 155.374C118.391 155.374 118.453 154.048 118.453 152.422C118.453 150.795 118.391 149.47 118.316 149.47C118.242 149.47 118.18 150.791 118.18 152.422C118.18 154.053 118.242 155.374 118.316 155.374Z"
      fill="#263238"
    />
    <path
      d="M120.108 155.374C120.183 155.374 120.245 154.048 120.245 152.422C120.245 150.795 120.183 149.47 120.108 149.47C120.034 149.47 119.972 150.791 119.972 152.422C119.972 154.053 120.034 155.374 120.108 155.374Z"
      fill="#263238"
    />
    <path
      d="M116.318 149.378C116.318 149.452 123.708 149.514 132.831 149.514C141.955 149.514 149.345 149.452 149.345 149.378C149.345 149.304 141.959 149.242 132.831 149.242C123.704 149.242 116.318 149.304 116.318 149.378Z"
      fill="#263238"
    />
    <path
      d="M118.887 161.236H151.658V155.287H118.887V161.236Z"
      fill="#FEBE04"
    />
    <path
      d="M148.444 161.273C148.522 161.273 148.58 159.952 148.58 158.326C148.58 156.699 148.522 155.374 148.444 155.374C148.365 155.374 148.308 156.695 148.308 158.326C148.308 159.956 148.37 161.273 148.444 161.273Z"
      fill="#263238"
    />
    <path
      d="M150.239 161.273C150.314 161.273 150.376 159.952 150.376 158.326C150.376 156.699 150.314 155.374 150.239 155.374C150.165 155.374 150.099 156.695 150.099 158.326C150.099 159.956 150.161 161.273 150.239 161.273Z"
      fill="#263238"
    />
    <path
      d="M144.509 161.273C144.584 161.273 144.646 159.952 144.646 158.326C144.646 156.699 144.584 155.374 144.509 155.374C144.435 155.374 144.373 156.695 144.373 158.326C144.373 159.956 144.431 161.273 144.509 161.273Z"
      fill="#263238"
    />
    <path
      d="M146.301 161.273C146.376 161.273 146.438 159.952 146.438 158.326C146.438 156.699 146.376 155.374 146.301 155.374C146.227 155.374 146.165 156.695 146.165 158.326C146.165 159.956 146.227 161.273 146.301 161.273Z"
      fill="#263238"
    />
    <path
      d="M140.572 161.273C140.646 161.273 140.708 159.952 140.708 158.326C140.708 156.699 140.646 155.374 140.572 155.374C140.497 155.374 140.436 156.695 140.436 158.326C140.436 159.956 140.497 161.273 140.572 161.273Z"
      fill="#263238"
    />
    <path
      d="M142.364 161.273C142.438 161.273 142.5 159.952 142.5 158.326C142.5 156.699 142.438 155.374 142.364 155.374C142.289 155.374 142.228 156.695 142.228 158.326C142.228 159.956 142.289 161.273 142.364 161.273Z"
      fill="#263238"
    />
    <path
      d="M136.634 161.273C136.709 161.273 136.771 159.952 136.771 158.326C136.771 156.699 136.709 155.374 136.634 155.374C136.56 155.374 136.498 156.695 136.498 158.326C136.498 159.956 136.56 161.273 136.634 161.273Z"
      fill="#263238"
    />
    <path
      d="M138.426 161.273C138.505 161.273 138.563 159.952 138.563 158.326C138.563 156.699 138.505 155.374 138.426 155.374C138.348 155.374 138.29 156.695 138.29 158.326C138.29 159.956 138.352 161.273 138.426 161.273Z"
      fill="#263238"
    />
    <path
      d="M132.696 161.273C132.774 161.273 132.832 159.952 132.832 158.326C132.832 156.699 132.774 155.374 132.696 155.374C132.617 155.374 132.56 156.695 132.56 158.326C132.56 159.956 132.622 161.273 132.696 161.273Z"
      fill="#263238"
    />
    <path
      d="M134.491 161.273C134.566 161.273 134.628 159.952 134.628 158.326C134.628 156.699 134.566 155.374 134.491 155.374C134.417 155.374 134.351 156.695 134.351 158.326C134.351 159.956 134.413 161.273 134.491 161.273Z"
      fill="#263238"
    />
    <path
      d="M128.76 161.273C128.835 161.273 128.896 159.952 128.896 158.326C128.896 156.699 128.835 155.374 128.76 155.374C128.686 155.374 128.624 156.695 128.624 158.326C128.624 159.956 128.682 161.273 128.76 161.273Z"
      fill="#263238"
    />
    <path
      d="M130.552 161.273C130.627 161.273 130.689 159.952 130.689 158.326C130.689 156.699 130.627 155.374 130.552 155.374C130.478 155.374 130.416 156.695 130.416 158.326C130.416 159.956 130.474 161.273 130.552 161.273Z"
      fill="#263238"
    />
    <path
      d="M124.823 161.273C124.897 161.273 124.959 159.952 124.959 158.326C124.959 156.699 124.897 155.374 124.823 155.374C124.748 155.374 124.687 156.695 124.687 158.326C124.687 159.956 124.748 161.273 124.823 161.273Z"
      fill="#263238"
    />
    <path
      d="M126.615 161.273C126.689 161.273 126.751 159.952 126.751 158.326C126.751 156.699 126.689 155.374 126.615 155.374C126.54 155.374 126.479 156.695 126.479 158.326C126.479 159.956 126.54 161.273 126.615 161.273Z"
      fill="#263238"
    />
    <path
      d="M120.883 161.273C120.957 161.273 121.019 159.952 121.019 158.326C121.019 156.699 120.957 155.374 120.883 155.374C120.809 155.374 120.747 156.695 120.747 158.326C120.747 159.956 120.809 161.273 120.883 161.273Z"
      fill="#263238"
    />
    <path
      d="M122.675 161.273C122.753 161.273 122.811 159.952 122.811 158.326C122.811 156.699 122.753 155.374 122.675 155.374C122.596 155.374 122.539 156.695 122.539 158.326C122.539 159.956 122.6 161.273 122.675 161.273Z"
      fill="#263238"
    />
    <path
      d="M118.89 155.283C118.89 155.357 126.259 155.419 135.35 155.419C144.441 155.419 151.81 155.357 151.81 155.283C151.81 155.209 144.441 155.147 135.35 155.147C126.259 155.147 118.89 155.209 118.89 155.283Z"
      fill="#263238"
    />
    <path
      d="M115.604 167.271H148.375V161.322H115.604V167.271Z"
      fill="#FEBE04"
    />
    <path
      d="M145.162 167.312C145.236 167.312 145.298 165.987 145.298 164.36C145.298 162.734 145.236 161.409 145.162 161.409C145.087 161.409 145.025 162.73 145.025 164.36C145.025 165.991 145.087 167.312 145.162 167.312Z"
      fill="#263238"
    />
    <path
      d="M146.954 167.312C147.028 167.312 147.09 165.987 147.09 164.36C147.09 162.734 147.028 161.409 146.954 161.409C146.879 161.409 146.817 162.73 146.817 164.36C146.817 165.991 146.879 167.312 146.954 167.312Z"
      fill="#263238"
    />
    <path
      d="M141.208 167.312C141.282 167.312 141.344 165.987 141.344 164.36C141.344 162.734 141.282 161.409 141.208 161.409C141.134 161.409 141.072 162.73 141.072 164.36C141.072 165.991 141.15 167.312 141.208 167.312Z"
      fill="#263238"
    />
    <path
      d="M143.016 167.312C143.094 167.312 143.152 165.987 143.152 164.36C143.152 162.734 143.094 161.409 143.016 161.409C142.937 161.409 142.879 162.73 142.879 164.36C142.879 165.991 142.941 167.312 143.016 167.312Z"
      fill="#263238"
    />
    <path
      d="M137.285 167.312C137.364 167.312 137.421 165.987 137.421 164.36C137.421 162.734 137.364 161.409 137.285 161.409C137.207 161.409 137.149 162.73 137.149 164.36C137.149 165.991 137.211 167.312 137.285 167.312Z"
      fill="#263238"
    />
    <path
      d="M139.082 167.312C139.156 167.312 139.218 165.987 139.218 164.36C139.218 162.734 139.156 161.409 139.082 161.409C139.007 161.409 138.945 162.73 138.945 164.36C138.945 165.991 139.003 167.312 139.082 167.312Z"
      fill="#263238"
    />
    <path
      d="M133.364 167.312C133.438 167.312 133.5 165.987 133.5 164.36C133.5 162.734 133.438 161.409 133.364 161.409C133.289 161.409 133.228 162.73 133.228 164.36C133.228 165.991 133.273 167.312 133.364 167.312Z"
      fill="#263238"
    />
    <path
      d="M135.144 167.312C135.218 167.312 135.28 165.987 135.28 164.36C135.28 162.734 135.218 161.409 135.144 161.409C135.07 161.409 135.008 162.73 135.008 164.36C135.008 165.991 135.07 167.312 135.144 167.312Z"
      fill="#263238"
    />
    <path
      d="M129.414 167.312C129.488 167.312 129.55 165.987 129.55 164.36C129.55 162.734 129.488 161.409 129.414 161.409C129.339 161.409 129.277 162.73 129.277 164.36C129.277 165.991 129.339 167.312 129.414 167.312Z"
      fill="#263238"
    />
    <path
      d="M131.206 167.312C131.28 167.312 131.342 165.987 131.342 164.36C131.342 162.734 131.28 161.409 131.206 161.409C131.131 161.409 131.069 162.73 131.069 164.36C131.069 165.991 131.131 167.312 131.206 167.312Z"
      fill="#263238"
    />
    <path
      d="M125.474 167.312C125.548 167.312 125.61 165.987 125.61 164.36C125.61 162.734 125.548 161.409 125.474 161.409C125.399 161.409 125.337 162.73 125.337 164.36C125.337 165.991 125.399 167.312 125.474 167.312Z"
      fill="#263238"
    />
    <path
      d="M127.266 167.312C127.344 167.312 127.402 165.987 127.402 164.36C127.402 162.734 127.344 161.409 127.266 161.409C127.187 161.409 127.129 162.73 127.129 164.36C127.129 165.991 127.191 167.312 127.266 167.312Z"
      fill="#263238"
    />
    <path
      d="M121.536 167.312C121.615 167.312 121.672 165.987 121.672 164.36C121.672 162.734 121.615 161.409 121.536 161.409C121.458 161.409 121.4 162.73 121.4 164.36C121.4 165.991 121.462 167.312 121.536 167.312Z"
      fill="#263238"
    />
    <path
      d="M123.333 167.312C123.407 167.312 123.469 165.987 123.469 164.36C123.469 162.734 123.407 161.409 123.333 161.409C123.258 161.409 123.196 162.73 123.196 164.36C123.196 165.991 123.254 167.312 123.333 167.312Z"
      fill="#263238"
    />
    <path
      d="M117.6 167.312C117.674 167.312 117.736 165.987 117.736 164.36C117.736 162.734 117.674 161.409 117.6 161.409C117.525 161.409 117.463 162.73 117.463 164.36C117.463 165.991 117.521 167.312 117.6 167.312Z"
      fill="#263238"
    />
    <path
      d="M119.393 167.312C119.467 167.312 119.529 165.987 119.529 164.36C119.529 162.734 119.467 161.409 119.393 161.409C119.318 161.409 119.256 162.73 119.256 164.36C119.256 165.991 119.327 167.312 119.393 167.312Z"
      fill="#263238"
    />
    <path
      d="M115.611 161.318C115.611 161.393 122.981 161.455 132.071 161.455C141.162 161.455 148.535 161.393 148.535 161.318C148.535 161.244 141.166 161.182 132.071 161.182C122.976 161.182 115.611 161.244 115.611 161.318Z"
      fill="#263238"
    />
    <path d="M117.657 173.29H150.428V167.341H117.657V173.29Z" fill="#FEBE04" />
    <path
      d="M147.219 173.333C147.294 173.333 147.355 172.007 147.355 170.381C147.355 168.754 147.294 167.429 147.219 167.429C147.145 167.429 147.083 168.75 147.083 170.381C147.083 172.011 147.141 173.333 147.219 173.333Z"
      fill="#263238"
    />
    <path
      d="M149.011 173.333C149.086 173.333 149.147 172.007 149.147 170.381C149.147 168.754 149.086 167.429 149.011 167.429C148.937 167.429 148.875 168.75 148.875 170.381C148.875 172.011 148.933 173.333 149.011 173.333Z"
      fill="#263238"
    />
    <path
      d="M143.272 173.333C143.347 173.333 143.409 172.007 143.409 170.381C143.409 168.754 143.347 167.429 143.272 167.429C143.198 167.429 143.136 168.75 143.136 170.381C143.136 172.011 143.206 173.333 143.272 173.333Z"
      fill="#263238"
    />
    <path
      d="M145.071 173.333C145.146 173.333 145.208 172.007 145.208 170.381C145.208 168.754 145.146 167.429 145.071 167.429C144.997 167.429 144.935 168.75 144.935 170.381C144.935 172.011 144.997 173.333 145.071 173.333Z"
      fill="#263238"
    />
    <path
      d="M139.341 173.333C139.415 173.333 139.477 172.007 139.477 170.381C139.477 168.754 139.415 167.429 139.341 167.429C139.266 167.429 139.205 168.75 139.205 170.381C139.205 172.011 139.266 173.333 139.341 173.333Z"
      fill="#263238"
    />
    <path
      d="M141.133 173.333C141.207 173.333 141.269 172.007 141.269 170.381C141.269 168.754 141.207 167.429 141.133 167.429C141.059 167.429 140.997 168.75 140.997 170.381C140.997 172.011 141.059 173.333 141.133 173.333Z"
      fill="#263238"
    />
    <path
      d="M135.403 173.333C135.482 173.333 135.54 172.007 135.54 170.381C135.54 168.754 135.482 167.429 135.403 167.429C135.325 167.429 135.267 168.75 135.267 170.381C135.267 172.011 135.329 173.333 135.403 173.333Z"
      fill="#263238"
    />
    <path
      d="M137.195 173.333C137.273 173.333 137.335 172.007 137.335 170.381C137.335 168.754 137.273 167.429 137.195 167.429C137.116 167.429 137.059 168.75 137.059 170.381C137.059 172.011 137.121 173.333 137.195 173.333Z"
      fill="#263238"
    />
    <path
      d="M131.469 173.333C131.544 173.333 131.605 172.007 131.605 170.381C131.605 168.754 131.544 167.429 131.469 167.429C131.395 167.429 131.333 168.75 131.333 170.381C131.333 172.011 131.391 173.333 131.469 173.333Z"
      fill="#263238"
    />
    <path
      d="M133.261 173.333C133.335 173.333 133.397 172.007 133.397 170.381C133.397 168.754 133.335 167.429 133.261 167.429C133.186 167.429 133.125 168.75 133.125 170.381C133.125 172.011 133.182 173.333 133.261 173.333Z"
      fill="#263238"
    />
    <path
      d="M127.531 173.333C127.606 173.333 127.668 172.007 127.668 170.381C127.668 168.754 127.606 167.429 127.531 167.429C127.457 167.429 127.395 168.75 127.395 170.381C127.395 172.011 127.457 173.333 127.531 173.333Z"
      fill="#263238"
    />
    <path
      d="M129.323 173.333C129.398 173.333 129.459 172.007 129.459 170.381C129.459 168.754 129.398 167.429 129.323 167.429C129.249 167.429 129.187 168.75 129.187 170.381C129.187 172.011 129.237 173.333 129.323 173.333Z"
      fill="#263238"
    />
    <path
      d="M123.592 173.333C123.666 173.333 123.728 172.007 123.728 170.381C123.728 168.754 123.666 167.429 123.592 167.429C123.517 167.429 123.456 168.75 123.456 170.381C123.456 172.011 123.517 173.333 123.592 173.333Z"
      fill="#263238"
    />
    <path
      d="M125.383 173.333C125.458 173.333 125.52 172.007 125.52 170.381C125.52 168.754 125.458 167.429 125.383 167.429C125.309 167.429 125.247 168.75 125.247 170.381C125.247 172.011 125.309 173.333 125.383 173.333Z"
      fill="#263238"
    />
    <path
      d="M119.654 173.333C119.732 173.333 119.79 172.007 119.79 170.381C119.79 168.754 119.732 167.429 119.654 167.429C119.575 167.429 119.518 168.75 119.518 170.381C119.518 172.011 119.579 173.333 119.654 173.333Z"
      fill="#263238"
    />
    <path
      d="M121.446 173.333C121.524 173.333 121.586 172.007 121.586 170.381C121.586 168.754 121.524 167.429 121.446 167.429C121.367 167.429 121.31 168.75 121.31 170.381C121.31 172.011 121.392 173.333 121.446 173.333Z"
      fill="#263238"
    />
    <path
      d="M117.675 167.337C117.675 167.411 125.061 167.473 134.188 167.473C143.316 167.473 150.702 167.411 150.702 167.337C150.702 167.263 143.316 167.201 134.188 167.201C125.061 167.201 117.675 167.263 117.675 167.337Z"
      fill="#263238"
    />
    <path d="M120.229 179.194H153V173.245H120.229V179.194Z" fill="#FEBE04" />
    <path
      d="M149.787 179.231C149.861 179.231 149.923 177.91 149.923 176.284C149.923 174.657 149.861 173.332 149.787 173.332C149.713 173.332 149.651 174.653 149.651 176.284C149.651 177.914 149.713 179.231 149.787 179.231Z"
      fill="#263238"
    />
    <path
      d="M151.577 179.231C151.651 179.231 151.713 177.91 151.713 176.284C151.713 174.657 151.651 173.332 151.577 173.332C151.502 173.332 151.44 174.653 151.44 176.284C151.44 177.914 151.502 179.231 151.577 179.231Z"
      fill="#263238"
    />
    <path
      d="M145.847 179.231C145.921 179.231 145.983 177.91 145.983 176.284C145.983 174.657 145.921 173.332 145.847 173.332C145.773 173.332 145.711 174.653 145.711 176.284C145.711 177.914 145.773 179.231 145.847 179.231Z"
      fill="#263238"
    />
    <path
      d="M147.639 179.231C147.713 179.231 147.775 177.91 147.775 176.284C147.775 174.657 147.713 173.332 147.639 173.332C147.565 173.332 147.503 174.653 147.503 176.284C147.503 177.914 147.565 179.231 147.639 179.231Z"
      fill="#263238"
    />
    <path
      d="M141.91 179.231C141.988 179.231 142.046 177.91 142.046 176.284C142.046 174.657 141.988 173.332 141.91 173.332C141.831 173.332 141.773 174.653 141.773 176.284C141.773 177.914 141.835 179.231 141.91 179.231Z"
      fill="#263238"
    />
    <path
      d="M143.685 179.231C143.764 179.231 143.821 177.91 143.821 176.284C143.821 174.657 143.764 173.332 143.685 173.332C143.607 173.332 143.549 174.653 143.549 176.284C143.549 177.914 143.627 179.231 143.685 179.231Z"
      fill="#263238"
    />
    <path
      d="M137.976 179.231C138.05 179.231 138.112 177.91 138.112 176.284C138.112 174.657 138.05 173.332 137.976 173.332C137.901 173.332 137.839 174.653 137.839 176.284C137.839 177.914 137.905 179.231 137.976 179.231Z"
      fill="#263238"
    />
    <path
      d="M139.767 179.231C139.841 179.231 139.903 177.91 139.903 176.284C139.903 174.657 139.841 173.332 139.767 173.332C139.693 173.332 139.631 174.653 139.631 176.284C139.631 177.914 139.689 179.231 139.767 179.231Z"
      fill="#263238"
    />
    <path
      d="M134.038 179.231C134.112 179.231 134.174 177.91 134.174 176.284C134.174 174.657 134.112 173.332 134.038 173.332C133.963 173.332 133.901 174.653 133.901 176.284C133.901 177.914 133.963 179.231 134.038 179.231Z"
      fill="#263238"
    />
    <path
      d="M135.84 179.231C135.915 179.231 135.977 177.91 135.977 176.284C135.977 174.657 135.915 173.332 135.84 173.332C135.766 173.332 135.704 174.653 135.704 176.284C135.704 177.914 135.754 179.231 135.84 179.231Z"
      fill="#263238"
    />
    <path
      d="M130.098 179.231C130.172 179.231 130.234 177.91 130.234 176.284C130.234 174.657 130.172 173.332 130.098 173.332C130.024 173.332 129.962 174.653 129.962 176.284C129.962 177.914 130.024 179.231 130.098 179.231Z"
      fill="#263238"
    />
    <path
      d="M131.89 179.231C131.964 179.231 132.026 177.91 132.026 176.284C132.026 174.657 131.964 173.332 131.89 173.332C131.815 173.332 131.753 174.653 131.753 176.284C131.753 177.914 131.815 179.231 131.89 179.231Z"
      fill="#263238"
    />
    <path
      d="M126.16 179.231C126.239 179.231 126.296 177.91 126.296 176.284C126.296 174.657 126.239 173.332 126.16 173.332C126.082 173.332 126.024 174.653 126.024 176.284C126.024 177.914 126.086 179.231 126.16 179.231Z"
      fill="#263238"
    />
    <path
      d="M127.952 179.231C128.031 179.231 128.093 177.91 128.093 176.284C128.093 174.657 128.031 173.332 127.952 173.332C127.874 173.332 127.816 174.653 127.816 176.284C127.816 177.914 127.878 179.231 127.952 179.231Z"
      fill="#263238"
    />
    <path
      d="M122.218 179.231C122.293 179.231 122.355 177.91 122.355 176.284C122.355 174.657 122.293 173.332 122.218 173.332C122.144 173.332 122.082 174.653 122.082 176.284C122.082 177.914 122.148 179.231 122.218 179.231Z"
      fill="#263238"
    />
    <path
      d="M124.016 179.231C124.09 179.231 124.152 177.91 124.152 176.284C124.152 174.657 124.09 173.332 124.016 173.332C123.941 173.332 123.879 174.653 123.879 176.284C123.879 177.914 123.937 179.231 124.016 179.231Z"
      fill="#263238"
    />
    <path
      d="M120.228 173.241C120.228 173.315 127.597 173.377 136.687 173.377C145.778 173.377 153.147 173.315 153.147 173.241C153.147 173.166 145.782 173.104 136.687 173.104C127.593 173.104 120.228 173.166 120.228 173.241Z"
      fill="#263238"
    />
    <g opacity="0.3">
      <path
        d="M149.088 149.379C144.191 150.584 138.977 150.816 133.949 150.481C128.92 150.147 123.843 149.408 118.802 149.47L149.088 149.379Z"
        fill="black"
      />
    </g>
    <g opacity="0.3">
      <path
        d="M148.791 143.455C143.898 144.66 138.684 144.891 133.656 144.557C128.627 144.222 123.55 143.483 118.509 143.545L148.791 143.455Z"
        fill="black"
      />
    </g>
    <g opacity="0.3">
      <path
        d="M147.208 155.345C142.316 156.546 137.098 156.777 132.069 156.443C127.041 156.109 121.963 155.37 116.926 155.432L147.208 155.345Z"
        fill="black"
      />
    </g>
    <g opacity="0.3">
      <path
        d="M148.49 161.285C143.598 162.486 138.383 162.717 133.355 162.383C128.327 162.049 123.249 161.31 118.208 161.372L148.49 161.285Z"
        fill="black"
      />
    </g>
    <g opacity="0.3">
      <path
        d="M148.103 167.201C143.207 168.403 137.992 168.634 132.964 168.299C127.936 167.965 122.858 167.226 117.817 167.288L148.103 167.201Z"
        fill="black"
      />
    </g>
    <g opacity="0.3">
      <path
        d="M149.703 173.229C144.807 174.435 139.593 174.666 134.565 174.331C129.536 173.997 124.458 173.258 119.417 173.32L149.703 173.229Z"
        fill="black"
      />
    </g>
    <path
      d="M149.02 141.416C149.098 141.416 149.156 140.685 149.156 139.785C149.156 138.885 149.098 138.154 149.02 138.154C148.941 138.154 148.883 138.885 148.883 139.785C148.883 140.685 148.945 141.416 149.02 141.416Z"
      fill="white"
    />
    <path
      d="M151.086 147.773C151.161 147.773 151.223 146.989 151.223 146.023C151.223 145.057 151.161 144.276 151.086 144.276C151.012 144.276 150.95 145.057 150.95 146.023C150.95 146.989 151.012 147.773 151.086 147.773Z"
      fill="white"
    />
    <path
      d="M148.147 153.891C148.222 153.891 148.284 153.198 148.284 152.343C148.284 151.489 148.226 150.774 148.147 150.774C148.069 150.774 148.011 151.468 148.011 152.327C148.011 153.185 148.069 153.891 148.147 153.891Z"
      fill="white"
    />
    <path
      d="M151.165 159.535C151.239 159.535 151.301 158.912 151.301 158.144C151.301 157.376 151.239 156.753 151.165 156.753C151.091 156.753 151.029 157.376 151.029 158.144C151.029 158.912 151.091 159.535 151.165 159.535Z"
      fill="white"
    />
    <path
      d="M139.165 143.876C139.165 143.954 141.584 144.012 144.569 144.012C147.554 144.012 149.973 143.954 149.973 143.876C149.973 143.797 147.554 143.739 144.569 143.739C141.584 143.739 139.165 143.801 139.165 143.876Z"
      fill="white"
    />
    <path
      d="M135.667 138.154C135.667 138.228 138.107 138.29 141.112 138.29C144.118 138.29 146.558 138.228 146.558 138.154C146.558 138.079 144.118 138.017 141.112 138.017C138.107 138.017 135.667 138.079 135.667 138.154Z"
      fill="white"
    />
    <path
      d="M130.424 138.232C130.424 138.31 131.221 138.372 132.212 138.372C133.203 138.372 133.999 138.31 133.999 138.232C133.999 138.154 133.199 138.096 132.212 138.096C131.225 138.096 130.424 138.158 130.424 138.232Z"
      fill="white"
    />
    <path
      d="M147.908 167.057C148.039 165.546 148.039 164.026 147.908 162.516C147.776 164.026 147.776 165.546 147.908 167.057Z"
      fill="white"
    />
    <path
      d="M123.004 160.617C123.004 160.67 128.966 160.716 136.314 160.716C143.663 160.716 149.624 160.67 149.624 160.617C149.624 160.563 143.667 160.517 136.314 160.517C128.962 160.517 123.004 160.559 123.004 160.617Z"
      fill="white"
    />
    <path
      d="M128.333 172.655C128.333 172.708 133.044 172.754 138.848 172.754C144.653 172.754 149.367 172.708 149.367 172.655C149.367 172.601 144.661 172.551 138.848 172.551C133.035 172.551 128.333 172.58 128.333 172.655Z"
      fill="white"
    />
    <path
      d="M152.544 178.047C152.676 177.193 152.676 176.324 152.544 175.471C152.412 176.324 152.412 177.193 152.544 178.047Z"
      fill="white"
    />
    <path
      d="M129.36 178.562C129.36 178.616 134.244 178.661 140.268 178.661C146.291 178.661 151.171 178.616 151.171 178.562C151.171 178.509 146.291 178.463 140.268 178.463C134.244 178.463 129.36 178.505 129.36 178.562Z"
      fill="white"
    />
    <path
      d="M152.998 179.194C153.004 179.159 153.004 179.123 152.998 179.087C152.998 179 152.998 178.897 152.998 178.769C152.998 178.476 152.998 178.076 152.998 177.568C152.998 176.507 153.018 175.008 153.035 173.188V173.109H152.952H150.616L150.707 173.196C150.707 171.408 150.707 169.394 150.707 167.255V167.156H148.436L148.539 167.259C148.539 165.1 148.539 163.061 148.539 161.224L148.448 161.314H151.615H151.693V161.24C151.693 159.428 151.668 157.937 151.66 156.897C151.66 156.393 151.66 155.997 151.66 155.704C151.66 155.58 151.66 155.477 151.66 155.394C151.673 155.391 151.684 155.384 151.692 155.373C151.699 155.362 151.703 155.349 151.701 155.336C151.7 155.323 151.693 155.311 151.684 155.302C151.674 155.293 151.661 155.288 151.648 155.288C151.635 155.288 151.622 155.293 151.612 155.302C151.602 155.311 151.596 155.323 151.595 155.336C151.593 155.349 151.596 155.362 151.604 155.373C151.611 155.384 151.623 155.391 151.635 155.394C151.635 155.477 151.635 155.58 151.635 155.704C151.635 155.997 151.635 156.393 151.635 156.897C151.635 157.946 151.615 159.428 151.598 161.24L151.677 161.162H148.51H148.419V161.257C148.419 163.094 148.419 165.133 148.419 167.292V167.391H150.686L150.587 167.292C150.587 169.431 150.587 171.445 150.587 173.233V173.324H150.678L153.014 173.287L152.936 173.208C152.936 175.029 152.961 176.511 152.969 177.589C152.969 178.096 152.969 178.497 152.969 178.79C152.969 178.918 152.969 179.021 152.969 179.108C152.975 179.138 152.985 179.167 152.998 179.194Z"
      fill="#263238"
    />
    <path
      d="M120.42 26.0046H21.2439C18.8361 26.0046 16.8843 27.9565 16.8843 30.3642V174.792C16.8843 177.2 18.8361 179.152 21.2439 179.152H120.42C122.828 179.152 124.78 177.2 124.78 174.792V30.3642C124.78 27.9565 122.828 26.0046 120.42 26.0046Z"
      fill="#E0E0E0"
    />
    <path
      d="M120.423 179.148L120.757 179.128C121.087 179.098 121.412 179.034 121.728 178.938C122.246 178.771 122.729 178.509 123.152 178.166C123.738 177.689 124.189 177.067 124.461 176.362C124.629 175.942 124.725 175.496 124.746 175.045C124.77 174.57 124.746 174.062 124.746 173.534C124.746 172.477 124.746 171.322 124.746 170.07C124.746 167.56 124.746 164.67 124.746 161.4C124.746 148.375 124.725 129.537 124.712 106.257C124.712 94.6153 124.712 81.8668 124.712 68.177C124.712 61.3376 124.712 54.2671 124.712 46.9653C124.712 43.3186 124.712 39.6209 124.712 35.8723C124.712 33.998 124.712 32.1114 124.712 30.2123C124.684 29.2712 124.345 28.3659 123.747 27.6383C123.15 26.9107 122.328 26.4018 121.41 26.1913C120.943 26.1013 120.468 26.0653 119.994 26.0839H21.2549C20.1616 26.0826 19.1097 26.502 18.3173 27.2552C17.5249 28.0085 17.0527 29.0378 16.9986 30.1297C16.9779 32.326 16.9986 34.5347 16.9986 36.7352C16.9986 41.125 16.9986 45.4819 16.9986 49.8057V75.3563C16.9986 92.1093 16.9986 108.268 16.9986 123.659C16.9986 139.049 16.9986 153.68 16.9986 167.366V172.456C16.9986 173.282 16.9986 174.136 16.9986 174.962C17.0314 175.777 17.2975 176.565 17.7651 177.233C18.2327 177.901 18.8823 178.421 19.6366 178.731C20.007 178.881 20.3958 178.981 20.7926 179.029C21.2054 179.062 21.6182 179.053 22.0022 179.057H26.8159H45.0882L100.227 179.09L45.0882 179.123H26.8159H21.9815C21.5687 179.123 21.1559 179.123 20.743 179.099C20.3296 179.047 19.9245 178.943 19.5375 178.789C18.7604 178.464 18.0897 177.927 17.6013 177.241C17.1098 176.547 16.8302 175.725 16.7963 174.875C16.7756 174.05 16.7963 173.203 16.7963 172.361C16.7963 170.682 16.7963 168.986 16.7963 167.271C16.7963 153.585 16.7963 138.958 16.7963 123.564C16.7963 108.169 16.7963 92.0144 16.7963 75.2613C16.7963 66.8862 16.7963 58.3693 16.7963 49.7107V36.7476C16.7963 34.5554 16.7963 32.3591 16.7963 30.1421C16.8525 28.9972 17.3476 27.918 18.1786 27.1285C19.0096 26.3389 20.1128 25.8998 21.2591 25.9023H119.952C120.441 25.8799 120.93 25.9174 121.41 26.0137C122.38 26.2318 123.251 26.7645 123.887 27.5289C124.508 28.2897 124.861 29.2345 124.89 30.2164C124.89 32.1155 124.89 34.0035 124.89 35.8806C124.89 39.6292 124.89 43.3268 124.89 46.9736C124.89 54.2643 124.89 61.3349 124.89 68.1853C124.89 81.875 124.89 94.607 124.89 106.266C124.89 129.546 124.861 148.375 124.857 161.409C124.857 164.662 124.857 167.552 124.857 170.078C124.857 171.317 124.857 172.485 124.857 173.542C124.857 174.074 124.857 174.574 124.857 175.057C124.835 175.513 124.737 175.962 124.568 176.386C124.329 176.996 123.957 177.544 123.478 177.991C122.999 178.437 122.427 178.771 121.802 178.967C121.483 179.062 121.155 179.123 120.824 179.148H120.423Z"
      fill="#263238"
    />
    <g opacity="0.3">
      <path
        d="M27.1206 175.346L117.594 174.851L118.631 157.371L115.86 146.827L26.2949 160.822L27.1206 175.346Z"
        fill="black"
      />
    </g>
    <path
      d="M120.423 179.148L120.757 179.128C121.087 179.098 121.412 179.034 121.728 178.938C122.246 178.771 122.729 178.509 123.152 178.166C123.738 177.689 124.189 177.067 124.461 176.362C124.629 175.942 124.725 175.496 124.746 175.045C124.77 174.57 124.746 174.062 124.746 173.534C124.746 172.477 124.746 171.322 124.746 170.07C124.746 167.56 124.746 164.67 124.746 161.4C124.746 148.375 124.725 129.537 124.712 106.257C124.712 94.6153 124.712 81.8668 124.712 68.177C124.712 61.3376 124.712 54.2671 124.712 46.9653C124.712 43.3186 124.712 39.6209 124.712 35.8723C124.712 33.998 124.712 32.1114 124.712 30.2123C124.684 29.2712 124.345 28.3659 123.747 27.6383C123.15 26.9107 122.328 26.4018 121.41 26.1913C120.943 26.1013 120.468 26.0653 119.994 26.0839H21.2549C20.1616 26.0826 19.1097 26.502 18.3173 27.2552C17.5249 28.0085 17.0527 29.0378 16.9986 30.1297C16.9779 32.326 16.9986 34.5347 16.9986 36.7352C16.9986 41.125 16.9986 45.4819 16.9986 49.8057V75.3563C16.9986 92.1093 16.9986 108.268 16.9986 123.659C16.9986 139.049 16.9986 153.68 16.9986 167.366V172.456C16.9986 173.282 16.9986 174.136 16.9986 174.962C17.0314 175.777 17.2975 176.565 17.7651 177.233C18.2327 177.901 18.8823 178.421 19.6366 178.731C20.007 178.881 20.3958 178.981 20.7926 179.029C21.2054 179.062 21.6182 179.053 22.0022 179.057H26.8159H45.0882L100.227 179.09L45.0882 179.123H26.8159H21.9815C21.5687 179.123 21.1559 179.123 20.743 179.099C20.3296 179.047 19.9245 178.943 19.5375 178.789C18.7604 178.464 18.0897 177.927 17.6013 177.241C17.1098 176.547 16.8302 175.725 16.7963 174.875C16.7756 174.05 16.7963 173.203 16.7963 172.361C16.7963 170.682 16.7963 168.986 16.7963 167.271C16.7963 153.585 16.7963 138.958 16.7963 123.564C16.7963 108.169 16.7963 92.0144 16.7963 75.2613C16.7963 66.8862 16.7963 58.3693 16.7963 49.7107V36.7476C16.7963 34.5554 16.7963 32.3591 16.7963 30.1421C16.8525 28.9972 17.3476 27.918 18.1786 27.1285C19.0096 26.3389 20.1128 25.8998 21.2591 25.9023H119.952C120.441 25.8799 120.93 25.9174 121.41 26.0137C122.38 26.2318 123.251 26.7645 123.887 27.5289C124.508 28.2897 124.861 29.2345 124.89 30.2164C124.89 32.1155 124.89 34.0035 124.89 35.8806C124.89 39.6292 124.89 43.3268 124.89 46.9736C124.89 54.2643 124.89 61.3349 124.89 68.1853C124.89 81.875 124.89 94.607 124.89 106.266C124.89 129.546 124.861 148.375 124.857 161.409C124.857 164.662 124.857 167.552 124.857 170.078C124.857 171.317 124.857 172.485 124.857 173.542C124.857 174.074 124.857 174.574 124.857 175.057C124.835 175.513 124.737 175.962 124.568 176.386C124.329 176.996 123.957 177.544 123.478 177.991C122.999 178.437 122.427 178.771 121.802 178.967C121.483 179.062 121.155 179.123 120.824 179.148H120.423Z"
      fill="#263238"
    />
    <g opacity="0.3">
      <path
        d="M27.1206 175.346L117.594 174.851L118.631 157.371L115.86 146.827L26.2949 160.822L27.1206 175.346Z"
        fill="black"
      />
    </g>
    <path d="M119.323 32.1729H22.3467V171.915H119.323V32.1729Z" fill="white" />
    <path
      d="M119.33 171.919C119.33 171.093 119.293 114.646 119.24 32.1727L119.33 32.2635H22.3668L22.4658 32.1644C22.4658 84.6446 22.4658 133.128 22.4658 171.911L22.3833 171.828L119.359 171.911L22.3833 171.989H22.3048V171.911C22.3048 133.128 22.3048 84.6446 22.2842 32.1644V32.0654H22.3957H119.359H119.45V32.1562C119.359 114.646 119.33 171.114 119.33 171.919Z"
      fill="#263238"
    />
    <path
      d="M90.8359 39.9995H52.9248V50.8324H90.8359V39.9995Z"
      fill="#38655D"
    />
    <path
      d="M49.0139 56.4842H27.8022V60.9759H49.0139V56.4842Z"
      fill="#E0E0E0"
    />
    <path
      d="M94.2901 64.7371H51.7759V69.2288H94.2901V64.7371Z"
      fill="#F5F5F5"
    />
    <path
      d="M48.0273 64.6425H27.8022V69.1342H48.0273V64.6425Z"
      fill="#F5F5F5"
    />
    <path
      d="M112.104 64.7219H96.7217V69.2136H112.104V64.7219Z"
      fill="#F5F5F5"
    />
    <path d="M111.695 132.595H27.8022V137.71H111.695V132.595Z" fill="#E0E0E0" />
    <path
      d="M111.695 72.5656H27.8022V77.6807H111.695V72.5656Z"
      fill="#E0E0E0"
    />
    <path
      d="M61.2588 108.486H27.8022V113.601H61.2588V108.486Z"
      fill="#E0E0E0"
    />
    <path
      d="M112.605 108.486H70.7759V113.601H112.605V108.486Z"
      fill="#E0E0E0"
    />
    <path
      d="M61.234 116.723C61.234 116.781 53.7492 116.83 44.5181 116.83C35.287 116.83 27.8022 116.781 27.8022 116.723C27.8022 116.665 35.287 116.611 44.5181 116.611C53.7492 116.611 61.234 116.661 61.234 116.723Z"
      fill="#263238"
    />
    <path
      d="M60.6767 120.636C60.6767 120.698 53.3157 120.743 44.2415 120.743C35.1673 120.743 27.8022 120.698 27.8022 120.636C27.8022 120.574 35.159 120.528 44.2415 120.528C53.324 120.528 60.6767 120.59 60.6767 120.636Z"
      fill="#263238"
    />
    <path
      d="M60.9615 124.645C60.9615 124.703 53.5304 124.752 44.3819 124.752C35.2334 124.752 27.8022 124.703 27.8022 124.645C27.8022 124.587 35.2334 124.534 44.3819 124.534C53.5304 124.534 60.9615 124.583 60.9615 124.645Z"
      fill="#263238"
    />
    <path
      d="M60.9615 128.522C60.9615 128.579 53.5304 128.629 44.3819 128.629C35.2334 128.629 27.8022 128.579 27.8022 128.522C27.8022 128.464 35.2334 128.41 44.3819 128.41C53.5304 128.41 60.9615 128.48 60.9615 128.522Z"
      fill="#263238"
    />
    <path
      d="M111.965 117.643C111.965 117.701 104.212 117.75 94.6543 117.75C85.0971 117.75 77.3398 117.701 77.3398 117.643C77.3398 117.585 85.0888 117.536 94.6543 117.536C104.22 117.536 111.965 117.581 111.965 117.643Z"
      fill="#263238"
    />
    <path
      d="M74.6805 118.893C74.6485 118.655 74.6333 118.415 74.6351 118.175C74.6351 117.733 74.5979 117.118 74.5897 116.387L74.6805 116.482H72.2943L72.3975 116.371V117.035C72.3975 117.258 72.3975 117.473 72.3975 117.684C72.3975 118.096 72.3975 118.509 72.3975 118.864L72.3066 118.773C73.0043 118.773 73.5864 118.802 74.0075 118.819C74.2367 118.82 74.4656 118.835 74.6929 118.864C74.4857 118.9 74.2755 118.915 74.0653 118.91C73.6525 118.93 73.0415 118.951 72.3066 118.959H72.22V118.864C72.22 118.497 72.22 118.1 72.22 117.684C72.22 117.473 72.22 117.271 72.22 117.035V116.371C72.1291 116.47 72.3479 116.239 72.3232 116.263H74.7094H74.8002V116.354C74.8002 117.126 74.7713 117.766 74.7548 118.2C74.7482 118.432 74.7234 118.664 74.6805 118.893Z"
      fill="#263238"
    />
    <path
      d="M111.965 122.453C111.965 122.515 104.212 122.564 94.6543 122.564C85.0971 122.564 77.3398 122.515 77.3398 122.453C77.3398 122.391 85.0888 122.345 94.6543 122.345C104.22 122.345 111.965 122.395 111.965 122.453Z"
      fill="#263238"
    />
    <path
      d="M74.6802 123.708C74.6482 123.47 74.6331 123.23 74.6348 122.989C74.6348 122.548 74.5977 121.932 74.5894 121.202L74.6802 121.297H72.294L72.3972 121.189V121.875C72.3972 122.093 72.3972 122.312 72.3972 122.523C72.3972 122.936 72.3972 123.349 72.3972 123.704L72.3064 123.609C73.0041 123.609 73.5862 123.642 74.0073 123.658C74.2365 123.659 74.4653 123.674 74.6926 123.704C74.4851 123.736 74.2752 123.752 74.0651 123.749C73.6523 123.749 73.0413 123.786 72.3064 123.799H72.2197V123.704C72.2197 123.332 72.2197 122.94 72.2197 122.523C72.2197 122.312 72.2197 122.11 72.2197 121.875V121.202L72.3229 121.094H74.7091H74.8V121.185C74.8 121.957 74.7711 122.597 74.7546 123.031C74.7468 123.258 74.7219 123.484 74.6802 123.708Z"
      fill="#263238"
    />
    <path
      d="M111.965 127.267C111.965 127.328 104.212 127.374 94.6543 127.374C85.0971 127.374 77.3398 127.328 77.3398 127.267C77.3398 127.205 85.0888 127.159 94.6543 127.159C104.22 127.159 111.965 127.209 111.965 127.267Z"
      fill="#263238"
    />
    <path
      d="M74.6802 128.522C74.6486 128.282 74.6334 128.041 74.6348 127.8C74.6348 127.358 74.5977 126.747 74.5894 126.016L74.6802 126.107H72.294C72.2734 126.132 72.4881 125.9 72.3972 126V126.664C72.3972 126.887 72.3972 127.102 72.3972 127.312C72.3972 127.725 72.3972 128.138 72.3972 128.497L72.3064 128.402C73.0041 128.402 73.5862 128.431 74.0073 128.448C74.2366 128.449 74.4656 128.465 74.6926 128.497C74.4848 128.527 74.2751 128.543 74.0651 128.543C73.6523 128.543 73.0413 128.58 72.3064 128.588H72.2197V128.493C72.2197 128.122 72.2197 127.725 72.2197 127.308C72.2197 127.098 72.2197 126.895 72.2197 126.66V125.995L72.3229 125.888H74.7091H74.8V126.004C74.8 126.776 74.7711 127.411 74.7546 127.849C74.7466 128.075 74.7217 128.3 74.6802 128.522Z"
      fill="#263238"
    />
    <path
      d="M110.512 104.701C110.512 104.701 110.512 104.56 110.512 104.288C110.512 104.015 110.512 103.615 110.512 103.091C110.512 102.034 110.512 100.473 110.512 98.4462C110.512 94.3962 110.492 88.4802 110.475 80.9996L110.541 81.0656L27.9402 81.111L28.0434 80.9996C28.0434 89.1531 28.0434 97.1003 28.0434 104.697L27.9443 104.593L86.9391 104.639L104.278 104.672H108.939H110.145H108.952H104.311L87.0092 104.701L27.9443 104.75H27.8452V104.643C27.8452 97.0466 27.8452 89.0995 27.8452 80.9459V80.8386H27.9526L110.553 80.8798H110.615V81.0037C110.615 88.5009 110.591 94.4334 110.582 98.4916C110.582 100.51 110.582 102.067 110.582 103.12C110.582 103.64 110.582 104.036 110.582 104.304C110.582 104.573 110.512 104.701 110.512 104.701Z"
      fill="#263238"
    />
    <path
      d="M110.51 86.9685C110.51 87.0263 92.0686 87.0758 69.3252 87.0758C46.5819 87.0758 28.1362 87.0263 28.1362 86.9685C28.1362 86.9107 46.5736 86.8611 69.3252 86.8611C92.0768 86.8611 110.51 86.9107 110.51 86.9685Z"
      fill="#263238"
    />
    <path
      d="M110.51 92.8521C110.51 92.9141 92.0686 92.9636 69.3252 92.9636C46.5819 92.9636 28.1362 92.9141 28.1362 92.8521C28.1362 92.7902 46.5736 92.7448 69.3252 92.7448C92.0768 92.7448 110.51 92.7944 110.51 92.8521Z"
      fill="#263238"
    />
    <path
      d="M110.51 98.8011C110.51 98.863 92.0686 98.9085 69.3252 98.9085C46.5819 98.9085 28.1362 98.863 28.1362 98.8011C28.1362 98.7392 46.5736 98.6938 69.3252 98.6938C92.0768 98.6938 110.51 98.7557 110.51 98.8011Z"
      fill="#263238"
    />
    <path
      d="M37.509 104.911C37.4512 104.911 37.4058 99.5441 37.4058 92.9387C37.4058 86.3332 37.4512 80.9663 37.509 80.9663C37.5668 80.9663 37.6122 86.3332 37.6122 92.9387C37.6122 99.5441 37.5626 104.911 37.509 104.911Z"
      fill="#263238"
    />
    <path
      d="M65.4406 104.188C65.3828 104.188 65.3374 99.0691 65.3374 92.7568C65.3374 86.4445 65.3828 81.3253 65.4406 81.3253C65.4984 81.3253 65.5438 86.4445 65.5438 92.7568C65.5438 99.0691 65.4984 104.188 65.4406 104.188Z"
      fill="#263238"
    />
    <path
      d="M94.8742 105.27C94.8205 105.27 94.771 99.9895 94.771 93.479C94.771 86.9685 94.8205 81.6883 94.8742 81.6883C94.9279 81.6883 94.9774 86.9644 94.9774 93.479C94.9774 99.9936 94.932 105.27 94.8742 105.27Z"
      fill="#263238"
    />
    <path
      d="M109.627 58.3219C109.627 58.3797 97.0146 58.4209 81.4588 58.4209C65.903 58.4209 53.2866 58.3797 53.2866 58.3219C53.2866 58.2641 65.8989 58.2228 81.4588 58.2228C97.0187 58.2228 109.627 58.2682 109.627 58.3219Z"
      fill="#263238"
    />
    <path
      d="M69.8412 60.3241C69.8412 60.3777 66.1256 60.4231 61.5637 60.4231C57.0019 60.4231 53.2739 60.3612 53.2739 60.3241C53.2739 60.2869 56.9895 60.225 61.5514 60.225C66.1132 60.225 69.8412 60.2663 69.8412 60.3241Z"
      fill="#263238"
    />
    <path
      d="M94.7689 142.058C94.7689 142.115 79.7787 142.157 61.2877 142.157C42.7966 142.157 27.8022 142.115 27.8022 142.058C27.8022 142 42.7925 141.958 61.2877 141.958C79.7829 141.958 94.7689 142.004 94.7689 142.058Z"
      fill="#263238"
    />
    <path
      d="M82.2186 145.406C82.172 145.411 82.1249 145.411 82.0782 145.406H81.6654L80.0801 145.426L74.2508 145.455L55.0125 145.484L35.7701 145.455L29.9408 145.426L28.3555 145.406H27.9426C27.896 145.411 27.8489 145.411 27.8022 145.406H27.9426H28.3555L29.9408 145.385L35.7701 145.352L55.0125 145.323L74.2508 145.352L80.0801 145.385L81.6654 145.406H82.0782H82.2186Z"
      fill="#263238"
    />
    <path
      d="M59.5537 148.779C59.4474 148.798 59.3395 148.805 59.2317 148.8H58.307L54.9052 148.829L43.6801 148.858L32.4508 148.829L29.049 148.8H28.1243C28.0165 148.805 27.9085 148.798 27.8022 148.779C27.9095 148.772 28.017 148.772 28.1243 148.779L29.049 148.759L32.4508 148.726L43.6801 148.697L54.9258 148.709L58.3276 148.742L59.2524 148.763C59.3531 148.762 59.4537 148.768 59.5537 148.779Z"
      fill="#263238"
    />
    <path
      d="M54.8606 156.697C54.8606 156.755 49.8528 156.8 43.6809 156.8C37.5089 156.8 32.4971 156.755 32.4971 156.697C32.4971 156.639 37.5007 156.59 43.6809 156.59C49.8611 156.59 54.8606 156.639 54.8606 156.697Z"
      fill="#263238"
    />
    <path
      d="M101.203 165.326C101.203 165.326 101.273 165.198 101.384 164.955C101.533 164.59 101.599 164.196 101.579 163.803C101.531 163.179 101.429 162.56 101.273 161.953C101.044 161.141 100.993 160.289 101.124 159.456C101.249 158.954 101.477 158.483 101.794 158.074C102.111 157.666 102.51 157.328 102.966 157.082C103.497 156.811 104.09 156.68 104.686 156.701C105.283 156.721 105.864 156.894 106.376 157.202C106.94 157.523 107.401 157.999 107.705 158.572C107.864 158.881 107.922 159.232 107.87 159.575C107.834 159.759 107.741 159.926 107.604 160.053C107.467 160.18 107.292 160.26 107.106 160.281C106.766 160.31 106.424 160.318 106.083 160.306H105.059C104.369 160.306 103.672 160.261 102.966 160.195C101.586 160.091 100.227 159.796 98.9281 159.319C98.3129 159.113 97.6524 158.956 97.0951 159.216C96.5377 159.476 96.1703 160.005 95.7079 160.418C95.48 160.644 95.1945 160.804 94.8822 160.88C94.5695 160.937 94.2465 160.879 93.974 160.715C93.5223 160.377 93.1072 159.992 92.7355 159.567C92.5559 159.385 92.339 159.244 92.0997 159.154C91.8745 159.072 91.6272 159.072 91.402 159.154C90.9909 159.39 90.6259 159.697 90.3245 160.063C90.0206 160.365 89.6486 160.589 89.2399 160.718C88.8312 160.846 88.3975 160.875 87.9754 160.802C87.337 160.685 86.7678 160.327 86.386 159.802C86.1469 159.479 85.9858 159.105 85.9154 158.708C85.891 158.572 85.8827 158.434 85.8906 158.296C85.8906 158.296 85.8906 158.44 85.9567 158.708C86.0428 159.091 86.2119 159.451 86.4521 159.761C86.8288 160.257 87.3814 160.59 87.9961 160.69C88.3981 160.756 88.81 160.724 89.1973 160.598C89.5845 160.472 89.9357 160.254 90.2213 159.963C90.5322 159.58 90.9116 159.258 91.3401 159.014C91.6027 158.904 91.8962 158.894 92.1658 158.985C92.4284 159.083 92.6676 159.235 92.8676 159.431C93.2405 159.846 93.6556 160.221 94.1061 160.55C94.3395 160.693 94.6184 160.741 94.8864 160.686C95.1642 160.618 95.4183 160.475 95.6212 160.273C96.063 159.86 96.4469 159.328 97.0538 159.035C97.3679 158.898 97.7133 158.849 98.0529 158.894C98.3879 158.937 98.7174 159.016 99.0354 159.13C100.321 159.596 101.664 159.885 103.028 159.988C103.725 160.05 104.419 160.083 105.092 160.1H106.111C106.44 160.116 106.77 160.109 107.098 160.079C107.243 160.066 107.38 160.006 107.487 159.908C107.595 159.811 107.669 159.681 107.697 159.538C107.742 159.239 107.691 158.932 107.552 158.663C107.269 158.126 106.84 157.679 106.314 157.375C105.83 157.081 105.28 156.914 104.715 156.891C104.149 156.868 103.587 156.989 103.081 157.243C102.646 157.475 102.263 157.794 101.958 158.182C101.652 158.569 101.43 159.015 101.306 159.493C101.172 160.307 101.213 161.14 101.426 161.937C101.574 162.551 101.665 163.177 101.698 163.807C101.71 164.21 101.628 164.61 101.459 164.975C101.387 165.101 101.301 165.219 101.203 165.326Z"
      fill="#263238"
    />
    <path
      d="M112.794 161.289C112.704 161.297 112.612 161.297 112.522 161.289H111.733L108.843 161.313C106.404 161.334 103.035 161.379 99.311 161.487C95.5872 161.594 92.2226 161.747 89.7868 161.867L86.8969 162.011L86.1084 162.044C86.0179 162.054 85.9265 162.054 85.8359 162.044C85.9255 162.024 86.0167 162.011 86.1084 162.007L86.8887 161.933C87.5699 161.875 88.54 161.805 89.7786 161.722C92.2143 161.565 95.5831 161.388 99.3069 161.28C103.031 161.173 106.404 161.148 108.843 161.169C110.082 161.169 111.052 161.19 111.733 161.21L112.522 161.235C112.614 161.242 112.706 161.26 112.794 161.289Z"
      fill="#263238"
    />
    <path
      d="M62.0103 43.2446H63.2777V46.7372H65.412V47.7445H62.0103V43.2446Z"
      fill="white"
    />
    <path
      d="M65.6118 45.4993C65.6118 44.1576 66.6687 43.175 68.0889 43.175C69.509 43.175 70.5659 44.1576 70.5659 45.4993C70.5659 46.8411 69.5131 47.8278 68.0889 47.8278C66.6646 47.8278 65.6118 46.8287 65.6118 45.4993ZM69.3067 45.4993C69.293 45.2634 69.2105 45.0366 69.0693 44.8471C68.9282 44.6575 68.7346 44.5135 68.5125 44.4327C68.2904 44.352 68.0495 44.338 67.8195 44.3927C67.5896 44.4473 67.3807 44.5681 67.2186 44.7401C67.0566 44.9122 66.9485 45.1279 66.9077 45.3607C66.8669 45.5935 66.8952 45.8331 66.9891 46.05C67.0829 46.2669 67.2383 46.4516 67.436 46.5811C67.6336 46.7107 67.8649 46.7796 68.1012 46.7791C68.2665 46.7813 68.4305 46.7491 68.5826 46.6845C68.7348 46.62 68.8719 46.5245 68.9853 46.4042C69.0986 46.2839 69.1857 46.1413 69.2411 45.9855C69.2964 45.8298 69.3187 45.6642 69.3067 45.4993Z"
      fill="white"
    />
    <path
      d="M74.1848 46.8528H72.294L71.9431 47.7239H70.6509L72.6243 43.2446H73.8628L75.8444 47.7239H74.5357L74.1848 46.8528ZM73.8132 45.9198L73.2394 44.4872L72.6779 45.9115L73.8132 45.9198Z"
      fill="white"
    />
    <path
      d="M80.4751 43.2446V47.7239H79.4306L77.4573 45.3377V47.7239H76.2188V43.2446H77.2632L79.2366 45.6308V43.2446H80.4751Z"
      fill="white"
    />
    <path
      d="M89.1918 49.6481C89.1918 49.6481 89.1918 49.5944 89.1918 49.4995C89.1918 49.4045 89.1918 49.2559 89.1918 49.0866C89.1918 48.7013 89.1918 48.1508 89.1918 47.4353C89.1918 45.9986 89.1918 43.9137 89.1546 41.2757L89.2166 41.3376L54.4596 41.383L54.5669 41.2757V49.6563L54.4596 49.549L79.23 49.5985L86.5455 49.6274H88.5189H89.0349H89.2124H89.0473H88.5478H86.595L79.3043 49.6605L54.4514 49.7059H54.3481V49.6027C54.3481 46.8986 54.3481 44.0913 54.3481 41.222L54.4555 41.1147L89.2124 41.1601H89.2785V41.222C89.2785 43.8766 89.2496 45.9738 89.2413 47.4146C89.2413 48.1206 89.2413 48.6531 89.2413 49.066C89.2413 49.2435 89.2413 49.3797 89.2413 49.4788C89.2307 49.5368 89.2141 49.5935 89.1918 49.6481Z"
      fill="white"
    />
    <path
      d="M50.9469 22.1905H95.4469C96.14 22.1905 96.8047 22.4658 97.2948 22.9559C97.7849 23.446 98.0602 24.1107 98.0602 24.8038V36.6151H48.3213V24.8038C48.3213 24.4596 48.3893 24.1187 48.5214 23.8009C48.6535 23.483 48.8471 23.1944 49.0911 22.9515C49.335 22.7087 49.6246 22.5165 49.9431 22.3859C50.2616 22.2553 50.6027 22.1889 50.9469 22.1905Z"
      fill="#263238"
    />
    <path
      d="M79.5241 16.7653H66.8706L68.3486 27.6147H77.881L79.5241 16.7653Z"
      fill="#263238"
    />
    <path
      d="M94.8641 22.1901C94.8641 22.2479 85.1624 22.2933 73.1983 22.2933C61.2342 22.2933 51.5283 22.2479 51.5283 22.1901C51.5283 22.1323 61.2301 22.0869 73.1983 22.0869C85.1665 22.0869 94.8641 22.1323 94.8641 22.1901Z"
      fill="#455A64"
    />
    <path
      d="M49.4499 34.2867C49.3921 34.2867 49.3467 32.2473 49.3467 29.7455C49.3467 27.2437 49.3921 25.2042 49.4499 25.2042C49.5077 25.2042 49.5531 27.2437 49.5531 29.7455C49.5531 32.2473 49.5077 34.2867 49.4499 34.2867Z"
      fill="#455A64"
    />
    <path
      d="M96.4502 33.2045C96.3468 31.831 96.3124 30.4531 96.347 29.0761C96.3125 27.6992 96.347 26.3213 96.4502 24.9478C96.5535 26.3213 96.5879 27.6992 96.5534 29.0761C96.588 30.4531 96.5536 31.831 96.4502 33.2045Z"
      fill="#455A64"
    />
    <path
      d="M94.0513 35.124C94.0513 35.1818 84.0936 35.2272 71.8116 35.2272C59.5296 35.2272 49.5596 35.1776 49.5596 35.124C49.5596 35.0703 59.5173 35.0208 71.8034 35.0208C84.0895 35.0208 94.0513 35.0662 94.0513 35.124Z"
      fill="#455A64"
    />
    <g opacity="0.3">
      <path
        d="M98.0606 26.3182L100.117 32.42V35.409H97.7964L98.0606 26.3182Z"
        fill="black"
      />
    </g>
    <path
      d="M66.0735 158.206L63.6997 158.809L63.5346 160.014L61.9121 160.427L62.969 154.181L64.5336 153.768L68.4474 158.755L66.796 159.168L66.0735 158.206ZM65.3098 157.153L64.1332 155.539L63.869 157.521L65.3098 157.153Z"
      fill="#38655D"
    />
    <path
      d="M73.0674 153.841C73.3894 155.117 72.6298 156.157 71.094 156.545L70.1156 156.793L70.4871 158.263L68.8977 158.676L67.4775 153.061L70.0454 152.409C71.577 152.012 72.7412 152.557 73.0674 153.841ZM71.4614 154.254C71.3293 153.73 70.9206 153.511 70.2642 153.676L69.3807 153.899L69.7936 155.55L70.677 155.328C71.3376 155.15 71.5894 154.762 71.4614 154.25V154.254Z"
      fill="#38655D"
    />
    <path
      d="M78.8999 152.364C79.2219 153.639 78.4623 154.68 76.9307 155.068L75.9481 155.315L76.3238 156.785L74.7344 157.198L73.3101 151.579L75.8779 150.931C77.4096 150.531 78.5738 151.08 78.8999 152.364ZM77.294 152.776C77.1618 152.252 76.7573 152.029 76.0967 152.198L75.2174 152.421L75.6302 154.073L76.5096 153.846C77.1742 153.664 77.4261 153.284 77.294 152.772V152.776Z"
      fill="#38655D"
    />
    <path
      d="M82.645 153.59L81.778 153.813L82.1744 155.316L80.5849 155.729L79.1606 150.11L81.7285 149.458C83.2601 149.069 84.4243 149.619 84.7505 150.907C84.8619 151.276 84.8597 151.67 84.7441 152.038C84.6285 152.407 84.4049 152.731 84.1023 152.971L85.7537 154.428L84.0528 154.841L82.645 153.59ZM81.9349 150.7L81.0514 150.927L81.4643 152.579L82.3478 152.356C83.0042 152.191 83.256 151.802 83.128 151.286C83 150.77 82.5872 150.547 81.9349 150.713V150.7Z"
      fill="#38655D"
    />
    <path
      d="M85.5052 151.464C85.0923 149.779 86.0914 148.206 87.8872 147.748C89.6831 147.29 91.3221 148.194 91.7473 149.878C92.1725 151.563 91.1652 153.136 89.3693 153.594C87.5735 154.052 85.9345 153.152 85.5052 151.464ZM90.1455 150.291C90.0544 149.998 89.8794 149.738 89.6422 149.544C89.4049 149.349 89.1158 149.229 88.8107 149.197C88.5055 149.165 88.1977 149.223 87.9253 149.364C87.6529 149.505 87.4279 149.723 87.2781 149.991C87.1284 150.259 87.0604 150.565 87.0827 150.871C87.105 151.177 87.2165 151.47 87.4035 151.713C87.5904 151.956 87.8446 152.139 88.1346 152.24C88.4246 152.34 88.7376 152.353 89.0349 152.277C89.2424 152.227 89.4373 152.134 89.6074 152.005C89.7774 151.876 89.919 151.713 90.0232 151.526C90.1275 151.34 90.1921 151.134 90.2131 150.922C90.2342 150.709 90.2111 150.495 90.1455 150.291Z"
      fill="#38655D"
    />
    <path
      d="M97.3791 145.465L96.3966 151.694L94.8319 152.107L91.0049 147.1L92.7223 146.662L95.1746 149.936L95.8062 145.882L97.3791 145.465Z"
      fill="#38655D"
    />
    <path
      d="M103.333 148.627L103.642 149.866L99.1343 151.01L97.71 145.391L102.115 144.272L102.425 145.511L99.5925 146.233L99.832 147.178L102.33 146.547L102.631 147.736L100.154 148.367L100.414 149.395L103.333 148.627Z"
      fill="#38655D"
    />
    <path
      d="M103.1 144.016L105.754 143.343C107.616 142.868 109.168 143.628 109.606 145.354C110.044 147.079 109.04 148.487 107.178 148.958L104.524 149.631L103.1 144.016ZM106.795 147.707C107.003 147.661 107.2 147.575 107.374 147.451C107.548 147.328 107.695 147.171 107.808 146.99C107.92 146.809 107.994 146.607 108.027 146.396C108.059 146.185 108.049 145.97 107.997 145.764C107.944 145.557 107.851 145.363 107.722 145.193C107.593 145.023 107.431 144.881 107.246 144.775C107.061 144.669 106.857 144.601 106.645 144.576C106.434 144.55 106.219 144.568 106.014 144.627L105.011 144.879L105.791 147.963L106.795 147.707Z"
      fill="#38655D"
    />
    <path
      d="M61.2176 164.934C60.5073 164.933 59.8173 164.697 59.2556 164.262C58.6938 163.827 58.292 163.218 58.1131 162.531L56.2264 155.315C56.0127 154.49 56.1348 153.614 56.5658 152.878C56.9968 152.143 57.7017 151.609 58.5259 151.393L107.654 138.595C108.479 138.381 109.355 138.503 110.09 138.934C110.825 139.365 111.359 140.07 111.576 140.894L113.462 148.131C113.569 148.539 113.594 148.965 113.536 149.382C113.478 149.8 113.338 150.203 113.124 150.566C112.911 150.93 112.628 151.248 112.291 151.503C111.955 151.757 111.571 151.943 111.163 152.049L62.0351 164.847C61.7674 164.911 61.4927 164.94 61.2176 164.934ZM108.459 139.627C108.281 139.626 108.103 139.648 107.93 139.693L58.8025 152.491C58.5388 152.558 58.2911 152.678 58.0737 152.842C57.8563 153.005 57.6734 153.211 57.5357 153.446C57.3979 153.68 57.308 153.94 57.271 154.21C57.2341 154.48 57.2509 154.754 57.3204 155.017L59.2071 162.25C59.2736 162.514 59.3923 162.761 59.5561 162.978C59.7199 163.195 59.9255 163.377 60.1608 163.513C60.3955 163.652 60.6554 163.743 60.9253 163.78C61.1953 163.818 61.47 163.801 61.7337 163.732L110.862 150.934C111.125 150.867 111.373 150.747 111.59 150.583C111.808 150.42 111.991 150.214 112.128 149.979C112.266 149.745 112.356 149.485 112.393 149.215C112.43 148.945 112.413 148.671 112.344 148.408L110.457 141.175C110.343 140.732 110.084 140.339 109.723 140.059C109.361 139.779 108.916 139.627 108.459 139.627Z"
      fill="#38655D"
    />
  </g>
  <defs>
    <clipPath id="clip0_864_212533">
      <rect
        width="160.999"
        height="179.94"
        fill="white"
        transform="translate(0.500488 0.5)"
      />
    </clipPath>
  </defs>
</svg>
