<svg width="142" height="117" viewBox="0 0 142 117" fill="none" xmlns="http://www.w3.org/2000/svg">
<g clip-path="url(#clip0_864_256429)">
<path d="M70.9979 116.681C110.094 116.681 141.788 111.266 141.788 104.587C141.788 97.9085 110.094 92.4941 70.9979 92.4941C31.9017 92.4941 0.208008 97.9085 0.208008 104.587C0.208008 111.266 31.9017 116.681 70.9979 116.681Z" fill="#EBEBEB"/>
<path d="M116.805 61.8145H79.8467V102.745H116.805V61.8145Z" fill="#EBEBEB"/>
<path d="M135.888 61.8145H116.805V102.745H135.888V61.8145Z" fill="#DBDBDB"/>
<path d="M134.576 99.9226C133.164 97.0124 131.763 94.0923 130.373 91.1624L126.234 82.3628L122.149 73.514C120.792 70.5645 119.45 67.6018 118.123 64.626C119.532 67.5362 120.931 70.4563 122.321 73.3862L126.465 82.1907L130.55 91.0395C131.907 93.989 133.249 96.9501 134.576 99.9226Z" fill="#EBEBEB"/>
<path d="M134.576 64.6309C133.249 67.6067 131.907 70.5693 130.55 73.5189L126.465 82.3677L122.321 91.1722C120.934 94.0955 119.535 97.014 118.123 99.9275C119.433 96.9582 120.776 93.9972 122.149 91.0443L126.234 82.1956L130.373 73.3911C131.759 70.4612 133.16 67.5411 134.576 64.6309Z" fill="#EBEBEB"/>
<path d="M116.805 0.000976562H79.8467V38.1096H116.805V0.000976562Z" fill="#EBEBEB"/>
<path d="M135.888 0.000976562H116.805V38.1096H135.888V0.000976562Z" fill="#DBDBDB"/>
<path d="M101.463 8.8448H100.681H100.096L99.7569 8.16148L99.285 8.8448L98.6508 7.44375L98.0462 8.8448H96.3158H95.5243L95.2392 7.91077L94.9688 8.8448H94.4575V0.000976562H101.463V8.8448Z" fill="#DBDBDB"/>
<path d="M134.576 35.6757C133.164 32.9654 131.763 30.2468 130.373 27.5201L126.234 19.3252L122.149 11.091C120.792 8.34129 119.45 5.58343 118.123 2.81738C119.532 5.52444 120.931 8.24297 122.321 10.973L126.465 19.1531L130.55 27.3825C131.907 30.1452 133.249 32.9096 134.576 35.6757Z" fill="#EBEBEB"/>
<path d="M134.576 2.81738C133.249 5.58343 131.907 8.34129 130.55 11.091L126.465 19.3252L122.321 27.5103C120.934 30.237 119.535 32.9555 118.123 35.6659C119.433 32.9031 120.776 30.1452 122.149 27.3923L126.234 19.1531L130.373 10.9533C131.759 8.22659 133.16 5.51461 134.576 2.81738Z" fill="#EBEBEB"/>
<path d="M114.371 31.6401H110.267V35.745H114.371V31.6401Z" fill="white"/>
<path d="M119.268 38.1094H82.3096V61.8142H119.268V38.1094Z" fill="#DBDBDB"/>
<path d="M138.353 38.1094H119.269V61.8142H138.353V38.1094Z" fill="#C7C7C7"/>
<path d="M103.926 46.9532H103.144H102.554L102.22 46.2748L101.748 46.9532L101.114 45.5521L100.509 46.9532H98.7786H97.9872L97.702 46.0192L97.4317 46.9532H96.9204V38.1094H103.926V46.9532Z" fill="white"/>
<path d="M137.039 60.403C135.623 58.6825 134.222 56.9553 132.836 55.2216L128.697 50.0107L124.612 44.7801C123.255 43.03 121.913 41.2767 120.585 39.52C121.998 41.2406 123.397 42.9678 124.784 44.7015L128.928 49.9124L133.013 55.143C134.37 56.893 135.712 58.6464 137.039 60.403Z" fill="#DBDBDB"/>
<path d="M137.039 39.52C135.712 41.2799 134.37 43.0317 133.013 44.7752L128.928 50.0107L124.784 55.2216C123.397 56.952 121.998 58.6792 120.585 60.403C121.896 58.6431 123.238 56.8898 124.612 55.143L128.697 49.9124L132.836 44.7015C134.222 42.971 135.623 41.2439 137.039 39.52Z" fill="#DBDBDB"/>
<path d="M52.8923 28.6216H15.9341V66.7302H52.8923V28.6216Z" fill="#EBEBEB"/>
<path d="M71.9773 28.6216H52.8936V66.7302H71.9773V28.6216Z" fill="#DBDBDB"/>
<path d="M70.6892 64.3012C69.2734 61.5876 67.8723 58.869 66.486 56.1456L62.332 47.9507L58.242 39.7213C56.8917 36.9749 55.5513 34.2171 54.2207 31.4478C55.6332 34.1581 57.0326 36.875 58.4189 39.5984L62.5631 47.7983L66.6483 56.0325C67.9985 58.7756 69.3455 61.5318 70.6892 64.3012Z" fill="#EBEBEB"/>
<path d="M70.6893 31.4424C69.3587 34.2052 68.0167 36.963 66.6631 39.716L62.5534 47.9502L58.3994 56.1451C57.0131 58.8718 55.6137 61.5904 54.2012 64.3007C55.5285 61.5347 56.8689 58.7768 58.2224 56.0271L62.3322 47.7929L66.4616 39.5931C67.8479 36.8696 69.2571 34.1527 70.6893 31.4424Z" fill="#EBEBEB"/>
<path d="M50.4603 60.2598H46.3555V64.3646H50.4603V60.2598Z" fill="white"/>
<path d="M50.4656 4.91602H13.5073V28.6208H50.4656V4.91602Z" fill="#DBDBDB"/>
<path d="M69.553 4.91602H50.4692V28.6208H69.553V4.91602Z" fill="#C7C7C7"/>
<path d="M35.1229 13.7598H34.3413H33.7563L33.4171 13.0814L32.9501 13.7598L32.311 12.3588L31.7063 13.7598H29.9759H29.1844L28.8993 12.8258L28.6289 13.7598H28.1177V4.91602H35.1229V13.7598Z" fill="white"/>
<path d="M68.2301 27.2098C66.8176 25.4892 65.4181 23.7621 64.0318 22.0284L59.8729 16.8174L55.8074 11.5721C54.4506 9.82201 53.1086 8.06865 51.7812 6.31201C53.197 8.0326 54.5981 9.75974 55.9844 11.4934L60.1236 16.7044L64.2088 21.935C65.5787 23.6949 66.9192 25.4531 68.2301 27.2098Z" fill="#DBDBDB"/>
<path d="M68.2306 6.32715C66.9197 8.08706 65.5776 9.84042 64.2044 11.5872L60.1193 16.8178L55.98 22.0287C54.5937 23.7592 53.1927 25.4863 51.7769 27.2102C53.1042 25.4503 54.4462 23.6969 55.803 21.9501L59.8735 16.7195L64.0176 11.5086C65.417 9.77815 66.8214 8.05101 68.2306 6.32715Z" fill="#DBDBDB"/>
<path d="M47.9817 66.7295H11.0234V102.532H47.9817V66.7295Z" fill="#DBDBDB"/>
<path d="M67.0662 66.7295H47.9824V102.532H67.0662V66.7295Z" fill="#C7C7C7"/>
<path d="M32.6396 75.5782H31.8579H31.268L30.9337 74.8949L30.4618 75.5782L29.8227 74.1723L29.2181 75.5782H27.4876H26.7011L26.416 74.6393L26.1456 75.5782H25.6294V66.7295H32.6396V75.5782Z" fill="white"/>
<path d="M65.7726 100.404C64.3568 97.8047 62.9558 95.196 61.5695 92.5774L57.4302 84.7118L53.3401 76.807C51.9833 74.1851 50.6413 71.5387 49.314 68.8677C50.7298 71.4666 52.1308 74.0753 53.5171 76.6939L57.6564 84.5594L61.7464 92.4643C63.0869 95.0993 64.4289 97.7457 65.7726 100.404Z" fill="#DBDBDB"/>
<path d="M65.7726 68.8633C64.4388 71.5179 63.0967 74.1643 61.7464 76.8026L57.6564 84.7074L53.5171 92.573C52.1308 95.1948 50.7298 97.8036 49.314 100.399C50.6446 97.7446 51.9866 95.0982 53.3401 92.4599L57.4155 84.56L61.5547 76.6944C62.9377 74.0758 64.3437 71.4655 65.7726 68.8633Z" fill="#DBDBDB"/>
<path d="M62.5889 64.168H16.0986V102.576H62.5889V64.168Z" fill="#38655D"/>
<path d="M81.0041 64.168H62.584V102.581H81.0041V64.168Z" fill="#38655D"/>
<path opacity="0.1" d="M81.0041 64.168H62.584V102.581H81.0041V64.168Z" fill="white"/>
<path d="M79.7349 99.9359C78.3749 97.2026 77.023 94.4611 75.6793 91.7115L71.6826 83.4527L67.7498 75.1545C66.4389 72.3819 65.1444 69.5962 63.8662 66.7974C65.2296 69.5306 66.5815 72.2721 67.9219 75.0218L71.9136 83.2806L75.8464 91.5788C77.1573 94.3612 78.4535 97.1469 79.7349 99.9359Z" fill="#38655D"/>
<path d="M79.7364 66.8125C78.4549 69.6048 77.1604 72.3905 75.8528 75.1696L71.92 83.4678L67.9282 91.7266C66.5878 94.4796 65.2359 97.221 63.8726 99.951C65.1507 97.1588 66.4452 94.373 67.7562 91.5939L71.6889 83.2957L75.6856 75.0369C77.026 72.284 78.3763 69.5425 79.7364 66.8125Z" fill="#38655D"/>
<path d="M42.6303 72.471H41.8978H41.3423L41.0277 71.8271L40.5853 72.471L39.9904 71.1536L39.4202 72.471H37.7979H37.0556L36.7901 71.5911L36.5345 72.471H36.0527V64.168H42.6303V72.471Z" fill="white"/>
<path d="M107.993 64.168H73.3105V102.576H107.993V64.168Z" fill="#38655D"/>
<path d="M125.901 64.168H107.992V102.576H125.901V64.168Z" fill="#38655D"/>
<path opacity="0.1" d="M125.901 64.168H107.992V102.576H125.901V64.168Z" fill="white"/>
<g opacity="0.1">
<path d="M105.451 99.931C102.905 97.201 100.381 94.4611 97.8804 91.7115L90.418 83.4527L83.0441 75.1545C80.5959 72.3819 78.1772 69.5962 75.7881 66.7974C78.3346 69.5306 80.8581 72.2705 83.3587 75.0169L90.8211 83.2806L98.1951 91.5788C100.64 94.3579 103.059 97.142 105.451 99.931Z" fill="white"/>
<path d="M105.451 66.8125C103.055 69.6048 100.637 72.3905 98.1951 75.1696L90.8211 83.4678L83.3587 91.7266C80.8614 94.4763 78.3378 97.2161 75.7881 99.9461C78.1838 97.1604 80.6025 94.3747 83.0441 91.589L90.418 83.2908L97.8804 75.0271C100.378 72.284 102.901 69.5458 105.451 66.8125Z" fill="white"/>
</g>
<path d="M123.379 96.0771H120.243V100.506H123.379V96.0771Z" fill="white"/>
<path d="M63.4438 39.3271H23.8457V64.1626H63.4438V39.3271Z" fill="#38655D"/>
<path opacity="0.1" d="M63.4438 39.3271H23.8457V64.1626H63.4438V39.3271Z" fill="white"/>
<path d="M81.3586 39.332H63.4497V64.1724H81.3586V39.332Z" fill="#38655D"/>
<path opacity="0.2" d="M81.3586 39.332H63.4497V64.1724H81.3586V39.332Z" fill="white"/>
<path d="M80.1246 62.7028C78.7973 60.9986 77.4863 59.2845 76.1918 57.5607L72.3033 52.3891L68.4688 47.1978C67.194 45.4608 65.9355 43.7206 64.6934 41.9771C66.0043 43.6878 67.3152 45.4018 68.6261 47.1191L72.5098 52.2907L76.3442 57.4869C77.6191 59.2173 78.8792 60.956 80.1246 62.7028Z" fill="#38655D"/>
<path d="M80.1246 41.9771C78.8759 43.7206 77.6158 45.4608 76.3442 47.1978L72.5098 52.3891L68.6261 57.5607C67.3152 59.2812 66.0043 60.9953 64.6934 62.7028C65.9355 60.956 67.194 59.2173 68.4688 57.4869L72.3033 52.2907L76.1918 47.1191C77.4831 45.3986 78.794 43.6845 80.1246 41.9771Z" fill="#38655D"/>
</g>
<defs>
<clipPath id="clip0_864_256429">
<rect width="141.58" height="117" fill="white" transform="translate(0.209961)"/>
</clipPath>
</defs>
</svg>
