<svg width="186" height="139" viewBox="0 0 186 139" fill="none" xmlns="http://www.w3.org/2000/svg">
<g clip-path="url(#clip0_864_257197)">
<path d="M185.625 121.3H0.375V121.392H185.625V121.3Z" fill="#EBEBEB"/>
<path d="M167.063 127.262H154.792V127.354H167.063V127.262Z" fill="#EBEBEB"/>
<path d="M123.092 128.271H119.872V128.363H123.092V128.271Z" fill="#EBEBEB"/>
<path d="M154.421 123.824H147.312V123.917H154.421V123.824Z" fill="#EBEBEB"/>
<path d="M35.8134 124.446H19.8115V124.539H35.8134V124.446Z" fill="#EBEBEB"/>
<path d="M41.4595 124.446H39.1143V124.539H41.4595V124.446Z" fill="#EBEBEB"/>
<path d="M83.7934 126.01H49.085V126.102H83.7934V126.01Z" fill="#EBEBEB"/>
<path d="M88.1839 104.776H16.6441C16.0836 104.775 15.5465 104.552 15.1505 104.155C14.7546 103.759 14.5322 103.221 14.5322 102.661V2.09605C14.5371 1.53883 14.7616 1.00603 15.1571 0.613393C15.5525 0.220752 16.0868 -2.20109e-05 16.6441 -0.000976562H88.1839C88.745 -0.000976562 89.2831 0.221912 89.6798 0.618655C90.0766 1.0154 90.2995 1.5535 90.2995 2.11458V102.661C90.2995 103.222 90.0766 103.76 89.6798 104.157C89.2831 104.554 88.745 104.776 88.1839 104.776ZM16.6441 0.0731237C16.1082 0.0741052 15.5946 0.287667 15.216 0.666934C14.8375 1.0462 14.6249 1.56018 14.6249 2.09605V102.661C14.6249 103.197 14.8375 103.711 15.216 104.09C15.5946 104.469 16.1082 104.683 16.6441 104.684H88.1839C88.7201 104.683 89.2341 104.469 89.6133 104.09C89.9924 103.711 90.2059 103.197 90.2069 102.661V2.09605C90.2059 1.55984 89.9924 1.04587 89.6133 0.666708C89.2341 0.287547 88.7201 0.0741031 88.1839 0.0731237H16.6441Z" fill="#EBEBEB"/>
<path d="M168.326 104.776H96.7825C96.2218 104.775 95.6842 104.552 95.2877 104.156C94.8912 103.759 94.668 103.222 94.667 102.661V2.09605C94.6728 1.53849 94.8982 1.0057 95.2942 0.613162C95.6902 0.220623 96.225 -3.24211e-05 96.7825 -0.000976562H168.326C168.883 0.000951703 169.416 0.222157 169.811 0.614694C170.205 1.00723 170.429 1.53947 170.434 2.09605V102.661C170.434 103.221 170.212 103.758 169.817 104.154C169.422 104.551 168.886 104.774 168.326 104.776ZM96.7825 0.0731237C96.2463 0.0741031 95.7324 0.287547 95.3532 0.666708C94.974 1.04587 94.7606 1.55984 94.7596 2.09605V102.661C94.7606 103.197 94.974 103.711 95.3532 104.09C95.7324 104.469 96.2463 104.683 96.7825 104.684H168.326C168.862 104.683 169.376 104.469 169.755 104.09C170.135 103.711 170.348 103.197 170.349 102.661V2.09605C170.348 1.55984 170.135 1.04587 169.755 0.666708C169.376 0.287547 168.862 0.0741031 168.326 0.0731237H96.7825Z" fill="#EBEBEB"/>
<path d="M96.0941 121.3H106.798V83.1679H96.0941V121.3Z" fill="#E6E6E6"/>
<path d="M98.1239 121.3H96.0898V117.766H100.254L98.1239 121.3Z" fill="#F0F0F0"/>
<path d="M157.163 121.3H167.867V83.1679H157.163V121.3Z" fill="#E6E6E6"/>
<path d="M96.0933 120.371L158.938 120.371V83.1655H96.0933V120.371Z" fill="#F0F0F0"/>
<path d="M138.216 85.3766V118.307H156.845V85.3766H138.216Z" fill="#E6E6E6"/>
<path d="M145.689 87.2663H149.372C150.192 87.2519 150.998 87.0533 151.731 86.6852C152.464 86.317 153.105 85.7889 153.606 85.1396H141.454C141.956 85.7883 142.597 86.316 143.33 86.6841C144.063 87.0521 144.869 87.2511 145.689 87.2663Z" fill="#F0F0F0"/>
<path d="M118.197 85.3795V118.31H136.826V85.3795H118.197Z" fill="#E6E6E6"/>
<path d="M125.482 87.2663H129.169C129.986 87.2491 130.788 87.0492 131.518 86.6812C132.248 86.3132 132.885 85.7864 133.385 85.1396H121.251C121.752 85.7884 122.392 86.3163 123.125 86.6844C123.857 87.0525 124.663 87.2513 125.482 87.2663Z" fill="#F0F0F0"/>
<path d="M98.1797 85.3795V118.31H116.808V85.3795H98.1797Z" fill="#E6E6E6"/>
<path d="M105.464 87.2663H109.15C109.969 87.2508 110.774 87.0516 111.505 86.6836C112.237 86.3155 112.877 85.7879 113.377 85.1396H101.232C101.733 85.7884 102.374 86.3163 103.106 86.6844C103.838 87.0525 104.644 87.2513 105.464 87.2663Z" fill="#F0F0F0"/>
<path d="M156.904 121.3H158.934V117.766H154.77L156.904 121.3Z" fill="#F0F0F0"/>
<path d="M28.7739 73.2539L100.588 73.2539L100.588 12.1103L28.7739 12.1103L28.7739 73.2539Z" fill="#E6E6E6"/>
<path d="M27.1584 73.2539L99.8838 73.2539L99.8838 12.1103L27.1584 12.1103L27.1584 73.2539Z" fill="#F5F5F5"/>
<path d="M96.9824 70.3198V15.0449L30.059 15.0449V70.3198H96.9824Z" fill="#FAFAFA"/>
<path d="M88.7727 70.3198L62.4339 15.0449H53.4863L79.8252 70.3198H88.7727Z" fill="white"/>
<path d="M77.2903 70.3198L50.9478 15.0449H44.79L71.1289 70.3198H77.2903Z" fill="white"/>
<path d="M54.9131 70.3169V15.042H51.4526V70.3169H54.9131Z" fill="#E6E6E6"/>
<path d="M77.9131 70.3169V15.042H74.4526V70.3169H77.9131Z" fill="#E6E6E6"/>
<path d="M54.2861 72.1831L54.2861 12.8623H49.9105V72.1831H54.2861Z" fill="#F5F5F5"/>
<path d="M77.2871 72.1831V12.8623H72.9115V72.1831H77.2871Z" fill="#F5F5F5"/>
<path d="M30.3672 70.3198L30.3672 15.0449H30.0597L30.0597 70.3198H30.3672Z" fill="#E6E6E6"/>
<path d="M25.9398 8.33496H103.745C103.843 8.33496 103.937 8.374 104.007 8.44348C104.076 8.51296 104.115 8.6072 104.115 8.70546C104.115 8.80372 104.076 8.89796 104.007 8.96744C103.937 9.03693 103.843 9.07596 103.745 9.07596H25.9398C25.8416 9.07596 25.7473 9.03693 25.6779 8.96744C25.6084 8.89796 25.5693 8.80372 25.5693 8.70546C25.5693 8.6072 25.6084 8.51296 25.6779 8.44348C25.7473 8.374 25.8416 8.33496 25.9398 8.33496Z" fill="#E6E6E6"/>
<path d="M100.588 10.807C100.722 10.806 100.85 10.7521 100.944 10.657C101.039 10.5619 101.092 10.4334 101.092 10.2994V9.21384C101.092 9.0802 101.038 8.95204 100.944 8.85754C100.849 8.76305 100.721 8.70996 100.588 8.70996C100.454 8.70996 100.325 8.76293 100.23 8.85732C100.135 8.95171 100.081 9.07986 100.08 9.21384V10.2994C100.081 10.4337 100.135 10.5623 100.23 10.6573C100.325 10.7522 100.453 10.806 100.588 10.807Z" fill="#E6E6E6"/>
<path d="M31.582 10.807C31.7163 10.806 31.8449 10.7522 31.9399 10.6573C32.0348 10.5623 32.0886 10.4337 32.0896 10.2994V9.21384C32.0886 9.07986 32.0347 8.95171 31.9396 8.85732C31.8445 8.76293 31.716 8.70996 31.582 8.70996C31.4484 8.70996 31.3202 8.76305 31.2257 8.85754C31.1312 8.95204 31.0781 9.0802 31.0781 9.21384V10.2994C31.0781 10.4334 31.1311 10.5619 31.2255 10.657C31.3199 10.7521 31.448 10.806 31.582 10.807Z" fill="#E6E6E6"/>
<path opacity="0.6" d="M26.0579 39.0576L98.7314 39.0576V8.70996L26.0579 8.70996V39.0576Z" fill="#E0E0E0"/>
<path d="M27.0546 121.3H28.9219L28.9219 90.6817H27.0546L27.0546 121.3Z" fill="#E6E6E6"/>
<path d="M70.859 84.7217H60.748V90.6793H70.859V84.7217Z" fill="#E6E6E6"/>
<path d="M20.5896 90.6836H60.748V84.726H20.5896V90.6836Z" fill="#F5F5F5"/>
<path d="M70.859 94.3838H60.748V100.341H70.859V94.3838Z" fill="#E6E6E6"/>
<path d="M20.5896 100.345H60.748V94.3871H20.5896V100.345Z" fill="#F5F5F5"/>
<path d="M70.859 104.05H60.748V110.007H70.859V104.05Z" fill="#E6E6E6"/>
<path d="M20.5896 110.009H60.748V104.051H20.5896V110.009Z" fill="#F5F5F5"/>
<path d="M67.2137 121.3H69.0811V90.6817H67.2137V121.3Z" fill="#E6E6E6"/>
<path d="M58.8807 121.3H60.748L60.748 90.6817H58.8807L58.8807 121.3Z" fill="#F5F5F5"/>
<path d="M20.5897 121.3H22.457L22.457 90.6817H20.5897L20.5897 121.3Z" fill="#F5F5F5"/>
<path d="M93.0003 138.035C132.674 138.035 164.837 136.157 164.837 133.841C164.837 131.524 132.674 129.646 93.0003 129.646C53.3262 129.646 21.1641 131.524 21.1641 133.841C21.1641 136.157 53.3262 138.035 93.0003 138.035Z" fill="#F5F5F5"/>
<path d="M147.093 117.018H86.9241C86.3327 117.025 85.7463 116.908 85.2031 116.674C84.6598 116.441 84.1717 116.095 83.7704 115.661C83.3691 115.226 83.0635 114.712 82.8734 114.152C82.6834 113.592 82.6131 112.998 82.6671 112.409L90.0363 15.7939C90.1511 14.5492 90.7211 13.3905 91.6373 12.54C92.5534 11.6895 93.7511 11.207 95.001 11.1849H155.17C155.762 11.1772 156.348 11.294 156.892 11.5276C157.435 11.7613 157.924 12.1067 158.325 12.5413C158.727 12.9759 159.032 13.4901 159.222 14.0505C159.412 14.6108 159.482 15.2048 159.427 15.7939L152.058 112.409C151.942 113.654 151.372 114.812 150.456 115.662C149.54 116.513 148.343 116.995 147.093 117.018Z" fill="#38655D"/>
<path opacity="0.5" d="M147.093 117.018H86.9241C86.3327 117.025 85.7463 116.908 85.2031 116.674C84.6598 116.441 84.1717 116.095 83.7704 115.661C83.3691 115.226 83.0635 114.712 82.8734 114.152C82.6834 113.592 82.6131 112.998 82.6671 112.409L90.0363 15.7939C90.1511 14.5492 90.7211 13.3905 91.6373 12.54C92.5534 11.6895 93.7511 11.207 95.001 11.1849H155.17C155.762 11.1772 156.348 11.294 156.892 11.5276C157.435 11.7613 157.924 12.1067 158.325 12.5413C158.727 12.9759 159.032 13.4901 159.222 14.0505C159.412 14.6108 159.482 15.2048 159.427 15.7939L152.058 112.409C151.942 113.654 151.372 114.812 150.456 115.662C149.54 116.513 148.343 116.995 147.093 117.018Z" fill="white"/>
<path d="M146.201 117.018H86.0276C85.4362 117.025 84.8499 116.908 84.3066 116.674C83.7633 116.441 83.2752 116.095 82.8739 115.661C82.4726 115.226 82.167 114.712 81.9769 114.152C81.7869 113.592 81.7166 112.998 81.7706 112.409L89.1435 15.7939C89.2584 14.5486 89.829 13.3894 90.7459 12.5388C91.6628 11.6882 92.8614 11.2061 94.1119 11.1849H154.281C154.873 11.1772 155.459 11.294 156.003 11.5276C156.546 11.7613 157.035 12.1067 157.436 12.5413C157.838 12.9759 158.143 13.4901 158.333 14.0505C158.523 14.6108 158.593 15.2048 158.538 15.7939L151.169 112.409C151.054 113.655 150.483 114.814 149.567 115.664C148.65 116.515 147.451 116.997 146.201 117.018Z" fill="#38655D"/>
<path opacity="0.7" d="M146.201 117.018H86.0276C85.4362 117.025 84.8499 116.908 84.3066 116.674C83.7633 116.441 83.2752 116.095 82.8739 115.661C82.4726 115.226 82.167 114.712 81.9769 114.152C81.7869 113.592 81.7166 112.998 81.7706 112.409L89.1435 15.7939C89.2584 14.5486 89.829 13.3894 90.7459 12.5388C91.6628 11.6882 92.8614 11.2061 94.1119 11.1849H154.281C154.873 11.1772 155.459 11.294 156.003 11.5276C156.546 11.7613 157.035 12.1067 157.436 12.5413C157.838 12.9759 158.143 13.4901 158.333 14.0505C158.523 14.6108 158.593 15.2048 158.538 15.7939L151.169 112.409C151.054 113.655 150.483 114.814 149.567 115.664C148.65 116.515 147.451 116.997 146.201 117.018Z" fill="white"/>
<path d="M86.1453 115.48C85.7508 115.486 85.3595 115.409 84.9969 115.253C84.6342 115.098 84.3084 114.868 84.0407 114.578C83.7729 114.288 83.5692 113.945 83.4428 113.571C83.3165 113.198 83.2703 112.801 83.3073 112.409L90.5802 17.0752C90.6551 16.245 91.0346 15.472 91.6454 14.9049C92.2563 14.3378 93.0554 14.0168 93.8888 14.0037H154.058C154.452 13.9978 154.844 14.0751 155.206 14.2306C155.569 14.386 155.895 14.6161 156.163 14.9059C156.43 15.1957 156.634 15.5386 156.76 15.9124C156.887 16.2862 156.933 16.6824 156.896 17.0752L149.623 112.409C149.548 113.238 149.169 114.011 148.559 114.578C147.949 115.145 147.151 115.466 146.318 115.48H86.1453Z" fill="#38655D"/>
<path opacity="0.2" d="M145.892 30.0387H102.833C102.599 30.0418 102.367 29.9956 102.152 29.9032C101.937 29.8108 101.744 29.6742 101.586 29.5023C101.427 29.3303 101.306 29.1269 101.231 28.9053C101.156 28.6837 101.129 28.4488 101.151 28.2158C101.197 27.7249 101.423 27.2681 101.784 26.9326C102.145 26.5971 102.618 26.4063 103.111 26.3967H146.17C146.404 26.3931 146.636 26.4387 146.851 26.5307C147.066 26.6227 147.259 26.759 147.418 26.9306C147.576 27.1023 147.697 27.3055 147.772 27.5269C147.847 27.7483 147.874 27.9831 147.852 28.2158C147.809 28.7081 147.584 29.1667 147.222 29.5033C146.86 29.8399 146.387 30.0306 145.892 30.0387Z" fill="black"/>
<path opacity="0.3" d="M127.523 13.0636H120.569C120.511 13.0644 120.454 13.053 120.401 13.0303C120.348 13.0076 120.301 12.974 120.262 12.9317C120.223 12.8895 120.193 12.8395 120.174 12.785C120.156 12.7305 120.149 12.6727 120.154 12.6153C120.166 12.4947 120.221 12.3825 120.31 12.2999C120.399 12.2173 120.514 12.17 120.636 12.167H127.594C127.651 12.1668 127.708 12.1785 127.76 12.2014C127.813 12.2244 127.86 12.258 127.898 12.3002C127.937 12.3424 127.967 12.3923 127.985 12.4465C128.003 12.5008 128.01 12.5583 128.005 12.6153C127.995 12.7366 127.94 12.8497 127.851 12.9326C127.762 13.0155 127.645 13.0622 127.523 13.0636Z" fill="#38655D"/>
<path d="M102.633 28.2171C102.695 27.5727 102.619 26.9226 102.413 26.3092C102.206 25.6958 101.872 25.1329 101.433 24.6573C100.994 24.1818 100.459 23.8042 99.8639 23.5494C99.2689 23.2945 98.6267 23.1681 97.9795 23.1783H141.698C142.346 23.1681 142.988 23.2945 143.583 23.5494C144.178 23.8042 144.713 24.1818 145.152 24.6573C145.591 25.1329 145.925 25.6958 146.132 26.3092C146.338 26.9226 146.414 27.5727 146.352 28.2171H102.633Z" fill="#F0F0F0"/>
<path d="M97.9905 23.1777C96.6231 23.1988 95.3119 23.7252 94.3097 24.6556C93.3075 25.586 92.6851 26.8545 92.5626 28.2165L88.0833 86.9297C87.9617 88.2914 87.3401 89.5598 86.3385 90.4903C85.3369 91.4207 84.0261 91.9473 82.6592 91.9685H126.378C127.746 91.9474 129.057 91.421 130.059 90.4906C131.061 89.5602 131.684 88.2917 131.806 86.9297L136.285 28.2165C136.407 26.8548 137.029 25.5864 138.03 24.6559C139.032 23.7255 140.343 23.1989 141.709 23.1777H97.9905Z" fill="white"/>
<path d="M121.721 86.9297C121.66 87.5741 121.735 88.2242 121.942 88.8376C122.148 89.451 122.482 90.0139 122.922 90.4895C123.361 90.965 123.895 91.3426 124.49 91.5974C125.085 91.8523 125.728 91.9787 126.375 91.9685H82.6558C82.0085 91.9787 81.3664 91.8523 80.7714 91.5974C80.1763 91.3426 79.6417 90.965 79.2025 90.4895C78.7634 90.0139 78.4294 89.451 78.2226 88.8376C78.0158 88.2242 77.9407 87.5741 78.0023 86.9297H121.721Z" fill="#F0F0F0"/>
<path d="M96.1305 85.7698C96.2972 83.6246 95.6229 81.8906 93.4814 81.8906H127.145C129.287 81.8906 130.898 83.8506 129.798 85.7698H96.1305Z" fill="#E0E0E0"/>
<path d="M121.721 86.9308C121.84 85.5671 122.46 84.2959 123.462 83.3632C124.464 82.4304 125.776 81.9023 127.145 81.8809H83.4261C82.0591 81.902 80.7484 82.4286 79.7468 83.3591C78.7451 84.2895 78.1236 85.558 78.002 86.9197L121.721 86.9308Z" fill="#F0F0F0"/>
<path d="M142.391 101.486H92.2073C92.0374 101.489 91.869 101.455 91.7129 101.388C91.5569 101.321 91.4167 101.222 91.3014 101.097C91.1861 100.972 91.0983 100.825 91.0437 100.664C90.9892 100.503 90.969 100.333 90.9846 100.164C91.0174 99.8066 91.1806 99.4743 91.4432 99.2303C91.7057 98.9862 92.049 98.8476 92.4073 98.8409H142.595C142.765 98.8391 142.933 98.873 143.088 98.9402C143.244 99.0075 143.384 99.1067 143.499 99.2313C143.614 99.356 143.701 99.5034 143.755 99.664C143.81 99.8245 143.83 99.9948 143.814 100.164C143.781 100.52 143.618 100.853 143.356 101.097C143.093 101.341 142.75 101.48 142.391 101.486Z" fill="white"/>
<path d="M117.05 107.845H91.7223C91.5523 107.848 91.3836 107.814 91.2272 107.748C91.0709 107.681 90.9304 107.582 90.815 107.457C90.6996 107.332 90.6119 107.184 90.5575 107.023C90.5032 106.862 90.4834 106.691 90.4996 106.522C90.5324 106.165 90.6957 105.833 90.9582 105.589C91.2207 105.345 91.564 105.206 91.9223 105.199H117.25C117.42 105.197 117.588 105.231 117.744 105.298C117.9 105.365 118.04 105.464 118.156 105.588C118.271 105.713 118.359 105.861 118.413 106.022C118.468 106.182 118.488 106.353 118.472 106.522C118.44 106.879 118.276 107.211 118.014 107.455C117.751 107.699 117.408 107.838 117.05 107.845Z" fill="white"/>
<path d="M134.585 107.845H124.326C124.156 107.848 123.987 107.814 123.831 107.748C123.674 107.681 123.534 107.582 123.419 107.457C123.303 107.332 123.215 107.184 123.161 107.023C123.107 106.862 123.087 106.691 123.103 106.522C123.136 106.165 123.299 105.833 123.562 105.589C123.824 105.345 124.167 105.206 124.526 105.199H134.785C134.955 105.198 135.123 105.231 135.279 105.299C135.434 105.366 135.574 105.465 135.69 105.59C135.805 105.714 135.893 105.861 135.947 106.022C136.002 106.183 136.023 106.353 136.008 106.522C135.975 106.879 135.812 107.211 135.549 107.455C135.287 107.699 134.943 107.838 134.585 107.845Z" fill="white"/>
<path d="M144.844 82.6877L142.224 83.0989C142.161 82.8563 142.059 82.625 141.924 82.4135C141.791 82.2523 141.625 82.1199 141.439 82.0245L141.283 84.0363C142.667 84.4142 143.578 84.8119 144.018 85.2293C144.303 85.5007 144.522 85.8347 144.656 86.2051C144.791 86.5754 144.837 86.972 144.792 87.3634C144.759 87.857 144.607 88.3352 144.347 88.7565C144.104 89.165 143.784 89.5233 143.406 89.8124C143.057 90.0847 142.664 90.294 142.243 90.4311C141.761 90.5695 141.263 90.6455 140.761 90.6571L140.661 91.9687H139.683L139.783 90.6571C139.226 90.6207 138.676 90.5098 138.149 90.3274C137.754 90.18 137.393 89.953 137.089 89.6605C136.818 89.4003 136.6 89.0894 136.448 88.7454C136.292 88.3675 136.196 87.9674 136.163 87.5597L138.997 87.2337C139.013 87.5804 139.102 87.9199 139.257 88.2304C139.422 88.4684 139.65 88.6558 139.916 88.7713L140.102 86.3149C139.437 86.1444 138.787 85.9188 138.16 85.6406C137.765 85.4298 137.436 85.1129 137.212 84.7254C136.946 84.2593 136.837 83.7205 136.9 83.1879C136.925 82.7927 137.028 82.4064 137.204 82.0514C137.38 81.6965 137.624 81.3801 137.923 81.1205C138.672 80.5167 139.606 80.1907 140.568 80.1979L140.62 79.5088H141.635L141.584 80.1979C142.417 80.1964 143.231 80.4555 143.91 80.9389C144.432 81.3827 144.765 82.0076 144.844 82.6877ZM140.424 81.9911C140.18 82.0563 139.958 82.184 139.779 82.3616C139.652 82.5027 139.576 82.683 139.564 82.8729C139.545 83.0614 139.593 83.2507 139.701 83.4064C139.855 83.5853 140.059 83.7143 140.287 83.7769L140.424 81.9911ZM140.917 88.8417C141.252 88.7856 141.565 88.6337 141.817 88.4045C142.004 88.2252 142.12 87.9844 142.143 87.7265C142.162 87.5088 142.095 87.2923 141.958 87.1226C141.719 86.8762 141.418 86.6994 141.087 86.6113L140.917 88.8417Z" fill="white"/>
<path d="M130.924 48.7381H94.7891L94.8632 47.7378H131.002L130.924 48.7381Z" fill="#38655D"/>
<path d="M130.925 48.7378H94.7899L94.5527 51.8092H130.691L130.925 48.7378Z" fill="#F0F0F0"/>
<path d="M130.458 54.8774H94.3194L94.0859 57.9452H130.225L130.458 54.8774Z" fill="#F0F0F0"/>
<path d="M129.987 61.0137H93.8526L93.6191 64.0851H129.754L129.987 61.0137Z" fill="#F0F0F0"/>
<path d="M129.52 67.1533H93.3819L93.1484 70.2211H129.287L129.52 67.1533Z" fill="#F0F0F0"/>
<path d="M128.975 74.2921H92.8369L92.9147 73.2881H129.053L128.975 74.2921Z" fill="#38655D"/>
<path d="M124.841 30.0396H132.351L132.01 34.5189H124.5L124.841 30.0396Z" fill="#F0F0F0"/>
</g>
<defs>
<clipPath id="clip0_864_257197">
<rect width="185.25" height="138.197" fill="white" transform="translate(0.375)"/>
</clipPath>
</defs>
</svg>
