<svg width="62" height="70" viewBox="0 0 62 70" fill="none" xmlns="http://www.w3.org/2000/svg">
<path d="M11.1922 36.713C11.1922 36.713 0.62207 52.3057 0.62207 59.9931C0.62207 65.0975 1.91011 69.4387 8.65016 69.5955C15.3902 69.7522 24.1612 69.6909 24.1612 69.6909C24.1612 69.6909 33.6545 67.5237 29.1634 55.8427C26.4949 49.1454 23.1254 42.7491 19.1112 36.7607L11.1922 36.713Z" fill="#EBEBEB"/>
<path d="M23.4174 26.6406C23.3084 25.8842 22.3815 25.5502 21.6114 25.557C18.8854 25.6048 16.5752 27.9082 13.8696 27.7719C12.1727 27.6833 10.6938 26.6475 9.13315 25.9728C8.76093 25.7886 8.35518 25.6819 7.94052 25.6593C7.73434 25.6471 7.52828 25.6848 7.33969 25.769C7.1511 25.8532 6.98552 25.9815 6.85693 26.1431C6.47529 26.6815 6.71382 27.4176 6.96597 28.0309C8.21994 31.0227 10.2917 33.994 11.7978 36.8904L19.6215 37.2107C19.6018 33.9329 20.7031 30.7468 22.7427 28.1808C22.9563 27.9853 23.1266 27.7472 23.2428 27.482C23.359 27.2168 23.4185 26.9302 23.4174 26.6406Z" fill="#EBEBEB"/>
<path d="M16.016 60.8518V62.4465H14.5917V60.8927C13.328 60.8422 12.1034 60.441 11.0547 59.7342L11.8521 57.9963C12.6565 58.5693 13.5957 58.9238 14.5781 59.0254V56.647C13.0038 56.2517 11.2387 55.7201 11.2523 53.6824C11.2523 52.1695 12.3632 50.8814 14.619 50.6361V49.055H16.0433V50.6088C17.0606 50.6726 18.0485 50.9762 18.926 51.4948L18.2036 53.2463C17.5363 52.8525 16.7973 52.5954 16.0296 52.4898V54.9159C17.6039 55.2908 19.3418 55.8292 19.3281 57.8396C19.3418 59.3184 18.2513 60.5929 16.016 60.8518ZM14.653 54.5479V52.5034C13.8966 52.6738 13.5967 53.0827 13.5899 53.5529C13.5831 54.0232 13.9988 54.3435 14.6258 54.5479H14.653ZM17.086 57.9963C17.086 57.4988 16.6771 57.2262 16.0637 57.0082V58.9709C16.7384 58.8482 17.0519 58.4529 17.0587 57.9963H17.086Z" fill="#E0E0E0"/>
<path d="M11.3701 41.1289C11.4092 39.8625 11.6915 38.6154 12.2016 37.4556C12.1543 38.721 11.8724 39.9666 11.3701 41.1289Z" fill="#E0E0E0"/>
<path d="M12.003 45.9952C11.9983 44.4799 12.149 42.9682 12.4528 41.4837C12.6456 39.9812 12.988 38.5018 13.4751 37.0675C13.3303 38.5714 13.1028 40.0662 12.7936 41.545C12.6121 43.0418 12.3482 44.5275 12.003 45.9952Z" fill="#E0E0E0"/>
<path d="M17.5632 41.8109C17.0946 40.3808 16.8531 38.8861 16.8477 37.3812C17.1379 38.0782 17.3172 38.8163 17.3792 39.5688C17.5557 40.3022 17.6178 41.0585 17.5632 41.8109Z" fill="#E0E0E0"/>
<path d="M11.2314 31.0973C12.6905 32.4499 13.8772 34.0692 14.7276 35.8678C14.0611 35.1455 13.457 34.368 12.9216 33.5439C12.2914 32.7766 11.7261 31.9582 11.2314 31.0973Z" fill="#E0E0E0"/>
<path d="M13.6523 28.944C14.0375 30.0819 14.3516 31.2427 14.5928 32.4196C14.9433 33.5677 15.2166 34.738 15.4106 35.9226C14.8783 34.8411 14.4867 33.696 14.2452 32.515C13.8917 31.3559 13.6923 30.1552 13.6523 28.944Z" fill="#E0E0E0"/>
<path d="M23.3027 62.7465C23.8754 62.0492 24.2831 61.2315 24.4954 60.3545C24.5833 59.4547 24.4692 58.5466 24.1614 57.6966C24.1614 57.6966 24.4204 57.9147 24.6249 58.3781C24.8869 59.0139 24.9648 59.7106 24.8497 60.3885C24.7326 61.0694 24.4282 61.7041 23.9706 62.2218C23.6162 62.6307 23.33 62.7806 23.3027 62.7465Z" fill="#E0E0E0"/>
<path d="M6.10894 57.8939C6.07487 57.8939 5.87725 57.7508 5.67961 57.3896C5.42441 56.908 5.3043 56.3664 5.33204 55.8221C5.35128 55.2785 5.51348 54.7497 5.80228 54.2887C6.02717 53.9412 6.23844 53.7912 6.27252 53.8185C5.91402 54.4351 5.7117 55.13 5.68319 55.8427C5.65468 56.5554 5.80084 57.2642 6.10894 57.9075V57.8939Z" fill="#E0E0E0"/>
<path d="M19.2477 37.8924L10.7085 37.8378C10.5602 37.8379 10.4135 37.8085 10.2766 37.7516C10.1397 37.6947 10.0155 37.6112 9.91095 37.5061C9.80644 37.401 9.72374 37.2762 9.66763 37.139C9.61153 37.0018 9.58311 36.8548 9.58401 36.7066C9.58489 36.5583 9.61509 36.4117 9.67285 36.2752C9.73062 36.1386 9.8148 36.0149 9.92058 35.911C10.0264 35.8071 10.1516 35.7252 10.2892 35.6699C10.4268 35.6146 10.5739 35.5871 10.7221 35.5889L19.2613 35.6366C19.4099 35.6375 19.5568 35.6676 19.6937 35.7253C19.8307 35.783 19.9549 35.8671 20.0593 35.9728C20.1637 36.0784 20.2463 36.2037 20.3023 36.3413C20.3583 36.4789 20.3867 36.6261 20.3858 36.7747C20.3822 37.0736 20.2605 37.3588 20.0473 37.5683C19.834 37.7777 19.5466 37.8942 19.2477 37.8924Z" fill="#E0E0E0"/>
<path d="M31.2195 17.5357C31.2195 17.5357 14.6454 42.0698 14.6182 54.1324C14.6182 62.1537 16.6627 68.9823 27.2464 69.2209C37.8301 69.4594 51.6237 69.3708 51.6237 69.3708C51.6237 69.3708 66.5418 65.9633 59.4814 47.6036C53.2457 31.3907 43.6842 17.6175 43.6842 17.6175L31.2195 17.5357Z" fill="#38655D"/>
<path d="M50.4507 1.70433C50.2736 0.504886 48.8151 -0.0198709 47.6021 0.000574167C43.3495 0.0687244 39.6898 3.69432 35.4373 3.47624C32.7658 3.34675 30.4418 1.71115 27.9884 0.64801C27.404 0.363196 26.7698 0.194247 26.1211 0.150505C25.7958 0.132222 25.4708 0.191957 25.1733 0.324729C24.8757 0.4575 24.6142 0.659469 24.4106 0.913795C23.8108 1.75886 24.1857 2.92423 24.5809 3.88514C26.5505 8.58751 29.8149 13.2558 32.1797 17.781L44.4808 18.2853C44.4438 13.123 46.1755 8.1037 49.3876 4.06233C49.9464 3.3672 50.5802 2.58347 50.4507 1.70433Z" fill="#38655D"/>
<g opacity="0.9">
<path d="M38.7827 55.4816V57.9895H36.5405V55.5497C34.5503 55.4734 32.6214 54.8407 30.9727 53.7233L32.2198 50.9973C33.4995 51.9034 34.9935 52.4601 36.5542 52.6125V48.871C34.0735 48.2577 31.3066 47.4126 31.3202 44.2095C31.3202 41.8311 33.0717 39.807 36.6155 39.439V36.9515H38.8576V39.3913C40.4564 39.4838 42.0111 39.9507 43.3964 40.7543L42.2583 43.4803C41.2117 42.8645 40.0537 42.4616 38.8508 42.2945V46.1041C41.3383 46.697 44.0643 47.5421 44.0439 50.6974C44.037 53.0691 42.3197 55.0727 38.7827 55.4816ZM36.6018 45.5725V42.3899C35.416 42.6489 34.939 43.2963 34.939 44.0392C34.939 44.782 35.6409 45.2522 36.6223 45.5725H36.6018ZM40.4251 50.9905C40.4251 50.2068 39.7845 49.7774 38.8236 49.4367V52.5239C39.9412 52.2853 40.4387 51.7061 40.4455 50.9905H40.4251Z" fill="#FEBE04"/>
</g>
<path d="M31.5068 24.4323C31.5482 23.4421 31.7083 22.4605 31.9839 21.5086C32.1458 20.53 32.4226 19.5738 32.8085 18.6599C32.7672 19.6501 32.607 20.6317 32.3314 21.5836C32.1708 22.5626 31.894 23.5189 31.5068 24.4323Z" fill="#263238"/>
<path d="M32.5002 32.1265C32.477 31.4289 32.5204 30.7306 32.6297 30.0411C32.766 28.7599 32.9909 26.9948 33.3112 25.0526C33.6315 23.1103 33.9927 21.3588 34.2721 20.1048C34.3903 19.4079 34.5728 18.7235 34.8173 18.0603C34.7726 18.7488 34.6724 19.4325 34.5175 20.1048C34.2789 21.4678 33.9859 23.1784 33.6656 25.0594C33.3453 26.9403 33.0931 28.6441 32.875 30.0275C32.808 30.7363 32.6827 31.4384 32.5002 32.1265Z" fill="#263238"/>
<path d="M41.2446 25.5569C40.8842 24.4327 40.6376 23.2752 40.5085 22.1017C40.2617 20.9476 40.1293 19.772 40.1133 18.5919C40.4697 19.7161 40.7095 20.8739 40.8289 22.0472C41.0848 23.2002 41.224 24.376 41.2446 25.5569Z" fill="#263238"/>
<path d="M31.2868 8.70364C32.4198 9.76582 33.4323 10.9497 34.3058 12.2338C35.2705 13.4524 36.1021 14.7707 36.7865 16.1661C36.6979 16.2206 35.5394 14.5032 34.0196 12.4451C32.4999 10.387 31.2186 8.77179 31.2868 8.70364Z" fill="#263238"/>
<path d="M35.0898 5.32291C35.2918 5.84022 35.4403 6.37686 35.5328 6.92443C35.8054 8.04891 36.1189 9.35739 36.4733 10.809C36.8277 12.2606 37.1957 13.535 37.4887 14.6731C37.6672 15.2 37.7928 15.7433 37.8636 16.2951C37.5999 15.8049 37.3941 15.2857 37.2502 14.7481C36.9231 13.7735 36.5142 12.4173 36.1257 10.8976C35.7373 9.37784 35.4442 7.98758 35.2875 6.97214C35.1562 6.43221 35.0899 5.87856 35.0898 5.32291Z" fill="#263238"/>
<path d="M50.2608 58.4531C50.2199 58.4122 50.6016 58.0919 51.0582 57.4581C51.6557 56.6515 52.0613 55.7192 52.244 54.7321C52.4035 53.7322 52.3336 52.7092 52.0396 51.7403C51.8078 50.9975 51.5625 50.5681 51.6102 50.5409C51.9248 50.8525 52.1587 51.2361 52.2917 51.6585C52.6811 52.6531 52.7923 53.7349 52.6134 54.7878C52.4345 55.8408 51.9722 56.8252 51.2763 57.6353C51.0089 57.986 50.6605 58.2667 50.2608 58.4531Z" fill="#263238"/>
<path d="M23.2383 50.8341C23.2042 50.8341 22.918 50.5819 22.625 50.0095C22.2503 49.2576 22.0743 48.4224 22.1138 47.5833C22.138 46.7438 22.3723 45.9237 22.7953 45.1981C23.1293 44.6529 23.4428 44.4007 23.4769 44.428C23.5109 44.4552 23.286 44.7755 23.0202 45.3207C22.6787 46.0323 22.4862 46.8063 22.4546 47.595C22.4229 48.3837 22.5528 49.1705 22.8362 49.9072C22.9965 50.2041 23.1311 50.5142 23.2383 50.8341Z" fill="#263238"/>
<g opacity="0.3">
<path d="M30.8912 18.8712L30.4414 19.1847C31.575 19.6378 32.7849 19.8692 34.0056 19.8662C33.8754 22.4379 33.5978 25 33.1742 27.5399C34.251 25.0366 35.2074 22.4855 36.0434 19.8867C38.6358 20.235 41.2742 19.899 43.6966 18.9121C39.432 18.6668 35.1573 18.6531 30.8912 18.8712Z" fill="black"/>
</g>
<path d="M44.063 15.8223L30.3446 15.7409C29.445 15.7355 28.7115 16.4604 28.7062 17.36L28.7045 17.6462C28.6991 18.5457 29.424 19.2793 30.3235 19.2846L44.0419 19.366C44.9415 19.3714 45.675 18.6465 45.6804 17.7469L45.6821 17.4607C45.6874 16.5612 44.9625 15.8276 44.063 15.8223Z" fill="#FEBE04"/>
</svg>
