<svg width="118" height="122" viewBox="0 0 118 122" fill="none" xmlns="http://www.w3.org/2000/svg">
<g clip-path="url(#clip0_2254_233529)">
<path d="M94.6451 51.4193L91.9697 56.2882C91.7146 56.7796 91.3625 57.2141 90.9345 57.5654C90.5065 57.9166 90.0116 58.1772 89.4799 58.3315C88.9481 58.4857 88.3906 58.5303 87.8411 58.4626C87.2916 58.3948 86.7615 58.2162 86.2832 57.9375C85.3118 57.4015 84.5924 56.5023 84.2828 55.437C83.9731 54.3716 84.0983 53.227 84.6311 52.2538L88.9135 44.4641C88.953 44.3908 89.0291 44.4331 89.0714 44.357C89.0348 44.2414 89.0348 44.2414 89.0714 44.1653C89.628 43.2155 90.527 42.5147 91.584 42.207C92.641 41.8992 93.7757 42.0078 94.7551 42.5104C99.4746 45.1041 105.353 43.4605 107.907 38.8171C110.498 34.1005 108.696 28.3322 103.977 25.7357C102.525 24.931 100.887 24.523 99.2277 24.5527C97.5683 24.5824 95.9459 25.0488 94.5239 25.9048C94.047 26.1976 93.5165 26.3925 92.9634 26.478C92.4104 26.5634 91.8458 26.5378 91.3028 26.4027C90.7597 26.2675 90.249 26.0254 89.8005 25.6907C89.3521 25.3559 88.9748 24.9351 88.6908 24.4529C88.4113 23.9806 88.228 23.4577 88.1514 22.9142C88.0748 22.3708 88.1064 21.8176 88.2445 21.2864C88.3826 20.7552 88.6244 20.2566 88.956 19.8193C89.2876 19.382 89.7024 19.0146 90.1766 18.7382C92.8607 17.1289 95.9195 16.2506 99.0485 16.1908C102.178 16.1309 105.268 16.8916 108.011 18.3971C116.7 23.1758 119.943 34.123 115.167 42.8092C113.214 46.3446 110.126 49.1179 106.402 50.6804C102.678 52.2429 98.5356 52.5032 94.6451 51.4193ZM85.6235 67.819L84.882 69.1666C84.6269 69.6584 84.2747 70.0933 83.8465 70.4448C83.4184 70.7964 82.9233 71.0573 82.3913 71.2118C81.8593 71.3662 81.3015 71.4111 80.7517 71.3435C80.2018 71.276 79.6715 71.0974 79.1927 70.8187C78.2202 70.2808 77.5011 69.3788 77.1934 68.3109C76.8857 67.243 77.0147 66.0967 77.5519 65.1238L78.2933 63.7762C78.8398 62.8158 79.739 62.106 80.8001 61.7976C81.8613 61.4891 83.0008 61.6063 83.977 62.1241C84.4654 62.3834 84.8969 62.738 85.246 63.1668C85.5952 63.5955 85.8549 64.0899 86.01 64.6207C86.165 65.1515 86.2122 65.7079 86.1487 66.2572C86.0852 66.8066 85.9124 67.3376 85.6404 67.819H85.6235Z" fill="#EBEBEB"/>
<path d="M77.6466 15.9872L78.2104 12.2799C78.2574 11.9089 78.3793 11.5514 78.5686 11.229C78.758 10.9065 79.0109 10.6259 79.312 10.4042C79.613 10.1825 79.956 10.0242 80.3201 9.93909C80.6842 9.85394 81.0618 9.84367 81.43 9.90889C81.7973 9.96362 82.1501 10.0904 82.4683 10.2818C82.7864 10.4733 83.0636 10.7257 83.2839 11.0246C83.5042 11.3235 83.6633 11.663 83.7521 12.0236C83.8408 12.3841 83.8575 12.7587 83.8011 13.1257L82.9017 19.0462C82.9017 19.1025 82.834 19.0941 82.8256 19.1505C82.8763 19.2153 82.8763 19.2153 82.8679 19.2745C82.7352 20.0062 82.328 20.6595 81.7295 21.1008C81.131 21.5421 80.3864 21.738 79.6483 21.6484C78.7996 21.4995 77.9298 21.5218 77.0899 21.7139C76.2501 21.906 75.457 22.2641 74.7575 22.7671C74.058 23.27 73.4661 23.9078 73.0165 24.6428C72.567 25.3778 72.2689 26.1952 72.1398 27.0471C72.0107 27.8989 72.0532 28.768 72.2648 29.6032C72.4763 30.4384 72.8527 31.2229 73.3718 31.9105C73.8909 32.5982 74.5422 33.1751 75.2874 33.6075C76.0327 34.0398 76.8568 34.3188 77.7114 34.4281C78.8179 34.6023 79.9507 34.4825 80.9963 34.0807C82.0419 33.6789 82.9634 33.0092 83.6685 32.1389C83.9026 31.8423 84.1933 31.5953 84.5238 31.4123C84.8543 31.2293 85.2179 31.1139 85.5935 31.073C85.9691 31.032 86.349 31.0663 86.7112 31.1738C87.0734 31.2813 87.4105 31.4599 87.7029 31.6991C87.9892 31.9341 88.2264 32.2232 88.4009 32.5499C88.5755 32.8767 88.6839 33.2346 88.72 33.6032C88.7562 33.9719 88.7193 34.344 88.6115 34.6984C88.5038 35.0528 88.3272 35.3825 88.092 35.6686C86.8345 37.2339 85.208 38.4623 83.3584 39.2435C81.5089 40.0248 79.4942 40.3344 77.4954 40.1447C75.4966 39.9549 73.5762 39.2717 71.9067 38.1563C70.2372 37.041 68.8709 35.5284 67.9305 33.7545C66.99 31.9806 66.5049 30.0009 66.5186 27.9931C66.5323 25.9854 67.0445 24.0125 68.0092 22.2516C68.9738 20.4907 70.3607 18.997 72.0453 17.9046C73.7299 16.8122 75.6595 16.1553 77.6607 15.9929L77.6466 15.9872ZM79.5411 3.49503L79.6962 2.46881C79.7428 2.0976 79.8644 1.73975 80.0536 1.41699C80.2428 1.09423 80.4957 0.813305 80.7968 0.591284C81.0979 0.369262 81.441 0.210778 81.8053 0.12546C82.1696 0.0401429 82.5474 0.0297727 82.9158 0.0949806C83.2833 0.149694 83.6364 0.276525 83.9548 0.468181C84.2731 0.659837 84.5505 0.912536 84.7708 1.21175C84.9912 1.51096 85.1502 1.85078 85.2387 2.21166C85.3273 2.57254 85.3436 2.94737 85.2868 3.31459L85.1318 4.34081C85.0088 5.07657 84.6043 5.73556 84.0038 6.17815C83.4033 6.62074 82.6541 6.81215 81.915 6.71182C81.546 6.66067 81.191 6.53625 80.8708 6.34589C80.5506 6.15553 80.2718 5.90306 80.0506 5.60335C79.8294 5.30363 79.6704 4.96271 79.5829 4.60064C79.4954 4.23858 79.4812 3.86267 79.5411 3.49503Z" fill="#EBEBEB"/>
<path d="M12.9855 24.2468L11.3898 20.8637C11.2226 20.5292 11.1252 20.1641 11.1033 19.7908C11.0815 19.4175 11.1358 19.0436 11.2629 18.6919C11.39 18.3401 11.5872 18.0179 11.8426 17.7447C12.098 17.4716 12.4063 17.2532 12.7487 17.1028C13.0844 16.9443 13.448 16.8536 13.8188 16.836C14.1896 16.8184 14.5602 16.8742 14.9094 17.0002C15.2586 17.1262 15.5795 17.3199 15.8536 17.5702C16.1277 17.8205 16.3497 18.1225 16.5068 18.4588L19.0611 23.8916C19.0836 23.9423 19.0301 23.9677 19.0611 24.0213C19.1372 24.0466 19.1372 24.0466 19.1626 24.1002C19.4605 24.7816 19.486 25.5512 19.2338 26.2508C18.9815 26.9504 18.4707 27.5267 17.8065 27.8611C17.0193 28.2098 16.3096 28.7122 15.7192 29.3388C15.1288 29.9655 14.6695 30.7038 14.3683 31.5104C14.0671 32.3169 13.93 33.1756 13.9652 34.0358C14.0003 34.8961 14.207 35.7407 14.573 36.52C14.939 37.2993 15.457 37.9977 16.0965 38.5741C16.7361 39.1505 17.4844 39.5933 18.2974 39.8766C19.1104 40.1599 19.9719 40.2779 20.8312 40.2237C21.6904 40.1695 22.5302 39.9443 23.3013 39.5611C24.3176 39.0888 25.1915 38.3569 25.8349 37.4393C26.4783 36.5216 26.8686 35.4506 26.9663 34.3342C26.9957 33.9582 27.0996 33.5918 27.272 33.2564C27.4444 32.921 27.6819 32.6232 27.9705 32.3805C28.2592 32.1378 28.5932 31.9549 28.9533 31.8426C29.3133 31.7303 29.6921 31.6908 30.0675 31.7264C30.4366 31.7617 30.7951 31.8694 31.1225 32.0435C31.4499 32.2176 31.7397 32.4545 31.9754 32.7407C32.2111 33.027 32.388 33.3569 32.4961 33.7116C32.6041 34.0663 32.641 34.4388 32.6049 34.8078C32.4275 36.8065 31.7569 38.73 30.653 40.4056C29.5491 42.0813 28.0466 43.4567 26.2801 44.4086C24.5137 45.3605 22.5386 45.859 20.532 45.8594C18.5255 45.8598 16.5502 45.3622 14.7833 44.4111C13.0165 43.46 11.5133 42.0852 10.4087 40.4101C9.30412 38.7349 8.63261 36.8117 8.45441 34.8131C8.27622 32.8144 8.59692 30.8028 9.38775 28.9586C10.1786 27.1145 11.4148 25.4955 12.9855 24.2468ZM7.61198 12.809L7.17217 11.8702C7.00485 11.5356 6.90721 11.1706 6.88517 10.7972C6.86313 10.4237 6.91714 10.0497 7.04394 9.69782C7.17074 9.3459 7.36768 9.02339 7.62282 8.74984C7.87796 8.4763 8.18599 8.25741 8.52825 8.10645C8.86423 7.9476 9.2283 7.85674 9.59952 7.83911C9.97075 7.82148 10.3418 7.87742 10.6913 8.00371C11.0408 8.13 11.362 8.32415 11.6362 8.57499C11.9104 8.82584 12.1323 9.12842 12.2892 9.46534L12.7318 10.4042C13.0392 11.0843 13.0695 11.8574 12.8163 12.5596C12.5631 13.2617 12.0464 13.8376 11.3757 14.1651C11.0403 14.3276 10.6758 14.4214 10.3036 14.441C9.9314 14.4606 9.55904 14.4056 9.2084 14.2793C8.85776 14.153 8.5359 13.9578 8.26175 13.7053C7.9876 13.4528 7.76668 13.1481 7.61198 12.809Z" fill="#EBEBEB"/>
<path d="M74.365 91.4707C74.365 91.4707 67.5734 103.481 67.5705 103.489C66.4795 105.911 65.566 108.054 65.1967 109.207C65.1955 109.212 65.1955 109.218 65.1967 109.224C65.0805 109.484 65.0265 109.768 65.0388 110.053C65.0388 110.053 65.0388 110.069 65.0388 110.075C65.5407 110.887 84.6413 120.171 85.4166 120.27C86.1919 120.368 86.5443 118.169 86.0819 117.216C85.6196 116.263 79.9021 109.438 79.9021 109.438L86.5697 97.3827L74.365 91.4707Z" fill="#AD6359"/>
<path d="M85.1094 120.204C84.3341 120.102 65.538 110.9 65.039 110.077C65.0369 110.071 65.0369 110.064 65.039 110.057C65.0261 109.773 65.0791 109.489 65.1941 109.228C65.1941 109.228 65.1941 109.214 65.1941 109.209C65.5634 108.056 66.4768 105.913 67.5651 103.491C67.5651 103.491 68.7097 101.391 69.1664 100.672L81.3147 106.95L79.9051 109.448C79.9051 109.448 85.3237 116.215 85.7804 117.156C86.2372 118.098 85.8847 120.305 85.1094 120.204Z" fill="#EBEBEB"/>
<path d="M85.4569 119.942C84.6788 119.824 65.6458 110.018 65.1581 109.184C64.9664 108.871 66.2351 106.015 67.8646 102.606L67.9154 102.502L80.2638 108.69L80.151 108.896C80.151 108.896 85.7586 115.905 86.1984 116.88C86.6382 117.856 86.2378 120.063 85.4569 119.942Z" fill="#263238"/>
<path d="M85.6236 119.091C82.4547 117.36 69.517 110.676 66.2551 109.207C66.2269 109.193 66.2185 109.207 66.2551 109.227C69.3563 111.011 82.3504 117.589 85.6066 119.145C85.6659 119.179 85.6912 119.128 85.6236 119.091Z" fill="white"/>
<path d="M81.1687 109.464C80.0269 108.579 78.3832 107.978 76.9538 108.379C76.9003 108.395 76.9228 108.474 76.9708 108.483C78.3774 108.71 79.7554 109.089 81.0813 109.611C81.0997 109.614 81.1188 109.612 81.136 109.605C81.1533 109.597 81.1677 109.585 81.1773 109.568C81.187 109.552 81.1913 109.534 81.1897 109.515C81.1882 109.496 81.1808 109.478 81.1687 109.464Z" fill="white"/>
<path d="M81.799 110.485C80.6572 109.597 79.0136 108.996 77.5842 109.399C77.5307 109.399 77.5532 109.493 77.6011 109.501C79.0077 109.729 80.3858 110.107 81.7116 110.629C81.7296 110.632 81.748 110.63 81.7646 110.622C81.7812 110.615 81.7951 110.602 81.8046 110.587C81.814 110.571 81.8186 110.553 81.8176 110.535C81.8166 110.517 81.8101 110.499 81.799 110.485Z" fill="white"/>
<path d="M82.4238 111.502C81.2961 110.617 79.6412 110.014 78.2118 110.417C78.1555 110.434 78.1808 110.51 78.2259 110.518C79.6329 110.751 81.0109 111.134 82.3364 111.66C82.3574 111.672 82.3821 111.674 82.4051 111.668C82.4281 111.661 82.4475 111.646 82.4591 111.625C82.4707 111.604 82.4735 111.579 82.4669 111.556C82.4603 111.533 82.4448 111.514 82.4238 111.502Z" fill="white"/>
<path d="M69.9621 106.254C68.9387 104.844 66.7594 106.443 67.7857 107.847C68.8119 109.251 70.9827 107.658 69.9621 106.254Z" fill="white"/>
<path opacity="0.1" d="M80.9912 109.953L82.3614 118.498C84.084 119.344 85.2737 119.908 85.4626 119.947C86.2407 120.069 86.641 117.853 86.2069 116.883C85.8686 116.156 82.5728 111.944 80.9912 109.953Z" fill="black"/>
<path d="M86.0993 119.41C86.3812 119.714 85.7102 120.819 85.417 120.785C85.1238 120.752 64.4219 109.971 64.1089 109.709C63.796 109.446 64.5769 108.251 65.0224 108.395C65.4678 108.539 86.0993 119.41 86.0993 119.41Z" fill="#38655D"/>
<path d="M69.1401 99.5392L82.8249 106.85C82.8249 106.85 100.101 82.226 100.448 75.7586C100.925 66.8243 93.2957 38.4596 93.2957 38.4596L81.1333 38.375C81.1333 38.375 86.0812 67.5432 85.678 72.5193C85.4638 75.1243 69.1401 99.5392 69.1401 99.5392Z" fill="#00110A"/>
<path d="M84.0223 104.032C83.3175 103.524 76.8276 99.7663 71.8995 97.3643C71.8927 97.361 71.8849 97.3604 71.8778 97.3628C71.8707 97.3652 71.8648 97.3703 71.8614 97.377C71.858 97.3837 71.8575 97.3915 71.8599 97.3987C71.8622 97.4058 71.8674 97.4117 71.8741 97.4151C73.3711 98.4046 83.0553 103.711 83.997 104.085C84.0167 104.085 84.0534 104.032 84.0223 104.032Z" fill="#37474F"/>
<path d="M87.3628 66.2895C86.799 62.0211 86.1759 57.7584 85.4683 53.5097C84.7606 49.2611 84.0051 44.9814 83.1114 40.7497C83.0042 40.2309 82.8886 39.715 82.7759 39.1991C82.7725 39.1826 82.7627 39.1682 82.7487 39.1589C82.7347 39.1497 82.7176 39.1464 82.7012 39.1497C82.6847 39.1531 82.6703 39.1628 82.661 39.1769C82.6518 39.1909 82.6485 39.208 82.6518 39.2244C83.4017 43.4223 84.1714 47.6202 84.8621 51.8294C85.5529 56.0386 86.2069 60.2562 86.7708 64.4823C86.9136 65.5273 87.0527 66.5742 87.188 67.623C87.356 68.7023 87.4595 69.7905 87.4982 70.8821C87.5161 71.9244 87.3392 72.9609 86.9766 73.9382C86.5886 74.8933 86.1169 75.8122 85.567 76.6842C83.3877 80.4084 73.5202 96.6841 73.2608 97.1578C73.2439 97.1888 73.289 97.2198 73.3087 97.1888C75.6741 93.5237 83.0127 81.7927 85.2456 78.0177C86.252 76.312 87.4079 74.5838 87.735 72.5906C88.0761 70.51 87.6363 68.3447 87.3628 66.2895Z" fill="#37474F"/>
<path d="M83.8598 99.541C83.8598 99.541 83.7217 113.423 83.7217 113.432C83.795 116.087 83.9078 118.413 84.0769 119.611C84.0755 119.618 84.0755 119.625 84.0769 119.631C84.0866 119.916 84.1619 120.195 84.2968 120.446C84.2968 120.446 84.2968 120.446 84.2968 120.463C85.1031 120.976 106.341 121.007 107.079 120.759C107.818 120.511 107.172 118.379 106.349 117.72C105.526 117.06 97.398 113.415 97.398 113.415V99.541H83.8598Z" fill="#AD6359"/>
<path d="M83.7499 110.58C83.7499 110.58 83.7217 113.422 83.7217 113.431C83.795 116.087 83.9078 118.412 84.0769 119.611C84.0755 119.617 84.0755 119.624 84.0769 119.63C84.1181 119.91 84.1919 120.183 84.2968 120.445C84.2968 120.445 84.2968 120.445 84.2968 120.462C85.1031 120.975 106.341 121.006 107.079 120.758C107.818 120.51 107.172 118.379 106.349 117.719C105.526 117.059 97.398 113.414 97.398 113.414V110.516L83.7499 110.58Z" fill="#EBEBEB"/>
<path d="M107.107 120.733C106.354 120.973 84.9504 120.595 84.1469 120.062C83.8368 119.865 83.7099 116.744 83.6648 112.966V112.848L97.4793 112.938V113.172C97.4793 113.172 105.61 116.981 106.433 117.66C107.257 118.34 107.86 120.496 107.107 120.733Z" fill="#263238"/>
<path d="M106.878 119.898C103.272 119.745 88.7104 119.472 85.1356 119.596C85.1046 119.596 85.1046 119.616 85.1356 119.618C88.7076 119.847 103.272 120.002 106.881 119.957C106.954 119.957 106.954 119.9 106.878 119.898Z" fill="white"/>
<path d="M98.6279 113.234C97.2182 112.952 95.4703 113.13 94.368 114.125C94.3257 114.162 94.3821 114.224 94.4272 114.21C95.7902 113.795 97.1938 113.527 98.6138 113.412C98.6352 113.41 98.6553 113.401 98.6704 113.386C98.6856 113.37 98.6949 113.35 98.6966 113.329C98.6983 113.308 98.6923 113.286 98.6797 113.269C98.6671 113.252 98.6487 113.239 98.6279 113.234Z" fill="white"/>
<path d="M99.6375 113.868C98.2279 113.587 96.4827 113.767 95.3804 114.759C95.3381 114.799 95.3804 114.858 95.4396 114.844C96.8036 114.43 98.2081 114.163 99.629 114.049C99.6409 114.049 99.6527 114.048 99.6639 114.044C99.6751 114.04 99.6853 114.033 99.6941 114.025C99.7028 114.017 99.71 114.008 99.715 113.997C99.72 113.986 99.7229 113.975 99.7235 113.963C99.724 113.951 99.7223 113.939 99.7182 113.928C99.7142 113.917 99.708 113.907 99.7001 113.898C99.6921 113.889 99.6824 113.882 99.6717 113.877C99.661 113.872 99.6494 113.869 99.6375 113.868Z" fill="white"/>
<path d="M100.653 114.506C99.2438 114.224 97.4987 114.401 96.3963 115.397C96.3512 115.433 96.3963 115.492 96.4527 115.481C97.8177 115.066 99.2231 114.799 100.645 114.683C100.666 114.681 100.686 114.671 100.7 114.655C100.715 114.639 100.723 114.619 100.724 114.598C100.725 114.577 100.719 114.556 100.706 114.539C100.693 114.522 100.674 114.51 100.653 114.506Z" fill="white"/>
<path d="M107.449 119.97C107.83 120.125 107.731 121.408 107.449 121.507C107.167 121.605 83.8319 121.092 83.4372 120.997C83.0425 120.901 83.2145 119.48 83.6768 119.415C84.1392 119.35 107.449 119.97 107.449 119.97Z" fill="#38655D"/>
<path d="M87.1531 115.307C85.6166 114.504 84.3648 116.892 85.9042 117.698C87.4435 118.505 88.6952 116.111 87.1531 115.307Z" fill="white"/>
<path d="M93.145 38.4281V38.4422C93.0632 38.6931 88.6906 50.6751 88.2789 50.8668C87.8138 51.081 97.9406 68.0926 98.5383 75.995C98.9217 81.0471 98.1718 109.652 98.1718 109.652H83.3593C83.3593 109.652 84.0726 83.9369 84.4109 75.7892C84.5406 72.6288 74.2446 56.9 74.1177 47.103C74.0782 44.0018 76.297 38.3633 76.297 38.3633L93.145 38.4281Z" fill="#00110A"/>
<path d="M84.4965 75.5697C84.4965 75.4372 84.3922 75.3949 84.3838 75.5303C84.0483 79.9396 83.9721 84.3236 83.7607 88.7414C83.5493 93.1592 83.6705 94.208 83.4788 98.6089C83.3688 101.101 83.4788 103.599 83.4167 106.094C83.4187 106.1 83.4227 106.106 83.428 106.11C83.4333 106.114 83.4397 106.116 83.4463 106.116C83.453 106.116 83.4594 106.114 83.4647 106.11C83.47 106.106 83.474 106.1 83.476 106.094C83.9327 101.707 84.4937 78.0648 84.4965 75.5697Z" fill="#37474F"/>
<path d="M98.5333 76.1682C98.5155 75.0805 98.4156 73.9958 98.2344 72.9232C98.032 71.8795 97.726 70.8586 97.321 69.8756C96.5034 67.8118 95.5364 65.8017 94.6116 63.7831C93.6869 61.7645 92.7199 59.7064 91.7332 57.6878C91.1693 56.5601 90.6111 55.4277 90.0585 54.2906C89.4947 53.146 88.8744 52.0352 88.2796 50.8905C88.2747 50.8812 88.2663 50.8742 88.2563 50.871C88.2462 50.8678 88.2353 50.8688 88.226 50.8736C88.2166 50.8785 88.2096 50.8869 88.2064 50.8969C88.2033 50.9069 88.2042 50.9178 88.2091 50.9272C89.1564 52.9627 90.0952 55.0067 91.0284 57.045C91.9615 59.0834 92.9088 61.1273 93.8476 63.1713C94.7864 65.2153 95.683 67.1972 96.5485 69.2299C96.9793 70.1982 97.3319 71.1994 97.6029 72.224C97.8511 73.283 98.0002 74.3627 98.0483 75.4493C98.1921 77.9866 98.2626 80.524 98.5107 83.0359C98.5107 83.0698 98.5643 83.0669 98.5671 83.0359C98.6376 80.7495 98.6122 78.4518 98.5333 76.1682Z" fill="#37474F"/>
<path d="M97.0918 106.673C96.2319 106.569 89.6714 106.391 84.1851 106.673C84.1485 106.673 84.1513 106.727 84.1851 106.73C85.9754 106.873 96.0825 106.857 97.0861 106.73C97.12 106.733 97.1313 106.679 97.0918 106.673Z" fill="#37474F"/>
<path d="M90.32 50.2034C88.733 50.6018 87.184 51.1386 85.6908 51.8075C85.6795 51.8127 85.6706 51.8219 85.6656 51.8332C85.6607 51.8446 85.66 51.8574 85.6638 51.8692C85.6677 51.881 85.6757 51.891 85.6863 51.8973C85.697 51.9036 85.7096 51.9057 85.7218 51.9034C87.278 51.4156 88.8568 50.9589 90.3821 50.3894C90.4041 50.3792 90.4216 50.3613 90.4312 50.339C90.4409 50.3167 90.442 50.2917 90.4343 50.2686C90.4266 50.2456 90.4107 50.2262 90.3896 50.2142C90.3685 50.2021 90.3438 50.1983 90.32 50.2034Z" fill="#37474F"/>
<path d="M91.8153 40.0529C91.8153 40.0022 91.7251 39.9796 91.7223 40.036C91.5517 41.697 91.2976 43.3484 90.9611 44.9838C90.8145 45.7422 89.7629 49.9176 88.466 49.4721C88.2489 49.396 88.1559 49.1676 88.1559 48.8265C88.207 48.3889 88.3111 47.959 88.466 47.5465C88.7057 46.6754 88.9143 45.7958 89.0834 44.9077C89.4082 43.2551 89.5622 41.5735 89.543 39.8894C89.5405 39.8797 89.5348 39.8711 89.5269 39.8649C89.519 39.8588 89.5093 39.8555 89.4993 39.8555C89.4893 39.8555 89.4795 39.8588 89.4716 39.8649C89.4637 39.8711 89.4581 39.8797 89.4556 39.8894C89.2583 42.2072 88.886 44.5068 88.342 46.7684C88.06 47.851 87.3383 49.4552 88.4717 49.7428C89.605 50.0303 90.6735 47.3351 90.8934 46.588C91.4817 44.4586 91.7916 42.2619 91.8153 40.0529Z" fill="#37474F"/>
<path d="M88.4883 49.5911C88.3404 49.8643 88.2104 50.1468 88.0992 50.4369C87.9894 50.6592 87.9224 50.9002 87.9019 51.1473C87.9019 51.1952 87.9639 51.2037 87.9921 51.1755C88.1524 50.9726 88.2807 50.7463 88.3727 50.5045C88.5024 50.2451 88.6349 49.9858 88.7589 49.7208C88.7761 49.6849 88.7783 49.6436 88.7651 49.6061C88.7519 49.5685 88.7243 49.5378 88.6884 49.5206C88.6525 49.5034 88.6113 49.5012 88.5737 49.5144C88.5362 49.5276 88.5055 49.5552 88.4883 49.5911Z" fill="#37474F"/>
<path d="M86.0126 79.9212C86.0859 77.8152 86.3199 75.6077 85.632 73.5778C85.2544 72.585 84.803 71.6219 84.2815 70.6965C83.7647 69.7079 83.261 68.7127 82.7704 67.7109C80.7969 63.716 78.9277 59.6591 77.2615 55.5204C76.4609 53.5299 75.7448 51.486 75.4572 49.349C75.1939 47.1036 75.3343 44.8293 75.8716 42.6334C75.9957 42.0837 76.1282 41.5396 76.2776 40.9983C76.2776 40.9588 76.2297 40.9362 76.2184 40.9757C75.5159 43.0471 75.1263 45.2117 75.0625 47.398C75.0772 49.4928 75.454 51.5692 76.1761 53.5356C76.8866 55.6021 77.7746 57.6123 78.6514 59.6111C79.5536 61.6786 80.4934 63.7254 81.4707 65.7515C82.4406 67.7701 83.4724 69.7549 84.4958 71.7481C85.0202 72.6947 85.4003 73.7143 85.6235 74.7732C85.7823 75.8699 85.8229 76.9805 85.7447 78.0858C85.5699 82.7405 85.1809 98.238 85.1104 102.881C85.1104 103.47 85.1038 104.06 85.0907 104.652C85.0907 104.662 85.0948 104.672 85.1022 104.68C85.1096 104.687 85.1197 104.691 85.1301 104.691C85.1406 104.691 85.1506 104.687 85.158 104.68C85.1654 104.672 85.1696 104.662 85.1696 104.652C85.4656 100.023 85.8434 84.5617 86.0126 79.9212Z" fill="#37474F"/>
<path d="M82.692 41.4432C82.692 41.4094 82.6384 41.415 82.6356 41.4432C82.4608 42.7232 82.3537 44.0539 81.7419 45.2154C81.1781 46.2839 80.1857 46.969 79.1059 47.4511C78.4778 47.7212 77.836 47.9583 77.1831 48.1616C77.1352 48.1757 77.1465 48.249 77.1972 48.2377C78.4236 47.984 79.6669 47.6992 80.7326 47.0113C81.8603 46.2755 82.458 45.097 82.6441 43.7776C82.7402 43.0032 82.7562 42.2209 82.692 41.4432Z" fill="#37474F"/>
<path d="M87.8747 22.0591C90.0907 23.9058 96.9951 28.0727 100.234 27.8358C102.417 27.678 108.205 23.0797 109.338 21.4615C109.803 20.8017 105.109 16.1443 104.362 16.5616C103.539 17.0126 99.8172 21.5094 99.1857 21.6363C98.5542 21.7631 92.6647 20.283 89.3549 19.8488C87.3729 19.5923 86.8598 21.2105 87.8747 22.0591Z" fill="#AD6359"/>
<path d="M108.035 22.806C109.237 21.932 112.546 18.0132 113.02 17.0801C113.494 16.1469 114.683 13.415 114.018 12.978C113.353 12.541 112.938 13.3163 112.938 13.3163C112.938 13.3163 113.305 11.9659 112.544 11.6981C111.937 11.4866 111.3 12.5438 111.3 12.5438C111.3 12.5438 111.624 11.044 110.835 10.8748C110.116 10.7226 109.721 12.0392 109.721 12.0392C109.721 12.0392 109.862 10.7564 109.143 10.7423C108.275 10.7226 108.016 12.9442 107.424 13.9196C107.286 14.1424 102.583 18.236 102.583 18.236L108.035 22.806Z" fill="#AD6359"/>
<path d="M109.674 11.9903C109.319 13.634 109.124 14.305 108.112 15.5652C108.09 15.5906 108.112 15.6244 108.146 15.6018C109.251 14.4572 109.539 13.6791 109.756 11.9932C109.764 11.9142 109.691 11.9142 109.674 11.9903Z" fill="#263238"/>
<path d="M111.299 12.5484C110.955 14.24 110.541 14.9391 109.576 16.3403C109.562 16.36 109.596 16.3826 109.61 16.3657C110.673 15.0716 111.234 14.271 111.355 12.5484C111.35 12.4694 111.299 12.4723 111.299 12.5484Z" fill="#263238"/>
<path d="M112.891 13.3871C112.443 14.9885 112.045 15.823 110.943 17.0522C110.939 17.0545 110.935 17.0578 110.932 17.0618C110.93 17.0657 110.928 17.0702 110.927 17.075C110.927 17.0797 110.927 17.0845 110.929 17.089C110.93 17.0936 110.933 17.0977 110.936 17.101C110.939 17.1044 110.944 17.107 110.948 17.1085C110.953 17.11 110.957 17.1105 110.962 17.1099C110.967 17.1092 110.971 17.1075 110.975 17.1048C110.979 17.1021 110.983 17.0986 110.985 17.0945C112.24 15.9442 112.736 14.9067 112.939 13.3984C112.953 13.3025 112.919 13.2856 112.891 13.3871Z" fill="#263238"/>
<path d="M102.583 18.2369C102.583 18.2369 103.539 16.5453 103.956 15.6995C104.373 14.8538 105.216 12.37 105.997 12.2177C106.877 12.0458 106.843 14.4506 106.121 15.9335C106.121 15.9335 108.095 17.7858 107.474 19.2434C107.336 19.5591 106.065 20.7827 105.662 20.8052L102.583 18.2369Z" fill="#AD6359"/>
<path d="M106.103 16.1195C106.901 16.813 107.643 17.9915 107.479 19.0346C107.481 19.0396 107.484 19.0439 107.488 19.047C107.493 19.05 107.498 19.0517 107.503 19.0517C107.508 19.0517 107.514 19.05 107.518 19.047C107.522 19.0439 107.525 19.0396 107.527 19.0346C107.851 17.9408 107.008 16.5678 106.256 15.9898C106.112 15.8911 105.895 15.9391 106.103 16.1195Z" fill="#263238"/>
<path opacity="0.1" d="M111.12 11.0373L107.647 18.9538L106.519 21.5334L104.78 25.4973C103.04 26.7406 101.253 27.7697 100.241 27.843C97.0012 28.077 90.0911 23.896 87.8808 22.0634C86.8659 21.2177 87.379 19.5966 89.361 19.856C92.6708 20.2901 98.5574 21.7731 99.1918 21.6434C99.5949 21.5616 101.247 19.7094 102.609 18.2602L102.589 18.2433C102.589 18.2433 103.545 16.5518 103.962 15.706C104.379 14.8602 105.222 12.3764 106.003 12.2242C106.671 12.0917 106.815 13.4562 106.525 14.7615C107.032 14.3048 107.393 13.9693 107.43 13.9157C108.033 12.9403 108.275 10.7187 109.149 10.7384C109.868 10.7384 109.713 12.0353 109.713 12.0353C109.713 12.0353 110.111 10.7187 110.841 10.8709C110.949 10.8954 111.047 10.9537 111.12 11.0373Z" fill="black"/>
<path d="M96.83 28.0348L99.0854 21.4659C99.0854 21.4659 92.5024 19.8646 89.218 19.6418C86.4635 19.4529 85.708 21.3644 88.6259 23.3548C91.3916 25.2381 96.83 28.0348 96.83 28.0348Z" fill="#455A64"/>
<path d="M88.9018 19.6289L87.8079 22.7301C87.7177 22.6455 87.6303 22.5638 87.5542 22.482L88.5579 19.6627C88.6678 19.6317 88.7806 19.6289 88.9018 19.6289ZM90.4524 19.7671L89.0766 23.6577L89.3585 23.8353L90.7823 19.8122L90.4524 19.7671ZM92.2962 20.049L90.6695 24.6416L90.9514 24.8107L92.6148 20.1054L92.2962 20.049ZM94.1175 20.3845L92.2821 25.5776L92.5641 25.7383L94.4361 20.4465L94.1175 20.3845ZM95.9275 20.7538L93.9032 26.4769L94.1851 26.632L96.2404 20.8243L95.9275 20.7538ZM97.729 21.1541L95.5356 27.3565L95.8175 27.5088L98.0475 21.2246L97.729 21.1541Z" fill="#37474F"/>
<path d="M97.2907 21.6522C97.1054 22.0313 96.9425 22.4211 96.803 22.8194C96.6451 23.2254 96.5013 23.6341 96.3547 24.0429C96.2081 24.4517 95.6922 26.0982 95.5625 26.5098C95.5625 26.5295 95.5907 26.538 95.5963 26.5098C95.757 26.1067 96.3942 24.4997 96.5352 24.0993C96.6761 23.699 96.8171 23.2987 96.9468 22.8927C97.0937 22.4872 97.2152 22.0729 97.3105 21.6522C97.3105 21.6522 97.2964 21.6437 97.2907 21.6522Z" fill="#263238"/>
<path opacity="0.1" d="M97.4846 26.0994L96.8249 28.0334C96.8249 28.0334 91.3865 25.2339 88.6236 23.3506C86.0552 21.6026 86.3287 19.9167 88.2994 19.6602L97.4846 26.0994Z" fill="black"/>
<path d="M94.9107 42.8516L74.4709 41.2362C74.5499 40.8499 80.4986 23.6016 85.4097 19.9196C87.1013 18.6537 90.0277 19.9196 90.3801 20.2692C93.8196 23.5452 95.2039 42.6317 94.9107 42.8516Z" fill="#455A64"/>
<path d="M91.2178 21.4263L84.3416 20.8935C84.4375 20.7891 84.5333 20.6877 84.6236 20.5918L91.0149 21.088C91.0882 21.1979 91.153 21.3107 91.2178 21.4263ZM91.9029 22.9938L83.1942 22.32C83.1209 22.4187 83.0476 22.5202 82.9771 22.6245L92.0213 23.3237C91.9819 23.2128 91.9424 23.1038 91.9029 22.9966V22.9938ZM92.5034 24.8743L82.0411 24.0651C81.9763 24.1666 81.9142 24.271 81.8522 24.3753L92.5936 25.2041C92.5626 25.0914 92.5316 24.987 92.5034 24.8771V24.8743ZM92.9714 26.7463L81.0262 25.8216L80.857 26.1317L93.0447 27.0649C93.0222 26.9662 92.9968 26.8562 92.9743 26.7491L92.9714 26.7463ZM93.3633 28.6126L80.1127 27.5864C80.0591 27.6907 80.0056 27.7951 79.9548 27.8994L93.4366 28.9425C93.4056 28.8325 93.383 28.7226 93.3633 28.6155V28.6126ZM93.696 30.4734L79.2387 29.3457C79.188 29.4471 79.1401 29.5515 79.0921 29.6558L93.7524 30.7835C93.7326 30.6961 93.7157 30.5861 93.696 30.4762V30.4734ZM93.9779 32.3313L78.4155 31.1274L78.2774 31.4404L94.0258 32.6583C94.0174 32.5512 94.0033 32.444 93.9864 32.3341L93.9779 32.3313ZM94.2316 34.1892L77.643 32.9064C77.5979 33.0107 77.5528 33.115 77.5105 33.2193L94.2711 34.5162C94.2683 34.4091 94.2542 34.3019 94.2401 34.192L94.2316 34.1892ZM94.4544 36.0414L76.9044 34.6769C76.8593 34.7822 76.817 34.8865 76.7775 34.9898L94.4967 36.3685L94.4544 36.0414ZM94.6461 37.8937L76.1939 36.4671C76.1544 36.5715 76.1122 36.6758 76.0727 36.7773L94.6799 38.2179C94.6658 38.1136 94.6658 38.0065 94.6658 37.8965L94.6461 37.8937ZM94.804 39.7403L75.5145 38.2489C75.475 38.3561 75.4355 38.4632 75.3961 38.5647L94.8265 40.0674C94.8293 39.963 94.8209 39.8559 94.8124 39.7516L94.804 39.7403ZM94.9196 41.5841L74.8717 40.0335L74.7617 40.3493L94.9477 41.9112C94.9477 41.8125 94.9308 41.7025 94.928 41.587L94.9196 41.5841Z" fill="#37474F"/>
<path d="M89.7372 23.0542C88.6264 23.2572 86.8305 21.4866 86.1539 20.0883C86.1088 19.9924 86.3005 19.0198 86.4809 17.8329C86.5852 17.1083 86.6839 16.2964 86.7234 15.5521C86.7234 15.397 91.3442 16.9251 91.3442 16.9251C91.0301 17.8445 90.8294 18.7988 90.7465 19.7669C90.7435 19.8696 90.7491 19.9724 90.7634 20.0742C90.7634 20.0742 90.7634 20.1052 90.7634 20.1249C90.8339 20.7029 90.8085 22.854 89.7372 23.0542Z" fill="#AD6359"/>
<path d="M87.0071 15.5801C87.1621 16.8516 87.7908 19.9387 90.2859 20.1219C90.4454 20.1347 90.6057 20.1347 90.7652 20.1219C90.7667 20.1051 90.7667 20.0881 90.7652 20.0712C90.7508 19.9694 90.7451 19.8666 90.7483 19.7639C90.8288 18.7939 91.0286 17.8375 91.3431 16.9164C91.3431 16.9164 88.0136 15.8169 87.0071 15.5801Z" fill="#263238"/>
<path d="M85.587 10.5634C85.2205 12.255 86.492 16.9716 87.7578 17.9386C89.596 19.3483 92.4012 19.258 93.543 17.0928C94.651 14.9981 92.8833 8.89156 91.4877 8.03169C89.4325 6.76583 86.1283 8.05706 85.587 10.5634Z" fill="#AD6359"/>
<path d="M86.317 15.506C87.27 15.2973 87.7267 14.1583 87.5378 12.3061C87.3489 10.4538 87.5378 9.7208 88.361 9.31483C89.1842 8.90885 90.3119 9.56292 90.7771 9.46707C91.2423 9.37121 90.9886 8.62128 91.372 8.55362C91.5609 8.51697 92.1896 8.98497 92.8549 10.2057C92.8549 10.2057 92.2657 6.70981 88.5217 7.56969C85.0399 8.38446 85.2147 11.277 85.3613 12.1228C85.5974 13.2722 85.9168 14.4029 86.317 15.506Z" fill="#263238"/>
<path d="M87.4303 14.4169C87.4303 14.4169 86.1898 12.9847 85.5301 13.4415C84.8704 13.8982 85.9135 16.0521 86.7677 16.2607C86.8752 16.2959 86.9887 16.3092 87.1014 16.2998C87.2141 16.2903 87.3238 16.2584 87.424 16.2058C87.5241 16.1532 87.6127 16.0811 87.6845 15.9937C87.7563 15.9063 87.8098 15.8053 87.8419 15.6969L87.4303 14.4169Z" fill="#AD6359"/>
<path d="M85.8423 14.0528C85.8423 14.0528 85.8423 14.0697 85.8423 14.0753C86.4428 14.2473 86.8008 14.752 87.0715 15.2848C87.032 15.2304 86.9813 15.1852 86.9227 15.1523C86.8641 15.1195 86.799 15.0997 86.7321 15.0943C86.6651 15.0889 86.5977 15.0982 86.5347 15.1213C86.4716 15.1445 86.4143 15.181 86.3667 15.2284C86.3526 15.2284 86.3667 15.2623 86.3864 15.2594C86.4839 15.216 86.5925 15.2041 86.6971 15.2253C86.8017 15.2465 86.8971 15.2999 86.97 15.3779C87.0913 15.5098 87.1981 15.6544 87.2886 15.8092C87.3224 15.8571 87.4126 15.8092 87.3873 15.7641C87.3337 15.0142 86.6401 14.0443 85.8423 14.0528Z" fill="#263238"/>
<path d="M92.46 12.6074C92.46 12.6074 92.4882 12.6074 92.491 12.63C92.5643 12.9486 92.7024 13.3038 93.0182 13.3348V13.3517C92.6573 13.3968 92.4769 12.9232 92.46 12.6074Z" fill="#263238"/>
<path d="M92.654 12.2037C93.1559 12.0289 93.466 13.0494 93.0008 13.2045C92.5356 13.3596 92.234 12.3474 92.654 12.2037Z" fill="#263238"/>
<path d="M89.9568 12.9121C90.1014 12.9206 90.2463 12.9206 90.3909 12.9121C90.5451 12.931 90.7011 12.8973 90.8336 12.8163C90.8738 12.7827 90.901 12.7361 90.9103 12.6845C90.9195 12.633 90.9104 12.5798 90.8843 12.5343C90.8259 12.4543 90.7475 12.3911 90.657 12.351C90.5664 12.3109 90.4669 12.2954 90.3684 12.306C90.1638 12.2986 89.9634 12.3657 89.8045 12.4949C89.7691 12.5269 89.7441 12.5687 89.7326 12.615C89.7211 12.6613 89.7238 12.71 89.7401 12.7548C89.7565 12.7996 89.7858 12.8385 89.8244 12.8665C89.863 12.8946 89.9091 12.9104 89.9568 12.9121Z" fill="#263238"/>
<path d="M92.7565 11.4067C92.6071 11.4067 92.4746 11.3757 92.3223 11.3588C92.1679 11.3631 92.0163 11.3165 91.891 11.2262C91.8552 11.1892 91.8332 11.1411 91.8285 11.0898C91.8239 11.0385 91.837 10.9872 91.8656 10.9443C91.9325 10.8693 92.0182 10.8136 92.1139 10.7829C92.2095 10.7521 92.3117 10.7475 92.4097 10.7695C92.6122 10.7795 92.804 10.8638 92.9482 11.0063C92.9802 11.0416 93.001 11.0856 93.0079 11.1328C93.0148 11.1799 93.0075 11.228 92.9869 11.271C92.9664 11.3139 92.9335 11.3498 92.8924 11.374C92.8514 11.3981 92.804 11.4095 92.7565 11.4067Z" fill="#263238"/>
<path d="M89.8921 13.3146C90.0481 13.211 90.2321 13.1579 90.4193 13.1624C90.517 13.1691 90.6126 13.194 90.7012 13.2357C90.7984 13.2834 90.884 13.3517 90.9521 13.4358L91.0762 13.5909L90.8901 13.605C90.7581 13.6167 90.6277 13.6422 90.5011 13.6811C90.3698 13.7201 90.2512 13.793 90.1571 13.8926C90.1988 13.7401 90.2991 13.6104 90.4362 13.5317C90.5684 13.4548 90.7154 13.4067 90.8676 13.3907L90.8055 13.5627C90.7007 13.4419 90.5572 13.3612 90.3996 13.3343C90.232 13.3056 90.0614 13.2989 89.8921 13.3146Z" fill="#263238"/>
<path d="M90.5854 13.9916C90.7146 13.9286 90.835 13.849 90.9435 13.7548C90.966 13.7294 91.0591 13.6222 91.0478 13.5997C91.0164 13.5294 90.9766 13.4632 90.9294 13.4023C90.9934 13.4526 91.047 13.5149 91.0873 13.5856C91.0908 13.6278 91.0848 13.6702 91.0696 13.7097C91.0545 13.7493 91.0307 13.7849 90.9999 13.814C90.8818 13.9119 90.7378 13.9736 90.5854 13.9916Z" fill="#263238"/>
<path d="M91.3528 15.5698C91.7248 15.338 92.1457 15.1961 92.582 15.1554C92.6187 15.1554 92.6328 15.0595 92.6271 15.0229L92.4101 14.3547C92.5087 14.3744 93.0162 14.4534 92.9739 14.3265C92.6429 13.2443 92.2027 12.1986 91.6601 11.2056C91.6564 11.1987 91.6502 11.1935 91.6428 11.1911C91.6354 11.1886 91.6273 11.189 91.6202 11.1922C91.6131 11.1954 91.6075 11.2012 91.6044 11.2083C91.6014 11.2155 91.6011 11.2236 91.6038 11.2309C91.9054 12.2318 92.379 13.1734 92.6976 14.1771C92.5162 14.1521 92.3321 14.1521 92.1507 14.1771C92.1169 14.1968 92.4044 14.8706 92.4326 14.9834C92.0102 14.9845 91.6052 15.1516 91.3049 15.4486C91.1978 15.5585 91.1809 15.6995 91.3528 15.5698Z" fill="#263238"/>
<path d="M91.9401 15.0742C91.9401 15.0742 92.0275 15.7142 91.7287 15.9454C91.4299 16.1766 91.0098 15.827 91.3171 15.4041C91.4902 15.2386 91.7059 15.1244 91.9401 15.0742Z" fill="#263238"/>
<path d="M91.9412 15.4536C91.9371 15.639 91.8601 15.8152 91.727 15.9442C91.6958 15.9756 91.6581 16 91.6166 16.0155C91.5752 16.031 91.5308 16.0374 91.4866 16.0342C91.4424 16.031 91.3995 16.0182 91.3607 15.9969C91.3219 15.9755 91.2881 15.946 91.2618 15.9104C91.2601 15.9058 91.2601 15.9008 91.2618 15.8963C91.5212 15.4734 91.7693 15.4142 91.9412 15.4536Z" fill="#FF99BA"/>
<path d="M103.039 14.9447L92.4866 14.1835L92.5373 11.7786L103.112 11.4629L103.039 14.9447Z" fill="#37474F"/>
<path d="M108.936 16.0469L98.3887 14.9812L98.4676 11.2288L109.051 10.6113L108.936 16.0469Z" fill="#455A64"/>
<path d="M113.94 17.4176L105.948 16.0136L106.063 10.5188L114.11 9.45312L113.94 17.4176Z" fill="#37474F"/>
<path d="M114.568 13.4461C114.526 15.4563 114.25 17.0774 113.948 17.0717C113.646 17.0661 113.438 15.4337 113.48 13.4236C113.522 11.4134 113.799 9.79236 114.1 9.80081C114.402 9.80927 114.611 11.4388 114.568 13.4461Z" fill="#FEBE04"/>
<path d="M85.1693 24.0452C88.2931 27.9217 96.8637 34.5695 98.9302 33.9126C102.747 32.706 105.025 22.2493 105.665 20.2335C105.947 19.3877 98.4396 18.1642 98.1267 19.0776C97.8448 19.8726 97.061 25.4012 96.3534 25.545C96.0714 25.607 92.0624 23.5715 87.4529 22.1252C83.9204 21.0088 84.2474 22.8977 85.1693 24.0452Z" fill="#AD6359"/>
<path d="M97.7666 20.7771C97.7666 20.7771 98.0232 19.9313 98.0203 17.7605C98.0203 16.0689 99.1875 12.0909 103.566 10.2415C105.257 9.53385 106.475 10.4022 104.863 11.4481C103.735 12.184 102.875 12.5984 102.573 12.9424C102.573 12.9424 104.634 13.1425 105.232 14.1828C105.753 15.0893 106.21 16.0314 106.599 17.0021C106.437 17.1141 106.267 17.2157 106.092 17.3066C106.289 17.7392 106.361 18.2187 106.3 18.6903C106.238 19.1618 106.045 19.6065 105.742 19.9736L105.238 21.7554L97.7666 20.7771Z" fill="#AD6359"/>
<path d="M98.47 16.3134C99.0338 15.6283 100.257 14.2018 101.664 13.3813C103.226 12.4707 106.48 11.1259 107.139 12.2959C107.624 13.1417 106.426 13.7648 106.426 13.7648C106.426 13.7648 107.889 13.4969 108.157 14.3596C108.402 15.149 107.449 15.5719 107.449 15.5719C107.449 15.5719 108.363 15.5719 108.453 16.3641C108.563 17.3312 106.629 17.193 105.89 18.27C105.727 18.5096 98.47 16.3134 98.47 16.3134Z" fill="#AD6359"/>
<path d="M102.353 15.1904C103.522 14.3073 104.933 13.8026 106.396 13.7441C106.433 13.7441 106.453 13.7723 106.419 13.7808C105.014 14.0893 103.651 14.5674 102.362 15.2045L102.353 15.1904Z" fill="#263238"/>
<path d="M103.317 16.7397C103.915 16.3169 105.781 15.4795 107.439 15.5359C107.475 15.5359 107.495 15.5669 107.461 15.5726C106.042 15.8086 104.655 16.2049 103.325 16.7538L103.317 16.7397Z" fill="#263238"/>
<path d="M92.7872 31.3704L96.19 25.3174C96.19 25.3174 90.0102 22.5489 86.83 21.7313C84.1573 21.0434 83.0635 22.7857 85.5726 25.2751C87.9493 27.6292 92.7872 31.3704 92.7872 31.3704Z" fill="#455A64"/>
<path d="M86.5737 21.6727L84.9639 24.5991C84.8887 24.5087 84.8182 24.4146 84.7524 24.3172L86.2382 21.6191C86.3453 21.6304 86.4581 21.6473 86.5737 21.6727Z" fill="#37474F"/>
<path d="M88.3751 22.1952L86.3001 25.9674L86.0576 25.7419L88.0649 22.0938L88.3751 22.1952Z" fill="#37474F"/>
<path d="M90.1222 22.8159L87.7005 27.2196L87.4524 27.0025L89.8178 22.7031L90.1222 22.8159Z" fill="#37474F"/>
<path d="M91.8451 23.4856L89.1273 28.4278L88.8735 28.2192L91.5434 23.3672L91.8451 23.4856Z" fill="#37474F"/>
<path d="M93.5517 24.1809L90.5689 29.6024C90.4843 29.5347 90.3998 29.467 90.3152 29.3937L93.2529 24.0371L93.5517 24.1809Z" fill="#37474F"/>
<path d="M95.2465 24.9031L92.0184 30.7672L91.7646 30.5671L94.9476 24.7734L95.2465 24.9031Z" fill="#37474F"/>
<path d="M94.4029 25.1814C94.152 25.5204 93.9204 25.8734 93.7094 26.2386C93.4782 26.608 93.2639 26.9829 93.0468 27.3664C92.8298 27.7498 92.0206 29.2694 91.8176 29.6528C91.8176 29.6697 91.8402 29.681 91.8515 29.6669C92.0826 29.2976 92.9989 27.8344 93.2104 27.465C93.4218 27.0957 93.6361 26.7292 93.8362 26.3542C94.0548 25.9815 94.2497 25.5955 94.4198 25.1983C94.4198 25.1983 94.4085 25.173 94.4029 25.1814Z" fill="#263238"/>
<path d="M86.4583 26.1109C88.0483 27.295 89.723 28.7215 91.251 30.0128C91.7698 30.461 92.2885 30.9093 92.8214 31.335H92.7622C92.8862 31.1546 93.0102 30.9713 93.1399 30.7937C93.0356 31.0051 92.9257 31.211 92.8157 31.4196L92.7734 31.3942C90.487 29.8718 88.4346 28.0111 86.4695 26.0996L86.4583 26.1109Z" fill="#263238"/>
<path d="M86.6189 26.5488C87.0275 26.6635 87.3996 26.8821 87.6987 27.1832C87.4837 27.1611 87.276 27.0931 87.0897 26.9836C86.9034 26.8741 86.7428 26.7259 86.6189 26.5488Z" fill="#263238"/>
<path d="M41.187 36.5312C41.1916 36.6732 41.1595 36.8139 41.0938 36.9398C41.0281 37.0658 40.9311 37.1726 40.812 37.2501C40.6185 37.3826 40.416 37.5013 40.2059 37.6054C40.2651 36.799 40.2313 35.9617 40.2059 35.1639C40.1862 34.225 40.11 33.306 40.0142 32.3784H39.9944C40.0311 33.3201 40.0367 34.2645 40.0508 35.1977C40.0508 36.0209 40.0142 36.8526 40.0311 37.6787C39.8168 37.7773 39.5969 37.8647 39.377 37.9437C39.3921 37.6561 39.4033 37.3685 39.4109 37.081C39.439 36.2155 39.4109 35.3584 39.3855 34.4957C39.3855 34.4731 39.3601 34.4731 39.3601 34.4957C39.3601 35.3415 39.2981 36.1873 39.2643 37.033C39.2502 37.3573 39.2332 37.6815 39.2163 38.0057C39.0641 38.0564 38.9118 38.1015 38.7624 38.1438C38.6637 38.1749 38.5651 38.2002 38.4636 38.2256C38.4636 37.6617 38.4636 37.0979 38.4636 36.534C38.4636 35.6347 38.41 34.7382 38.3959 33.8388C38.3959 33.8362 38.3954 33.8336 38.3944 33.8313C38.3934 33.8289 38.392 33.8267 38.3901 33.8248C38.3883 33.823 38.3861 33.8216 38.3837 33.8206C38.3813 33.8196 38.3788 33.8191 38.3762 33.8191C38.3736 33.8191 38.371 33.8196 38.3686 33.8206C38.3662 33.8216 38.3641 33.823 38.3622 33.8248C38.3604 33.8267 38.3589 33.8289 38.3579 33.8313C38.357 33.8336 38.3564 33.8362 38.3564 33.8388C38.3564 34.7325 38.3226 35.6319 38.3113 36.5284C38.3113 37.1063 38.2775 37.6956 38.2747 38.2792C36.9426 38.5696 35.567 38.6003 34.2234 38.3694C33.443 38.2373 32.6732 38.0489 31.92 37.8055C31.7368 37.7463 31.2716 37.5856 30.8121 37.4165C30.8121 37.1345 30.8121 36.8723 30.8121 36.6102C30.829 36.0125 30.8121 35.4063 30.8431 34.8115C30.8431 34.7917 30.8233 34.7917 30.8233 34.8115C30.7754 35.412 30.6965 36.0068 30.6626 36.6073C30.6626 36.8498 30.6344 37.0979 30.6232 37.3516L30.1608 37.174C30.2538 36.0463 30.2285 34.8932 30.2595 33.7683C30.2595 33.7401 30.2285 33.7401 30.2256 33.7683C30.1495 34.8735 30.0114 35.9927 29.986 37.1063C29.8806 37.0681 29.7795 37.019 29.6843 36.9597C29.4616 36.7455 29.7661 32.2797 29.814 31.2394C29.9071 29.2941 30.4089 25.3556 30.8882 23.4836C31.2998 21.8794 32.1484 19.5874 36.1405 19.6578C39.0697 19.7086 40.4343 22.759 40.6739 24.5465C40.8177 25.4655 41.1955 36.0209 41.187 36.5312Z" fill="#263238"/>
<path d="M32.6418 35.3202C31.5507 41.9427 31.1927 48.7795 31.9257 50.0961C33.0534 52.14 41.359 57.0851 44.2121 58.1197C45.1453 58.458 47.942 52.2979 47.3838 51.3929C46.8256 50.4879 37.7165 45.8615 37.2767 45.3907C37.0455 45.1313 36.2054 39.521 35.4103 35.6896C34.6688 32.1175 32.9745 33.3101 32.6418 35.3202Z" fill="#D2A37D"/>
<path d="M40.9992 56.9515L44.6389 49.2097C44.6389 49.2097 38.2786 45.5588 37.5456 45.0485C37.2326 44.8314 36.1585 37.8904 35.5467 34.8681C35.1407 32.8946 33.4069 31.7443 32.344 35.5137C31.7238 37.724 30.3198 48.567 31.5913 50.5151C32.6034 52.0629 40.9992 56.9515 40.9992 56.9515Z" fill="#38655D"/>
<path d="M39.2506 55.4125C39.4253 54.8176 40.5333 52.5171 40.8181 51.9476C41.1028 51.3781 42.3095 49.1283 42.6027 48.5447C42.6196 48.5137 42.6703 48.5278 42.6534 48.5588C42.3715 49.1424 41.3368 51.488 41.0605 52.0604C40.7842 52.6327 39.6509 54.9163 39.2816 55.4266C39.2806 55.4286 39.2793 55.4304 39.2777 55.432C39.276 55.4335 39.2741 55.4347 39.272 55.4355C39.2699 55.4363 39.2677 55.4366 39.2655 55.4365C39.2632 55.4365 39.261 55.436 39.259 55.435C39.257 55.4341 39.2551 55.4328 39.2536 55.4312C39.2521 55.4295 39.2509 55.4276 39.2501 55.4255C39.2493 55.4234 39.249 55.4212 39.249 55.4189C39.2491 55.4167 39.2496 55.4145 39.2506 55.4125Z" fill="#263238"/>
<path opacity="0.1" d="M32.5419 34.8957C32.5109 34.9859 32.477 35.0818 32.446 35.1776C32.415 35.2735 32.3784 35.3947 32.3474 35.5047C32.2402 35.8853 32.1077 36.5196 31.9724 37.3203C31.947 37.4669 31.9216 37.6022 31.8991 37.7742C31.8822 37.8672 31.8681 37.9659 31.854 38.0561C31.8202 38.2647 31.7891 38.479 31.7581 38.6989L31.7412 38.8173C31.7074 39.057 31.6707 39.3079 31.6397 39.5616C31.6143 39.7477 31.589 39.9337 31.5664 40.1255C31.5439 40.3172 31.5185 40.5032 31.4988 40.6893C31.4988 40.7852 31.4762 40.881 31.4649 40.9712C31.3437 42.0482 31.2394 43.1816 31.1689 44.2783C31.1492 44.5743 31.1323 44.8703 31.121 45.1635C31.121 45.358 31.1041 45.5526 31.0984 45.7274C31.0928 45.9022 31.0843 46.1051 31.0815 46.2912C31.0449 48.2252 31.1774 49.821 31.5918 50.4609C32.2741 51.5097 36.3451 54.0865 38.9022 55.6399L34.693 33.1985C34.6586 33.1713 34.6229 33.1459 34.5859 33.1224C34.4765 33.0489 34.3515 33.0019 34.2208 32.9853C34.0902 32.9686 33.9574 32.9828 33.8331 33.0265C33.7132 33.0716 33.6017 33.1364 33.5033 33.2182C33.4254 33.2848 33.3528 33.3574 33.2862 33.4353C33.2068 33.5237 33.1342 33.6179 33.0691 33.7172C32.8461 34.0872 32.6691 34.4829 32.5419 34.8957Z" fill="#020100"/>
<path d="M59.1409 121.417C58.4164 121.654 37.7144 121.471 36.9165 120.966C36.6177 120.775 36.4683 117.758 36.3922 114.104C36.3752 113.318 34.8105 100.605 34.8105 100.605L48.6588 100.687L49.7584 114.18C49.7584 114.18 57.6523 117.797 58.4586 118.446C59.265 119.094 59.8796 121.183 59.1409 121.417Z" fill="#D2A37D"/>
<path d="M59.1414 121.417C58.4169 121.653 37.7149 121.47 36.9171 120.965C36.6915 120.819 36.5506 119.054 36.4575 116.612C39.1387 117.227 54.1992 118.465 55.9303 118.256C57.6021 118.056 53.7256 116.063 53.0264 115.719C55.2988 116.793 57.9968 118.093 58.4507 118.459C59.257 119.093 59.8801 121.183 59.1414 121.417Z" fill="#263238"/>
<path d="M20.3996 44.5781C20.3996 44.5781 16.7768 49.8361 18.77 55.5395C22.1701 65.297 30.8084 76.2753 31.0734 77.5298C31.6993 80.4901 35.0204 110.828 35.0204 110.828L50.4954 110.735C50.4954 110.735 47.958 85.0009 45.322 76.5036C43.887 71.8631 35.6942 59.1425 32.1588 52.9345C31.8402 52.3706 32.5873 49.9827 32.5873 49.9827L20.3996 44.5781Z" fill="#37474F"/>
<path d="M48.9566 108.026C46.5545 107.978 39.2808 107.778 36.0781 108.026C36.0527 108.026 36.0527 108.068 36.0781 108.071C37.1776 108.243 46.5545 108.127 48.9566 108.071C48.9611 108.076 48.9671 108.08 48.9738 108.081C48.9805 108.083 48.9875 108.083 48.9939 108.08C49.0003 108.078 49.0058 108.073 49.0097 108.068C49.0135 108.062 49.0156 108.055 49.0156 108.049C49.0156 108.042 49.0135 108.035 49.0097 108.029C49.0058 108.024 49.0003 108.019 48.9939 108.017C48.9875 108.015 48.9805 108.014 48.9738 108.016C48.9671 108.017 48.9611 108.021 48.9566 108.026Z" fill="#263238"/>
<path d="M17.8213 51.7556C18.8532 53.4218 19.9471 55.0542 21.0043 56.7035C22.0615 58.3528 23.1131 60.0105 24.1534 61.6739C26.2303 65.0006 28.2583 68.3546 30.2374 71.7359C31.1982 73.2956 32.0172 74.9383 32.6845 76.6442C33.2928 78.3551 33.7439 80.1179 34.0322 81.9106C34.3366 83.7122 34.5312 85.5278 34.7116 87.3434C34.8996 89.2755 35.0875 91.2077 35.2755 93.1398L36.4511 105.003C36.499 105.488 36.547 105.973 36.5892 106.458C36.5892 106.531 36.468 106.543 36.4596 106.472C36.0169 102.542 35.6561 98.6008 35.2586 94.665C35.0593 92.7066 34.8601 90.7481 34.6609 88.7897C34.4776 86.9684 34.3028 85.1443 34.0434 83.3315C33.8037 81.5453 33.4314 79.7793 32.9298 78.0482C32.3708 76.255 31.6143 74.5293 30.6744 72.903C28.777 69.534 26.7641 66.2214 24.7539 62.9172C22.7438 59.613 20.6772 56.2637 18.5515 52.9877C18.2893 52.5845 18.0243 52.1813 17.7508 51.7838C17.748 51.7528 17.8016 51.7246 17.8213 51.7556Z" fill="#263238"/>
<path d="M21.4344 121.511C20.6704 121.455 1.07357 113.234 0.535084 112.47C0.511679 112.424 0.501884 112.373 0.506891 112.323C0.506891 111.646 9.88945 94.6348 9.88945 94.6348L22.7002 99.9096L15.4434 111.285C15.4434 111.285 21.409 117.606 21.908 118.506C22.407 119.405 22.1928 121.573 21.4344 121.511Z" fill="#D2A37D"/>
<path d="M21.9024 118.506C22.3986 119.405 22.1843 121.573 21.4344 121.52C20.6845 121.466 1.06512 113.24 0.532278 112.49C0.510845 112.444 0.502082 112.393 0.506904 112.343C0.506904 112.12 1.51339 110.158 2.86382 107.615C5.64081 102.371 9.88946 94.6465 9.88946 94.6465L22.7003 99.9214L15.4434 111.286C15.4434 111.286 17.0899 113.031 18.7223 114.816C20.2024 116.437 21.6656 118.077 21.9024 118.506Z" fill="#D2A37D"/>
<path d="M21.4344 121.512C20.6732 121.455 1.07358 113.231 0.532278 112.47C0.510845 112.425 0.502082 112.374 0.506904 112.324C0.506904 112.101 1.51339 110.139 2.86382 107.596C6.24695 111.154 19.5962 117.641 20.0332 117.463C20.4702 117.286 18.835 114.979 18.7223 114.816C20.2024 116.431 21.6656 118.072 21.9024 118.501C22.3986 119.406 22.2097 121.574 21.4344 121.512Z" fill="#263238"/>
<path d="M17.3266 109.505L4.03931 103.207C4.03931 103.207 21.1777 77.4582 21.3356 75.5045C21.4737 73.7734 13.8109 58.6057 13.5544 54.2077C13.2724 49.4628 15.6068 45.8231 18.1442 43.5762L32.5958 49.99C32.5958 49.99 31.3327 52.5697 28.8433 53.937C28.8433 53.937 36.2524 71.4532 35.7534 76.8042C35.2543 82.1552 17.3266 109.505 17.3266 109.505Z" fill="#37474F"/>
<path d="M18.0643 106.456C16.2205 105.514 16.7646 105.754 14.9095 104.835C14.0045 104.387 8.03893 101.438 7.11139 101.17C7.09165 101.17 7.07474 101.201 7.09165 101.212C7.86977 101.776 13.8889 104.612 14.8052 105.044C16.6772 105.92 16.15 105.647 18.0361 106.504C18.0699 106.529 18.0981 106.473 18.0643 106.456Z" fill="#263238"/>
<path d="M30.9959 54.0788C29.4103 54.1925 27.8371 54.4406 26.2934 54.8203C26.2871 54.8214 26.2811 54.8237 26.2757 54.8271C26.2703 54.8306 26.2656 54.835 26.262 54.8403C26.2583 54.8455 26.2557 54.8514 26.2543 54.8577C26.2529 54.8639 26.2528 54.8703 26.2539 54.8766C26.255 54.8829 26.2574 54.889 26.2608 54.8943C26.2642 54.8997 26.2687 54.9044 26.2739 54.9081C26.2792 54.9117 26.2851 54.9143 26.2913 54.9157C26.2976 54.9171 26.304 54.9172 26.3103 54.9161C27.8806 54.7159 29.4707 54.5468 31.0269 54.262C31.0503 54.2569 31.0708 54.243 31.0842 54.2232C31.0975 54.2034 31.1028 54.1792 31.0988 54.1556C31.0948 54.1321 31.0819 54.1109 31.0627 54.0966C31.0436 54.0823 31.0197 54.0759 30.9959 54.0788Z" fill="#263238"/>
<path d="M29.3506 53.1999C29.1668 53.4305 28.9991 53.6735 28.8488 53.9273C28.7099 54.1154 28.6093 54.329 28.5527 54.556C28.5527 54.6011 28.6035 54.6208 28.6345 54.5982C28.8187 54.4356 28.9766 54.2454 29.1025 54.0344C29.2632 53.8117 29.4323 53.5918 29.5902 53.3662C29.6945 53.214 29.4634 53.0589 29.3506 53.1999Z" fill="#263238"/>
<path d="M32.4655 49.0131C32.4655 48.9877 32.4232 48.9652 32.4119 48.9905C32.1186 49.7769 31.7788 50.5451 31.3942 51.2911C31.2194 51.6407 30.1227 53.5183 29.4207 53.1067C29.3023 53.039 29.2769 52.9122 29.3164 52.7486C29.3974 52.54 29.5086 52.3444 29.6462 52.1679C29.8858 51.7788 30.1114 51.3813 30.3116 50.9753C30.6892 50.2195 30.9733 49.4204 31.1573 48.5958C31.1573 48.5705 31.1179 48.5564 31.1066 48.5817C30.72 49.6859 30.235 50.753 29.6575 51.7703C29.3756 52.2553 28.761 52.9291 29.3756 53.2392C29.9902 53.5493 30.9318 52.3934 31.1489 52.0607C31.742 51.1187 32.1861 50.0907 32.4655 49.0131Z" fill="#263238"/>
<path d="M29.0695 54.5084C29.5826 55.6361 30.0337 56.7638 30.5158 57.8774C30.9978 58.9911 31.4236 60.0849 31.8464 61.1986C32.6922 63.454 33.4732 65.7404 34.1413 68.055C34.4721 69.1997 34.7747 70.3528 35.0491 71.5143C35.3475 72.6749 35.5623 73.8555 35.6919 75.0468C35.805 76.2344 35.6892 77.4326 35.3508 78.5766C34.9984 79.7466 33.0193 83.6513 32.478 84.7452C32.1453 85.4133 32.0353 85.309 32.196 84.9848C32.6528 84.0291 35.3705 78.2411 35.317 75.794C35.2608 74.615 35.0908 73.4443 34.8095 72.2981C34.553 71.1224 34.2598 69.9581 33.9384 68.7993C33.3068 66.5157 32.5484 64.2885 31.7703 62.0331C31.3333 60.7813 30.8625 59.5408 30.4199 58.2891C29.9773 57.0373 29.5093 55.8955 29.0103 54.5197C29.0106 54.5127 29.0133 54.5061 29.0178 54.5009C29.0224 54.4956 29.0286 54.4921 29.0354 54.4908C29.0423 54.4895 29.0493 54.4905 29.0555 54.4937C29.0617 54.4969 29.0666 54.5021 29.0695 54.5084Z" fill="#263238"/>
<path d="M18.1727 50.6745C18.4321 50.5814 18.7901 50.7449 19.0523 50.7929C19.3888 50.8526 19.7287 50.8912 20.0701 50.9085C20.4085 50.9221 20.7475 50.9146 21.085 50.8859C21.4236 50.8792 21.7563 50.7953 22.0576 50.6406C22.5516 50.2896 22.9761 49.8499 23.3094 49.3438C23.7106 48.8253 24.0423 48.2566 24.2961 47.6522C24.2961 47.6155 24.361 47.6522 24.3497 47.6776C24.2369 48.0215 24.1524 48.3683 24.0086 48.7066C23.8711 49.0215 23.709 49.3251 23.5237 49.6144C23.1825 50.1557 22.7963 50.7421 22.2212 51.0551C21.646 51.368 20.8482 51.3567 20.1828 51.3116C19.7977 51.2847 19.4151 51.2291 19.0382 51.1453C18.7563 51.0833 18.3052 51.0353 18.136 50.7929C18.1302 50.7828 18.1266 50.7716 18.1253 50.7601C18.124 50.7485 18.1251 50.7368 18.1285 50.7257C18.132 50.7146 18.1377 50.7043 18.1453 50.6955C18.1529 50.6867 18.1622 50.6795 18.1727 50.6745Z" fill="#263238"/>
<path d="M8.01117 100.816C10.4245 97.2616 12.7945 93.6774 15.1214 90.0631C17.4482 86.4488 19.7431 82.8034 22.0061 79.1271C22.5474 78.2475 23.1704 77.3735 23.5228 76.398C23.9091 75.338 23.7117 74.3061 23.3875 73.2602C22.7798 71.3484 22.0644 69.4724 21.2449 67.6414C20.4357 65.7976 19.5533 63.9763 18.7075 62.1663C17.8617 60.3564 16.9483 58.552 16.3111 56.6603C15.6993 54.8531 15.4823 52.9811 15.9897 51.1204C16.4972 49.2597 17.5572 47.6245 18.6652 46.0852L19.5477 44.8701C19.5702 44.8391 19.6153 44.8701 19.5928 44.9095C18.3748 46.5137 17.1851 48.2109 16.4577 50.1026C16.0868 51.0355 15.8734 52.0235 15.8262 53.0262C15.8085 54.0437 15.9541 55.0574 16.2576 56.0288C16.8214 57.9205 17.7151 59.7164 18.5524 61.4982C19.3898 63.2799 20.2835 65.1294 21.1067 66.9647C21.949 68.8039 22.6944 70.686 23.3396 72.6033C23.6215 73.4491 23.9316 74.3541 23.9034 75.2703C23.8696 76.2712 23.379 77.1649 22.8744 78.005C20.6725 81.6532 18.3917 85.2534 16.0828 88.8339C13.7738 92.4144 11.4028 95.9948 9.00356 99.5471L8.09293 100.886C8.05346 100.931 7.97452 100.872 8.01117 100.816Z" fill="#263238"/>
<path d="M32.5966 49.9905L33.8146 43.8444C33.8146 43.8444 35.9685 43.0832 35.9431 40.2893C35.929 39.0037 35.3229 33.977 33.8709 31.9922C32.5121 30.1287 30.3271 30.5826 29.0133 31.231C26.4393 32.4968 22.7827 36.0548 18.145 43.5766L32.5966 49.9905Z" fill="#38655D"/>
<path d="M30.2957 41.7408C30.8942 41.9746 31.4676 42.2683 32.007 42.6176C32.2748 42.8008 32.5342 42.9982 32.7907 43.2068C32.9176 43.3111 33.0501 43.4098 33.1798 43.5057C33.3114 43.6095 33.459 43.6914 33.6168 43.7481C33.6168 43.7481 33.6168 43.782 33.6168 43.7791C33.4651 43.7504 33.3161 43.7089 33.1713 43.6551C33.0311 43.5937 32.8971 43.5191 32.771 43.4324C32.4891 43.2519 32.2297 43.0518 31.9562 42.8685C31.4065 42.4964 30.8567 42.1242 30.2788 41.8113C30.2449 41.7972 30.2703 41.7239 30.2957 41.7408Z" fill="#263238"/>
<path d="M28.6012 42.1407C29.1212 42.1923 29.6361 42.2866 30.1406 42.4227C30.3918 42.492 30.6384 42.5767 30.8792 42.6764C30.9976 42.7215 31.1132 42.7722 31.226 42.823C31.3387 42.8737 31.4713 42.9611 31.5981 43.0147C31.5981 43.0147 31.5981 43.0514 31.5981 43.0457C31.4769 43.0006 31.3444 42.9837 31.2203 42.9499L30.8482 42.8399C30.5973 42.7694 30.3464 42.7018 30.0954 42.6256C29.5964 42.4762 29.0974 42.3437 28.5928 42.2084C28.5589 42.1943 28.573 42.1379 28.6012 42.1407Z" fill="#263238"/>
<path d="M27.1836 32.8579C23.3832 36.8528 17.9054 44.0306 18.2973 45.7363C19.284 50.0047 22.9462 55.1753 24.7816 57.0473C25.8586 58.1383 31.9003 52.7394 30.984 51.7216C29.549 50.1147 26.0305 44.9554 25.6274 44.2928C25.4075 43.932 28.1309 38.44 29.3855 34.7806C30.7669 30.8026 29.0359 30.9126 27.1836 32.8579Z" fill="#D2A37D"/>
<path d="M33.2052 56.3259C33.0501 55.8212 33.3151 55.7366 34.0848 56.2751C34.8544 56.8136 37.451 59.5878 38.3419 58.601C39.2328 57.6143 35.5226 53.749 34.1665 52.9625C32.8105 52.1759 30.3521 51.3555 30.3521 51.3555C30.9159 52.2435 32.0972 54.5525 33.2052 56.3259Z" fill="#D2A37D"/>
<path d="M31.2067 60.182L32.9849 62.0703L46.9704 48.9002L45.1922 47.012L31.2067 60.182Z" fill="#C7C7C7"/>
<path d="M25.8079 64.3558L28.4975 67.2117L36.1941 59.9634L33.5045 57.1074L25.8079 64.3558Z" fill="#263238"/>
<path d="M39.6354 54.9294C39.8074 53.9144 40.9041 54.6982 40.9041 54.6982C40.9041 54.6982 39.596 53.1899 40.1796 52.2116C40.7631 51.2333 42.0346 52.2624 42.1277 52.3328C42.06 52.2511 40.8928 50.8358 41.5638 49.9111C42.2348 48.9864 43.4048 50.1733 43.4781 50.2522C43.4358 50.1564 42.9143 48.8764 43.5965 48.2928C44.7665 47.292 46.5568 50.8302 47.7352 51.2333L49.6692 49.9505C49.3747 50.4697 49.2376 51.0633 49.2745 51.659C49.2999 52.5048 49.3225 53.094 49.0913 53.5818C48.9952 53.8048 48.8297 53.9908 48.6194 54.1122C48.4091 54.2336 48.1653 54.2839 47.9241 54.2556C47.9241 54.2556 48.488 55.1888 47.972 55.9471C47.6901 56.3278 46.8443 56.2291 46.8443 56.2291C46.8443 56.2291 47.2644 56.9959 46.7654 57.6387C46.365 58.1462 45.5785 57.9798 45.5785 57.9798C45.5785 57.9798 45.6405 58.9046 45.0654 59.288C43.9377 60.0492 39.2689 57.1031 39.6354 54.9294Z" fill="#D2A37D"/>
<path d="M48.2395 51.0097L49.6491 49.9835L49.838 49.9017C51.9243 49.1208 54.3827 50.5756 53.1112 51.5454C52.1442 52.2812 50.2017 51.5764 49.3221 52.4757L48.2395 51.0097Z" fill="#AD6359"/>
<path d="M45.4799 57.9582C45.494 57.9582 45.4799 57.992 45.4799 57.9864C43.6361 57.3738 42.0224 56.2144 40.8535 54.6624C40.8168 54.6117 40.8845 54.5328 40.9324 54.5779C42.2753 55.9203 43.8074 57.0592 45.4799 57.9582Z" fill="#263238"/>
<path d="M46.8879 56.2487C46.9076 56.2487 46.8879 56.291 46.871 56.2854C45.0469 55.6595 43.0988 54.2555 42.0472 52.3384C42.0106 52.2736 42.0472 52.1777 42.0923 52.251C42.8873 53.4746 45.3035 55.4283 46.8879 56.2487Z" fill="#263238"/>
<path d="M43.465 50.0945C44.542 51.8904 46.0869 53.1591 47.8631 54.2332C47.8856 54.2332 47.8631 54.2784 47.8405 54.2727C46.8284 53.9908 45.7712 53.1788 44.9987 52.4853C44.2704 51.8533 43.7203 51.0417 43.403 50.1312C43.3889 50.0945 43.4424 50.0551 43.465 50.0945Z" fill="#263238"/>
<g opacity="0.4">
<path d="M43.3146 34.7765C43.8738 31.5443 45.5366 28.6061 48.0196 26.4627C50.5025 24.3192 53.652 23.1032 56.9312 23.0219C60.2104 22.9406 63.4162 23.9991 66.0024 26.0169C68.5885 28.0347 70.3948 30.8869 71.1135 34.0874C71.8321 37.2879 71.4185 40.6385 69.9433 43.5683C68.468 46.498 66.0224 48.8254 63.0232 50.1538C60.0241 51.4822 56.657 51.7294 53.496 50.8532C50.335 49.977 47.5757 48.0317 45.6885 45.3488C43.529 42.2779 42.6753 38.4759 43.3146 34.7765Z" fill="white"/>
</g>
<path d="M40.9613 34.3673C41.5228 31.1421 43.0281 28.1559 45.2867 25.7862C47.5454 23.4165 50.456 21.7699 53.6506 21.0544C56.8451 20.339 60.1801 20.5869 63.2337 21.7668C66.2873 22.9467 68.9225 25.0056 70.806 27.6832C72.6895 30.3608 73.7367 33.5367 73.8152 36.8095C73.8937 40.0822 72.9999 43.3047 71.2469 46.0695C69.494 48.8342 66.9605 51.0171 63.9669 52.3421C60.9734 53.667 57.6541 54.0745 54.429 53.513C50.1066 52.7551 46.2613 50.3139 43.7366 46.7247C41.2118 43.1355 40.2137 38.6914 40.9613 34.3673ZM42.8305 34.6915C42.3318 37.5483 42.6916 40.4888 43.8643 43.141C45.0371 45.7933 46.9701 48.0382 49.4188 49.5917C51.8676 51.1452 54.7221 51.9376 57.6213 51.8685C60.5204 51.7995 63.334 50.8722 65.706 49.2039C68.0781 47.5356 69.9021 45.2013 70.9473 42.4962C71.9925 39.7911 72.2119 36.8368 71.5779 34.007C70.9438 31.1772 69.4847 28.599 67.3851 26.5986C65.2856 24.5982 62.6399 23.2653 59.7828 22.7687C55.9539 22.1033 52.0174 22.9853 48.8386 25.221C45.6598 27.4567 43.4987 30.8631 42.8305 34.6915Z" fill="#37474F"/>
<path d="M61.2105 51.8344C62.9186 51.3653 64.5319 50.6021 65.9779 49.579C69.0448 47.3987 71.1839 44.1488 71.9736 40.4697C72.7633 36.7905 72.1463 32.949 70.2442 29.7022C68.3421 26.4555 65.2929 24.0389 61.6974 22.9287C58.102 21.8185 54.2211 22.0953 50.8196 23.7045C47.4182 25.3138 44.7428 28.1387 43.3207 31.6226C41.8987 35.1065 41.8332 38.9966 43.1371 42.5264C44.4409 46.0563 47.0196 48.9697 50.365 50.6926C53.7103 52.4154 57.5797 52.8228 61.2105 51.8344ZM54.8361 51.1578C51.6029 50.6012 48.6628 48.9407 46.5169 46.4592C44.371 43.9777 43.152 40.8288 43.0677 37.5492C42.9835 34.2696 44.0392 31.0623 46.0549 28.4739C48.0706 25.8855 50.9215 24.0762 54.1218 23.3544C57.3221 22.6326 60.6737 23.043 63.6053 24.5155C66.5369 25.9881 68.8671 28.4318 70.1988 31.4301C71.5305 34.4283 71.7812 37.7956 70.9081 40.958C70.0351 44.1204 68.0924 46.8822 65.4112 48.7727C62.3413 50.9371 58.5379 51.795 54.8361 51.1578ZM61.2105 51.8344C62.9186 51.3653 64.5319 50.6021 65.9779 49.579C69.0448 47.3987 71.1839 44.1488 71.9736 40.4697C72.7633 36.7905 72.1463 32.949 70.2442 29.7022C68.3421 26.4555 65.2929 24.0389 61.6974 22.9287C58.102 21.8185 54.2211 22.0953 50.8196 23.7045C47.4182 25.3138 44.7428 28.1387 43.3207 31.6226C41.8987 35.1065 41.8332 38.9966 43.1371 42.5264C44.4409 46.0563 47.0196 48.9697 50.365 50.6926C53.7103 52.4154 57.5797 52.8228 61.2105 51.8344ZM54.8361 51.1578C51.6029 50.6012 48.6628 48.9407 46.5169 46.4592C44.371 43.9777 43.152 40.8288 43.0677 37.5492C42.9835 34.2696 44.0392 31.0623 46.0549 28.4739C48.0706 25.8855 50.9215 24.0762 54.1218 23.3544C57.3221 22.6326 60.6737 23.043 63.6053 24.5155C66.5369 25.9881 68.8671 28.4318 70.1988 31.4301C71.5305 34.4283 71.7812 37.7956 70.9081 40.958C70.0351 44.1204 68.0924 46.8822 65.4112 48.7727C62.3413 50.9371 58.5379 51.795 54.8361 51.1578ZM61.7038 53.6669C65.76 52.577 69.271 50.0278 71.5633 46.5084C73.8556 42.989 74.7678 38.7472 74.125 34.5966C73.4821 30.446 71.3295 26.6788 68.0799 24.0178C64.8304 21.3567 60.7127 19.9891 56.5169 20.1773C52.321 20.3654 48.3423 22.0961 45.344 25.0374C42.3457 27.9786 40.5388 31.9233 40.2701 36.1148C40.0013 40.3063 41.2895 44.4494 43.8877 47.7495C46.4858 51.0496 50.2108 53.2743 54.3483 53.9968C56.7949 54.4236 59.3053 54.3111 61.7038 53.6669ZM54.5119 53.0269C50.6114 52.344 47.1003 50.245 44.6523 47.1326C42.2043 44.0201 40.9916 40.1134 41.2469 36.1618C41.5022 32.2102 43.2075 28.492 46.0356 25.7205C48.8638 22.9489 52.6157 21.3191 56.5717 21.1437C60.5276 20.9684 64.409 22.2598 67.4713 24.7703C70.5337 27.2807 72.5613 30.8335 73.1652 34.747C73.7691 38.6605 72.9069 42.6592 70.7438 45.976C68.5808 49.2929 65.2692 51.6943 61.4445 52.7196C59.1841 53.3292 56.8173 53.4341 54.5119 53.0269ZM65.9779 49.5902C69.0448 47.41 71.1839 44.1601 71.9736 40.4809C72.7633 36.8018 72.1463 32.9603 70.2442 29.7135C68.3421 26.4667 65.2929 24.0501 61.6974 22.94C58.102 21.8298 54.2211 22.1066 50.8196 23.7158C47.4182 25.325 44.7428 28.15 43.3207 31.6338C41.8987 35.1177 41.8332 39.0079 43.1371 42.5377C44.4409 46.0675 47.0196 48.981 50.365 50.7038C53.7103 52.4267 57.5797 52.8341 61.2105 51.8457C62.9186 51.3766 64.5319 50.6134 65.9779 49.5902ZM54.8361 51.1578C51.6029 50.6012 48.6628 48.9407 46.5169 46.4592C44.371 43.9777 43.152 40.8288 43.0677 37.5492C42.9835 34.2696 44.0392 31.0623 46.0549 28.4739C48.0706 25.8855 50.9215 24.0762 54.1218 23.3544C57.3221 22.6326 60.6737 23.043 63.6053 24.5155C66.5369 25.9881 68.8671 28.4318 70.1988 31.4301C71.5305 34.4283 71.7812 37.7956 70.9081 40.958C70.0351 44.1204 68.0924 46.8822 65.4112 48.7727C62.3413 50.9371 58.5379 51.795 54.8361 51.1578Z" fill="#37474F"/>
<path opacity="0.3" d="M51.0513 27.2842C52.3198 26.4547 53.7478 25.8996 55.2435 25.6546C56.0036 25.5201 56.7752 25.4615 57.5469 25.4798C58.3265 25.5007 59.1024 25.5951 59.8643 25.7618C61.3978 26.1292 62.838 26.8119 64.0932 27.7663C65.3252 28.7052 66.372 29.8648 67.1804 31.186C66.1076 30.1382 64.9327 29.2003 63.6732 28.3865C63.0536 28.0005 62.404 27.6648 61.7307 27.3828C61.0676 27.0935 60.3785 26.8679 59.6726 26.709C58.2617 26.3813 56.8084 26.2747 55.3648 26.3933C53.8963 26.5152 52.4479 26.8144 51.0513 27.2842Z" fill="#EBEBEB"/>
<path opacity="0.3" d="M59.9108 48.1247C58.4625 48.5772 56.9357 48.7222 55.4281 48.5504C54.6628 48.4736 53.9071 48.3197 53.1727 48.0909C52.428 47.855 51.7077 47.5481 51.0216 47.1746C49.6495 46.4036 48.4531 45.3551 47.5088 44.096C46.5795 42.8562 45.8884 41.4548 45.4705 39.9629C46.2168 41.263 47.0914 42.4851 48.0811 43.611C48.5717 44.1523 49.1054 44.6529 49.6768 45.1081C50.2363 45.5673 50.8376 45.9732 51.4727 46.3204C52.74 47.0207 54.1087 47.5192 55.5296 47.7977C56.9716 48.082 58.4426 48.1918 59.9108 48.1247Z" fill="#EBEBEB"/>
<path d="M24.2363 56.2617C25.942 58.7285 27.9014 61.9002 30.9829 63.3296C31.321 63.4959 31.705 63.5445 32.0739 63.4677C33.4384 64.1331 34.1602 63.6876 34.1602 63.6876C35.6206 63.916 36.2972 63.3578 36.2972 63.3578C36.2972 63.3578 37.907 64.119 38.5301 63.2225C39.2292 62.216 36.8385 61.3448 35.8038 60.0592C33.4525 57.1103 30.9349 52.2639 30.3429 51.3477L24.2363 56.2617Z" fill="#D2A37D"/>
<path d="M31.1684 58.6999C31.8462 59.5751 32.5828 60.403 33.3731 61.1781C34.2895 61.9672 35.2639 62.6862 36.2882 63.3292C36.2947 63.3336 36.2994 63.3403 36.3012 63.348C36.3029 63.3556 36.3017 63.3637 36.2978 63.3705C36.2938 63.3773 36.2875 63.3824 36.2799 63.3847C36.2724 63.387 36.2642 63.3863 36.2572 63.3828C34.1554 62.3355 32.3815 60.7313 31.1289 58.7451C31.1007 58.6858 31.1345 58.6577 31.1684 58.6999Z" fill="#263238"/>
<path d="M29.1851 59.8591C29.9209 60.6513 31.2234 62.0355 34.1781 63.651C34.1781 63.651 34.1781 63.6764 34.1781 63.6707C32.1848 62.9028 30.4451 61.5946 29.1541 59.8929C29.1062 59.8393 29.1372 59.8055 29.1851 59.8591Z" fill="#263238"/>
<path d="M28.1299 60.5041C29.4324 61.8038 30.4191 62.4578 32.0769 63.4587C32.0769 63.4587 32.0769 63.4812 32.0769 63.4756C30.0808 62.5368 29.4634 61.9701 28.0961 60.5435C28.0312 60.4928 28.0791 60.4533 28.1299 60.5041Z" fill="#263238"/>
<path d="M22.8664 56.9343L30.7603 50.7714L26.1537 44.3293C27.411 41.4057 29.5368 35.6262 30.1006 33.4723C30.7632 30.949 29.5368 30.5008 27.5633 32.2656C23.0102 36.3028 17.9777 43.7288 17.7804 45.2343C17.49 47.3995 22.8664 56.9343 22.8664 56.9343Z" fill="#38655D"/>
<path d="M22.5927 54.277C23.0071 53.809 25.0173 52.1766 25.5248 51.7763C26.0322 51.376 28.11 49.8366 28.626 49.425C28.6541 49.4025 28.6936 49.425 28.6654 49.4617C28.158 49.8761 26.1929 51.579 25.6911 51.9849C25.1893 52.3909 23.1537 53.9951 22.6096 54.3024C22.5955 54.3137 22.5786 54.2939 22.5927 54.277Z" fill="#263238"/>
<path d="M29.0137 37.3038C28.2778 39.5592 27.2432 41.8682 26.3748 44.0701C26.3354 44.1687 26.2987 44.259 26.2705 44.352C26.2748 44.3392 26.2748 44.3253 26.2705 44.3125C27.2657 45.9082 28.5654 47.5913 29.6536 49.156L30.7673 50.7433L30.5502 50.9012L30.7503 50.7207V50.7405L29.5465 49.2181C28.3822 47.6675 27.0515 46.0407 26.0337 44.3999C26.0115 44.3564 26.0055 44.3065 26.0168 44.259C26.0985 43.9939 26.2 43.7543 26.2987 43.4978C27.1163 41.5073 28.1594 39.2463 29.0193 37.2812L29.0137 37.3038Z" fill="#263238"/>
<path d="M29.0856 37.7773C28.9481 38.1219 28.7364 38.4319 28.4653 38.6852C28.6768 38.3891 28.8516 38.0565 29.0856 37.7773Z" fill="#263238"/>
<path d="M29.49 31.0124C29.49 31.0124 31.565 36.0674 33.5751 36.3014C35.0778 36.479 34.8579 33.4088 34.8579 33.4088C34.8579 33.4088 33.4624 29.3632 29.49 31.0124Z" fill="#D2A37D"/>
<path d="M31.527 31.353C31.4848 31.6772 32.1473 34.2061 33.6246 34.5529C34.3914 34.7305 34.9299 32.3228 34.9299 32.3228L35.037 32.1593L36.5538 29.8588L34.3322 26.8393L33.9996 26.4277C33.9996 26.4277 33.6274 27.0846 33.1707 27.9079L33.103 28.0234C33.0776 28.0714 33.0523 28.1137 33.0269 28.1559C32.9592 28.28 32.8859 28.404 32.8183 28.5309C32.7506 28.6578 32.7168 28.7198 32.666 28.8128L32.5082 29.1145C32.1311 29.8377 31.8033 30.5856 31.527 31.353Z" fill="#D2A37D"/>
<path d="M33.1605 27.9107C33.1463 28.7131 33.3069 29.509 33.6312 30.2432C33.9554 30.9773 34.4355 31.6321 35.0382 32.1621L36.5549 29.8616L34.3334 26.8393L34.0007 26.4277C34.0007 26.4277 33.6173 27.0846 33.1605 27.9107Z" fill="#263238"/>
<path d="M41.1682 25.5392C41.8956 30.332 39.113 31.299 38.0839 31.4597C37.1451 31.6035 33.9396 31.9643 32.7273 27.2843C31.515 22.6043 33.4857 20.7436 35.6199 20.2982C37.7541 19.8527 40.4409 20.7577 41.1682 25.5392Z" fill="#D2A37D"/>
<path d="M32.7594 27.2435C33.6813 27.3873 33.9745 25.27 33.9745 25.27C33.9745 25.27 37.9215 24.7062 38.3557 21.5147C38.8153 22.8341 39.7668 23.9249 41.0114 24.5596C41.0114 24.5596 40.9691 21.0411 38.1922 20.2799C38.1922 20.2799 34.7696 18.9266 32.7481 21.6162C30.7267 24.3058 32.142 27.1477 32.7594 27.2435Z" fill="#263238"/>
<path d="M38.3749 21.2832C38.4083 21.7799 38.3342 22.278 38.1578 22.7436C37.9891 23.2175 37.7241 23.6513 37.3797 24.0179C37.2906 24.1087 37.1965 24.1943 37.0977 24.2745L36.9568 24.4013C36.9089 24.438 36.8553 24.4746 36.8045 24.5085C36.7002 24.5789 36.5987 24.6522 36.4916 24.7171C36.3845 24.7819 36.2717 24.8327 36.1589 24.8862C36.1025 24.9116 36.049 24.9426 35.9898 24.9652L35.815 25.03L35.4654 25.1513C35.2257 25.2105 34.9833 25.2584 34.7437 25.3035C34.972 25.2105 35.206 25.1428 35.4287 25.0498L35.7586 24.9003L35.9249 24.8242C35.9785 24.796 36.0292 24.765 36.08 24.734L36.3901 24.5507C36.4888 24.4859 36.5818 24.4098 36.672 24.3393L36.8158 24.235L36.9483 24.1138C37.037 24.0354 37.1217 23.9526 37.2021 23.8657C37.5289 23.5175 37.794 23.1161 37.9858 22.6787C38.0845 22.4593 38.1647 22.2321 38.2255 21.9993C38.2967 21.7656 38.3467 21.5259 38.3749 21.2832Z" fill="#263238"/>
<path d="M33.7402 27.0654C33.7402 27.0654 32.5899 25.6275 31.9302 26.0476C31.2705 26.4677 32.2122 28.585 33.0269 28.8471C33.1302 28.8861 33.2404 28.9038 33.3507 28.8991C33.461 28.8944 33.5692 28.8673 33.6688 28.8197C33.7684 28.772 33.8573 28.7046 33.9301 28.6216C34.003 28.5387 34.0582 28.4418 34.0926 28.3369L33.7402 27.0654Z" fill="#D2A37D"/>
<path d="M32.2124 26.6602V26.6827C32.7904 26.8744 33.1202 27.3763 33.3627 27.9063C33.3265 27.8518 33.279 27.8059 33.2234 27.7716C33.1677 27.7373 33.1053 27.7155 33.0404 27.7077C32.9755 27.7 32.9097 27.7064 32.8476 27.7265C32.7854 27.7467 32.7284 27.7801 32.6804 27.8245C32.6804 27.8245 32.6804 27.8583 32.6973 27.8555C32.794 27.8169 32.9003 27.8094 33.0014 27.8342C33.1025 27.8589 33.1933 27.9147 33.2612 27.9937C33.3705 28.1268 33.4651 28.2714 33.5431 28.425C33.5741 28.4729 33.6615 28.425 33.639 28.3827C33.6108 27.6525 32.9877 26.6827 32.2124 26.6602Z" fill="#263238"/>
<path d="M40.5172 25.714C40.4044 25.714 40.2973 25.6858 40.1845 25.6689C40.0658 25.6679 39.9503 25.6294 39.8547 25.559C39.8299 25.5299 39.8152 25.4937 39.8126 25.4556C39.8101 25.4175 39.8199 25.3796 39.8406 25.3475C39.892 25.2912 39.9575 25.2495 40.0303 25.2267C40.1031 25.2039 40.1806 25.2009 40.255 25.2178C40.411 25.2286 40.5571 25.2981 40.6638 25.4124C40.6868 25.4395 40.7014 25.4727 40.7059 25.508C40.7103 25.5432 40.7044 25.579 40.6889 25.611C40.6734 25.643 40.6489 25.6697 40.6184 25.688C40.5879 25.7063 40.5527 25.7154 40.5172 25.714Z" fill="#263238"/>
<path d="M37.3464 25.3267C37.4564 25.2985 37.5551 25.2562 37.6622 25.2196C37.7793 25.1959 37.886 25.1357 37.9667 25.0476C37.9856 25.0148 37.9934 24.9767 37.9888 24.939C37.9843 24.9014 37.9676 24.8663 37.9413 24.839C37.8804 24.7928 37.8084 24.7638 37.7325 24.7549C37.6567 24.746 37.5798 24.7575 37.5099 24.7882C37.357 24.8335 37.2264 24.934 37.1434 25.0701C37.1302 25.1009 37.1256 25.1347 37.13 25.1679C37.1345 25.2012 37.1478 25.2326 37.1686 25.2588C37.1894 25.2851 37.2169 25.3053 37.2482 25.3172C37.2795 25.3292 37.3134 25.3324 37.3464 25.3267Z" fill="#263238"/>
<path d="M38.0281 26.2949C38.0281 26.2949 38.0056 26.3147 38.0056 26.3288C38.0478 26.6558 38.0422 27.0392 37.7546 27.1745C37.7546 27.1745 37.7546 27.1971 37.7546 27.1943C38.1183 27.1069 38.1211 26.5994 38.0281 26.2949Z" fill="#263238"/>
<path d="M37.7154 25.9806C37.1825 25.9806 37.2417 27.0547 37.7351 27.0462C38.2285 27.0378 38.1495 25.9693 37.7154 25.9806Z" fill="#263238"/>
<path d="M37.4973 26.0506C37.4071 26.1154 37.3225 26.2282 37.2154 26.2451C37.1083 26.262 36.9814 26.1577 36.8912 26.0562C36.8912 26.0562 36.8743 26.0562 36.8743 26.0703C36.8743 26.2733 36.9729 26.4791 37.1928 26.496C37.4127 26.513 37.5283 26.3241 37.5678 26.1154C37.5678 26.0788 37.5312 26.0224 37.4973 26.0506Z" fill="#263238"/>
<path d="M39.8731 26.1855C39.8731 26.1855 39.9013 26.1996 39.9013 26.2137C39.9013 26.5436 39.9549 26.9214 40.2565 27.0229V27.0426C39.8872 27.0003 39.8195 26.5013 39.8731 26.1855Z" fill="#263238"/>
<path d="M40.1556 25.8283C40.6856 25.7719 40.7589 26.8376 40.2684 26.8884C39.7778 26.9391 39.713 25.8763 40.1556 25.8283Z" fill="#263238"/>
<path d="M40.3721 25.8732C40.468 25.9268 40.5666 26.0283 40.6794 26.0311C40.7922 26.0339 40.8993 25.9155 40.9782 25.8027H40.9952C41.0149 26.0057 40.9501 26.2228 40.733 26.2679C40.5159 26.313 40.3806 26.1382 40.3157 25.9352C40.3016 25.9099 40.3326 25.8507 40.3721 25.8732Z" fill="#263238"/>
<path d="M39.4523 27.6285C39.4523 27.6285 39.5312 28.1275 39.534 28.3615C39.072 28.3722 38.6137 28.4471 38.1723 28.5842C38.0708 28.6208 38.0708 28.5334 38.1723 28.4601C38.5145 28.2487 38.9122 28.1446 39.3141 28.1613C39.3282 28.0965 39.1816 27.3945 39.2183 27.3916C39.4021 27.4045 39.5832 27.4425 39.7567 27.5044C39.6242 26.4585 39.3282 25.4435 39.2154 24.4032C39.2158 24.3961 39.2184 24.3893 39.2229 24.3837C39.2273 24.3782 39.2335 24.3742 39.2403 24.3723C39.2472 24.3704 39.2545 24.3708 39.2612 24.3733C39.2678 24.3758 39.2735 24.3803 39.2775 24.3863C39.6266 25.4652 39.8693 26.5756 40.002 27.7018C40.0359 27.8343 39.5481 27.6623 39.4523 27.6285Z" fill="#263238"/>
<path d="M38.9611 28.4011C38.9611 28.4011 38.744 28.9649 38.3973 29.0298C37.9885 29.0946 37.8503 28.6012 38.3014 28.3898C38.5181 28.3326 38.7465 28.3365 38.9611 28.4011Z" fill="#263238"/>
<path d="M38.793 28.7182C38.7037 28.8703 38.5594 28.9824 38.3899 29.0311C38.3492 29.0424 38.3066 29.0449 38.2649 29.0385C38.2233 29.0321 38.1834 29.0169 38.148 28.994C38.1126 28.9711 38.0824 28.941 38.0594 28.9056C38.0365 28.8702 38.0213 28.8304 38.0149 28.7887C38.4321 28.5434 38.6661 28.6054 38.793 28.7182Z" fill="#FF99BA"/>
<path d="M1.27539 121.584C38.1684 121.409 79.5498 121.409 116.443 121.584C79.5498 121.756 38.1684 121.756 1.27539 121.584Z" fill="#263238"/>
</g>
<defs>
<clipPath id="clip0_2254_233529">
<rect width="117" height="121.793" fill="white" transform="translate(0.5)"/>
</clipPath>
</defs>
</svg>
