<svg width="186" height="118" viewBox="0 0 186 118" fill="none" xmlns="http://www.w3.org/2000/svg">
<g clip-path="url(#clip0_864_214227)">
<path d="M114.666 117.161C153.855 117.161 185.624 114.946 185.624 112.213C185.624 109.481 153.855 107.266 114.666 107.266C75.4768 107.266 43.7076 109.481 43.7076 112.213C43.7076 114.946 75.4768 117.161 114.666 117.161Z" fill="#F5F5F5"/>
<path d="M169.917 50.6152H63.0788V60.5386H169.917V50.6152Z" fill="#263238"/>
<path opacity="0.2" d="M169.917 50.6152H139.589V60.5386H169.917V50.6152Z" fill="black"/>
<path d="M69.4759 60.5386H63.0788V114.126H69.4759V60.5386Z" fill="#263238"/>
<path opacity="0.2" d="M69.4705 63.3173L63.0788 61.9307V60.5386H69.4705V63.3173Z" fill="black"/>
<path d="M169.922 60.5386H163.525V114.126H169.922V60.5386Z" fill="#263238"/>
<path opacity="0.2" d="M169.922 60.5386H163.525V114.126H169.922V60.5386Z" fill="black"/>
<path d="M145.986 60.5386H139.589V114.126H145.986V60.5386Z" fill="#263238"/>
<path opacity="0.2" d="M145.986 63.3173L139.589 61.9307V60.5386H145.986V63.3173Z" fill="black"/>
<path d="M89.4953 60.5386H83.0982V114.126H89.4953V60.5386Z" fill="#263238"/>
<path opacity="0.2" d="M89.4953 60.5386H83.0982V114.126H89.4953V60.5386Z" fill="black"/>
<path d="M159.062 0.781738H78.9654L71.8533 31.9276H151.95L159.062 0.781738Z" fill="#263238"/>
<path d="M159.061 0.781738H160.892L153.78 31.9276H151.949L159.061 0.781738Z" fill="black"/>
<path d="M170.566 13.2402H55.1209C51.5311 13.2402 48.6209 16.1504 48.6209 19.7402V44.1152C48.6209 47.7051 51.5311 50.6152 55.1209 50.6152H170.566C174.156 50.6152 177.066 47.7051 177.066 44.1152V19.7402C177.066 16.1504 174.156 13.2402 170.566 13.2402Z" fill="#38655D"/>
<path opacity="0.2" d="M170.572 13.2402H155.812C152.222 13.2402 149.312 16.1504 149.312 19.7402V44.1152C149.312 47.7051 152.222 50.6152 155.812 50.6152H170.572C174.162 50.6152 177.072 47.7051 177.072 44.1152V19.7402C177.072 16.1504 174.162 13.2402 170.572 13.2402Z" fill="black"/>
<path opacity="0.2" d="M144.566 22.8981H53.3658C53.0785 22.8981 52.8029 22.784 52.5998 22.5808C52.3966 22.3776 52.2825 22.1021 52.2825 21.8148C52.2825 21.5275 52.3966 21.2519 52.5998 21.0487C52.8029 20.8456 53.0785 20.7314 53.3658 20.7314H144.566C144.854 20.7314 145.129 20.8456 145.332 21.0487C145.535 21.2519 145.65 21.5275 145.65 21.8148C145.65 22.1021 145.535 22.3776 145.332 22.5808C145.129 22.784 144.854 22.8981 144.566 22.8981Z" fill="black"/>
<path d="M139.258 32.919H144.74C144.978 32.9176 145.206 32.8224 145.374 32.6541C145.542 32.4857 145.637 32.2579 145.639 32.0198C145.639 31.7809 145.544 31.5516 145.376 31.3821C145.207 31.2126 144.979 31.1167 144.74 31.1152H139.258C139.019 31.1167 138.79 31.2126 138.622 31.3821C138.453 31.5516 138.359 31.7809 138.359 32.0198C138.36 32.2579 138.455 32.4857 138.624 32.6541C138.792 32.8224 139.02 32.9176 139.258 32.919Z" fill="white"/>
<path d="M139.258 36.7593H144.74C144.979 36.7579 145.207 36.662 145.376 36.4925C145.544 36.323 145.639 36.0937 145.639 35.8547C145.637 35.6167 145.542 35.3888 145.374 35.2205C145.206 35.0522 144.978 34.957 144.74 34.9556H139.258C139.02 34.957 138.792 35.0522 138.624 35.2205C138.455 35.3888 138.36 35.6167 138.359 35.8547C138.359 36.0937 138.453 36.323 138.622 36.4925C138.79 36.662 139.019 36.7579 139.258 36.7593Z" fill="white"/>
<path d="M139.258 40.5831H144.74C144.979 40.5817 145.207 40.4857 145.376 40.3162C145.544 40.1468 145.639 39.9175 145.639 39.6785C145.639 39.4395 145.544 39.2103 145.376 39.0408C145.207 38.8713 144.979 38.7754 144.74 38.7739H139.258C139.019 38.7754 138.79 38.8713 138.622 39.0408C138.453 39.2103 138.359 39.4395 138.359 39.6785C138.359 39.9175 138.453 40.1468 138.622 40.3162C138.79 40.4857 139.019 40.5817 139.258 40.5831Z" fill="white"/>
<path d="M74.6431 21.8145C75.6994 12.6766 69.1452 5.27197 60.0181 5.27197H126.746C135.884 5.27197 142.454 12.6766 141.371 21.8145H74.6431Z" fill="#38655D"/>
<g opacity="0.3">
<path d="M74.6422 21.8145C75.6985 12.6766 69.1443 5.27197 60.0172 5.27197H126.745C135.883 5.27197 142.453 12.6766 141.37 21.8145H74.6422Z" fill="white"/>
</g>
<path d="M60.0071 5.27197H126.746C117.613 5.27197 109.353 12.6766 108.297 21.8145L100.713 87.5349C99.6625 96.6728 91.4021 104.077 82.2642 104.077H48.6267C39.4888 104.077 32.9184 96.6728 34.0017 87.5349L41.585 21.8145C42.625 12.6766 50.8692 5.27197 60.0071 5.27197Z" fill="#38655D"/>
<path opacity="0.7" d="M60.0071 5.27197H126.746C117.613 5.27197 109.353 12.6766 108.297 21.8145L100.713 87.5349C99.6625 96.6728 91.4021 104.077 82.2642 104.077H48.6267C39.4888 104.077 32.9184 96.6728 34.0017 87.5349L41.585 21.8145C42.625 12.6766 50.8692 5.27197 60.0071 5.27197Z" fill="white"/>
<path d="M67.6446 87.5352C66.5883 96.6731 73.1425 104.078 82.2696 104.078H15.5417C6.40376 104.078 -0.166655 96.6731 0.916678 87.5352H67.6446Z" fill="#38655D"/>
<path opacity="0.5" d="M67.6446 87.5352C66.5883 96.6731 73.1425 104.078 82.2696 104.078H15.5417C6.40376 104.078 -0.166655 96.6731 0.916678 87.5352H67.6446Z" fill="white"/>
<path d="M100.453 45.8323H43.8708L44.6075 39.4189H101.19L100.453 45.8323Z" fill="#38655D"/>
<path opacity="0.8" d="M100.454 45.832H43.8711L43.2698 51.0645H99.8523L100.454 45.832Z" fill="white"/>
<path d="M96.542 79.7838H79.3224L79.6745 76.6909H96.8995L96.542 79.7838Z" fill="#38655D"/>
<path opacity="0.8" d="M96.5425 79.7837H79.323L79.0305 82.3133H96.25L96.5425 79.7837Z" fill="white"/>
<path opacity="0.5" d="M99.2451 56.3024H42.6626L43.2693 51.0645H99.8518L99.2451 56.3024Z" fill="white"/>
<path opacity="0.8" d="M99.2455 56.3027H42.663L42.0617 61.5407H98.6442L99.2455 56.3027Z" fill="white"/>
<path opacity="0.5" d="M98.0434 66.773H41.4555L42.0622 61.5405H98.6447L98.0434 66.773Z" fill="white"/>
<path opacity="0.8" d="M98.0427 66.7729H41.4548L40.8535 72.0109H97.436L98.0427 66.7729Z" fill="white"/>
</g>
<defs>
<clipPath id="clip0_864_214227">
<rect width="185.25" height="117" fill="white" transform="translate(0.375 0.5)"/>
</clipPath>
</defs>
</svg>
