<svg width="186" height="117" viewBox="0 0 186 117" fill="none" xmlns="http://www.w3.org/2000/svg">
<g clip-path="url(#clip0_864_256774)">
<path d="M114.666 116.661C153.856 116.661 185.625 114.446 185.625 111.713C185.625 108.981 153.856 106.766 114.666 106.766C75.4771 106.766 43.708 108.981 43.708 111.713C43.708 114.446 75.4771 116.661 114.666 116.661Z" fill="#F5F5F5"/>
<path d="M169.917 50.1152H63.0786V60.0386H169.917V50.1152Z" fill="#263238"/>
<path opacity="0.2" d="M169.917 50.1152H139.589V60.0386H169.917V50.1152Z" fill="black"/>
<path d="M69.4757 60.0386H63.0786V113.626H69.4757V60.0386Z" fill="#263238"/>
<path opacity="0.2" d="M69.4703 62.8173L63.0786 61.4307V60.0386H69.4703V62.8173Z" fill="black"/>
<path d="M169.922 60.0386H163.525V113.626H169.922V60.0386Z" fill="#263238"/>
<path opacity="0.2" d="M169.922 60.0386H163.525V113.626H169.922V60.0386Z" fill="black"/>
<path d="M145.986 60.0386H139.589V113.626H145.986V60.0386Z" fill="#263238"/>
<path opacity="0.2" d="M145.986 62.8173L139.589 61.4307V60.0386H145.986V62.8173Z" fill="black"/>
<path d="M89.4952 60.0386H83.0981V113.626H89.4952V60.0386Z" fill="#263238"/>
<path opacity="0.2" d="M89.4952 60.0386H83.0981V113.626H89.4952V60.0386Z" fill="black"/>
<path d="M159.062 0.281738H78.9656L71.8535 31.4276H151.95L159.062 0.281738Z" fill="#263238"/>
<path d="M159.061 0.281738H160.892L153.78 31.4276H151.949L159.061 0.281738Z" fill="black"/>
<path d="M170.567 12.7402H55.1211C51.5312 12.7402 48.6211 15.6504 48.6211 19.2402V43.6152C48.6211 47.2051 51.5312 50.1152 55.1211 50.1152H170.567C174.156 50.1152 177.067 47.2051 177.067 43.6152V19.2402C177.067 15.6504 174.156 12.7402 170.567 12.7402Z" fill="#38655D"/>
<path opacity="0.2" d="M170.572 12.7402H155.812C152.222 12.7402 149.312 15.6504 149.312 19.2402V43.6152C149.312 47.2051 152.222 50.1152 155.812 50.1152H170.572C174.162 50.1152 177.072 47.2051 177.072 43.6152V19.2402C177.072 15.6504 174.162 12.7402 170.572 12.7402Z" fill="black"/>
<path opacity="0.2" d="M144.566 22.3981H53.3656C53.0782 22.3981 52.8027 22.284 52.5995 22.0808C52.3964 21.8776 52.2822 21.6021 52.2822 21.3148C52.2822 21.0275 52.3964 20.7519 52.5995 20.5487C52.8027 20.3456 53.0782 20.2314 53.3656 20.2314H144.566C144.853 20.2314 145.129 20.3456 145.332 20.5487C145.535 20.7519 145.649 21.0275 145.649 21.3148C145.649 21.6021 145.535 21.8776 145.332 22.0808C145.129 22.284 144.853 22.3981 144.566 22.3981Z" fill="black"/>
<path d="M139.258 32.419H144.74C144.978 32.4176 145.206 32.3224 145.374 32.1541C145.542 31.9857 145.637 31.7579 145.639 31.5198C145.639 31.2809 145.544 31.0516 145.376 30.8821C145.207 30.7126 144.979 30.6167 144.74 30.6152H139.258C139.019 30.6167 138.79 30.7126 138.622 30.8821C138.453 31.0516 138.359 31.2809 138.359 31.5198C138.36 31.7579 138.455 31.9857 138.624 32.1541C138.792 32.3224 139.02 32.4176 139.258 32.419Z" fill="white"/>
<path d="M139.258 36.2593H144.74C144.979 36.2579 145.207 36.162 145.376 35.9925C145.544 35.823 145.639 35.5937 145.639 35.3547C145.637 35.1167 145.542 34.8888 145.374 34.7205C145.206 34.5522 144.978 34.457 144.74 34.4556H139.258C139.02 34.457 138.792 34.5522 138.624 34.7205C138.455 34.8888 138.36 35.1167 138.359 35.3547C138.359 35.5937 138.453 35.823 138.622 35.9925C138.79 36.162 139.019 36.2579 139.258 36.2593Z" fill="white"/>
<path d="M139.258 40.0831H144.74C144.979 40.0817 145.207 39.9857 145.376 39.8162C145.544 39.6468 145.639 39.4175 145.639 39.1785C145.639 38.9395 145.544 38.7103 145.376 38.5408C145.207 38.3713 144.979 38.2754 144.74 38.2739H139.258C139.019 38.2754 138.79 38.3713 138.622 38.5408C138.453 38.7103 138.359 38.9395 138.359 39.1785C138.359 39.4175 138.453 39.6468 138.622 39.8162C138.79 39.9857 139.019 40.0817 139.258 40.0831Z" fill="white"/>
<path d="M74.6431 21.3145C75.6993 12.1766 69.1452 4.77197 60.0181 4.77197H126.746C135.884 4.77197 142.454 12.1766 141.371 21.3145H74.6431Z" fill="#38655D"/>
<g opacity="0.3">
<path d="M74.6421 21.3145C75.6983 12.1766 69.1442 4.77197 60.0171 4.77197H126.745C135.883 4.77197 142.453 12.1766 141.37 21.3145H74.6421Z" fill="white"/>
</g>
<path d="M60.0071 4.77197H126.746C117.613 4.77197 109.353 12.1766 108.297 21.3145L100.713 87.0349C99.6625 96.1728 91.4021 103.577 82.2641 103.577H48.6266C39.4887 103.577 32.9183 96.1728 34.0016 87.0349L41.585 21.3145C42.625 12.1766 50.8691 4.77197 60.0071 4.77197Z" fill="#38655D"/>
<path opacity="0.7" d="M60.0071 4.77197H126.746C117.613 4.77197 109.353 12.1766 108.297 21.3145L100.713 87.0349C99.6625 96.1728 91.4021 103.577 82.2641 103.577H48.6266C39.4887 103.577 32.9183 96.1728 34.0016 87.0349L41.585 21.3145C42.625 12.1766 50.8691 4.77197 60.0071 4.77197Z" fill="white"/>
<path d="M67.6446 87.0352C66.5883 96.1731 73.1425 103.578 82.2696 103.578H15.5417C6.40376 103.578 -0.166655 96.1731 0.916678 87.0352H67.6446Z" fill="#38655D"/>
<path opacity="0.5" d="M67.6446 87.0352C66.5883 96.1731 73.1425 103.578 82.2696 103.578H15.5417C6.40376 103.578 -0.166655 96.1731 0.916678 87.0352H67.6446Z" fill="white"/>
<path d="M100.453 45.3323H43.8706L44.6073 38.9189H101.19L100.453 45.3323Z" fill="#38655D"/>
<path opacity="0.8" d="M100.454 45.332H43.8713L43.27 50.5645H99.8525L100.454 45.332Z" fill="white"/>
<path d="M96.5418 79.2838H79.3223L79.6743 76.1909H96.8993L96.5418 79.2838Z" fill="#38655D"/>
<path opacity="0.8" d="M96.5423 79.2837H79.3228L79.0303 81.8133H96.2499L96.5423 79.2837Z" fill="white"/>
<path opacity="0.5" d="M99.2451 55.8024H42.6626L43.2693 50.5645H99.8518L99.2451 55.8024Z" fill="white"/>
<path opacity="0.8" d="M99.2453 55.8027H42.6628L42.0615 61.0407H98.644L99.2453 55.8027Z" fill="white"/>
<path opacity="0.5" d="M98.0435 66.273H41.4556L42.0622 61.0405H98.6447L98.0435 66.273Z" fill="white"/>
<path opacity="0.8" d="M98.0427 66.2729H41.4548L40.8535 71.5109H97.436L98.0427 66.2729Z" fill="white"/>
</g>
<defs>
<clipPath id="clip0_864_256774">
<rect width="185.25" height="117" fill="white" transform="translate(0.375)"/>
</clipPath>
</defs>
</svg>
