<svg width="108" height="159" viewBox="0 0 108 159" fill="none" xmlns="http://www.w3.org/2000/svg">
<g clip-path="url(#clip0_492_127260)">
<g opacity="0.3">
<g opacity="0.4">
<path d="M86.4097 12.2526L79.2782 79.6687L97.707 14.4297L86.4097 12.2526Z" fill="#EBEBEB"/>
<path d="M119.163 24.849L79.2794 79.6671L127.859 32.3829L119.163 24.849Z" fill="#EBEBEB"/>
<path d="M141.228 52.138L79.2784 79.6701L144.992 63.0104L141.228 52.138Z" fill="#EBEBEB"/>
<path d="M146.693 86.8008L79.2773 79.6693L144.516 98.0981L146.693 86.8008Z" fill="#EBEBEB"/>
<path d="M134.093 119.552L79.2749 79.6675L126.559 128.247L134.093 119.552Z" fill="#EBEBEB"/>
<path d="M106.809 141.62L79.277 79.67L95.9367 145.383L106.809 141.62Z" fill="#EBEBEB"/>
<path d="M72.1479 147.085L79.2794 79.669L60.8508 144.908L72.1479 147.085Z" fill="#EBEBEB"/>
<path d="M39.3953 134.49L79.2793 79.6719L30.7 126.956L39.3953 134.49Z" fill="#EBEBEB"/>
<path d="M17.3296 107.204L79.2793 79.6719L13.5665 96.3316L17.3296 107.204Z" fill="#EBEBEB"/>
<path d="M11.8629 72.5348L79.279 79.6663L14.0399 61.2378L11.8629 72.5348Z" fill="#EBEBEB"/>
<path d="M24.4598 39.7872L79.278 79.6713L31.9938 31.092L24.4598 39.7872Z" fill="#EBEBEB"/>
<path d="M51.7452 17.717L79.2772 79.6667L62.6175 13.9539L51.7452 17.717Z" fill="#EBEBEB"/>
</g>
</g>
<path d="M70.5006 133.244L67.7516 129.656C67.7516 129.656 77.8868 115.858 80.207 112.058C82.5273 108.258 87.5659 90.8828 87.5659 90.8828L90.5759 91.5536L91.1667 111.471L70.5006 133.244Z" fill="#FFC727"/>
<path opacity="0.1" d="M70.5006 133.244L67.7516 129.656C67.7516 129.656 77.8868 115.858 80.207 112.058C82.5273 108.258 87.5659 90.8828 87.5659 90.8828L90.5759 91.5536L91.1667 111.471L70.5006 133.244Z" fill="black"/>
<path d="M106.481 96.9222C106.481 96.9222 104.279 115.214 101.566 122.428C98.8527 129.641 91.4719 141.848 91.4719 141.848L70.5033 133.242C70.5033 133.242 80.2661 119.249 82.5457 115.384C87.4597 107.05 90.5785 91.5522 90.5785 91.5522L106.481 96.9222Z" fill="#FFC727"/>
<path d="M92.3864 143.385L70.5056 133.245L67.7566 129.658L76.7755 116.117L77.5679 115.996L80.605 118.432L99.1757 127.867L99.4549 127.175L99.9488 129.035L92.3864 143.385Z" fill="#37474F"/>
<path d="M99.9488 129.035L80.0467 118.934L76.7755 116.117L77.5679 115.996L80.605 118.432L99.1757 127.867L99.4549 127.175L99.9488 129.035Z" fill="#455A64"/>
<path d="M80.043 118.932L70.5019 133.244L67.7529 129.656L76.7718 116.116L80.043 118.932Z" fill="#263238"/>
<path opacity="0.15" d="M85.7198 97.0085L89.0566 97.736L105.328 105.15C106.047 100.52 106.48 96.9266 106.48 96.9266L90.5781 91.5583L87.5676 90.8886C87.5676 90.8886 86.796 93.5452 85.7198 97.0085Z" fill="black"/>
<path d="M67.1748 21.6178C67.1748 21.6178 76.9937 43.8544 95.335 59.9522C106.528 69.7787 114.975 74.722 115.846 75.2095C115.846 75.2095 120.88 79.283 116.265 89.8479C110.795 99.9975 104.484 98.5477 104.484 98.5477C103.563 98.1628 94.4622 94.5637 79.8237 91.8147C55.8397 87.3076 32.2807 93.2953 32.2807 93.2953C32.2688 93.2596 32.2569 93.2236 32.245 93.1878C36.907 92.489 43.4831 86.0104 49.8569 76.1311C50.267 75.496 50.6748 74.8464 51.0795 74.1819C53.4446 70.3414 55.7565 66.0677 57.9218 61.4453C60.2241 56.8899 62.162 52.434 63.726 48.2034C63.9992 47.475 64.2591 46.7534 64.5061 46.0388C68.3506 34.9281 69.3936 25.7559 67.0678 21.6554C67.1036 21.6432 67.1392 21.6306 67.1748 21.6178Z" fill="#FFC727"/>
<path d="M67.17 21.618C67.17 21.618 76.9889 43.8546 95.3298 59.9535C106.523 69.7797 114.97 74.7228 115.841 75.2092C115.841 75.2092 119.799 78.4137 117.476 86.5064C117.45 86.6075 117.418 86.7061 117.389 86.8062C117.103 87.7556 116.731 88.7672 116.26 89.8481C110.791 99.9978 104.479 98.5484 104.479 98.5484C103.558 98.165 94.4569 94.5656 79.8183 91.8165C55.8349 87.3081 32.276 93.2955 32.276 93.2955L32.2394 93.1897C36.9017 92.4903 43.4779 86.0117 49.8513 76.1327C50.2613 75.4979 50.6698 74.8463 51.0744 74.1826C53.4385 70.3437 55.7512 66.069 57.917 61.4458C58.8323 59.6328 59.6926 57.8319 60.4943 56.0582C60.4994 56.041 60.5072 56.0255 60.5161 56.0069C60.7416 55.5105 60.9603 55.014 61.1739 54.5215C61.7229 53.2602 62.243 52.0109 62.732 50.7789C63.078 49.9141 63.4056 49.0536 63.7219 48.2034C63.9946 47.4759 64.2545 46.7548 64.501 46.0404C64.7845 45.217 65.0566 44.4043 65.3088 43.6048C65.5233 42.9301 65.7259 42.2661 65.9168 41.6129C66.0166 41.2671 66.1152 40.9241 66.2086 40.5849C68.6022 31.9725 68.9956 25.0652 67.0631 21.6571C67.0982 21.6451 67.1348 21.6303 67.17 21.618Z" fill="#FFC727"/>
<path opacity="0.3" d="M68.3489 36.9761L68.7021 37.1612L68.6907 37.1849L62.9633 50.4094L70.0884 38.6119L71.0634 39.1063L66.3169 50.7713L72.08 40.7809L73.5291 41.4864L67.7453 56.3196L74.2739 45.7208L76.1649 46.6836L71.8133 57.5306L77.104 48.7248L79.2911 49.7959L75.5456 59.5853L79.3298 54.0552L81.5961 55.2043L79.5979 60.9228L83.1724 55.8966L85.4546 57.1541L82.4779 64.4267L87.141 58.0011L89.398 59.1227L86.7356 67.8391L90.3924 62.8986L92.4963 64.04L89.8112 71.1287L93.5884 66.5501L95.5383 67.6329L94.6537 70.2334L96.7765 67.232L98.6572 68.2095L96.7171 73.4868L99.0503 71.2785L100.679 72.3845L100.014 74.0128L101.259 72.5592L102.883 73.4607L101.671 77.1892L104.639 73.4356L106.102 74.1998L105.197 77.0835L107.413 74.313L108.736 75.0093L106.951 80.6362L109.632 76.6289L110.706 77.0672L109.701 81.9847L111.292 80.002L112.164 80.4659L111.173 83.4672L113.304 80.6294L113.957 80.9083L112.88 86.6813L116.895 82.3385L117.219 82.4898L116.431 87.6016L117.481 86.5094C117.455 86.6105 117.423 86.7091 117.394 86.8092L116.365 87.9315L116.209 87.8584L116.774 83.0424L112.63 87.7979L112.135 87.5568L112.986 82.3354L110.256 86.1692L109.474 85.7724L110.399 82.781L109.153 84.3773L108.209 83.9405L108.984 79.8235L105.43 85.3579L104.212 84.785L106.119 78.4384L103.781 81.4265L102.385 80.6917L103.175 78.0871L99.9682 82.243L98.4 81.4143L99.6654 77.3891L97.5607 79.8846L95.9065 78.8839L97.0787 75.9607L94.947 78.003L93.2658 76.9043L93.9213 75.0821L92.0495 77.7691L90.0887 76.7755L91.4213 72.7993L87.1092 78.0821L85.11 76.9263L87.176 71.3906L84.4333 75.1431L82.237 74.0445L84.759 65.6771L78.226 74.7318L75.9598 73.4753L78.7818 66.5609L76.412 69.8821L74.1295 68.6992L75.9618 63.4963L71.5672 69.8993L69.3386 68.7264L72.034 61.77L66.3493 71.1106L64.2899 70.0786L69.5546 57.2156L63.8498 66.2759L62.1593 65.4237L68.0588 50.7611L62.4798 60.1924L61.2467 59.579L67.3705 45.0515L60.5123 56.0664L60.5016 56.0613C60.5067 56.0441 60.5145 56.0286 60.5234 56.01C60.7489 55.5136 60.9676 55.0171 61.1812 54.5246C61.7302 53.2633 62.2503 52.014 62.7393 50.782C63.0853 49.9172 63.4129 49.0567 63.7292 48.2065C64.0019 47.479 64.2618 46.7579 64.5084 46.0435C64.7918 45.2201 65.0639 44.4074 65.3162 43.6078L67.0494 39.8202C66.6834 40.4047 66.3071 41.0037 65.9242 41.6157C66.0239 41.2699 66.1226 40.9269 66.216 40.5877L68.3489 36.9761Z" fill="white"/>
<path d="M101.99 98.513L117.897 104.885C117.897 104.885 123.969 104.145 128.062 96.1766C132.043 88.4272 129.474 82.2347 129.474 82.2347L115.163 73.703L114.794 74.3992C114.794 74.3992 116.385 80.5878 112.825 87.6258C108.687 95.8054 102.337 97.859 102.337 97.859L101.99 98.513Z" fill="#FFC727"/>
<g opacity="0.2">
<path d="M101.99 98.513L117.897 104.885C117.897 104.885 123.969 104.145 128.062 96.1766C132.043 88.4272 129.474 82.2347 129.474 82.2347L115.163 73.703L114.794 74.3992C114.794 74.3992 116.385 80.5878 112.825 87.6258C108.687 95.8054 102.337 97.859 102.337 97.859L101.99 98.513Z" fill="black"/>
</g>
<path opacity="0.1" d="M115.165 73.7011C115.165 73.7011 117.702 80.5646 112.771 89.1637C107.969 97.5387 101.993 98.5098 101.993 98.5098L102.339 97.8552C102.339 97.8552 108.692 95.8017 112.829 87.6235C116.333 80.6923 114.844 74.5919 114.796 74.4011L115.165 73.7011Z" fill="black"/>
<path opacity="0.1" d="M32.2404 93.1968L32.2768 93.3023C32.2768 93.3023 55.8369 87.3167 79.8189 91.8248C91.0108 93.9278 98.9648 96.5261 102.503 97.8047C102.393 97.8463 102.336 97.8651 102.336 97.8651L101.989 98.5204L117.894 104.892C117.894 104.892 123.966 104.152 128.059 96.185C132.042 88.4351 129.472 82.2427 129.472 82.2427C129.258 85.3799 124.179 91.3531 118.987 90.0231C115.078 89.0218 114.794 81.805 114.794 81.805C114.794 81.805 99.7226 91.5811 74.1407 82.0691C65.6679 78.9187 57.0691 71.3192 55.7838 65.8011C54.2576 68.7809 52.6784 71.5863 51.0754 74.1901C50.6697 74.855 50.2639 75.505 49.8517 76.1418C43.4781 86.0184 36.9023 92.4986 32.2404 93.1968Z" fill="black"/>
<path d="M67.1906 21.4069C66.7224 20.5954 66.1184 19.9833 65.3735 19.5929C59.1552 16.3476 45.6588 29.9751 35.2229 50.0128C24.7866 70.0504 21.369 88.9325 27.58 92.1647C27.703 92.2281 27.8184 92.2784 27.9439 92.3316C27.9813 92.3513 28.0214 92.3614 28.0618 92.3716C30.428 93.2352 33.7103 91.9491 37.4104 89.0063C42.5018 84.9514 48.3933 77.7666 53.8394 68.7075C55.1773 66.493 56.4807 64.1631 57.7435 61.7372C59.6521 58.0648 61.3376 54.4323 62.7564 50.9245C68.1785 37.5994 69.9501 26.1293 67.1906 21.4069Z" fill="#FFC727"/>
<path opacity="0.6" d="M67.1906 21.4069C66.7224 20.5954 66.1184 19.9833 65.3735 19.5929C59.1552 16.3476 45.6588 29.9751 35.2229 50.0128C24.7866 70.0504 21.369 88.9325 27.58 92.1647C27.703 92.2281 27.8184 92.2784 27.9439 92.3316C27.9813 92.3513 28.0214 92.3614 28.0618 92.3716C30.428 93.2352 33.7103 91.9491 37.4104 89.0063C42.5018 84.9514 48.3933 77.7666 53.8394 68.7075C55.1773 66.493 56.4807 64.1631 57.7435 61.7372C59.6521 58.0648 61.3376 54.4323 62.7564 50.9245C68.1785 37.5994 69.9501 26.1293 67.1906 21.4069Z" fill="black"/>
<path opacity="0.2" d="M28.3317 65.7671L58.3203 60.6133C58.1304 60.99 57.9389 61.3646 57.7428 61.7393C56.4781 64.1657 55.1754 66.4949 53.8376 68.7094C48.3914 77.7703 42.4982 84.9529 37.4076 89.0065C33.7066 91.9509 30.424 93.237 28.06 92.3747C28.0211 92.363 27.98 92.3533 27.9412 92.333C27.8167 92.2809 27.7004 92.229 27.5782 92.1666C23.0513 89.8104 23.6393 79.1386 28.3317 65.7671Z" fill="black"/>
<g opacity="0.1">
<path d="M34.0575 52.2963L58.3191 60.6037L58.3196 60.6008L37.8725 45.1677C36.9742 46.7315 36.0873 48.3452 35.2242 50.0053C34.8264 50.7703 34.4369 51.5368 34.0575 52.2963Z" fill="white"/>
<path d="M40.5556 40.7249L58.3196 60.604L42.4616 37.8035C41.8228 38.7488 41.1842 39.7239 40.5556 40.7249Z" fill="white"/>
</g>
<path d="M62.1002 52.4816C60.6975 50.8033 58.754 49.5341 56.4748 48.9594C50.6721 47.4955 44.7883 51.0086 43.3273 56.8015C41.8635 62.6039 45.3772 68.4878 51.1796 69.9516C51.8522 70.1212 52.5199 70.2257 53.1833 70.2646C54.5211 68.0504 55.8246 65.7202 57.0873 63.2946C58.996 59.6219 60.6815 55.9894 62.1002 52.4816Z" fill="#FFC727"/>
<path d="M64.8655 17.6324C61.2124 16.7108 56.3537 19.194 50.6985 24.9014C44.8912 30.7618 38.8715 39.4063 33.7478 49.2441C28.6263 59.0778 24.9955 68.9675 23.5229 77.0928C21.9159 85.9597 23.0531 91.6811 26.8118 93.6377C26.9666 93.7168 27.1062 93.7795 27.255 93.8434C27.3779 93.8996 27.4868 93.9352 27.5672 93.9576C30.4655 94.9867 34.1224 93.742 38.4433 90.305C43.825 86.0183 49.7977 78.6525 55.2621 69.5632C56.6003 67.3473 57.9315 64.9708 59.2164 62.5029C61.1543 58.7731 62.8627 55.0878 64.2951 51.5468C70.0595 37.3808 71.6795 25.7997 68.6258 20.5702C67.9925 19.4741 67.1571 18.6491 66.1418 18.1192C65.7348 17.9067 65.3089 17.7444 64.8655 17.6324ZM28.5342 90.7763C28.4681 90.7481 28.4046 90.7197 28.3381 90.6854C26.1424 89.5428 25.5467 84.5596 26.7925 77.6859C28.2073 69.8795 31.7241 60.3242 36.6958 50.7782C41.6692 41.2293 47.4806 32.8703 53.0592 27.2397C57.9733 22.2804 62.3918 19.9043 64.6036 21.065C65.0572 21.3022 65.433 21.6844 65.7506 22.2356L65.7556 22.2437C67.7731 25.6969 67.1518 35.7099 61.2161 50.297C59.8216 53.744 58.1574 57.3343 56.2688 60.9697C55.0168 63.3747 53.7203 65.6893 52.4166 67.847C47.2255 76.4829 41.3792 83.719 36.3742 87.7053C33.1257 90.2884 30.3066 91.4086 28.6303 90.8092L28.5342 90.7763Z" fill="#FFC727"/>
<path opacity="0.2" d="M64.8655 17.6324C61.2124 16.7108 56.3537 19.194 50.6985 24.9014C44.8912 30.7618 38.8715 39.4063 33.7478 49.2441C28.6263 59.0778 24.9955 68.9675 23.5229 77.0928C21.9159 85.9597 23.0531 91.6811 26.8118 93.6377C26.9666 93.7168 27.1062 93.7795 27.255 93.8434C27.3779 93.8996 27.4868 93.9352 27.5672 93.9576C30.4655 94.9867 34.1224 93.742 38.4433 90.305C43.825 86.0183 49.7977 78.6525 55.2621 69.5632C56.6003 67.3473 57.9315 64.9708 59.2164 62.5029C61.1543 58.7731 62.8627 55.0878 64.2951 51.5468C70.0595 37.3808 71.6795 25.7997 68.6258 20.5702C67.9925 19.4741 67.1571 18.6491 66.1418 18.1192C65.7348 17.9067 65.3089 17.7444 64.8655 17.6324ZM28.5342 90.7763C28.4681 90.7481 28.4046 90.7197 28.3381 90.6854C26.1424 89.5428 25.5467 84.5596 26.7925 77.6859C28.2073 69.8795 31.7241 60.3242 36.6958 50.7782C41.6692 41.2293 47.4806 32.8703 53.0592 27.2397C57.9733 22.2804 62.3918 19.9043 64.6036 21.065C65.0572 21.3022 65.433 21.6844 65.7506 22.2356L65.7556 22.2437C67.7731 25.6969 67.1518 35.7099 61.2161 50.297C59.8216 53.744 58.1574 57.3343 56.2688 60.9697C55.0168 63.3747 53.7203 65.6893 52.4166 67.847C47.2255 76.4829 41.3792 83.719 36.3742 87.7053C33.1257 90.2884 30.3066 91.4086 28.6303 90.8092L28.5342 90.7763Z" fill="black"/>
</g>
<defs>
<clipPath id="clip0_492_127260">
<rect width="135.386" height="135.386" fill="white" transform="matrix(-0.981934 -0.189226 -0.189226 0.981934 158.559 26)"/>
</clipPath>
</defs>
</svg>
