<svg width="186" height="117" viewBox="0 0 186 117" fill="none" xmlns="http://www.w3.org/2000/svg">
<g clip-path="url(#clip0_301_38736)">
<path d="M114.665 116.661C153.855 116.661 185.624 114.446 185.624 111.713C185.624 108.981 153.855 106.766 114.665 106.766C75.4762 106.766 43.707 108.981 43.707 111.713C43.707 114.446 75.4762 116.661 114.665 116.661Z" fill="#F5F5F5"/>
<path d="M169.917 50.1133H63.0791V60.0366H169.917V50.1133Z" fill="#263238"/>
<path opacity="0.2" d="M169.918 50.1133H139.59V60.0366H169.918V50.1133Z" fill="black"/>
<path d="M69.4762 60.0391H63.0791V113.626H69.4762V60.0391Z" fill="#263238"/>
<path opacity="0.2" d="M69.4708 62.8178L63.0791 61.4311V60.0391H69.4708V62.8178Z" fill="black"/>
<path d="M169.922 60.0391H163.525V113.626H169.922V60.0391Z" fill="#263238"/>
<path opacity="0.2" d="M169.922 60.0391H163.525V113.626H169.922V60.0391Z" fill="black"/>
<path d="M145.987 60.0391H139.59V113.626H145.987V60.0391Z" fill="#263238"/>
<path opacity="0.2" d="M145.987 62.8178L139.59 61.4311V60.0391H145.987V62.8178Z" fill="black"/>
<path d="M89.4957 60.0391H83.0986V113.626H89.4957V60.0391Z" fill="#263238"/>
<path opacity="0.2" d="M89.4957 60.0391H83.0986V113.626H89.4957V60.0391Z" fill="black"/>
<path d="M159.062 0.28125H78.9656L71.8535 31.4271H151.95L159.062 0.28125Z" fill="#263238"/>
<path d="M159.061 0.28125H160.892L153.78 31.4271H151.949L159.061 0.28125Z" fill="black"/>
<path d="M170.567 12.7383H55.1211C51.5312 12.7383 48.6211 15.6484 48.6211 19.2383V43.6133C48.6211 47.2031 51.5312 50.1133 55.1211 50.1133H170.567C174.156 50.1133 177.067 47.2031 177.067 43.6133V19.2383C177.067 15.6484 174.156 12.7383 170.567 12.7383Z" fill="#38655D"/>
<path opacity="0.2" d="M170.573 12.7383H155.812C152.223 12.7383 149.312 15.6484 149.312 19.2383V43.6133C149.312 47.2031 152.223 50.1133 155.812 50.1133H170.573C174.163 50.1133 177.073 47.2031 177.073 43.6133V19.2383C177.073 15.6484 174.163 12.7383 170.573 12.7383Z" fill="black"/>
<path opacity="0.2" d="M144.567 22.3971H53.3665C53.0792 22.3971 52.8037 22.283 52.6005 22.0798C52.3973 21.8767 52.2832 21.6011 52.2832 21.3138C52.2832 21.0265 52.3973 20.7509 52.6005 20.5478C52.8037 20.3446 53.0792 20.2305 53.3665 20.2305H144.567C144.854 20.2305 145.13 20.3446 145.333 20.5478C145.536 20.7509 145.65 21.0265 145.65 21.3138C145.65 21.6011 145.536 21.8767 145.333 22.0798C145.13 22.283 144.854 22.3971 144.567 22.3971Z" fill="black"/>
<path d="M139.259 32.417H144.74C144.978 32.4156 145.206 32.3204 145.374 32.1521C145.543 31.9838 145.638 31.7559 145.639 31.5179C145.639 31.2789 145.545 31.0496 145.376 30.8801C145.208 30.7107 144.979 30.6147 144.74 30.6133H139.259C139.02 30.6147 138.791 30.7107 138.622 30.8801C138.454 31.0496 138.359 31.2789 138.359 31.5179C138.361 31.7559 138.456 31.9838 138.624 32.1521C138.793 32.3204 139.021 32.4156 139.259 32.417Z" fill="white"/>
<path d="M139.259 36.2569H144.74C144.979 36.2555 145.208 36.1595 145.376 35.99C145.545 35.8205 145.639 35.5913 145.639 35.3523C145.638 35.1143 145.543 34.8864 145.374 34.7181C145.206 34.5497 144.978 34.4545 144.74 34.4531H139.259C139.021 34.4545 138.793 34.5497 138.624 34.7181C138.456 34.8864 138.361 35.1143 138.359 35.3523C138.359 35.5913 138.454 35.8205 138.622 35.99C138.791 36.1595 139.02 36.2555 139.259 36.2569Z" fill="white"/>
<path d="M139.259 40.0826H144.74C144.979 40.0812 145.208 39.9852 145.376 39.8158C145.545 39.6463 145.639 39.417 145.639 39.178C145.639 38.939 145.545 38.7098 145.376 38.5403C145.208 38.3708 144.979 38.2749 144.74 38.2734H139.259C139.02 38.2749 138.791 38.3708 138.622 38.5403C138.454 38.7098 138.359 38.939 138.359 39.178C138.359 39.417 138.454 39.6463 138.622 39.8158C138.791 39.9852 139.02 40.0812 139.259 40.0826Z" fill="white"/>
<path d="M74.6436 21.3159C75.6998 12.178 69.1456 4.77344 60.0186 4.77344H126.746C135.884 4.77344 142.455 12.178 141.371 21.3159H74.6436Z" fill="#38655D"/>
<g opacity="0.3">
<path d="M74.6426 21.3159C75.6988 12.178 69.1447 4.77344 60.0176 4.77344H126.745C135.883 4.77344 142.454 12.178 141.37 21.3159H74.6426Z" fill="white"/>
</g>
<path d="M60.008 4.77344H126.747C117.614 4.77344 109.354 12.178 108.298 21.3159L100.714 87.0364C99.6635 96.1743 91.403 103.579 82.2651 103.579H48.6276C39.4897 103.579 32.9193 96.1743 34.0026 87.0364L41.5859 21.3159C42.6259 12.178 50.8701 4.77344 60.008 4.77344Z" fill="#38655D"/>
<path opacity="0.7" d="M60.008 4.77344H126.747C117.614 4.77344 109.354 12.178 108.298 21.3159L100.714 87.0364C99.6635 96.1743 91.403 103.579 82.2651 103.579H48.6276C39.4897 103.579 32.9193 96.1743 34.0026 87.0364L41.5859 21.3159C42.6259 12.178 50.8701 4.77344 60.008 4.77344Z" fill="white"/>
<path d="M67.6456 87.0352C66.5893 96.1731 73.1435 103.578 82.2706 103.578H15.5427C6.40474 103.578 -0.165679 96.1731 0.917654 87.0352H67.6456Z" fill="#38655D"/>
<path opacity="0.5" d="M67.6456 87.0352C66.5893 96.1731 73.1435 103.578 82.2706 103.578H15.5427C6.40474 103.578 -0.165679 96.1731 0.917654 87.0352H67.6456Z" fill="white"/>
<path d="M46.418 27.0273H47.9888L47.4038 32.0974H45.833L46.418 27.0273Z" fill="#38655D"/>
<path d="M49.126 27.0273H50.5885L52.1756 29.8332L52.4952 27.0273H53.9739L53.3889 32.0974H51.9156L50.3339 29.3132L50.0143 32.0974H48.541L49.126 27.0273Z" fill="#38655D"/>
<path d="M54.4932 27.0273H56.1182L56.8386 30.6782L58.3823 27.0273H59.9748L57.5048 32.0974H55.8094L54.4932 27.0273Z" fill="#38655D"/>
<path d="M59.7694 29.5688C59.8215 28.8323 60.1482 28.1422 60.6849 27.635C61.241 27.1585 61.9573 26.9107 62.689 26.9417C63.0322 26.9133 63.3774 26.9596 63.7009 27.0775C64.0245 27.1953 64.3186 27.3818 64.5632 27.6242C64.7729 27.889 64.923 28.1959 65.0034 28.524C65.0838 28.8521 65.0925 29.1937 65.029 29.5255C64.9847 30.0407 64.8236 30.539 64.5578 30.9825C64.3212 31.3592 63.9884 31.6659 63.5936 31.8709C63.1492 32.0704 62.6687 32.1772 62.1816 32.1847C61.6945 32.1921 61.211 32.1001 60.7607 31.9142C60.4013 31.7233 60.1155 31.4185 59.9482 31.0475C59.7543 30.5803 59.6925 30.0688 59.7694 29.5688ZM61.3349 29.5688C61.2576 29.9371 61.3132 30.3209 61.4919 30.6521C61.579 30.7643 61.692 30.8535 61.8214 30.912C61.9507 30.9705 62.0923 30.9966 62.234 30.9879C62.3859 30.9933 62.5372 30.9667 62.6781 30.9098C62.8191 30.8528 62.9464 30.7669 63.0519 30.6575C63.3093 30.3167 63.4533 29.9037 63.4636 29.4767C63.5407 29.1195 63.4808 28.7464 63.2957 28.4313C63.2066 28.3204 63.0923 28.2325 62.9622 28.175C62.8321 28.1175 62.6901 28.0921 62.5482 28.1009C62.3995 28.0992 62.2521 28.1282 62.1151 28.186C61.9781 28.2437 61.8545 28.3291 61.7519 28.4367C61.4929 28.7604 61.3465 29.1598 61.3349 29.5742V29.5688Z" fill="#38655D"/>
<path d="M66.2198 27.0273H67.7906L67.2056 32.0974H65.6348L66.2198 27.0273Z" fill="#38655D"/>
<path d="M71.9456 30.0249L73.2673 30.442C73.1499 30.795 72.9661 31.1223 72.7256 31.4061C72.5073 31.6605 72.2328 31.8608 71.9239 31.9911C71.5578 32.1312 71.1675 32.1975 70.7756 32.1861C70.323 32.2036 69.872 32.1223 69.4539 31.9478C69.0998 31.7619 68.8164 31.4651 68.6469 31.1028C68.4294 30.6173 68.3597 30.0785 68.4464 29.5536C68.4938 28.8204 68.8124 28.1311 69.3402 27.6199C69.8853 27.1516 70.5887 26.9094 71.3064 26.9428C71.8236 26.908 72.3378 27.0451 72.7689 27.3328C73.131 27.6353 73.3715 28.0586 73.446 28.5245L72.0269 28.8278C72.0119 28.7094 71.9732 28.5951 71.9131 28.492C71.8444 28.3754 71.7451 28.2799 71.626 28.2157C71.4974 28.1486 71.354 28.1151 71.2089 28.1182C71.0415 28.115 70.8758 28.1521 70.7259 28.2266C70.5759 28.3011 70.4462 28.4108 70.3477 28.5461C70.1502 28.8428 70.0361 29.187 70.0173 29.5428C69.9285 29.9305 69.9724 30.3368 70.1419 30.6966C70.2193 30.8029 70.3227 30.8876 70.4421 30.9427C70.5616 30.9977 70.6932 31.0211 70.8244 31.0107C70.9532 31.0179 71.0822 30.9996 71.204 30.9569C71.3258 30.9141 71.4379 30.8478 71.5339 30.7616C71.7248 30.5501 71.8655 30.2983 71.9456 30.0249Z" fill="#38655D"/>
<path d="M74.4208 27.0273H78.6187L78.4941 28.1107H75.8616L75.7695 28.9178H78.207L78.0878 29.9523H75.6666L75.5528 30.949H78.2612L78.1312 32.0974H73.8574L74.4208 27.0273Z" fill="#38655D"/>
<path d="M100.454 45.3313H43.8711L44.6078 38.918H101.19L100.454 45.3313Z" fill="#38655D"/>
<path opacity="0.8" d="M100.454 45.332H43.8718L43.2705 50.5645H99.853L100.454 45.332Z" fill="white"/>
<path d="M96.5428 79.2843H79.3232L79.6753 76.1914H96.9003L96.5428 79.2843Z" fill="#38655D"/>
<path opacity="0.8" d="M96.5433 79.2852H79.3237L79.0312 81.8147H96.2508L96.5433 79.2852Z" fill="white"/>
<path opacity="0.5" d="M99.2456 55.8004H42.6631L43.2698 50.5625H99.8523L99.2456 55.8004Z" fill="white"/>
<path opacity="0.8" d="M99.2463 55.8008H42.6638L42.0625 61.0387H98.645L99.2463 55.8008Z" fill="white"/>
<path opacity="0.5" d="M98.044 66.2716H41.4561L42.0627 61.0391H98.6452L98.044 66.2716Z" fill="white"/>
<path opacity="0.8" d="M98.0427 66.2734H41.4548L40.8535 71.5113H97.436L98.0427 66.2734Z" fill="white"/>
</g>
<defs>
<clipPath id="clip0_301_38736">
<rect width="185.25" height="117" fill="white" transform="translate(0.375)"/>
</clipPath>
</defs>
</svg>
