<svg xmlns="http://www.w3.org/2000/svg" width="29" height="29" viewBox="0 0 29 29" fill="none">
  <g clip-path="url(#clip0_274_35675)">
    <path d="M8.35907 11.4537H12.507C12.865 11.4537 13.1552 11.1636 13.1552 10.8056C13.1552 10.4476 12.865 10.1575 12.507 10.1575H8.35907C8.0011 10.1575 7.71094 10.4476 7.71094 10.8056C7.71094 11.1636 8.00117 11.4537 8.35907 11.4537Z" fill="#1D1C1D"/>
    <path d="M16.3959 14.3704H8.35907C8.0011 14.3704 7.71094 14.6605 7.71094 15.0185C7.71094 15.3765 8.0011 15.6666 8.35907 15.6666H16.3958C16.7538 15.6666 17.0439 15.3765 17.0439 15.0185C17.0439 14.6605 16.7538 14.3704 16.3959 14.3704Z" fill="#1D1C1D"/>
    <path d="M16.3959 18.583H8.35907C8.0011 18.583 7.71094 18.8732 7.71094 19.2311C7.71094 19.5891 8.0011 19.8793 8.35907 19.8793H16.3958C16.7538 19.8793 17.0439 19.5891 17.0439 19.2311C17.0439 18.8732 16.7538 18.583 16.3959 18.583Z" fill="#1D1C1D"/>
    <path d="M25.6647 23.444V3.02802C25.7189 1.72265 24.7046 0.620476 23.3993 0.566263C23.3443 0.563968 23.2892 0.563596 23.2343 0.565147H9.29948C7.87359 0.565147 6.54495 1.60213 6.54495 3.02802V4.12982H5.41078C3.92807 4.16238 2.72405 5.33806 2.65625 6.81953V27.2679C2.69843 27.663 2.94431 28.0072 3.30438 28.1753C3.6771 28.3399 4.11235 28.2631 4.40618 27.9808L6.38294 26.1985L8.74861 28.3049C8.92508 28.4686 9.15607 28.5609 9.39674 28.5642C9.63623 28.5552 9.8653 28.4636 10.0449 28.3049L12.3781 26.1985L14.7113 28.3049C15.0804 28.635 15.6385 28.635 16.0076 28.3049L18.3733 26.1985L20.3177 27.9808C20.553 28.2706 20.9611 28.3522 21.2898 28.1753C21.6118 27.9905 21.8004 27.6384 21.7759 27.2679V22.6662L22.1648 22.3745L24.1415 24.1569C24.3243 24.3313 24.5696 24.4247 24.822 24.4162C24.9341 24.4263 25.0466 24.4038 25.1461 24.3514C25.4868 24.1818 25.6915 23.8236 25.6647 23.444ZM20.4797 26.555L18.9566 25.0643C18.6134 24.7135 18.0535 24.6991 17.6927 25.0319L15.327 27.1383L13.0262 25.0319C12.6473 24.7286 12.1088 24.7286 11.7299 25.0319L9.39668 27.1383L7.031 25.0319C6.6223 24.697 6.03025 24.7107 5.63755 25.0643L3.95244 26.555V6.81959C4.01726 6.05367 4.64263 5.4561 5.41072 5.42614H19.3454C20.0584 5.42614 20.4797 6.10664 20.4797 6.81959V26.555ZM24.3684 3.02802V22.7311L22.7481 21.2404C22.4889 20.9811 22.4241 20.9163 21.776 21.0135V6.81959C21.776 5.3937 20.7714 4.12988 19.3455 4.12988H7.84121V3.02802C7.84121 2.31507 8.58653 1.8614 9.29948 1.8614H23.2342C23.8236 1.82307 24.3325 2.26973 24.3708 2.85912C24.3745 2.91538 24.3737 2.97188 24.3684 3.02802Z" fill="#1D1C1D"/>
  </g>
  <defs>
    <clipPath id="clip0_274_35675">
      <rect width="28" height="28" fill="white" transform="translate(0.161133 0.564209)"/>
    </clipPath>
  </defs>
</svg>