<svg xmlns="http://www.w3.org/2000/svg" width="20" height="21" viewBox="0 0 20 21" fill="none">
  <path d="M13.1503 2.18726H6.85033C3.70033 2.18726 2.91699 3.02892 2.91699 6.38726V15.7706C2.91699 17.9873 4.13366 18.5123 5.60866 16.9289L5.61699 16.9206C6.30033 16.1956 7.34199 16.2539 7.93366 17.0456L8.77533 18.1706C9.45033 19.0623 10.542 19.0623 11.217 18.1706L12.0587 17.0456C12.6587 16.2456 13.7003 16.1873 14.3837 16.9206C15.867 18.5039 17.0753 17.9789 17.0753 15.7623V6.38726C17.0837 3.02892 16.3003 2.18726 13.1503 2.18726ZM6.48366 10.5206C6.02533 10.5206 5.65033 10.1456 5.65033 9.68726C5.65033 9.22892 6.02533 8.85392 6.48366 8.85392C6.94199 8.85392 7.31699 9.22892 7.31699 9.68726C7.31699 10.1456 6.94199 10.5206 6.48366 10.5206ZM6.48366 7.18726C6.02533 7.18726 5.65033 6.81226 5.65033 6.35392C5.65033 5.89559 6.02533 5.52059 6.48366 5.52059C6.94199 5.52059 7.31699 5.89559 7.31699 6.35392C7.31699 6.81226 6.94199 7.18726 6.48366 7.18726ZM13.5253 10.3123H8.94199C8.60033 10.3123 8.31699 10.0289 8.31699 9.68726C8.31699 9.34559 8.60033 9.06226 8.94199 9.06226H13.5253C13.867 9.06226 14.1503 9.34559 14.1503 9.68726C14.1503 10.0289 13.867 10.3123 13.5253 10.3123ZM13.5253 6.97892H8.94199C8.60033 6.97892 8.31699 6.69559 8.31699 6.35392C8.31699 6.01226 8.60033 5.72892 8.94199 5.72892H13.5253C13.867 5.72892 14.1503 6.01226 14.1503 6.35392C14.1503 6.69559 13.867 6.97892 13.5253 6.97892Z" fill="white"/>
</svg>