<svg xmlns="http://www.w3.org/2000/svg" width="77" height="93" viewBox="0 0 77 93" fill="none">
  <g clip-path="url(#clip0_157_4321)">
    <g opacity="0.3">
      <g opacity="0.4">
        <path d="M6.47225 10.2586L13.1152 63.1152L-2.37012 12.1433L6.47225 10.2586Z" fill="#EBEBEB"/>
        <path d="M-19.0679 20.662L13.1133 63.1155L-25.7832 26.7153L-19.0679 20.662Z" fill="#EBEBEB"/>
        <path d="M-35.982 42.4397L13.1145 63.1151L-38.7711 51.0398L-35.982 42.4397Z" fill="#EBEBEB"/>
        <path d="M-39.7412 69.7583L13.1154 63.1153L-37.8565 78.6007L-39.7412 69.7583Z" fill="#EBEBEB"/>
        <path d="M-29.3374 95.2962L13.1162 63.115L-23.2841 102.012L-29.3374 95.2962Z" fill="#EBEBEB"/>
        <path d="M-7.5603 112.212L13.1151 63.1153L1.03981 115.001L-7.5603 112.212Z" fill="#EBEBEB"/>
        <path d="M19.7578 115.972L13.1148 63.1152L28.5999 114.087L19.7578 115.972Z" fill="#EBEBEB"/>
        <path d="M45.2955 105.569L13.1143 63.1152L52.0108 99.5155L45.2955 105.569Z" fill="#EBEBEB"/>
        <path d="M62.2108 83.7906L13.1143 63.1152L64.9996 75.1906L62.2108 83.7906Z" fill="#EBEBEB"/>
        <path d="M65.9715 56.4721L13.1149 63.115L64.0868 47.6299L65.9715 56.4721Z" fill="#EBEBEB"/>
        <path d="M55.5678 30.9341L13.1142 63.1153L49.5145 24.2187L55.5678 30.9341Z" fill="#EBEBEB"/>
        <path d="M33.7908 14.0186L13.1154 63.1151L25.1908 11.2297L33.7908 14.0186Z" fill="#EBEBEB"/>
      </g>
    </g>
    <path d="M20.841 105.076L22.9455 102.215C22.9455 102.215 14.7698 91.5301 12.8882 88.5804C11.0067 85.6308 6.77994 72.0575 6.77994 72.0575L4.42544 72.6309L4.26854 88.2888L20.841 105.076Z" fill="#FFC727"/>
    <path opacity="0.1" d="M20.841 105.076L22.9455 102.215C22.9455 102.215 14.7698 91.5301 12.8882 88.5804C11.0067 85.6308 6.77994 72.0575 6.77994 72.0575L4.42544 72.6309L4.26854 88.2888L20.841 105.076Z" fill="black"/>
    <path d="M-7.98708 77.0962C-7.98708 77.0962 -5.97505 91.4337 -3.73198 97.0592C-1.4889 102.685 4.49819 112.162 4.49819 112.162L20.8398 105.077C20.8398 105.077 12.9536 94.2336 11.103 91.2314C7.11365 84.7601 4.42423 72.6318 4.42423 72.6318L-7.98708 77.0962Z" fill="#FFC727"/>
    <path d="M3.80495 113.381L20.8395 105.076L22.944 102.215L15.6493 91.7159L15.0248 91.6329L12.6762 93.594L-1.76862 101.293L-1.99862 100.754L-2.35799 102.223L3.80495 113.381Z" fill="#37474F"/>
    <path d="M-2.35799 102.223L13.1226 93.9794L15.6493 91.7159L15.0248 91.6329L12.6762 93.594L-1.76862 101.293L-1.99862 100.754L-2.35799 102.223Z" fill="#455A64"/>
    <path d="M13.1241 93.9793L20.841 105.076L22.9455 102.215L15.6508 91.7158L13.1241 93.9793Z" fill="#263238"/>
    <path opacity="0.15" d="M8.3251 76.8392L5.71465 77.4623L-6.95468 83.5384C-7.59118 79.9115 -7.98667 77.0951 -7.98667 77.0951L4.42398 72.632L6.7789 72.0595C6.7789 72.0595 7.42609 74.1348 8.3251 76.8392Z" fill="black"/>
    <path d="M21.7316 17.3276C21.7316 17.3276 14.3602 34.9496 0.198328 47.88C-8.44412 55.773 -15.0041 59.7871 -15.6808 60.1836C-15.6808 60.1836 -19.5732 63.4617 -15.7841 71.6909C-11.3306 79.5808 -6.39446 78.3443 -6.39446 78.3443C-5.67694 78.0277 1.41798 75.0597 12.8766 72.674C31.6505 68.763 50.2524 73.1039 50.2524 73.1039C50.2612 73.0756 50.27 73.0472 50.2788 73.0189C46.6052 72.5418 41.3386 67.5532 36.1786 59.8897C35.8466 59.3971 35.5162 58.893 35.1879 58.3771C33.2705 55.3963 31.3883 52.0743 29.6157 48.476C27.7366 44.9325 26.1453 41.4615 24.8512 38.1618C24.6254 37.5937 24.41 37.0308 24.205 36.4731C21.013 27.8032 20.0521 20.6129 21.8162 17.3554C21.7879 17.3464 21.7597 17.3371 21.7316 17.3276Z" fill="#FFC727"/>
    <path d="M21.7336 17.3272C21.7336 17.3272 14.3623 34.9493 0.200797 47.8805C-8.4417 55.7733 -15.0019 59.7873 -15.6791 60.1829C-15.6791 60.1829 -18.7392 62.7616 -16.7893 69.0839C-16.767 69.163 -16.7405 69.24 -16.716 69.3181C-16.4765 70.0596 -16.1687 70.8487 -15.7821 71.6906C-11.3286 79.5805 -6.39231 78.3445 -6.39231 78.3445C-5.67433 78.029 1.42054 75.0607 12.8792 72.675C31.6526 68.763 50.2544 73.1036 50.2544 73.1036L50.2816 73.0199C46.6077 72.5423 41.3411 67.5537 36.1813 59.8905C35.8494 59.398 35.5184 58.8924 35.1903 58.3772C33.2737 55.3976 31.3907 52.0748 29.6178 48.4759C28.8708 47.0656 28.167 45.664 27.5098 44.2828C27.5055 44.2694 27.4992 44.2573 27.4919 44.2428C27.307 43.8563 27.1276 43.4695 26.9521 43.086C26.5014 42.1034 26.0735 41.1299 25.6703 40.1695C25.3851 39.4954 25.1144 38.8244 24.8528 38.1613C24.6273 37.5939 24.4121 37.0314 24.2073 36.4739C23.9719 35.8314 23.7456 35.1971 23.5351 34.5728C23.3562 34.0461 23.1868 33.5275 23.0267 33.0172C22.943 32.7471 22.8602 32.4791 22.7815 32.2141C20.7682 25.4845 20.3525 20.0637 21.8182 17.3563C21.7904 17.3474 21.7615 17.3364 21.7336 17.3272Z" fill="#FFC727"/>
    <path opacity="0.3" d="M21.0451 29.4092L20.7704 29.56L20.7798 29.5785L25.4836 39.8802L19.7036 30.7212L18.9453 31.1246L22.8544 40.2162L18.1724 32.4561L17.0448 33.0326L21.8177 44.5974L16.5249 36.371L15.0541 37.1566L18.6403 45.6116L14.3477 38.7748L12.6459 39.6501L15.7396 47.2835L12.6813 42.997L10.9184 43.9348L12.5765 48.3968L9.69062 44.5031L7.91701 45.5262L10.3678 51.1941L6.60506 46.2177L4.84912 47.1337L7.07538 53.9408L4.12614 50.1156L2.49073 51.0448L4.70972 56.5729L1.6715 53.0339L0.156207 53.9146L0.891341 55.9441L-0.822777 53.6187L-2.28529 54.4157L-0.679655 58.532L-2.5468 56.8331L-3.80968 57.7271L-3.26158 58.9962L-4.26238 57.8733L-5.52466 58.6067L-4.51483 61.5173L-6.90473 58.614L-8.04221 59.237L-7.28657 61.4886L-9.07001 59.3461L-10.0988 59.9136L-8.60995 64.307L-10.7782 61.1999L-11.6153 61.5608L-10.7494 65.4088L-12.03 63.8757L-12.7083 64.2536L-11.8829 66.5963L-13.6011 64.3996L-14.1098 64.6288L-13.1751 69.1478L-16.396 65.7977L-16.6481 65.9217L-15.9508 69.9257L-16.7926 69.0837C-16.7703 69.1628 -16.7438 69.2398 -16.7193 69.3179L-15.8939 70.1839L-15.772 70.124L-16.2901 66.349L-12.9614 70.0212L-12.576 69.8242L-13.3247 65.735L-11.1207 68.705L-10.513 68.3812L-11.286 66.0452L-10.282 67.2802L-9.54689 66.9224L-10.2197 63.6998L-7.34157 67.9932L-6.39423 67.5242L-7.98996 62.5674L-6.10714 64.879L-5.02197 64.2801L-5.68205 62.2459L-3.09888 65.4616L-1.87954 64.7864L-2.93584 61.6434L-1.24376 63.5716L0.0404353 62.7598L-0.925566 60.4812L0.78072 62.053L2.08467 61.1638L1.54152 59.7423L3.05357 61.8244L4.57883 61.0136L3.47045 57.9102L6.93987 61.9942L8.49269 61.0553L6.78416 56.7379L8.99686 59.6439L10.7055 58.7468L8.59493 52.2118L13.8674 59.2249L15.6285 58.2028L13.3047 52.8139L15.2178 55.3867L16.9928 54.4221L15.473 50.3626L19.0245 55.3255L20.7573 54.3696L18.5323 48.9458L23.1427 56.1966L24.7448 55.3541L20.4101 45.3293L25.0318 52.3596L26.3469 51.664L21.4857 40.2351L26.0144 47.5589L26.9738 47.058L21.9384 35.7387L27.4965 44.2869L27.5049 44.2827C27.5006 44.2693 27.4942 44.2572 27.4869 44.2428C27.3021 43.8562 27.1227 43.4695 26.9472 43.0859C26.4964 42.1034 26.0685 41.1299 25.6653 40.1694C25.3802 39.4954 25.1095 38.8243 24.8479 38.1613C24.6224 37.5939 24.4071 37.0313 24.2024 36.4739C23.967 35.8313 23.7407 35.197 23.5301 34.5727L22.1099 31.6236C22.4065 32.0772 22.7114 32.542 23.0217 33.0169C22.938 32.7468 22.8552 32.4788 22.7766 32.2138L21.0451 29.4092Z" fill="white"/>
    <path opacity="0.1" d="M50.2798 73.0194L50.2528 73.1029C50.2528 73.1029 31.6502 68.7636 12.8778 72.6754C4.11712 74.5004 -2.09199 76.6644 -4.85178 77.7236C-4.76512 77.7545 -4.71978 77.7684 -4.71978 77.7684L-4.43694 78.2779L-16.8349 83.5294C-16.8349 83.5294 -21.6173 83.0418 -24.9559 76.8452C-28.2043 70.8178 -26.2807 65.913 -26.2807 65.913C-26.0645 68.3745 -21.9816 72.9891 -17.9232 71.8641C-14.8675 71.0171 -14.7559 65.3427 -14.7559 65.3427C-14.7559 65.3427 -2.76362 72.791 17.1885 64.9231C23.7967 62.3173 30.4353 56.2139 31.36 51.8587C32.605 54.1763 33.889 56.356 35.1886 58.377C35.5176 58.8932 35.8464 59.3976 36.1801 59.8915C41.34 67.5529 46.6064 72.5427 50.2798 73.0194Z" fill="black"/>
    <path d="M21.7146 17.1592C22.0699 16.5144 22.535 16.0242 23.1142 15.706C27.9497 13.0604 38.7635 23.5589 47.2718 39.1408C55.7804 54.7227 58.7567 69.505 53.9268 72.1403C53.8312 72.192 53.7413 72.2333 53.6435 72.277C53.6144 72.293 53.583 72.3016 53.5514 72.3102C51.7058 73.0253 49.1071 72.0654 46.1547 69.8105C42.092 66.7032 37.3524 61.1492 32.9338 54.1158C31.8485 52.3966 30.7885 50.5861 29.759 48.6997C28.2028 45.8438 26.8226 43.0159 25.6538 40.2819C21.1882 29.8964 19.6194 20.9121 21.7146 17.1592Z" fill="#FFC727"/>
    <path opacity="0.6" d="M21.7146 17.1592C22.0699 16.5144 22.535 16.0242 23.1142 15.706C27.9497 13.0604 38.7635 23.5589 47.2718 39.1408C55.7804 54.7227 58.7567 69.505 53.9268 72.1403C53.8312 72.192 53.7413 72.2333 53.6435 72.277C53.6144 72.293 53.583 72.3016 53.5514 72.3102C51.7058 73.0253 49.1071 72.0654 46.1547 69.8105C42.092 66.7032 37.3524 61.1492 32.9338 54.1158C31.8485 52.3966 30.7885 50.5861 29.759 48.6997C28.2028 45.8438 26.8226 43.0159 25.6538 40.2819C21.1882 29.8964 19.6194 20.9121 21.7146 17.1592Z" fill="black"/>
    <path opacity="0.2" d="M52.9287 51.4111L29.2881 47.8245C29.4431 48.1175 29.5994 48.4089 29.7592 48.7002C30.7903 50.5871 31.8497 52.397 32.9349 54.1161C37.3535 61.151 42.0945 66.7032 46.1565 69.8095C49.1097 72.0657 51.7085 73.0255 53.5525 72.3115C53.5829 72.3018 53.6151 72.2935 53.6452 72.277C53.7423 72.2341 53.8328 72.1915 53.9279 72.1407C57.4482 70.2196 56.8216 61.8442 52.9287 51.4111Z" fill="black"/>
    <g opacity="0.1">
      <path d="M48.2239 40.9231L29.2906 47.8242L29.2901 47.8219L45.1167 35.3812C45.8465 36.596 46.5683 37.8502 47.272 39.1411C47.5963 39.736 47.9141 40.3322 48.2239 40.9231Z" fill="white"/>
      <path d="M42.9392 31.9296L29.2893 47.822L41.3967 29.6637C41.9132 30.3966 42.4299 31.1529 42.9392 31.9296Z" fill="white"/>
    </g>
    <path d="M26.193 41.497C27.2692 40.1568 28.7765 39.1296 30.5583 38.6429C35.0947 37.4033 39.7717 40.0727 41.0089 44.6014C42.2484 49.1376 39.5786 53.8146 35.0424 55.0541C34.5167 55.1977 33.9936 55.2901 33.473 55.3309C32.3878 53.612 31.3278 51.8013 30.2982 49.9151C28.742 47.059 27.3618 44.2311 26.193 41.497Z" fill="#FFC727"/>
    <path d="M23.4835 14.1586C26.3395 13.3782 30.1951 15.2542 34.7262 19.6511C39.3793 24.1658 44.2421 30.8646 48.4194 38.5148C52.5948 46.1619 55.6 53.8759 56.8824 60.2369C58.2817 67.1786 57.4765 71.6912 54.5536 73.2864C54.4331 73.3509 54.3245 73.4024 54.2085 73.4549C54.1129 73.5009 54.0278 73.5306 53.965 73.5494C51.7038 74.4027 48.8114 73.4812 45.3637 70.8475C41.0693 67.5626 36.2631 61.8676 31.8297 54.8108C30.7442 53.0905 29.6616 51.2438 28.614 49.3247C27.034 46.4243 25.6349 43.5552 24.4549 40.7953C19.7075 29.7543 18.256 20.6805 20.5745 16.5247C21.0552 15.6538 21.6988 14.9927 22.4883 14.5607C22.8048 14.3875 23.1369 14.2534 23.4835 14.1586ZM53.1562 71.0649C53.2077 71.0417 53.2572 71.0184 53.3089 70.9905C55.0163 70.0589 55.4075 66.1345 54.3226 60.7533C53.0906 54.6419 50.1802 47.1889 46.1269 39.7656C42.0721 32.3401 37.3774 25.8623 32.9076 21.5246C28.9702 17.704 25.4621 15.9054 23.7423 16.8514C23.3896 17.0448 23.1002 17.3509 22.8592 17.7888L22.8554 17.7953C21.3236 20.5394 21.9662 28.3968 26.8546 39.7658C28.0035 42.4525 29.3663 45.2476 30.9063 48.0747C31.927 49.9449 32.9813 51.7434 34.0389 53.4185C38.2506 60.1234 42.9554 65.7184 46.9492 68.773C49.5413 70.7524 51.7735 71.589 53.0812 71.0922L53.1562 71.0649Z" fill="#FFC727"/>
    <path opacity="0.2" d="M23.4835 14.1586C26.3395 13.3782 30.1951 15.2542 34.7262 19.6511C39.3793 24.1658 44.2421 30.8646 48.4194 38.5148C52.5948 46.1619 55.6 53.8759 56.8824 60.2369C58.2817 67.1786 57.4765 71.6912 54.5536 73.2864C54.4331 73.3509 54.3245 73.4024 54.2085 73.4549C54.1129 73.5009 54.0278 73.5306 53.965 73.5494C51.7038 74.4027 48.8114 73.4812 45.3637 70.8475C41.0693 67.5626 36.2631 61.8676 31.8297 54.8108C30.7442 53.0905 29.6616 51.2438 28.614 49.3247C27.034 46.4243 25.6349 43.5552 24.4549 40.7953C19.7075 29.7543 18.256 20.6805 20.5745 16.5247C21.0552 15.6538 21.6988 14.9927 22.4883 14.5607C22.8048 14.3875 23.1369 14.2534 23.4835 14.1586ZM53.1562 71.0649C53.2077 71.0417 53.2572 71.0184 53.3089 70.9905C55.0163 70.0589 55.4075 66.1345 54.3226 60.7533C53.0906 54.6419 50.1802 47.1889 46.1269 39.7656C42.0721 32.3401 37.3774 25.8623 32.9076 21.5246C28.9702 17.704 25.4621 15.9054 23.7423 16.8514C23.3896 17.0448 23.1002 17.3509 22.8592 17.7888L22.8554 17.7953C21.3236 20.5394 21.9662 28.3968 26.8546 39.7658C28.0035 42.4525 29.3663 45.2476 30.9063 48.0747C31.927 49.9449 32.9813 51.7434 34.0389 53.4185C38.2506 60.1234 42.9554 65.7184 46.9492 68.773C49.5413 70.7524 51.7735 71.589 53.0812 71.0922L53.1562 71.0649Z" fill="black"/>
  </g>
  <defs>
    <clipPath id="clip0_157_4321">
      <rect width="106.389" height="106.389" fill="white" transform="translate(-50 22.1785) rotate(-12.0325)"/>
    </clipPath>
  </defs>
</svg>