<svg xmlns="http://www.w3.org/2000/svg" width="29" height="29" viewBox="0 0 29 29" fill="none">
  <g clip-path="url(#clip0_274_35669)">
    <path d="M22.5723 14.1602C21.6734 12.7565 20.6401 11.6772 19.5587 10.9809C20.0057 10.6313 20.2939 10.0876 20.2939 9.47763C20.2939 8.76915 19.9053 8.15009 19.3302 7.82076L21.7678 3.09073L21.5065 2.75922C19.5744 0.307412 17.8585 0.972084 16.4795 1.50627C15.8387 1.7545 15.2334 1.989 14.6214 1.93644L14.5653 1.93163L14.5092 1.93644C13.8953 1.98916 13.3152 1.75286 12.7008 1.50272C11.3961 0.971647 9.77245 0.310639 7.84291 2.75922L7.59152 3.07821L9.82408 7.80715C9.23591 8.13292 8.8367 8.75947 8.8367 9.47763C8.8367 10.0876 9.1249 10.6313 9.57197 10.9809C8.49069 11.6771 7.45759 12.7563 6.55896 14.1599C5.0404 16.5315 4.13379 19.4458 4.13379 21.9556C4.13379 23.7208 4.59016 25.2125 5.45351 26.2695C6.4602 27.5018 7.9524 28.1267 9.88872 28.1267H19.2435C21.1796 28.1267 22.6716 27.5019 23.6782 26.2698C24.5416 25.213 24.9979 23.7215 24.9979 21.9565C24.9978 19.4466 24.0911 16.5322 22.5723 14.1602ZM12.2059 2.71831C12.889 2.99634 13.6612 3.31085 14.5654 3.2484C15.4577 3.30976 16.2514 3.00214 16.9537 2.73007C18.1822 2.25412 19.0225 1.92879 20.2082 3.25212L17.9835 7.56887H11.1629L9.13015 3.263C10.2952 1.94071 11.0339 2.24116 12.2059 2.71831ZM10.747 10.0739C10.4173 10.0739 10.1491 9.80647 10.1491 9.47763C10.1491 9.15443 10.4229 8.88132 10.747 8.88132H18.3835C18.7076 8.88132 18.9814 9.15443 18.9814 9.47763C18.9814 9.80647 18.7133 10.0739 18.3835 10.0739H16.7491H12.3814H10.747ZM22.6618 25.4394C21.9166 26.3516 20.7665 26.8142 19.2435 26.8142H9.88872C6.217 26.8142 5.44629 24.172 5.44629 21.9555C5.44629 19.7202 6.29619 17.0042 7.66425 14.8675C9.08082 12.6552 10.8001 11.3864 12.3815 11.3864H16.7492C20.2561 11.3864 23.6854 17.4389 23.6854 21.9564C23.6854 23.4154 23.3314 24.6198 22.6618 25.4394ZM13.2984 17.8005C13.2984 18.471 13.5801 18.6197 14.6998 18.855C15.6733 19.0596 17.1446 19.3689 17.1446 21.1953C17.1446 22.2863 16.3269 23.2059 15.2215 23.4716V24.6708H13.9091V23.4716C12.8036 23.206 11.9859 22.2863 11.9859 21.1953H13.2984C13.2984 21.7695 13.8667 22.2366 14.5653 22.2366C15.2638 22.2366 15.8322 21.7695 15.8322 21.1953C15.8322 20.5237 15.5503 20.3749 14.4299 20.1394C13.4567 19.9349 11.986 19.6257 11.986 17.8004C11.986 16.7095 12.8037 15.7898 13.9091 15.5242V14.325H15.2216V15.5242C16.327 15.7898 17.1447 16.7095 17.1447 17.8004H15.8322C15.8322 17.2263 15.2638 16.7592 14.5653 16.7592C13.8667 16.7593 13.2984 17.2264 13.2984 17.8005Z" fill="#1D1C1D"/>
  </g>
  <defs>
    <clipPath id="clip0_274_35669">
      <rect width="28" height="28" fill="white" transform="translate(0.56543 0.564209)"/>
    </clipPath>
  </defs>
</svg>