<svg xmlns="http://www.w3.org/2000/svg" width="28" height="28" viewBox="0 0 28 28" fill="none">
  <path d="M10.686 12.6816C10.5693 12.6699 10.4293 12.6699 10.301 12.6816C7.52434 12.5883 5.31934 10.3133 5.31934 7.51325C5.31934 4.65492 7.62934 2.33325 10.4993 2.33325C13.3577 2.33325 15.6793 4.65492 15.6793 7.51325C15.6677 10.3133 13.4627 12.5883 10.686 12.6816Z" stroke="#1D1C1D" stroke-width="1.3" stroke-linecap="round" stroke-linejoin="round"/>
  <path d="M19.1458 4.66675C21.4091 4.66675 23.2291 6.49841 23.2291 8.75008C23.2291 10.9551 21.4791 12.7517 19.2975 12.8334C19.2041 12.8217 19.0991 12.8217 18.9941 12.8334" stroke="#1D1C1D" stroke-width="1.3" stroke-linecap="round" stroke-linejoin="round"/>
  <path d="M4.85285 16.9867C2.02952 18.8767 2.02952 21.9567 4.85285 23.8351C8.06119 25.9817 13.3229 25.9817 16.5312 23.8351C19.3545 21.9451 19.3545 18.8651 16.5312 16.9867C13.3345 14.8517 8.07285 14.8517 4.85285 16.9867Z" stroke="#1D1C1D" stroke-width="1.3" stroke-linecap="round" stroke-linejoin="round"/>
  <path d="M21.3965 23.3333C22.2365 23.1583 23.0298 22.8199 23.6832 22.3183C25.5032 20.9533 25.5032 18.7016 23.6832 17.3366C23.0415 16.8466 22.2598 16.5199 21.4315 16.3333" stroke="#1D1C1D" stroke-width="1.3" stroke-linecap="round" stroke-linejoin="round"/>
</svg>